<svg width="89" height="88" viewBox="0 0 89 88" fill="none" xmlns="http://www.w3.org/2000/svg">
<g clip-path="url(#clip0_417_2898)">
<rect width="88" height="88" transform="translate(0.888672)" fill="#DE8CEC"/>
<path d="M50.2296 88C33.7273 88 17.311 88 0.888672 88C0.888672 58.6722 0.888672 29.3445 0.888672 0C30.2088 0 59.535 0 88.8887 0C88.8887 29.3222 88.8887 58.6611 88.8887 88C76.0429 88 63.1792 88 50.2296 88ZM6.78105 60.5262C6.14209 61.8339 5.50313 63.1416 4.83714 64.5867C4.29889 66.2818 4.18228 68.0164 4.32526 69.9299C4.38078 70.4301 4.40576 70.9359 4.49656 71.4297C5.36688 76.1626 8.04235 79.5617 12.2405 81.8081C14.0043 82.752 15.9338 83.1305 18.0621 83.3548C20.212 83.3515 22.3273 83.1675 24.4164 82.1563C26.4213 81.4147 28.0667 80.1719 29.5494 78.5086C29.8977 78.1026 30.2961 77.7291 30.5853 77.2846C31.5091 75.865 32.4011 74.4229 32.7238 72.578C32.9407 71.5544 33.1577 70.5309 33.3876 69.4464C33.4878 69.4589 33.6876 69.4839 33.8912 69.5093C33.7212 70.3901 33.5646 71.2014 33.3414 72.1412C33.3187 72.6647 33.1909 73.2099 33.2936 73.7074C33.562 75.0073 33.9313 76.2864 34.2571 77.5612C34.1729 77.6144 34.1242 77.6723 34.0786 77.67C33.523 77.6418 33.1521 77.7368 33.1908 78.4566C33.2312 79.2099 33.7286 79.0559 34.1591 79.0573C36.3293 79.0643 38.4997 79.052 40.6698 79.0675C41.1703 79.071 41.4764 78.9962 41.4762 78.3805C41.4761 77.78 41.2019 77.6467 40.6848 77.6801C40.2868 77.7059 39.8849 77.695 39.4869 77.6679C39.4403 77.6648 39.4077 77.4553 39.3952 77.215C39.8613 76.1133 40.3274 75.0117 40.9033 73.8532C41.1633 73.2496 41.4233 72.646 41.6344 72.1559C42.665 72.1559 43.6103 72.1559 44.6907 72.1805C45.1657 72.0346 45.7003 71.9813 46.1027 71.7225C46.8304 71.2548 47.3161 71.4874 47.9062 71.9814C48.8028 72.7319 49.7606 73.4179 50.7453 74.0489C51.0104 74.2188 51.4664 74.0909 51.8348 74.0997C51.8243 73.7286 51.8253 73.3566 51.7954 72.987C51.7876 72.8902 51.6836 72.8011 51.7367 72.6576C52.6265 71.8089 52.355 70.81 52.0628 69.8377C51.6828 68.5734 50.8771 67.3569 51.7749 65.8642C52.3535 64.2488 52.9321 62.6334 53.6242 60.9541C54.0878 59.5975 54.5515 58.2409 55.0733 56.7647C55.657 55.4816 55.9301 54.1682 55.441 52.8142C55.6735 52.6143 55.8781 52.4385 56.2083 52.2433C57.771 51.3331 59.3337 50.4228 61.0206 49.4933C61.8112 49.0405 62.6017 48.5878 63.4977 48.0748C63.4977 49.4086 63.4977 50.5678 63.4718 51.8864C63.4708 52.5087 63.4003 53.1405 63.4833 53.7514C63.6522 54.9934 63.3953 55.9519 61.9625 56.4088C61.7053 56.5703 61.4104 56.693 61.1974 56.9C60.2162 57.8538 59.2578 58.8311 58.1826 59.8452C57.0312 61.1988 56.3348 62.7916 55.7346 64.5881C55.1214 66.4512 55.166 68.3708 55.2191 70.4364C55.2751 70.7367 55.3306 71.0372 55.3871 71.3375C56.2621 75.9819 58.7796 79.4602 62.9744 81.6041C64.4058 82.3357 66.0481 82.6548 67.7544 83.1834C68.1242 83.1844 68.4958 83.2094 68.8635 83.1821C70.1632 83.0855 71.4616 82.9709 72.9016 82.8448C74.7513 82.5062 76.4445 81.8138 78.0418 80.6117C78.3729 80.3721 78.755 80.1792 79.0256 79.8842C79.887 78.9449 80.7068 77.9676 81.652 76.9576C82.2421 75.7167 82.8323 74.4758 83.5415 73.1702C84.1196 71.3906 84.1857 69.5611 84.0981 67.5635C84.0307 66.8943 84.047 66.2036 83.8819 65.5594C82.9338 61.8592 80.9828 58.8202 77.7762 56.6745C75.7412 55.3128 73.5133 54.4482 70.8755 54.3088C70.2802 54.3078 69.6807 54.2616 69.0906 54.3165C68.1878 54.4005 67.2915 54.5543 66.2528 54.6528C65.8053 54.7512 65.3579 54.8496 64.8527 54.9606C64.8527 54.2843 64.8527 53.6169 65.012 52.9324C66.6758 52.9223 68.3395 52.9122 70.1622 52.9273C70.933 52.9284 71.7066 52.9663 72.473 52.9087C72.711 52.8908 73.0602 52.6585 73.1324 52.4471C73.3441 51.8268 73.4423 51.1678 73.6449 50.4013C73.9212 49.1715 74.2125 47.9449 74.466 46.7104C74.5602 46.2515 74.3225 46.0406 73.8375 46.0483C72.2729 46.0732 70.7079 46.0734 68.9837 46.0572C67.7902 46.0572 66.5966 46.0572 65.3036 46.0572C65.6255 45.2449 65.9079 44.5319 66.2178 43.6902C66.539 42.8674 66.8908 42.0548 67.173 41.2188C67.4663 40.3501 66.6594 39.1237 65.7663 39.208C64.8011 39.2991 64.3925 38.8674 64.1231 38.0631C64.0005 37.6971 63.7715 37.3681 63.6163 37.0112C63.4264 36.5746 63.1394 36.4368 62.6416 36.4065C60.8514 36.2975 59.0665 36.1028 57.1463 35.9126C55.1806 35.3394 53.2297 34.7062 51.2434 34.2163C50.119 33.9389 49.344 33.4815 48.833 32.3619C47.6548 29.78 46.357 27.2511 45.0509 24.7301C44.7613 24.1711 44.3298 23.4982 43.8013 23.2903C42.784 22.8902 42.707 22.2485 42.8569 21.5065C43.3583 21.1845 43.7887 20.908 44.3024 20.61C44.3296 20.6008 44.3567 20.5916 44.474 20.598C44.5059 20.5487 44.5379 20.4994 44.6812 20.4014C45.3683 19.6022 45.6352 18.6864 45.6169 17.6261C45.6098 17.2153 45.8823 16.7572 46.1334 16.3938C46.6048 15.7114 47.1533 15.0823 47.7838 14.3725C48.3712 13.2304 48.3714 12.002 48.3436 10.7606C48.2994 8.78759 45.9081 6.24279 43.9319 6.18364C42.3076 6.13502 40.6801 6.19102 38.9202 6.17442C37.0067 6.54153 35.7879 7.89059 34.4672 9.29167C33.414 10.3657 32.3608 11.4397 31.1967 12.5617C30.3419 13.4179 30.1386 13.9662 30.701 14.3754C31.6572 15.0711 31.4564 15.7667 30.9585 16.5688C30.813 16.8034 30.6939 17.0559 30.5793 17.3077C30.349 17.8136 30.3672 18.2706 30.8234 18.6686C31.0767 18.8897 31.287 19.1602 31.4627 19.5217C31.0663 20.3203 30.6698 21.1188 30.267 21.9301C30.0342 21.9875 29.726 22.0633 29.2847 22.1568C28.63 22.4853 27.8264 22.676 27.3602 23.1791C26.841 23.7394 25.9737 24.2325 26.1256 25.3762C25.6874 27.3408 25.2493 29.3054 24.7828 31.4061C24.3822 33.0514 23.9634 34.6926 23.5905 36.3441C23.4489 36.9708 24.0265 37.8307 24.6371 37.9645C26.0243 38.2683 27.4104 38.5874 28.8108 38.8153C29.426 38.9154 29.4606 39.1609 29.3625 39.6759C29.1333 40.8793 28.961 42.0936 28.7364 43.4455C28.6815 43.5726 28.5916 43.6957 28.577 43.8273C28.3476 45.8869 28.1279 47.9477 27.8805 50.1627C27.8222 51.8473 27.7787 53.5327 27.6904 55.2157C27.6761 55.4886 27.4626 55.7511 27.2313 56.0745C26.9728 56.8689 26.5226 56.4805 26.121 56.2407C24.2752 55.138 22.3043 54.4353 19.9808 54.3095C19.4412 54.3083 18.9013 54.3195 18.3622 54.3036C16.8998 54.2604 15.4805 54.458 13.9936 54.9998C13.6881 55.1152 13.3571 55.1881 13.0818 55.3536C11.9835 56.0141 10.9025 56.7035 9.70596 57.4295C8.76796 58.4451 7.82996 59.4607 6.78105 60.5262Z" fill="#240F6E"/>
<path d="M33.574 72.1876C33.7305 71.3765 33.887 70.5653 34.0569 69.6847C33.8534 69.6593 33.6536 69.6344 33.5535 69.6219C33.3237 70.7061 33.1068 71.7295 32.8035 72.8029C32.3151 72.5739 31.9133 72.2947 31.5232 71.9479C31.6567 71.1423 31.7784 70.4043 31.9064 69.6278C31.3574 69.6278 30.9946 69.6278 30.6039 69.5765C30.0696 69.0924 29.5633 68.6597 29.0657 68.1532C28.8755 65.3367 27.6952 63.108 25.6408 61.3162C25.1456 61.9595 24.7078 62.5281 24.2599 63.037C23.9039 62.665 23.5581 62.3526 23.2227 61.9795C23.5125 61.5379 23.7739 61.1419 24.0771 60.781C24.3375 60.4711 24.3385 60.3185 23.9588 60.0733C22.6842 59.25 21.2664 58.9292 19.7841 58.6959C19.4939 58.1804 19.215 57.7217 19.0146 57.2506C20.9936 57.1007 22.7259 57.6678 24.3999 58.493C24.7419 58.6615 25.1059 58.7856 25.47 58.9901C25.8837 59.4165 26.2871 59.783 26.7432 60.1712C29.1965 62.3218 30.4316 65.0231 30.69 68.1812C31.0802 68.1812 31.4349 68.1812 31.9159 68.1812C31.7734 67.2914 31.6425 66.4738 31.5687 65.6676C32.1569 66.0133 32.6881 66.3475 33.2804 66.7209C33.3628 67.2354 33.384 67.7108 33.4109 68.3111C33.8391 68.2124 34.2035 68.1283 34.6048 68.0894C35.028 68.4565 35.4142 68.7784 35.7915 69.1692C35.8784 69.8306 35.1322 70.4685 35.9045 71.0317C36.4468 71.4273 36.9557 71.8689 37.5081 72.313C37.7391 72.005 37.8664 71.8351 38.0483 71.69C38.481 71.932 38.8592 72.1492 39.2285 72.4352C39.0679 73.2623 38.9161 74.0205 38.7643 74.7787C38.8207 74.7861 38.8771 74.7935 38.9335 74.8009C39.1932 74.3286 39.4529 73.8563 39.7726 73.3943C40.2073 73.6313 40.582 73.8579 40.9566 74.0846C40.4907 75.1861 40.0248 76.2875 39.4851 77.4497C39.1548 77.3489 38.8871 77.2023 38.6441 77.0224C38.263 76.7403 37.8986 76.4356 37.5147 76.0614C37.5022 75.2684 37.5022 74.5544 37.5022 74.0044C36.6995 73.5127 36.0062 73.0746 35.2931 72.6717C35.2206 72.6308 35.0283 72.8021 34.8316 72.8725C34.3724 72.6425 33.9732 72.4151 33.574 72.1876Z" fill="#77C2DA"/>
<path d="M44.3802 20.8154C43.9499 21.0919 43.5196 21.3683 43.0184 21.6903C42.8686 22.4321 42.9455 23.0737 43.9625 23.4737C44.4908 23.6816 44.9221 24.3543 45.2116 24.9132C46.5171 27.4337 47.8144 29.9621 48.9923 32.5436C49.503 33.663 50.2778 34.1203 51.4017 34.3976C53.3872 34.8875 55.3374 35.5205 57.3802 36.1645C57.7943 36.7513 58.1306 37.2672 58.3997 37.7963C58.1595 37.9533 57.8979 38.064 57.8293 38.247C57.5713 38.9353 57.3762 39.6471 57.1843 40.2638C58.6562 40.7916 60.4512 39.9959 61.5102 41.6498C61.7432 41.4758 61.8995 41.3591 62.1071 41.2696C62.4767 41.6314 62.795 41.9661 63.092 42.3543C63.0295 42.4471 62.9855 42.4838 62.9478 42.5261C61.7778 43.8425 61.3763 43.878 60.1959 42.5611C60.0211 42.366 59.7619 42.1556 59.5203 42.1258C57.7974 41.9134 56.0689 41.7461 54.3309 41.508C53.9852 40.976 53.6507 40.5005 53.3934 40.0347C54.1108 40.0445 54.7509 40.0445 55.5622 40.0445C55.7433 39.4925 55.9498 38.7234 56.2513 37.9936C56.4534 37.5042 56.3357 37.3994 55.853 37.2719C54.0624 36.7988 52.3014 36.2106 50.5045 35.7657C49.2872 35.4643 48.4223 34.9757 47.8699 33.7164C46.7541 31.1725 45.4517 28.7086 44.1764 26.2374C43.6907 25.2962 43.1462 24.3479 41.8429 24.3454C41.1966 24.3441 40.5505 24.2546 39.8929 24.1482C39.66 23.6901 39.4383 23.2886 39.2959 22.8746C40.1084 22.862 40.8416 22.862 41.6222 22.862C41.6222 22.5398 41.6215 22.316 41.6224 22.0922C41.6293 20.2901 41.6294 20.2901 43.3721 19.7852C43.7422 20.1467 44.0612 20.4811 44.3802 20.8154Z" fill="#CD95E9"/>
<path d="M27.5088 56.1958C27.6302 55.9285 27.8435 55.6661 27.8579 55.3932C27.9461 53.7105 27.9895 52.0255 28.1202 50.2676C28.5921 50.4207 28.9916 50.6474 29.4038 50.9538C29.4166 53.0345 29.4166 55.0355 29.4166 57.1171C30.2245 57.0561 31.0753 57.0371 31.9121 56.9189C33.4302 56.7046 34.94 56.4312 36.4824 56.2336C36.7829 56.7069 37.0541 57.129 37.2571 57.563C36.6808 57.7045 36.1728 57.8341 35.6437 57.969C36.0532 58.8038 36.396 59.6639 36.8752 60.4398C37.5092 61.4664 37.6737 62.4841 37.2463 63.6221C37.1844 63.787 37.3435 64.1716 37.5067 64.2616C38.4246 64.7676 39.375 65.2145 40.3639 65.7063C40.6229 65.1314 40.8552 64.6159 41.1412 64.125C41.5733 64.4249 41.9518 64.6999 42.3204 65.0406C41.7975 66.3834 41.2845 67.6605 40.7573 68.8808C40.3584 68.5128 39.9736 68.2014 39.5782 67.8252C39.8349 67.3143 39.7391 67.0501 39.2293 66.8456C38.6841 66.6271 38.1828 66.2992 37.6553 65.9594C36.9604 65.2436 36.2726 64.5876 35.5947 63.8608C35.6542 63.5758 35.7339 63.3633 35.747 63.1468C35.776 62.6687 35.9165 62.1304 35.7521 61.7207C35.3404 60.6945 34.8152 59.7086 34.2641 58.7474C34.131 58.5153 33.7165 58.3091 33.4392 58.3186C32.2697 58.3589 31.1031 58.4853 29.9243 58.5239C29.1117 57.7103 28.3102 56.953 27.5088 56.1958Z" fill="#88B9DD"/>
<path d="M28.933 43.4832C29.1283 42.2735 29.3006 41.0594 29.5297 39.8562C29.6278 39.3413 29.5932 39.0959 28.9783 38.9958C27.5784 38.7679 26.1928 38.4489 24.8061 38.1451C24.1957 38.0114 23.6184 37.1517 23.7599 36.5251C24.1327 34.8739 24.5513 33.233 25.0223 31.5312C25.4945 31.6961 25.896 31.9177 26.3104 32.2103C26.1102 33.309 25.8972 34.3368 25.6618 35.4724C26.0466 35.2407 26.3455 35.0608 26.6821 34.8646C26.7685 34.8214 26.8088 34.785 26.8821 34.7285C26.9236 34.7178 27.0069 34.6981 27.017 34.7572C27.3106 35.1895 27.5942 35.5627 27.8505 35.9889C27.4004 36.3193 26.9774 36.5967 26.5082 36.9044C27.5266 37.0999 28.4607 37.2792 29.4466 37.486C30.0931 38.0139 30.6876 38.5142 31.2947 39.0837C31.1899 39.6549 31.0724 40.1569 30.9375 40.7333C31.6642 40.7333 32.3139 40.7296 32.9636 40.7344C33.6159 40.7393 34.2682 40.7527 34.9317 40.8191C35.1646 41.2772 35.3863 41.6785 35.5283 42.0928C34.4278 42.1066 33.407 42.1083 32.3861 42.1085C30.3702 42.1088 30.3702 42.1084 30.1933 44.1603C29.7348 43.9277 29.3339 43.7054 28.933 43.4832Z" fill="#A0ACE1"/>
<path d="M66.343 43.9999C66.0607 44.7128 65.7783 45.4256 65.4566 46.2378C66.7491 46.2378 67.9422 46.2378 69.2174 46.3107C69.5271 46.783 69.7547 47.1823 69.911 47.5945C68.742 47.4271 68.9732 48.3244 68.7615 48.8855C69.744 49.0618 69.744 49.0618 70.2386 47.7929C70.6965 48.0831 71.0984 48.3621 71.5141 48.7055C71.7001 48.8511 71.8724 48.9324 72.0471 49.0743C72.6113 49.6578 73.173 50.1807 73.7347 50.7037C73.5922 51.3474 73.4941 52.0064 73.2824 52.6265C73.2102 52.8379 72.8612 53.0702 72.6233 53.0881C71.8572 53.1456 71.0839 53.1077 70.2312 53.0334C69.862 52.4884 69.5749 52.0165 69.291 51.474C69.3511 51.0813 69.408 50.7594 69.4916 50.2862C69.0204 50.3782 68.6275 50.4548 68.1784 50.5205C67.6536 50.0109 67.1852 49.5124 66.7831 49.0003C67.0713 48.5805 67.2932 48.1742 67.5905 47.6298C66.5852 47.6298 65.7951 47.6298 64.9775 47.5785C64.5624 47.0896 64.1748 46.6522 63.792 46.1498C64.2067 45.1037 64.6165 44.1224 65.0824 43.1523C65.54 43.4423 65.9415 43.7211 66.343 43.9999ZM71.5701 51.7345C71.8287 51.3328 72.0873 50.9311 72.4083 50.4325C70.9015 50.3197 71.1808 50.2175 70.8494 51.6841C71.0447 51.7015 71.2342 51.7184 71.5701 51.7345Z" fill="#D093EA"/>
<path d="M27.4539 56.225C28.3103 56.9542 29.1117 57.7115 29.8626 58.5377C29.6467 58.6149 29.4815 58.6231 29.2676 58.6338C29.691 59.1464 30.0956 59.6086 30.4699 60.0942C31.9727 62.0439 32.9388 64.2207 33.2188 66.6823C32.6876 66.3481 32.1564 66.0139 31.5546 65.6027C30.6764 63.0186 29.3932 60.8214 27.2308 58.9881C27.0234 59.4337 26.8567 59.7919 26.6899 60.1501C26.2865 59.7836 25.8831 59.4171 25.4924 58.9383C25.8883 58.4635 26.1802 58.0516 25.4857 57.7655C24.118 57.2024 22.7246 56.7017 21.3306 56.1187C20.9831 55.546 20.6468 55.0298 20.3105 54.5137C22.4739 54.6142 24.444 55.3167 26.2892 56.4192C26.6905 56.659 27.1406 57.0473 27.4539 56.225Z" fill="#7EBEDB"/>
<path d="M56.2392 52.4405C56.0347 52.6163 55.8303 52.792 55.5978 52.9918C56.0868 54.3456 55.8138 55.6588 55.1438 56.9911C54.6564 56.8184 54.2555 56.5962 53.8432 56.3067C54.014 55.4558 54.5705 54.7094 54.1057 53.8345C53.2444 54.3006 52.4211 54.7461 51.5878 55.1323C51.2926 54.6951 51.0074 54.3173 50.7486 53.8846C51.6666 53.3411 52.5582 52.8527 53.6279 52.2667C52.5806 51.6461 51.6374 51.0871 50.7109 50.5381C50.053 51.0382 49.4355 51.5076 48.7575 51.9483C48.3408 51.5636 47.9848 51.2075 47.654 50.7977C48.1259 50.4335 48.5727 50.123 49.0358 49.801C48.5193 49.5077 48.0752 49.2554 47.6238 48.9427C47.3878 48.537 47.172 48.1825 46.9275 47.8489C46.6054 47.4095 46.2609 46.9865 45.9893 46.5664C47.5985 47.3401 49.1687 48.0592 50.6834 48.8807C52.0477 49.6207 53.6207 50.0238 54.6867 51.2772C54.7689 51.3739 55.0402 51.3098 55.2851 51.349C55.6441 51.7319 55.9416 52.0862 56.2392 52.4405Z" fill="#B1A4E4"/>
<path d="M18.0762 83.5033C16.106 83.3041 14.1772 82.9256 12.4141 81.982C8.21754 79.736 5.54308 76.3375 4.67309 71.6055C4.58233 71.1118 4.55735 70.6061 4.57076 70.041C5.11265 70.3111 5.58563 70.6462 6.11648 71.0175C6.41654 72.7349 6.9951 74.2857 7.91337 75.7198C9.30803 77.8979 11.0585 79.6693 13.5159 80.6082C14.7295 81.0718 15.9819 81.4339 17.2193 81.9027C17.5067 82.4767 17.7915 82.99 18.0762 83.5033Z" fill="#45DDD1"/>
<path d="M71.1865 54.5137C73.664 54.6271 75.891 55.4916 77.9252 56.853C81.1306 58.9983 83.0809 62.0367 84.0287 65.7362C84.1937 66.3803 84.1774 67.0708 84.1758 67.8043C83.6316 67.5346 83.1564 67.2005 82.6217 66.832C82.4462 65.1386 81.7312 63.6756 80.9188 62.2904C79.7994 60.3816 78.3205 58.7435 76.297 57.7689C74.8693 57.0812 73.3383 56.6081 71.8906 56.0026C71.6807 55.4819 71.4336 54.9978 71.1865 54.5137Z" fill="#CF94EA"/>
<path d="M67.7466 83.3355C66.2013 82.828 64.5596 82.5089 63.1287 81.7775C58.9356 79.634 56.419 76.1564 55.5444 71.5128C55.4878 71.2126 55.4323 70.9122 55.4494 70.543C56.0361 70.8161 56.5497 71.1581 57.0772 71.5672C57.1466 71.7607 57.2253 71.882 57.2542 72.0142C57.7488 74.2732 58.8851 76.1862 60.446 77.8556C62.1251 79.6515 64.2191 80.7742 66.5564 81.554C66.9606 82.1855 67.3536 82.7605 67.7466 83.3355Z" fill="#95B2E0"/>
<path d="M53.6689 61.1954C53.0905 62.8105 52.5121 64.4256 51.8626 66.0946C51.3745 65.925 50.9575 65.7015 50.5497 65.4109C50.9657 64.1701 51.3725 62.9964 51.7931 61.7824C50.8936 61.4031 50.039 61.0189 49.1625 60.6934C48.9903 60.6295 48.7338 60.7927 48.4564 60.8407C47.9817 60.6056 47.5669 60.381 47.1411 60.0893C47.2505 59.5289 47.3709 59.0357 47.4913 58.5425C47.4382 58.5347 47.3851 58.527 47.3319 58.5192C47.1544 58.7236 46.9769 58.928 46.7403 59.1223C46.3062 58.8279 45.9313 58.5436 45.5807 58.2044C45.8068 57.8687 46.0087 57.5877 46.2829 57.206C45.5585 57.206 44.966 57.206 44.3622 57.1493C44.1292 56.6912 43.9076 56.2898 43.7656 55.8759C44.9953 55.8717 46.1454 55.8801 47.306 55.9464C47.9419 56.7071 48.5673 57.4098 49.1897 58.1774C49.1639 58.4705 49.1409 58.6987 49.1175 58.9322C50.2296 59.3981 51.3309 59.8594 52.4838 60.3485C52.9132 60.6493 53.291 60.9224 53.6689 61.1954Z" fill="#9FADE1"/>
<path d="M66.7173 49.0139C67.1858 49.5125 67.6542 50.011 68.1918 50.591C68.2062 50.9937 68.1513 51.3149 68.0691 51.796C68.516 51.7039 68.9022 51.6243 69.2884 51.5448C69.5755 52.0167 69.8625 52.4885 70.1522 53.021C68.4918 53.0917 66.8288 53.1018 65.0582 53.0691C64.5178 52.6531 64.0848 52.2799 63.6519 51.9067C63.6519 50.7477 63.6519 49.5888 63.6519 48.2552C62.7563 48.7681 61.966 49.2207 61.1036 49.6238C60.747 49.2001 60.4625 48.826 60.2051 48.3973C61.4173 47.6335 62.6025 46.9242 63.7877 46.2148C64.1753 46.6523 64.5629 47.0897 64.975 47.6552C64.9994 48.1706 64.9994 48.558 64.9994 49.0139C65.6393 49.0139 66.1783 49.0139 66.7173 49.0139ZM65.0122 51.6016C66.3401 51.9703 66.6178 51.7667 66.6385 50.4011C66.111 50.4011 65.5844 50.4011 64.9995 50.4011C64.9995 50.7748 64.9995 51.1085 65.0122 51.6016Z" fill="#C897E8"/>
<path d="M66.3572 43.9353C65.942 43.7208 65.5405 43.4419 65.0718 43.1091C65.0121 43.0265 65.0195 42.9979 65.0567 42.9429C65.1225 42.8765 65.1478 42.8304 65.1671 42.7127C65.2872 42.3429 65.4446 42.0467 65.5052 41.732C65.5615 41.439 65.5146 41.1263 65.5132 40.8222C65.1609 40.8883 64.738 40.8542 64.4714 41.042C63.9712 41.3943 63.5613 41.8749 63.1139 42.3021C62.7955 41.9674 62.4771 41.6327 62.1306 41.2171C62.3227 40.9158 62.5588 40.7087 62.7592 40.4713C63.0046 40.1805 63.5529 39.9886 63.131 39.4447C62.7161 38.91 62.8525 37.9301 61.7376 37.9632C60.6502 37.9956 59.5576 37.8512 58.4674 37.7843C58.1311 37.2684 57.7947 36.7525 57.4473 36.1797C59.2223 36.285 61.0066 36.4797 62.7961 36.5886C63.2937 36.6189 63.5806 36.7567 63.7704 37.1933C63.9255 37.5501 64.1545 37.879 64.277 38.2449C64.5463 39.0491 64.9548 39.4807 65.9196 39.3896C66.8124 39.3053 67.6189 40.5315 67.3258 41.4C67.0436 42.2358 66.692 43.0483 66.3572 43.9353Z" fill="#D790EB"/>
<path d="M26.3553 25.4363C26.1423 24.4156 27.0093 23.9226 27.5283 23.3624C27.9943 22.8594 28.7976 22.6687 29.522 22.3945C29.8212 22.8623 30.0505 23.2758 30.2154 23.7029C29.7365 23.8916 29.3219 24.0668 28.9073 24.242C28.9189 24.3026 28.9304 24.3632 28.942 24.4238C30.1344 24.6982 31.3268 24.9726 32.5199 25.3103C33.0986 25.9702 33.6765 26.5667 34.245 27.234C33.9546 28.4034 33.6737 29.502 33.3335 30.5902C32.8584 30.2978 32.4426 30.0158 32.0364 29.6678C32.2795 28.7036 32.5131 27.8056 32.7573 26.8669C32.1575 26.7418 31.6824 26.6428 31.1582 26.5334C30.9702 27.3406 30.7824 28.1471 30.5348 28.9222C30.0757 28.5989 29.6763 28.3068 29.2646 27.9444C29.3661 27.3156 29.48 26.7572 29.5953 26.1916C28.9355 26.0768 28.3441 25.9738 27.7396 25.8686C27.7154 26.0231 27.694 26.1594 27.6166 26.2847C27.1587 25.9946 26.757 25.7155 26.3553 25.4363Z" fill="#B7A0E5"/>
<path d="M37.5266 76.1406C37.8981 76.4357 38.2625 76.7403 38.6436 77.0224C38.8866 77.2024 39.1543 77.349 39.4714 77.513C39.5709 77.6293 39.6034 77.8387 39.65 77.8419C40.0478 77.8689 40.4496 77.8798 40.8475 77.8541C41.3644 77.8206 41.6384 77.9539 41.6386 78.5543C41.6387 79.1699 41.3328 79.2447 40.8325 79.2411C38.6632 79.2257 36.4936 79.238 34.3242 79.231C33.8939 79.2296 33.3967 79.3835 33.3563 78.6304C33.3176 77.9107 33.6884 77.8158 34.2438 77.8439C34.2894 77.8463 34.338 77.7884 34.4222 77.7351C34.0965 76.4606 33.7274 75.1818 33.4591 73.8821C33.3564 73.3847 33.4841 72.8396 33.5402 72.252C33.9727 72.4151 34.3719 72.6426 34.8437 72.9433C35.2642 74.5233 35.5928 76.0352 35.9895 77.529C36.0298 77.6806 36.5157 77.8531 36.7341 77.7935C37.5866 77.5609 37.4861 76.8032 37.5266 76.1406Z" fill="#70C6D9"/>
<path d="M44.4218 20.8064C44.0612 20.4828 43.7422 20.1484 43.3961 19.732C43.6152 19.3482 44.0371 19.0683 44.0778 18.7411C44.268 17.2107 44.3531 15.6674 44.4796 14.0808C43.4368 14.5625 42.619 14.9403 41.7979 15.2548C41.5001 14.8232 41.2057 14.4548 40.9395 14.028C41.2277 13.8795 41.5147 13.8329 41.7432 13.6917C42.588 13.1698 43.3876 12.5686 44.2588 12.0986C44.6127 11.9076 45.119 11.9033 45.5293 11.9725C45.6494 11.9928 45.7217 12.5554 45.7387 12.8736C45.7712 13.4801 45.7481 14.0895 45.7481 14.6976C45.7977 14.7088 45.8473 14.72 45.8969 14.7311C46.1432 14.347 46.3894 13.9629 46.6915 13.5905C47.1081 13.9408 47.4688 14.2794 47.8295 14.6179C47.3132 15.269 46.7649 15.898 46.2936 16.5802C46.0427 16.9436 45.7703 17.4016 45.7774 17.8123C45.7957 18.8724 45.5288 19.788 44.7503 20.6254C44.6133 20.6904 44.5753 20.7252 44.5448 20.768C44.5176 20.7772 44.4905 20.7864 44.4218 20.8064Z" fill="#DF8BED"/>
<path d="M63.6388 51.9863C64.0848 52.2799 64.5177 52.6531 64.9785 53.0776C65.0063 53.7962 65.0063 54.4635 65.0063 55.1397C65.5113 55.0286 65.9586 54.9302 66.4867 54.9012C66.7892 55.3721 67.011 55.7737 67.1655 56.1893C66.4522 56.4029 65.8063 56.6025 65.2035 56.7888C65.2035 57.2503 65.2035 57.634 65.2035 57.7865C66.6873 57.6117 68.1632 57.4378 69.6496 57.3221C69.8805 57.7959 70.1009 58.2116 70.2462 58.6199C68.5625 58.6999 66.9974 58.9797 65.4944 59.6085C65.1343 59.2088 64.8248 58.8338 64.46 58.5239C64.291 58.3804 64.0143 58.3636 63.7303 58.263C63.6061 58.0201 63.538 57.8036 63.4105 57.5765C62.9763 57.2244 62.6014 56.8828 62.2266 56.5413C63.5495 56.1307 63.8063 55.1725 63.6375 53.9307C63.5544 53.3199 63.6249 52.6882 63.6388 51.9863Z" fill="#BF9CE7"/>
<path d="M47.8872 14.5878C47.4695 14.2785 47.1088 13.9399 46.7024 13.5227C47.637 10.6739 46.3352 8.54998 44.1308 7.99484C42.8373 7.66908 41.432 7.78725 40.0658 7.64965C39.7757 7.19176 39.4967 6.78996 39.2178 6.38816C40.8432 6.37853 42.4701 6.32254 44.0938 6.37115C46.0692 6.43029 48.4596 8.97461 48.5038 10.9472C48.5316 12.1884 48.5314 13.4166 47.8872 14.5878Z" fill="#EA85EE"/>
<path d="M34.2538 27.1643C33.6759 26.5678 33.0979 25.9713 32.5774 25.3187C32.6094 25.0786 32.6458 24.8483 32.5484 24.7183C31.9861 23.9679 31.1846 23.7052 30.2792 23.6903C30.0499 23.2768 29.8206 22.8633 29.5879 22.3868C29.8925 22.2479 30.2006 22.1721 30.4334 22.1148C30.836 21.3036 31.2323 20.5052 31.7139 19.6621C32.1761 19.9454 32.553 20.2734 32.8993 20.6528C32.8083 20.879 32.748 21.0537 32.6746 21.2666C32.9381 21.2948 33.1555 21.318 33.3841 21.398C33.6171 21.8562 33.8387 22.2576 33.9879 22.6719C33.5383 22.6847 33.1611 22.6847 32.706 22.6847C33.2697 23.2101 33.7466 23.6547 34.2498 24.1237C34.5051 23.9737 34.8744 23.7567 35.2951 23.5672C35.6688 23.9253 35.9911 24.2559 36.289 24.6423C35.2779 25.2623 34.612 26.0879 34.2538 27.1643Z" fill="#BF9CE7"/>
<path d="M50.5397 65.4774C50.9567 65.7009 51.3737 65.9243 51.8481 66.159C51.0356 67.5325 51.8409 68.7488 52.2207 70.0127C52.5129 70.9849 52.7843 71.9836 51.7874 72.83C51.3616 72.493 51.0433 72.1582 50.7539 71.763C50.5318 70.4803 50.2808 69.2579 50.0298 68.0356C49.9533 68.0575 49.8768 68.0795 49.8002 68.1014C49.4255 68.7254 49.0508 69.3495 48.649 69.9222C48.2873 69.5522 47.9526 69.2335 47.6279 68.8508C48.3029 67.6549 48.4958 66.4302 48.4147 65.1426C48.9313 65.43 49.3876 65.7149 49.8676 66.0519C50.0002 66.1219 50.1833 66.1861 50.206 66.1499C50.3381 65.9388 50.4326 65.7041 50.5397 65.4774Z" fill="#93B3DF"/>
<path d="M39.5888 67.8906C39.9735 68.202 40.3583 68.5133 40.7525 68.9452C40.5602 69.4371 40.4538 69.7803 41.0406 69.9743C41.2233 69.6717 41.3918 69.3925 41.5863 69.1773C41.966 69.5957 42.3198 69.9502 42.6642 70.3684C42.6944 70.5583 42.7183 70.7849 42.7762 70.7939C43.0742 70.8404 43.3808 70.831 43.6957 70.8973C44.0435 71.4127 44.38 71.8717 44.7166 72.3308C43.7716 72.3308 42.8266 72.3308 41.7964 72.3308C41.5854 72.8209 41.3255 73.4243 41.0107 74.0562C40.5812 73.8579 40.2065 73.6313 39.7809 73.329C39.9183 72.8014 40.1314 72.3575 40.2808 71.8931C40.3287 71.7443 40.2085 71.5414 40.1652 71.3633C40.0031 71.4511 39.7987 71.5033 39.6884 71.6346C39.5059 71.8517 39.384 72.1197 39.2366 72.3663C38.8584 72.1491 38.4802 71.932 38.0576 71.6252C38.5384 70.3206 39.0636 69.1056 39.5888 67.8906Z" fill="#80BEDB"/>
<path d="M44.7847 72.3421C44.3807 71.8707 44.0441 71.4117 43.7705 70.884C44.2115 70.7629 44.5908 70.7179 44.9675 70.6565C46.1091 70.4703 46.8216 69.627 47.6186 68.9141C47.9533 69.2328 48.288 69.5515 48.6292 69.9731C48.5449 70.1922 48.4541 70.3084 48.3771 70.4069C48.8962 70.811 49.337 71.1993 49.8247 71.5153C50.0829 71.6827 50.4227 71.7243 50.7257 71.8227C51.044 72.1575 51.3624 72.4923 51.7317 72.8547C51.8425 72.9749 51.9464 73.064 51.9542 73.1608C51.9841 73.5302 51.9831 73.9022 51.9936 74.2733C51.6253 74.2645 51.1695 74.3923 50.9045 74.2225C49.9202 73.5916 48.9627 72.9057 48.0665 72.1553C47.4766 71.6615 46.9911 71.4289 46.2637 71.8965C45.8614 72.1552 45.327 72.2085 44.7847 72.3421Z" fill="#8AB8DD"/>
<path d="M32.9307 20.6013C32.5537 20.2733 32.1768 19.9453 31.7416 19.6054C31.4537 19.3453 31.2435 19.0749 30.9902 18.8538C30.5343 18.4558 30.5161 17.9989 30.7463 17.4932C30.8608 17.2414 30.9799 16.9889 31.1254 16.7544C31.623 15.9525 31.8237 15.2569 30.8679 14.5614C30.3057 14.1523 30.5089 13.6041 31.4466 12.7754C31.8644 13.121 32.1991 13.4392 32.5258 13.8189C33.7371 14.8699 33.3897 15.9418 32.6846 17.0336C32.6238 17.1277 32.5221 17.2321 32.5283 17.3258C32.5495 17.6436 32.4937 18.1007 32.6762 18.2509C33.5975 19.0092 33.5793 19.5492 32.9307 20.6013Z" fill="#C897E8"/>
<path d="M69.9831 47.5813C69.7555 47.182 69.5279 46.7827 69.2979 46.3234C70.8596 46.2537 72.424 46.2535 73.988 46.2287C74.4729 46.221 74.7105 46.4318 74.6163 46.8907C74.3629 48.1249 74.0717 49.3513 73.7656 50.6421C73.1738 50.1805 72.6121 49.6575 72.1162 49.0613C73.1032 48.9352 72.5585 48.0802 72.9467 47.7344C71.8957 47.2357 71.734 47.9907 71.5012 48.6409C71.0993 48.3619 70.6974 48.0828 70.2207 47.7464C70.0917 47.6532 70.0374 47.6172 69.9831 47.5813Z" fill="#D790EB"/>
<path d="M31.5112 72.0156C31.9131 72.2948 32.315 72.574 32.7729 72.8641C32.5672 74.5974 31.6756 76.0393 30.7521 77.4587C30.463 77.903 30.0648 78.2765 29.6097 78.6798C29.1866 78.3406 28.8704 78.0041 28.5771 77.6138C28.8064 77.297 29.0261 77.0434 29.2167 76.7694C30.2338 75.3073 31.1266 73.7836 31.5112 72.0156Z" fill="#6ACAD8"/>
<path d="M18.1551 83.5153C17.7917 82.9895 17.5069 82.4761 17.2959 81.8896C17.9436 81.8464 18.5308 81.9687 19.0891 81.8886C20.5893 81.6735 22.0772 81.372 23.5733 81.168C23.8693 81.5995 24.162 81.9679 24.4546 82.3363C22.4973 83.3406 20.3828 83.5245 18.1551 83.5153Z" fill="#4FD8D3"/>
<path d="M24.5203 82.3332C24.1622 81.9682 23.8696 81.5998 23.6016 81.1137C25.4841 80.2053 27.1307 79.1017 28.5544 77.668C28.8706 78.0045 29.1869 78.3411 29.5567 78.7027C28.2347 80.3459 26.5899 81.5884 24.5203 82.3332Z" fill="#5BD1D5"/>
<path d="M26.3242 25.498C26.7565 25.7158 27.1582 25.9949 27.6272 26.3534C27.5819 26.8869 27.4683 27.3408 27.3572 27.7953C27.0033 29.2432 26.6504 30.6914 26.2971 32.1396C25.8956 31.9179 25.4941 31.6963 25.0361 31.4634C25.4177 29.4879 25.8557 27.5237 26.3242 25.498Z" fill="#ADA6E3"/>
<path d="M28.9179 43.5547C29.3334 43.706 29.7343 43.9282 30.1805 44.2299C29.9476 46.4977 29.6693 48.6861 29.391 50.8745C28.9915 50.6478 28.592 50.4211 28.1328 50.1907C28.295 48.127 28.5147 46.0666 28.744 44.0074C28.7586 43.8759 28.8485 43.7527 28.9179 43.5547Z" fill="#93B3DF"/>
<path d="M20.2309 54.5008C20.6468 55.0296 20.983 55.5458 21.2584 56.1291C19.1566 55.807 17.1429 55.9284 15.143 56.4624C14.8529 56.0046 14.5739 55.6029 14.2949 55.2011C15.6526 54.6367 17.0715 54.4391 18.5333 54.4823C19.0722 54.4982 19.6119 54.487 20.2309 54.5008Z" fill="#75C4D9"/>
<path d="M57.063 71.5004C56.5495 71.1584 56.0359 70.8164 55.4619 70.4718C55.3231 68.5471 55.2785 66.6278 55.9624 64.707C56.45 64.8728 56.8667 65.0966 57.2749 65.3923C56.8075 67.4631 56.8133 69.4777 57.063 71.5004Z" fill="#9CAEE1"/>
<path d="M78.0682 80.8011C76.5938 81.987 74.9012 82.6793 72.9708 82.9654C72.5585 82.5224 72.2275 82.1319 71.9561 81.6976C73.9426 81.4514 75.5913 80.561 77.2045 79.6172C77.4991 80.0513 77.7836 80.4262 78.0682 80.8011Z" fill="#A5AAE2"/>
<path d="M60.178 48.4512C60.4625 48.8253 60.7469 49.1995 61.0414 49.6329C59.4894 50.6021 57.9273 51.5122 56.3024 52.432C55.942 52.0874 55.6444 51.7331 55.332 51.305C56.9375 50.3045 58.5578 49.3778 60.178 48.4512Z" fill="#BD9DE7"/>
<path d="M39.1501 6.375C39.496 6.78992 39.7749 7.19172 40.0036 7.68001C39.0976 8.16568 38.1933 8.48814 37.4018 8.98888C36.7938 9.37356 36.3278 9.98283 35.7476 10.4632C35.3775 10.1009 35.0584 9.76759 34.7393 9.43426C35.9521 8.07773 37.1705 6.72893 39.1501 6.375Z" fill="#DE8CEC"/>
<path d="M57.284 65.3205C56.8673 65.0967 56.4506 64.8729 55.9766 64.6377C56.492 62.969 57.1881 61.3765 58.4552 60.0117C58.9023 60.3319 59.2331 60.6636 59.5341 61.0419C58.7641 62.4992 58.0241 63.9098 57.284 65.3205Z" fill="#A8A8E3"/>
<path d="M82.6807 66.8652C83.1559 67.1994 83.6311 67.5335 84.1628 67.8786C84.3318 69.736 84.2658 71.5652 83.6005 73.3255C83.1374 72.9332 82.7618 72.5598 82.375 72.1167C82.4695 70.3197 82.5751 68.5925 82.6807 66.8652Z" fill="#C698E8"/>
<path d="M6.05877 70.9805C5.58579 70.6455 5.11281 70.3104 4.5834 69.9642C4.35909 68.1922 4.47565 66.4579 5.08343 64.7051C5.55551 64.9261 5.95786 65.2051 6.37258 65.5549C5.89833 67.3876 5.93937 69.1817 6.05877 70.9805Z" fill="#4FD8D3"/>
<path d="M71.8964 81.7414C72.2273 82.1319 72.5582 82.5224 72.9 82.9745C71.6125 83.1439 70.3147 83.2584 69.0155 83.355C68.6479 83.3824 68.2764 83.3573 67.8266 83.3459C67.3534 82.7604 66.9604 82.1853 66.626 81.543C68.3997 81.9993 70.1485 81.8612 71.8964 81.7414Z" fill="#9CAEE1"/>
<path d="M59.5633 60.9954C59.2324 60.6637 58.9015 60.332 58.5088 59.9892C59.4132 59.0094 60.3712 58.0323 61.352 57.0787C61.5649 56.8718 61.8597 56.7491 62.1715 56.5645C62.601 56.8829 62.9758 57.2244 63.3834 57.6316C62.216 58.6892 61.016 59.6811 59.7835 60.7028C59.7211 60.7833 59.6913 60.8339 59.6494 60.9233C59.6373 60.962 59.5633 60.9954 59.5633 60.9954Z" fill="#B5A1E5"/>
<path d="M78.1297 80.7931C77.7839 80.4263 77.4994 80.0514 77.2305 79.564C78.3176 78.3986 79.3891 77.3456 80.4968 76.3379C80.9189 76.6485 81.3046 76.9138 81.6904 77.1791C80.8548 78.1415 80.0353 79.1187 79.1742 80.0578C78.9037 80.3528 78.5218 80.5456 78.1297 80.7931Z" fill="#B2A3E4"/>
<path d="M14.2305 55.1895C14.5738 55.6026 14.8528 56.0043 15.0782 56.4756C13.6993 57.2357 12.374 57.9261 10.9976 58.5893C10.6274 58.2281 10.3083 57.894 9.98926 57.56C11.0763 56.8814 12.1569 56.1922 13.2548 55.5318C13.53 55.3663 13.8609 55.2935 14.2305 55.1895Z" fill="#6ACAD8"/>
<path d="M34.6863 9.45703C35.059 9.76822 35.3782 10.1015 35.726 10.5175C34.6811 11.6528 33.6075 12.7054 32.5338 13.758C32.1991 13.4398 31.8643 13.1215 31.502 12.7519C32.5271 11.6268 33.5798 10.553 34.6863 9.45703Z" fill="#D093EA"/>
<path d="M67.233 56.1746C67.0112 55.773 66.7894 55.3714 66.5566 54.9134C67.4443 54.7328 68.3403 54.579 69.2428 54.495C69.8327 54.44 70.432 54.4863 71.1067 54.5002C71.4334 54.9973 71.6805 55.4814 71.8132 55.9991C70.2103 56.0799 68.7216 56.1273 67.233 56.1746Z" fill="#C698E8"/>
<path d="M81.745 77.1558C81.3046 76.9142 80.9188 76.6489 80.5205 76.2835C81.1342 74.8514 81.7604 73.5195 82.3866 72.1875C82.7622 72.5608 83.1379 72.9342 83.5414 73.3588C82.9794 74.6508 82.3895 75.8915 81.745 77.1558Z" fill="#BD9DE7"/>
<path d="M53.7252 61.1632C53.2907 60.9221 52.9128 60.6491 52.4922 60.2807C52.9179 58.9152 53.3864 57.6451 53.8548 56.375C54.2557 56.5972 54.6566 56.8194 55.1149 57.0519C54.7089 58.4186 54.2454 59.7749 53.7252 61.1632Z" fill="#A8A8E3"/>
<path d="M6.35995 65.4834C5.9576 65.2044 5.55525 64.9253 5.09668 64.6357C5.67917 63.3175 6.31789 62.0101 7.04141 60.7285C7.45996 61.0728 7.79371 61.3911 8.10232 61.7655C7.50476 63.0421 6.93236 64.2627 6.35995 65.4834Z" fill="#58D3D4"/>
<path d="M8.1273 61.7106C7.79355 61.3923 7.4598 61.0739 7.09668 60.7047C8.00495 59.6385 8.9426 58.6231 9.93476 57.584C10.3083 57.8944 10.6274 58.2284 10.9713 58.6432C10.0399 59.7195 9.08359 60.7151 8.1273 61.7106Z" fill="#5DD0D5"/>
<path d="M44.5899 20.7745C44.5755 20.7239 44.6134 20.6891 44.6947 20.6484C44.6989 20.6837 44.6669 20.733 44.5899 20.7745Z" fill="#CD95E9"/>
<path d="M19.7947 58.7519C21.2657 58.9284 22.6835 59.2493 23.9581 60.0725C24.3377 60.3177 24.3368 60.4703 24.0764 60.7803C23.7732 61.1411 23.5118 61.5371 23.1682 62.0014C22.3956 63.0435 21.687 64.002 20.922 64.9859C20.606 65.4797 20.3502 65.65 19.6967 65.5381C18.7408 65.3745 17.6583 65.2729 16.8042 66.1609C14.9763 67.2808 15.0653 70.6682 16.7997 71.7216C18.3348 72.6538 19.7057 72.6441 21.406 71.4964C21.7154 70.9916 21.9334 70.4871 22.2382 70.0418C22.378 69.8374 22.6795 69.6484 22.9226 69.6277C23.652 69.5654 24.3889 69.5895 25.2025 69.5924C26.5346 69.6049 27.787 69.6049 29.2263 69.6049C28.9179 70.8397 28.6432 71.9394 28.3145 73.0662C27.6278 74.6634 26.4149 75.7897 25.231 77.0051C23.9609 77.6183 22.7684 78.2607 21.5227 78.7737C20.8782 79.039 20.1393 79.075 19.3675 79.2229C13.0026 79.0965 8.56473 74.5193 8.70335 68.203C8.80904 67.7759 8.84656 67.3849 8.90151 66.9964C9.12387 65.4242 9.93026 64.0972 10.7463 62.7294C11.9832 61.4312 13.2523 60.2626 14.8951 59.4709C16.5191 58.8618 18.1351 58.6591 19.7947 58.7519Z" fill="#240F6E"/>
<path d="M8.10233 61.7657C9.08377 60.7141 10.0401 59.7186 11.0227 58.6694C12.3742 57.9255 13.6995 57.2351 15.0895 56.5311C17.143 55.9275 19.1567 55.8062 21.2698 56.1847C22.7247 56.7006 24.1181 57.2013 25.4858 57.7644C26.1803 58.0505 25.8884 58.4624 25.4823 58.8773C25.1054 58.7851 24.7414 58.661 24.3994 58.4925C22.7254 57.6673 20.9932 57.1002 18.9356 57.2375C16.9896 57.1455 15.3063 57.4985 13.6979 58.4338C12.0049 59.1561 10.762 60.3492 9.59122 61.7234C8.37481 63.4611 7.51795 65.2941 7.26413 67.4543C7.30781 68.8051 7.20502 70.1079 7.45122 71.341C8.08326 74.5068 9.79476 76.9831 12.5202 78.7828C14.9664 80.3981 17.6401 80.8157 20.5515 80.5926C22.6429 80.2187 24.5264 79.5099 26.2146 78.1985C26.4689 77.9754 26.6593 77.7645 26.8711 77.5777C27.9768 76.6022 28.9158 75.5064 29.4842 74.0669C30.1706 72.6336 30.6938 71.2029 30.6313 69.6273C30.9941 69.6273 31.3569 69.6273 31.9059 69.6273C31.7779 70.4038 31.6562 71.1418 31.5227 71.9474C31.1263 73.7831 30.2335 75.3067 29.2164 76.7689C29.0258 77.0428 28.8061 77.2965 28.5768 77.6132C27.1301 79.1006 25.4836 80.2043 23.5977 81.0496C22.0768 81.3713 20.589 81.6728 19.0887 81.8879C18.5305 81.9679 17.9433 81.8457 17.293 81.8282C15.9818 81.4326 14.7294 81.0706 13.5158 80.6069C11.0584 79.668 9.30793 77.8967 7.91328 75.7186C6.995 74.2845 6.41645 72.7336 6.11638 71.0162C5.93912 69.1812 5.89808 67.3871 6.37233 65.5544C6.93237 64.2629 7.50478 63.0423 8.10233 61.7657Z" fill="#240F6E"/>
<path d="M24.2699 63.097C24.7077 62.5283 25.1454 61.9597 25.6407 61.3164C27.695 63.1082 28.8754 65.3369 28.9862 68.1566C27.4109 68.2435 25.9234 68.2534 24.3576 68.2508C23.9658 68.2371 23.6353 68.1701 23.3418 68.2461C22.1385 68.5575 22.2188 67.4247 21.8518 66.8704C21.7307 66.6874 22.0847 66.1899 22.2746 65.8103C22.9752 64.8886 23.6226 63.9928 24.2699 63.097Z" fill="#240F6E"/>
<path d="M33.2799 66.7203C32.9388 64.2196 31.9727 62.0428 30.4699 60.093C30.0956 59.6074 29.691 59.1452 29.2676 58.6326C29.4815 58.6219 29.6468 58.6137 29.8738 58.5929C31.1033 58.4854 32.2698 58.359 33.4393 58.3187C33.7166 58.3091 34.1311 58.5153 34.2642 58.7475C34.8153 59.7086 35.3405 60.6945 35.7522 61.7207C35.9166 62.1304 35.7761 62.6687 35.7471 63.1469C35.734 63.3634 35.6543 63.5758 35.5366 63.8946C35.422 64.2138 35.3768 64.4287 35.3289 64.643C35.0754 65.7767 34.8212 66.9102 34.5673 68.0437C34.2029 68.1278 33.8385 68.2118 33.4103 68.3106C33.3835 67.7102 33.3622 67.2349 33.2799 66.7203Z" fill="#240F6E"/>
<path d="M39.5784 67.8265C39.0639 69.1063 38.5387 70.3213 38.0034 71.6011C37.866 71.8358 37.7386 72.0057 37.5076 72.3137C36.9552 71.8697 36.4464 71.428 35.904 71.0324C35.1317 70.4692 35.8779 69.8313 35.8493 69.1359C36.1781 67.9142 36.4396 66.7954 36.7063 65.6543C37.0534 65.7872 37.358 65.9038 37.6626 66.0204C38.183 66.3005 38.6843 66.6284 39.2295 66.8469C39.7393 67.0514 39.8351 67.3156 39.5784 67.8265Z" fill="#240F6E"/>
<path d="M24.4355 68.2634C25.923 68.2535 27.4105 68.2436 28.9773 68.2305C29.5628 68.66 30.0691 69.0927 30.6034 69.5767C30.6937 71.2036 30.1705 72.6343 29.4565 74.0167C29.0381 73.6767 28.7034 73.3585 28.3687 73.0402C28.6434 71.9405 28.9181 70.8407 29.2266 69.6059C27.7872 69.6059 26.5348 69.6059 25.1915 69.5367C24.8789 69.0662 24.6572 68.6648 24.4355 68.2634Z" fill="#6FC7D8"/>
<path d="M26.7432 60.172C26.8572 59.7921 27.0239 59.4338 27.2313 58.9883C29.3938 60.8216 30.6769 63.0188 31.4981 65.5914C31.6425 66.4745 31.7734 67.2922 31.9159 68.182C31.4348 68.182 31.0802 68.182 30.6899 68.182C30.4315 65.0238 29.1964 62.3226 26.7432 60.172Z" fill="#240F6E"/>
<path d="M37.5138 76.0619C37.4857 76.8035 37.5862 77.5613 36.7337 77.7939C36.5153 77.8535 36.0294 77.681 35.9892 77.5294C35.5924 76.0356 35.2638 74.5237 34.9033 72.9461C35.0274 72.8025 35.2197 72.6312 35.2922 72.6722C36.0054 73.075 36.6986 73.5132 37.5013 74.0049C37.5013 74.5549 37.5013 75.2688 37.5138 76.0619Z" fill="#240F6E"/>
<path d="M13.7607 58.4294C15.3068 57.4987 16.99 57.1456 18.8575 57.2501C19.2149 57.7214 19.4939 58.1801 19.7841 58.6956C18.1357 58.6595 16.5198 58.8623 14.8513 59.4351C14.4134 59.0796 14.0871 58.7545 13.7607 58.4294Z" fill="#6FC7D8"/>
<path d="M37.6556 65.9608C37.3581 65.904 37.0535 65.7874 36.7065 65.6545C36.4397 66.7956 36.1782 67.9143 35.8584 69.0671C35.4139 68.7793 35.0277 68.4574 34.6045 68.0903C34.8215 66.9116 35.0756 65.7781 35.3291 64.6445C35.377 64.4302 35.4222 64.2152 35.5269 63.9668C36.2729 64.589 36.9608 65.2451 37.6556 65.9608Z" fill="#80BEDB"/>
<path d="M24.2593 63.0365C23.6222 63.9921 22.9748 64.8879 22.2151 65.7992C21.7279 65.5301 21.3532 65.2455 20.9785 64.9608C21.6872 64.0023 22.3958 63.0438 23.1581 62.0625C23.5576 62.3521 23.9033 62.6644 24.2593 63.0365Z" fill="#70C6D9"/>
<path d="M39.2278 72.4351C39.3841 72.1197 39.506 71.8516 39.6885 71.6345C39.7988 71.5032 40.0032 71.451 40.1653 71.3633C40.2086 71.5414 40.3288 71.7443 40.2809 71.893C40.1314 72.3574 39.9184 72.8014 39.721 73.3186C39.4523 73.8562 39.1925 74.3285 38.9328 74.8009C38.8764 74.7934 38.8201 74.786 38.7637 74.7786C38.9154 74.0204 39.0672 73.2622 39.2278 72.4351Z" fill="#240F6E"/>
<path d="M60.2053 48.3971C58.5581 49.3782 56.9378 50.3049 55.2709 51.2768C55.0409 51.3114 54.7696 51.3755 54.6874 51.2788C53.6214 50.0254 52.0483 49.6222 50.6841 48.8823C49.1694 48.0608 47.5992 47.3417 45.9627 46.5133C45.1775 46.1028 44.4668 45.7851 43.7937 45.4015C43.354 45.1509 42.8702 44.8782 42.5787 44.4868C41.8866 43.5575 41.2842 42.5598 40.6776 41.57C40.5588 41.3761 40.5152 41.0811 40.5559 40.854C40.7168 39.9568 40.925 39.068 41.1752 38.1427C41.4325 36.7331 41.4325 36.7331 43.0082 36.3457C43.2984 36.8044 43.5898 37.2737 43.8899 37.7373C44.7076 39 45.6551 40.1563 47.1355 40.6351C47.9974 40.9139 48.9232 41.0231 49.8296 41.1307C51.3301 41.3088 52.8381 41.4241 54.3429 41.5659C56.0697 41.7476 57.7982 41.9149 59.5211 42.1273C59.7627 42.1571 60.0219 42.3674 60.1967 42.5625C61.3771 43.8795 61.7786 43.8439 62.9486 42.5276C62.9862 42.4852 63.0303 42.4485 63.0928 42.3558C63.5616 41.8751 63.9714 41.3945 64.4717 41.0423C64.7383 40.8545 65.1612 40.8885 65.5135 40.8225C65.5149 41.1265 65.5618 41.4393 65.5055 41.7322C65.4449 42.047 65.2875 42.3431 65.1235 42.7282C65.0589 42.8625 65.0431 42.916 65.0273 42.9695C65.0198 42.9981 65.0124 43.0267 65.016 43.0982C64.6173 44.1223 64.2074 45.1035 63.7928 46.1497C62.6027 46.9239 61.4175 47.6333 60.2053 48.3971Z" fill="#240F6E"/>
<path d="M34.245 27.2342C34.6127 26.087 35.2785 25.2614 36.3607 24.6376C37.6059 24.4536 38.7554 24.3293 39.905 24.2051C40.5512 24.2547 41.1973 24.3442 41.8436 24.3455C43.1469 24.348 43.6914 25.2963 44.1771 26.2376C45.4524 28.7088 46.7548 31.1726 47.8706 33.7165C48.423 34.9758 49.2879 35.4644 50.5052 35.7658C52.3021 36.2108 54.0631 36.7989 55.8537 37.272C56.3364 37.3995 56.4541 37.5043 56.252 37.9937C55.9505 38.7235 55.744 39.4926 55.5629 40.0446C54.7516 40.0446 54.1115 40.0446 53.3556 39.9725C51.782 39.7769 50.3162 39.7111 48.8689 39.5117C47.7163 39.3528 46.6397 38.8811 45.9544 37.8855C44.6504 35.9911 43.4126 34.0511 42.1402 32.1347C41.4968 31.1656 40.8795 30.1737 40.1585 29.2651C39.9652 29.0214 39.4046 28.9183 39.0707 28.997C38.8882 29.0401 38.6335 29.7792 38.7423 29.896C39.5685 30.783 38.7263 31.1578 38.2609 31.6162C37.931 31.9411 37.521 32.1847 37.0826 32.4737C35.6779 33.1515 34.2782 33.5548 32.7715 33.5041C32.9881 32.4918 33.1904 31.5463 33.3928 30.6009C33.6737 29.5023 33.9546 28.4036 34.245 27.2342Z" fill="#240F6E"/>
<path d="M37.1465 32.4643C37.5207 32.1844 37.9307 31.9408 38.2607 31.6159C38.7261 31.1575 39.5683 30.7827 38.7421 29.8957C38.6333 29.7788 38.888 29.0397 39.0705 28.9967C39.4044 28.918 39.965 29.0211 40.1583 29.2648C40.8793 30.1734 41.4966 31.1653 42.14 32.1344C43.4123 34.0508 44.6502 35.9907 45.9542 37.8852C46.6395 38.8807 47.7161 39.3525 48.8687 39.5113C50.316 39.7108 51.7818 39.7766 53.2782 39.9624C53.6512 40.5003 53.9857 40.9758 54.3314 41.5078C52.8378 41.4225 51.3298 41.3072 49.8293 41.129C48.9229 41.0214 47.9971 40.9122 47.1352 40.6334C45.6548 40.1546 44.7073 38.9984 43.8897 37.7357C43.5895 37.2721 43.2981 36.8027 43.0079 36.3441C41.4322 36.7314 41.4322 36.7314 41.1384 38.0958C40.6152 37.8215 40.1882 37.5592 39.7705 37.231C40.2706 35.3523 40.2706 35.3523 42.0316 34.9398C41.4152 33.9955 40.8163 33.0779 40.2385 32.1928C39.4797 32.7094 38.7505 33.206 38.007 33.6458C37.7107 33.2141 37.4286 32.8392 37.1465 32.4643Z" fill="#BD9DE7"/>
<path d="M41.8019 15.3173C42.6196 14.9395 43.4374 14.5618 44.4802 14.0801C44.3537 15.6666 44.2686 17.21 44.0784 18.7403C44.0377 19.0676 43.6158 19.3475 43.3455 19.7041C41.63 20.291 41.6299 20.291 41.623 22.0932C41.6221 22.3169 41.6228 22.5407 41.6228 22.8629C40.8422 22.8629 40.109 22.8629 39.2278 22.8611C39.0015 22.5728 38.9231 22.2863 38.8572 21.9202C38.8709 20.8747 38.8726 19.9089 38.8732 18.9431C38.8741 17.4015 38.8713 17.4371 37.3765 17.3342C37.0059 17.3088 36.4446 17.0468 36.3424 16.7608C36.136 16.183 36.7389 16.0934 37.2345 15.9684C38.8452 15.9982 40.3903 16.109 41.8019 15.3173Z" fill="#240F6E"/>
<path d="M58.3999 37.7969C59.5574 37.8506 60.65 37.995 61.7373 37.9627C62.8523 37.9295 62.7159 38.9094 63.1307 39.4441C63.5527 39.988 63.0043 40.1799 62.7589 40.4707C62.5586 40.7081 62.3224 40.9152 62.0791 41.1894C61.8998 41.3597 61.7435 41.4764 61.5105 41.6504C60.4514 39.9965 58.6565 40.7922 57.1846 40.2644C57.3764 39.6477 57.5716 38.9359 57.8296 38.2476C57.8982 38.0646 58.1598 37.9539 58.3999 37.7969Z" fill="#240F6E"/>
<path d="M38.8442 21.9988C38.9226 22.2852 39.001 22.5717 39.1481 22.8726C39.4384 23.2885 39.6601 23.69 39.893 24.1481C38.7548 24.3291 37.6053 24.4533 36.3846 24.5815C35.9912 24.2548 35.6688 23.9242 35.3241 23.5092C35.9896 23.1791 36.6775 22.9335 37.4489 22.658C36.2766 22.658 35.1685 22.658 34.0605 22.658C33.8388 22.2565 33.6171 21.8551 33.4639 21.3843C34.8475 21.3115 36.1628 21.308 37.538 21.315C38.0134 21.5499 38.4288 21.7743 38.8442 21.9988Z" fill="#C698E8"/>
<path d="M29.4043 50.9548C29.6699 48.6867 29.9481 46.4982 30.2386 44.2408C30.3702 42.1095 30.3702 42.1099 32.3861 42.1096C33.407 42.1095 34.4278 42.1078 35.608 42.1063C36.1947 42.107 36.6313 42.1655 37.048 42.099C38.5292 41.8625 39.5084 42.3658 40.1592 43.7788C40.5659 44.6621 41.1257 45.6703 41.9069 46.1464C43.7217 47.2525 45.7123 48.07 47.6316 49.0045C48.0757 49.2567 48.5198 49.509 49.0363 49.8023C48.5731 50.1243 48.1264 50.4348 47.5996 50.8249C46.9961 51.4518 46.464 51.6624 45.7129 51.2261C43.0644 49.6877 40.664 47.8978 38.9649 45.2726C38.7863 44.9967 38.0649 44.837 37.7194 44.9632C37.2777 45.1246 37.283 45.632 37.59 46.0843C38.804 47.872 40.2332 49.4522 42.002 50.7021C42.9432 51.3672 43.9207 51.9808 44.9081 52.635C44.2489 53.0294 43.6142 53.4092 42.9165 53.7935C42.6783 53.8792 42.4869 53.9369 42.3309 54.0454C41.6755 54.5016 41.1533 54.4471 40.6419 53.7779C39.6213 52.4423 38.4702 51.2006 37.5184 49.8198C36.5099 48.3566 35.6404 46.7935 34.7723 45.2394C34.4464 44.656 33.9686 44.7999 33.6187 44.9498C33.4338 45.0291 33.2871 45.6572 33.4046 45.9031C33.931 47.0051 34.4776 48.1142 35.1663 49.1183C36.5807 51.1803 38.0907 53.1768 39.5661 55.2068C38.5953 55.5114 37.5245 55.8474 36.4537 56.1834C34.9404 56.4321 33.4307 56.7055 31.9125 56.9199C31.0757 57.038 30.2249 57.0571 29.417 57.1181C29.417 55.0365 29.417 53.0355 29.4043 50.9548Z" fill="#240F6E"/>
<path d="M36.4827 56.2341C37.5243 55.847 38.5951 55.511 39.5659 55.2064C38.0905 53.1763 36.5805 51.1799 35.1661 49.1179C34.4774 48.1138 33.9308 47.0047 33.4044 45.9027C33.2869 45.6568 33.4336 45.0286 33.6185 44.9494C33.9684 44.7995 34.4462 44.6556 34.7721 45.239C35.6402 46.7931 36.5097 48.3561 37.5182 49.8194C38.47 51.2002 39.6211 52.4419 40.6417 53.7775C41.1531 54.4467 41.6753 54.5012 42.3307 54.045C42.4867 53.9365 42.6782 53.8788 42.9677 53.8212C43.4044 54.175 43.7265 54.5054 44.0226 54.893C43.459 55.2199 42.9215 55.4894 42.3841 55.759C42.398 55.802 42.4118 55.845 42.4257 55.888C42.8457 55.888 43.2657 55.888 43.6856 55.888C43.9073 56.2894 44.1289 56.6908 44.2872 57.1616C43.7867 57.231 43.3495 57.231 42.851 57.231C43.1064 57.7824 43.3181 58.2342 43.5252 58.6882C43.7283 59.1337 43.9267 59.5813 44.1533 60.0862C44.6858 59.3925 45.1209 58.8257 45.5561 58.2589C45.931 58.5431 46.3059 58.8274 46.7157 59.1773C46.5319 59.548 46.3131 59.8532 46.0541 60.2143C46.4567 60.4038 46.8129 61.1806 47.1518 60.156C47.5666 60.3806 47.9814 60.6052 48.4483 60.9086C48.2325 61.6557 48.4924 62.1782 48.8995 62.7113C49.6352 63.6749 49.9869 64.7724 49.8444 66C49.3881 65.7151 48.9317 65.4303 48.3875 65.0849C47.3635 62.6182 45.8464 61.474 43.6827 61.4909C43.2853 61.0636 42.8982 60.6955 42.4825 60.2687C41.8823 58.933 41.3108 57.6561 40.7768 56.4629C39.5701 56.8436 38.4479 57.1976 37.3257 57.5516C37.0544 57.1295 36.7832 56.7074 36.4827 56.2341Z" fill="#99B0E0"/>
<path d="M43.6934 61.5504C45.8468 61.4742 47.3639 62.6184 48.3276 65.0825C48.4966 66.4306 48.3037 67.6553 47.6288 68.8511C46.8217 69.6281 46.1092 70.4714 44.9676 70.6576C44.591 70.719 44.2116 70.764 43.7594 70.8288C43.3816 70.8311 43.0749 70.8405 42.777 70.7941C42.7191 70.785 42.6952 70.5584 42.7205 70.3395C43.3154 69.025 43.8354 67.7986 44.3805 66.5835C44.584 66.1298 44.5382 65.6978 44.0927 65.5403C43.6684 65.3903 43.162 65.3357 42.9114 65.9844C42.5023 67.0433 42.0152 68.072 41.5611 69.1135C41.3926 69.3926 41.2241 69.6718 41.0414 69.9744C40.4545 69.7804 40.5609 69.4372 40.7675 69.002C41.2852 67.6611 41.7982 66.3841 42.3772 65.0109C42.86 63.7933 43.2767 62.6719 43.6934 61.5504Z" fill="#240F6E"/>
<path d="M37.257 57.5635C38.4475 57.1976 39.5697 56.8436 40.7764 56.4629C41.3104 57.6561 41.8819 58.933 42.4685 60.3338C42.0182 61.6721 41.5528 62.8864 41.0874 64.1008C40.8551 64.6164 40.6228 65.1319 40.3638 65.7068C39.3748 65.2151 38.4244 64.7681 37.5066 64.2621C37.3434 64.1721 37.1842 63.7875 37.2461 63.6226C37.6735 62.4846 37.509 61.4669 36.8751 60.4403C36.3959 59.6644 36.053 58.8043 35.6436 57.9695C36.1726 57.8346 36.6807 57.705 37.257 57.5635Z" fill="#240F6E"/>
<path d="M41.1416 64.1256C41.5534 62.8864 42.0188 61.6721 42.4978 60.3926C42.8984 60.6955 43.2855 61.0635 43.6829 61.4909C43.2765 62.6717 42.8598 63.7932 42.3869 64.945C41.9522 64.7004 41.5737 64.4254 41.1416 64.1256Z" fill="#93B3DF"/>
<path d="M38.0213 33.7032C38.7506 33.2066 39.4799 32.71 40.2386 32.1934C40.8164 33.0785 41.4154 33.9961 42.0317 34.9404C40.2707 35.3529 40.2707 35.3529 39.7575 37.3007C39.5054 38.3442 39.2209 39.2437 39.0675 40.1649C38.9821 40.678 38.744 40.7398 38.3292 40.7386C37.193 40.7351 36.0568 40.7532 34.9205 40.7627C34.2682 40.7531 33.616 40.7396 32.9637 40.7348C32.314 40.7299 31.6642 40.7337 30.9375 40.7337C31.0724 40.1573 31.1899 39.6553 31.3245 39.023C31.6775 37.6223 32.0133 36.352 32.4274 35.0728C34.4613 35.0847 36.3351 34.7742 38.0213 33.7032Z" fill="#240F6E"/>
<path d="M34.9316 40.8201C36.0567 40.7538 37.1929 40.7358 38.3291 40.7392C38.7439 40.7405 38.982 40.6787 39.0675 40.1656C39.2208 39.2443 39.5053 38.3449 39.7481 37.3672C40.1883 37.5604 40.6153 37.8227 41.0789 38.1303C40.9248 39.0676 40.7165 39.9563 40.5557 40.8536C40.5149 41.0807 40.5585 41.3757 40.6774 41.5696C41.2839 42.5594 41.8864 43.5571 42.5785 44.4864C42.8699 44.8778 43.3538 45.1505 43.7935 45.4011C44.4666 45.7847 45.1772 46.1024 45.8992 46.5028C46.2613 46.9876 46.6058 47.4107 46.9279 47.8501C47.1724 48.1837 47.3883 48.5382 47.6242 48.9439C45.7122 48.0699 43.7216 47.2523 41.9069 46.1463C41.1256 45.6702 40.5659 44.662 40.1591 43.7787C39.5084 42.3657 38.5291 41.8624 37.0479 42.0989C36.6313 42.1654 36.1947 42.1069 35.6876 42.0933C35.3862 41.6795 35.1645 41.2782 34.9316 40.8201Z" fill="#ADA6E3"/>
<path d="M26.3098 32.2107C26.6502 30.6916 27.0031 29.2434 27.357 27.7954C27.468 27.3409 27.5817 26.887 27.683 26.3645C27.6933 26.1599 27.7146 26.0237 27.7388 25.8691C28.3434 25.9744 28.9347 26.0773 29.5945 26.1921C29.4792 26.7577 29.3653 27.3162 29.2343 28.0073C28.938 29.4674 28.6588 30.7948 28.3196 32.1556C28.1379 33.1733 27.9717 34.1355 27.0063 34.6984C27.0063 34.6984 26.9229 34.7181 26.8339 34.7216C26.7112 34.7771 26.6775 34.8292 26.6438 34.8812C26.3449 35.0611 26.046 35.2411 25.6611 35.4727C25.8965 34.3372 26.1096 33.3094 26.3098 32.2107Z" fill="#240F6E"/>
<path d="M27.0166 34.7584C27.972 34.1363 28.1381 33.1741 28.3571 32.2012C28.8791 32.4751 29.3041 32.7376 29.7177 33.0651C29.3962 34.3852 29.6881 35.2632 30.5264 35.69C30.7268 35.0217 30.9293 34.3459 31.161 33.7211C31.5763 34.2089 31.9625 34.6457 32.3487 35.0825C32.0129 36.3528 31.677 37.6231 31.3114 38.9545C30.6871 38.5153 30.0926 38.015 29.4539 37.4253C29.1502 36.9176 28.9317 36.4634 28.6116 36.0984C28.4785 35.9466 28.1286 35.9851 27.8772 35.937C27.5937 35.5639 27.3102 35.1907 27.0166 34.7584Z" fill="#A7A9E3"/>
<path d="M27.8502 35.9904C28.1286 35.9854 28.4786 35.9469 28.6116 36.0987C28.9318 36.4638 29.1503 36.9179 29.4021 37.3981C28.4603 37.2807 27.5263 37.1014 26.5078 36.9059C26.9771 36.5981 27.4001 36.3208 27.8502 35.9904Z" fill="#240F6E"/>
<path d="M26.6819 34.865C26.678 34.8292 26.7117 34.7772 26.793 34.7324C26.8087 34.7854 26.7683 34.8218 26.6819 34.865Z" fill="#A7A9E3"/>
<path d="M66.7833 48.9994C66.1779 49.0129 65.6389 49.0129 64.999 49.0129C64.999 48.557 64.999 48.1695 65.0021 47.7055C65.7953 47.6289 66.5854 47.6289 67.5907 47.6289C67.2934 48.1732 67.0715 48.5796 66.7833 48.9994Z" fill="#240F6E"/>
<path d="M69.2918 51.4729C68.9025 51.6232 68.5162 51.7027 68.0693 51.7948C68.1516 51.3137 68.2065 50.9925 68.2484 50.6009C68.6283 50.4538 69.0212 50.3771 69.4925 50.2852C69.4088 50.7583 69.3519 51.0803 69.2918 51.4729Z" fill="#240F6E"/>
<path d="M69.9111 47.5947C70.0368 47.6177 70.0911 47.6536 70.164 47.7357C69.7442 49.062 69.7442 49.062 68.7617 48.8857C68.9734 48.3246 68.7422 47.4273 69.9111 47.5947Z" fill="#240F6E"/>
<path d="M71.4971 51.7339C71.2344 51.7174 71.0449 51.7005 70.8496 51.6831C71.181 50.2165 70.9017 50.3187 72.4085 50.4315C72.0875 50.9301 71.8289 51.3318 71.4971 51.7339Z" fill="#240F6E"/>
<path d="M71.5146 48.704C71.7337 47.9895 71.8955 47.2345 72.9464 47.7332C72.5583 48.079 73.1029 48.934 72.1135 48.9996C71.8729 48.931 71.7007 48.8497 71.5146 48.704Z" fill="#240F6E"/>
<path d="M44.049 54.8367C43.7268 54.5063 43.4046 54.176 43.0311 53.8176C43.6143 53.4097 44.249 53.03 44.9082 52.6356C43.9208 51.9814 42.9433 51.3678 42.0021 50.7027C40.2333 49.4528 38.8041 47.8726 37.5901 46.0848C37.283 45.6326 37.2778 45.1251 37.7195 44.9637C38.065 44.8375 38.7864 44.9972 38.965 45.2731C40.6641 47.8983 43.0645 49.6883 45.713 51.2267C46.4641 51.6629 46.9962 51.4523 47.5746 50.8792C47.9854 51.2093 48.3414 51.5654 48.7132 51.9947C48.1987 52.4385 47.6683 52.8091 47.0569 53.2364C47.6502 53.5347 48.1743 53.7343 48.6266 54.0401C49.3738 54.5451 50.0481 54.4848 50.7228 53.9414C51.008 54.3192 51.2932 54.697 51.5623 55.1882C50.3199 55.841 49.3348 56.5788 49.2631 58.0711C49.2624 58.0862 49.2171 58.0991 49.1927 58.113C48.5673 57.4103 47.9419 56.7076 47.3653 55.9338C47.5976 55.7296 47.7812 55.5965 48.0026 55.436C47.7097 55.2935 47.4984 55.2171 47.3156 55.0974C46.2717 54.4137 45.2141 53.973 44.049 54.8367Z" fill="#A5AAE2"/>
<path d="M49.1894 58.1775C49.2169 58.0987 49.2622 58.0858 49.2629 58.0707C49.3345 56.5784 50.3196 55.8406 51.572 55.2472C52.4214 54.7476 53.2447 54.3021 54.106 53.8359C54.5708 54.7109 54.0143 55.4573 53.8435 56.3082C53.3865 57.6455 52.918 58.9156 52.4408 60.2533C51.3307 59.8596 50.2293 59.3982 49.1172 58.9324C49.1406 58.6988 49.1636 58.4706 49.1894 58.1775Z" fill="#240F6E"/>
<path d="M50.7489 53.8856C50.0479 54.484 49.3736 54.5443 48.6264 54.0392C48.1741 53.7335 47.65 53.5339 47.0566 53.2356C47.6681 52.8083 48.1984 52.4377 48.7736 52.0225C49.4359 51.5086 50.0533 51.0392 50.7112 50.5391C51.6377 51.0881 52.581 51.6471 53.6282 52.2677C52.5586 52.8537 51.6669 53.3421 50.7489 53.8856Z" fill="#240F6E"/>
<path d="M82.3754 72.1168C81.7603 73.5186 81.1341 74.8506 80.4842 76.2373C79.389 77.3451 78.3175 78.3981 77.2203 79.5043C75.5915 80.5606 73.9428 81.451 71.9562 81.6972C70.1489 81.8608 68.4001 81.9989 66.6152 81.4861C64.2194 80.7737 62.1254 79.6509 60.4463 77.8551C58.8854 76.1857 57.7491 74.2726 57.2545 72.0136C57.2255 71.8814 57.1469 71.7601 57.0775 71.5666C56.8138 69.4767 56.808 67.4622 57.2754 65.3913C58.024 63.9088 58.7641 62.4981 59.5341 61.0408C59.564 60.9942 59.638 60.9608 59.6967 60.9022C59.7759 60.7863 59.7963 60.7291 59.8167 60.6718C61.0167 59.6799 62.2167 58.688 63.4434 57.6411C63.5382 57.8025 63.6064 58.0189 63.7341 58.3251C63.6541 58.641 63.5549 58.9102 63.368 59.0861C62.4301 59.9692 61.4693 60.8279 60.4627 61.7222C60.3409 61.8705 60.2826 61.9985 60.2033 62.1119C59.1316 63.6445 58.4716 65.332 58.2192 67.2385C58.0128 69.3478 58.1663 71.3667 58.9757 73.3152C59.9393 75.6351 61.4693 77.4734 63.5997 78.768C65.8694 80.1472 68.3359 80.7978 71.087 80.4209C73.1376 80.2394 74.923 79.5412 76.5861 78.3596C77.6492 77.2553 78.6583 76.173 79.7168 75.0477C80.7797 73.2849 81.4096 71.4479 81.4822 69.3584C81.5563 66.9053 81.0653 64.6456 79.7442 62.6692C77.3543 59.0937 74.0772 57.0653 69.6394 57.2628C68.1635 57.4367 66.6876 57.6105 65.2038 57.7854C65.2038 57.6329 65.2038 57.2492 65.2038 56.7876C65.8066 56.6013 66.4525 56.4017 67.1657 56.1881C68.7217 56.1268 70.2104 56.0794 71.7762 56.0352C73.3382 56.6071 74.8693 57.0803 76.297 57.7679C78.3204 58.7426 79.7993 60.3806 80.9188 62.2895C81.7311 63.6747 82.4461 65.1377 82.6216 66.8311C82.5755 68.5926 82.4699 70.3198 82.3754 72.1168Z" fill="#240F6E"/>
<path d="M49.8676 66.0531C49.9865 64.7734 49.6347 63.6759 48.899 62.7123C48.492 62.1791 48.2321 61.6567 48.5077 60.9201C48.7331 60.7933 48.9896 60.6301 49.1618 60.694C50.0382 61.0195 50.8929 61.4037 51.7924 61.783C51.3717 62.9969 50.965 64.1707 50.549 65.4115C50.4326 65.7053 50.3381 65.94 50.206 66.1511C50.1833 66.1873 50.0002 66.1231 49.8676 66.0531Z" fill="#240F6E"/>
<path d="M44.0223 54.8924C45.2135 53.9714 46.2711 54.4121 47.315 55.0958C47.4978 55.2156 47.7091 55.2919 48.002 55.4344C47.7806 55.5949 47.597 55.7281 47.3541 55.8743C46.1448 55.8791 44.9947 55.8707 43.765 55.8749C43.2654 55.8874 42.8454 55.8874 42.4254 55.8874C42.4115 55.8444 42.3977 55.8014 42.3838 55.7584C42.9212 55.4888 43.4587 55.2193 44.0223 54.8924Z" fill="#240F6E"/>
<path d="M45.58 58.2035C45.1205 58.8251 44.6854 59.3919 44.1529 60.0856C43.9263 59.5808 43.728 59.1331 43.5248 58.6877C43.3178 58.2337 43.106 57.7819 42.8506 57.2304C43.3491 57.2304 43.7863 57.2304 44.2982 57.2178C44.9654 57.2051 45.5578 57.2051 46.2822 57.2051C46.008 57.5868 45.8061 57.8677 45.58 58.2035Z" fill="#240F6E"/>
<path d="M47.1404 60.0896C46.8125 61.1814 46.4563 60.4046 46.0537 60.2151C46.3126 59.854 46.5314 59.5488 46.7745 59.1882C46.9762 58.9284 47.1537 58.724 47.3312 58.5195C47.3843 58.5273 47.4374 58.5351 47.4906 58.5429C47.3702 59.0361 47.2498 59.5293 47.1404 60.0896Z" fill="#240F6E"/>
<path d="M65.0054 51.5212C64.999 51.1078 64.999 50.7741 64.999 50.4004C65.5839 50.4004 66.1106 50.4004 66.6381 50.4004C66.6174 51.7659 66.3397 51.9695 65.0054 51.5212Z" fill="#240F6E"/>
<path d="M65.0565 42.9423C65.0426 42.9152 65.0584 42.8617 65.118 42.793C65.1475 42.8298 65.1223 42.8759 65.0565 42.9423Z" fill="#D093EA"/>
<path d="M32.427 35.0728C31.9625 34.6448 31.5763 34.208 31.1641 33.6497C31.4341 32.2636 31.7302 30.999 32.0263 29.7344C32.442 30.0163 32.8578 30.2983 33.3329 30.5907C33.1899 31.5466 32.9875 32.492 32.7709 33.5043C34.2776 33.555 35.6774 33.1517 37.082 32.4739C37.4282 32.8398 37.7104 33.2147 38.0067 33.6464C36.3346 34.7742 34.4608 35.0847 32.427 35.0728Z" fill="#B2A3E4"/>
<path d="M32.0365 29.6695C31.7309 31.0003 31.4348 32.2649 31.1356 33.6001C30.93 34.3464 30.7274 35.0221 30.5271 35.6905C29.6888 35.2636 29.3969 34.3856 29.7335 32.995C30.0382 31.5581 30.3164 30.2567 30.5947 28.9553C30.7825 28.1488 30.9703 27.3423 31.1583 26.5352C31.6825 26.6445 32.1576 26.7436 32.7574 26.8687C32.5132 27.8073 32.2796 28.7053 32.0365 29.6695Z" fill="#240F6E"/>
<path d="M30.5343 28.9233C30.3158 30.256 30.0375 31.5574 29.7441 32.9294C29.3041 32.7374 28.8791 32.4748 28.417 32.1675C28.659 30.7953 28.9382 29.4679 29.247 28.0781C29.6758 28.3079 30.0751 28.5999 30.5343 28.9233Z" fill="#ADA5E3"/>
<path d="M30.2154 23.7031C31.1851 23.7044 31.9867 23.9671 32.549 24.7175C32.6464 24.8475 32.61 25.0777 32.5773 25.2544C31.3267 24.9728 30.1343 24.6985 28.9419 24.4241C28.9303 24.3635 28.9188 24.3029 28.9072 24.2423C29.3218 24.0671 29.7364 23.8919 30.2154 23.7031Z" fill="#240F6E"/>
<path d="M37.4783 21.3056C36.163 21.3092 34.8478 21.3127 33.4528 21.3288C33.1557 21.3181 32.9383 21.2949 32.6748 21.2667C32.7483 21.0538 32.8085 20.8791 32.8995 20.6529C33.5788 19.5494 33.597 19.0093 32.6757 18.251C32.4933 18.1008 32.549 17.6437 32.5279 17.326C32.5216 17.2323 32.6234 17.1278 32.6841 17.0338C33.3892 15.9419 33.7366 14.87 32.5254 13.819C33.6071 12.705 34.6807 11.6524 35.7767 10.5461C36.3281 9.98306 36.794 9.37379 37.4021 8.98911C38.1936 8.48837 39.0979 8.16591 40.0151 7.73633C41.4315 7.78744 42.8368 7.66927 44.1304 7.99503C46.3348 8.55017 47.6366 10.6741 46.6461 13.5111C46.3898 13.9622 46.1435 14.3463 45.8972 14.7304C45.8476 14.7193 45.798 14.7081 45.7485 14.697C45.7485 14.0888 45.7715 13.4794 45.739 12.873C45.722 12.5548 45.6498 11.9921 45.5296 11.9718C45.1193 11.9027 44.613 11.907 44.2591 12.0979C43.3879 12.5679 42.5883 13.1691 41.7436 13.691C41.515 13.8322 41.228 13.8789 40.8701 14.0309C39.2525 14.2748 37.7327 14.4565 36.1484 14.629C34.8904 15.2851 34.4841 15.9525 34.7704 17.2425C35.081 18.6416 36.2219 18.8656 37.4783 18.7314C37.4783 19.6581 37.4783 20.4819 37.4783 21.3056Z" fill="#240F6E"/>
<path d="M36.2129 14.6388C37.7327 14.457 39.2525 14.2752 40.842 14.0898C41.2061 14.4546 41.5004 14.823 41.7982 15.2546C40.39 16.1095 38.8449 15.9987 37.2226 15.9114C36.8253 15.4404 36.5191 15.0396 36.2129 14.6388Z" fill="#D790EB"/>
<path d="M65.5219 59.6587C66.9969 58.9787 68.5621 58.6989 70.2836 58.6797C75.851 59.0655 79.7788 63.2412 80.1384 68.8256C80.1134 70.7469 79.6268 72.4636 78.6718 74.094C78.4472 74.4047 78.3208 74.7303 78.0997 74.9675C77.2988 75.8267 76.4662 76.6561 75.5827 77.5056C74.9601 77.8017 74.4247 78.1606 73.8353 78.3605C72.7974 78.7125 71.7266 78.9674 70.5915 79.2501C69.8401 79.1793 69.1632 79.149 68.4945 79.0587C64.8997 78.5735 62.3314 76.6499 60.6631 73.4578C59.7747 71.7578 59.5783 69.9369 59.6532 67.9893C59.7683 67.3712 59.7788 66.7865 59.9916 66.288C60.5294 65.0283 61.1582 63.8073 61.8033 62.5489C62.5698 61.846 63.2836 61.1649 63.8455 60.6287C64.9395 62.7604 65.9896 64.8066 66.9825 66.8785C66.3327 67.6069 66.3523 68.45 66.3718 69.2957C66.4056 70.762 67.2061 71.7529 68.5109 72.1719C69.6383 72.5338 70.8794 72.6939 71.9414 71.6836C73.1302 70.8599 73.5883 69.3057 73.1273 67.8531C72.4137 65.6047 70.7707 65.2445 68.7213 65.5481C68.2037 65.6248 68.0701 65.5349 67.8282 65.1523C66.7501 63.447 66.08 61.5781 65.5219 59.6587Z" fill="#240F6E"/>
<path d="M67.0406 66.8527C65.9905 64.8065 64.9404 62.7602 63.8464 60.6285C63.2845 61.1647 62.5707 61.8458 61.753 62.521C61.2716 62.2417 60.8941 61.9685 60.5166 61.6952C61.4694 60.8279 62.4303 59.9692 63.3682 59.0861C63.5551 58.9102 63.6542 58.6411 63.7903 58.3516C64.0147 58.3625 64.2914 58.3792 64.4604 58.5228C64.8252 58.8327 65.1347 59.2077 65.4948 59.6073C66.0809 61.578 66.751 63.4469 67.8291 65.1522C68.071 65.5347 68.2046 65.6247 68.7222 65.548C70.7716 65.2444 72.4146 65.6046 73.1282 67.8529C73.5892 69.3056 73.1311 70.8597 71.9322 71.6243C71.5759 71.1985 71.2917 70.8237 71.0315 70.3935C72.0092 69.3479 71.9605 68.2297 70.9264 67.3782C70.1119 66.7074 68.7862 66.9568 68.0892 67.8501C67.7327 67.4778 67.3866 67.1653 67.0406 66.8527Z" fill="#B5A1E5"/>
<path d="M80.1516 68.7487C79.7791 63.2406 75.8513 59.0649 70.359 58.6864C70.1007 58.2099 69.8803 57.7942 69.6494 57.3204C74.0767 57.0648 77.3538 59.0932 79.7437 62.6687C81.0648 64.6451 81.5558 66.9049 81.4242 69.3476C80.9533 69.1933 80.5525 68.971 80.1516 68.7487Z" fill="#C897E8"/>
<path d="M33.9879 22.671C35.1685 22.6582 36.2766 22.6582 37.4488 22.6582C36.6774 22.9337 35.9896 23.1794 35.2727 23.4819C34.8744 23.7558 34.5051 23.9728 34.2498 24.1229C33.7466 23.6539 33.2697 23.2093 32.7061 22.6839C33.1611 22.6839 33.5383 22.6839 33.9879 22.671Z" fill="#240F6E"/>
<path d="M50.7544 71.7626C50.4225 71.7246 50.0827 71.683 49.8245 71.5156C49.3368 71.1996 48.8961 70.8113 48.377 70.4072C48.4539 70.3087 48.5447 70.1925 48.6561 70.0247C49.0513 69.3491 49.4261 68.725 49.8008 68.101C49.8773 68.079 49.9538 68.0571 50.0303 68.0352C50.2813 69.2575 50.5323 70.4799 50.7544 71.7626Z" fill="#240F6E"/>
<path d="M41.5869 69.177C42.0151 68.0717 42.5021 67.0429 42.9112 65.9841C43.1619 65.3353 43.6682 65.3899 44.0925 65.5399C44.5381 65.6975 44.5839 66.1295 44.3803 66.5831C43.8352 67.7983 43.3153 69.0247 42.7298 70.2755C42.3204 69.95 41.9667 69.5955 41.5869 69.177Z" fill="#88B9DD"/>
<path d="M59.7841 60.7012C59.7962 60.7286 59.7758 60.7859 59.7087 60.863C59.6919 60.8323 59.7217 60.7816 59.7841 60.7012Z" fill="#A8A8E3"/>
<path d="M20.4828 80.5816C17.6407 80.8171 14.9669 80.3995 12.5208 78.7842C9.79531 76.9845 8.0838 74.5082 7.45176 71.3424C7.20557 70.1092 7.30836 68.8064 7.32124 67.4668C7.8082 67.6795 8.22611 67.9607 8.64401 68.242C8.56554 74.521 13.0034 79.0982 19.3959 79.2758C19.827 79.7396 20.1549 80.1606 20.4828 80.5816Z" fill="#4CDAD2"/>
<path d="M20.9219 64.9863C21.3529 65.2456 21.7276 65.5303 22.1615 65.8253C22.0839 66.1894 21.73 66.6868 21.8511 66.8698C22.2181 67.4242 22.1377 68.557 23.341 68.2456C23.6346 68.1696 23.9651 68.2365 24.3569 68.2503C24.6568 68.6642 24.8785 69.0656 25.1114 69.5236C24.3887 69.5899 23.6519 69.5659 22.9224 69.6281C22.6793 69.6489 22.3779 69.8379 22.238 70.0423C21.9333 70.4875 21.7152 70.9921 21.4034 71.4306C21.0507 70.9652 20.7563 70.5415 20.4909 70.0578C21.063 68.9776 20.9546 68.3007 20.1856 67.5208C19.3391 66.6623 18.4581 67.0525 17.557 67.3344C17.3194 66.9004 17.0923 66.5262 16.8652 66.1521C17.6581 65.2734 18.7406 65.375 19.6966 65.5386C20.3501 65.6504 20.6059 65.4801 20.9219 64.9863Z" fill="#66CBD7"/>
<path d="M16.8041 66.1621C17.0924 66.527 17.3195 66.9011 17.5524 67.3993C16.6604 68.8573 16.9199 70.157 18.2005 70.6815C19.0841 71.0434 19.8244 70.7736 20.462 70.1187C20.7564 70.5423 21.0508 70.9659 21.3475 71.4559C19.7056 72.6453 18.3347 72.655 16.7997 71.7228C15.0653 70.6694 14.9762 67.282 16.8041 66.1621Z" fill="#5DD0D5"/>
<path d="M20.5513 80.5924C20.1541 80.159 19.8262 79.7381 19.4707 79.2659C20.1393 79.0751 20.8783 79.0391 21.5227 78.7737C22.7685 78.2608 23.961 77.6184 25.259 77.0566C25.6151 77.4629 25.8877 77.8423 26.1604 78.2216C24.5262 79.5097 22.6427 80.2185 20.5513 80.5924Z" fill="#58D3D4"/>
<path d="M8.70344 68.2034C8.22538 67.9595 7.80748 67.6782 7.33301 67.3859C7.51778 65.2942 8.37463 63.4613 9.64097 61.752C10.0602 62.0857 10.3767 62.4193 10.6932 62.7528C9.93035 64.0976 9.12395 65.4246 8.90159 66.9968C8.84665 67.3853 8.80912 67.7763 8.70344 68.2034Z" fill="#58D3D4"/>
<path d="M10.747 62.7295C10.3773 62.419 10.0608 62.0854 9.69434 61.7234C10.7625 60.349 12.0053 59.1559 13.6984 58.4336C14.0871 58.7541 14.4134 59.0792 14.7843 59.4405C13.253 60.2627 11.9839 61.4313 10.747 62.7295Z" fill="#64CCD7"/>
<path d="M26.2144 78.1984C25.8877 77.8423 25.6151 77.463 25.3145 77.0322C26.415 75.7899 27.6278 74.6636 28.3145 73.0664C28.7032 73.3576 29.0379 73.6758 29.4003 74.0449C28.9156 75.5062 27.9766 76.6021 26.8708 77.5776C26.6591 77.7643 26.4687 77.9753 26.2144 78.1984Z" fill="#64CCD7"/>
<path d="M36.148 14.6289C36.5187 15.039 36.8249 15.4398 37.1427 15.8982C36.7383 16.0934 36.1353 16.183 36.3417 16.7608C36.4439 17.0468 37.0052 17.3087 37.3758 17.3342C38.8706 17.4371 38.8734 17.4015 38.8725 18.9431C38.872 19.9089 38.8703 20.8747 38.8566 21.9202C38.4286 21.7754 38.0133 21.551 37.5379 21.316C37.4779 20.4818 37.4779 19.658 37.4779 18.7313C36.2215 18.8655 35.0806 18.6415 34.77 17.2424C34.4837 15.9524 34.89 15.285 36.148 14.6289Z" fill="#CF94EA"/>
<path d="M59.6411 68.0623C59.5786 69.9372 59.7749 71.7581 60.6634 73.4581C62.3317 76.6502 64.8999 78.5738 68.4947 79.059C69.1635 79.1493 69.8404 79.1796 70.5944 79.3115C70.7881 79.7266 70.901 80.0678 71.0139 80.4089C68.3353 80.7982 65.8689 80.1477 63.5992 78.7685C61.4688 77.4739 59.9388 75.6356 58.9751 73.3156C58.1658 71.3671 58.0123 69.3483 58.2721 67.2637C58.8055 67.519 59.2233 67.7906 59.6411 68.0623Z" fill="#9CAEE1"/>
<path d="M59.6532 67.9896C59.2231 67.7906 58.8052 67.5189 58.334 67.2225C58.4708 65.3324 59.1308 63.645 60.2026 62.1123C60.2819 61.9989 60.3402 61.8709 60.462 61.7227C60.8932 61.9689 61.2707 62.2421 61.6993 62.5432C61.1582 63.8076 60.5294 65.0285 59.9916 66.2883C59.7789 66.7867 59.7683 67.3715 59.6532 67.9896Z" fill="#A8A8E3"/>
<path d="M80.1393 68.8262C80.5531 68.9723 80.954 69.1946 81.4123 69.4271C81.4097 71.4487 80.7798 73.2857 79.691 74.9867C79.3196 74.6683 79.0235 74.3686 78.7275 74.0689C79.6277 72.4642 80.1143 70.7475 80.1393 68.8262Z" fill="#BD9DE7"/>
<path d="M71.0867 80.4214C70.9013 80.0679 70.7884 79.7267 70.6729 79.3244C71.7272 78.9678 72.798 78.7129 73.8358 78.3609C74.4252 78.161 74.9607 77.8021 75.6106 77.5566C75.9778 77.8597 76.2549 78.121 76.532 78.3823C74.9227 79.5418 73.1373 80.24 71.0867 80.4214Z" fill="#A7A9E3"/>
<path d="M76.5854 78.3596C76.2544 78.1204 75.9773 77.8591 75.6729 77.5472C76.4662 76.6559 77.2989 75.8265 78.0997 74.9673C78.3208 74.7301 78.4472 74.4045 78.6719 74.0938C79.0227 74.3678 79.3187 74.6675 79.6407 75.029C78.6575 76.173 77.6484 77.2552 76.5854 78.3596Z" fill="#B2A3E4"/>
<path d="M71.0068 70.4495C71.291 70.8243 71.5751 71.199 71.8694 71.633C70.8795 72.6943 69.6384 72.5343 68.5111 72.1723C67.2062 71.7534 66.4057 70.7625 66.3719 69.2962C66.3524 68.4505 66.3328 67.6073 66.9827 66.8789C67.3859 67.1658 67.7319 67.4784 68.0841 67.9212C67.7653 68.9192 67.8885 69.9681 68.4469 70.374C69.0473 70.8105 70.078 71.1431 71.0068 70.4495Z" fill="#ADA5E3"/>
<path d="M71.0308 70.3933C70.0781 71.1424 69.0474 70.8097 68.447 70.3733C67.8886 69.9674 67.7653 68.9185 68.0946 67.9802C68.7855 66.9566 70.1112 66.7073 70.9257 67.378C71.9598 68.2296 72.0085 69.3478 71.0308 70.3933Z" fill="#240F6E"/>
<path d="M20.4916 70.0578C19.8251 70.7729 19.0847 71.0426 18.2012 70.6808C16.9206 70.1563 16.6611 68.8566 17.5636 67.4585C18.4588 67.0526 19.3398 66.6623 20.1863 67.5208C20.9554 68.3008 21.0637 68.9776 20.4916 70.0578Z" fill="#240F6E"/>
</g>
<defs>
<clipPath id="clip0_417_2898">
<rect width="88" height="88" fill="white" transform="translate(0.888672)"/>
</clipPath>
</defs>
</svg>
