<svg width="33" height="33" viewBox="0 0 33 33" fill="none" xmlns="http://www.w3.org/2000/svg">
<path d="M27.168 5.83203H5.83464C4.36797 5.83203 3.1813 7.03203 3.1813 8.4987L3.16797 24.4987C3.16797 25.9654 4.36797 27.1654 5.83464 27.1654H27.168C28.6346 27.1654 29.8346 25.9654 29.8346 24.4987V8.4987C29.8346 7.03203 28.6346 5.83203 27.168 5.83203ZM26.6346 11.4987L17.208 17.392C16.7813 17.6587 16.2213 17.6587 15.7946 17.392L6.36797 11.4987C6.23427 11.4236 6.11719 11.3222 6.02382 11.2006C5.93045 11.079 5.86272 10.9397 5.82474 10.7912C5.78675 10.6426 5.77931 10.4879 5.80284 10.3364C5.82638 10.1849 5.88042 10.0398 5.96168 9.90977C6.04294 9.77975 6.14973 9.66757 6.2756 9.58002C6.40147 9.49248 6.5438 9.43138 6.69396 9.40043C6.84413 9.36948 6.99901 9.36932 7.14924 9.39996C7.29947 9.4306 7.44192 9.49141 7.56797 9.5787L16.5013 15.1654L25.4346 9.5787C25.5607 9.49141 25.7031 9.4306 25.8534 9.39996C26.0036 9.36932 26.1585 9.36948 26.3086 9.40043C26.4588 9.43138 26.6011 9.49248 26.727 9.58002C26.8529 9.66757 26.9597 9.77975 27.0409 9.90977C27.1222 10.0398 27.1762 10.1849 27.1998 10.3364C27.2233 10.4879 27.2159 10.6426 27.1779 10.7912C27.1399 10.9397 27.0722 11.079 26.9788 11.2006C26.8854 11.3222 26.7683 11.4236 26.6346 11.4987Z" fill="#240F6E"/>
</svg>
