<svg width="25" height="24" viewBox="0 0 25 24" fill="none" xmlns="http://www.w3.org/2000/svg">
<path d="M12.7773 16.462C12.952 16.462 13.0983 16.403 13.2163 16.285C13.3337 16.167 13.3923 16.0207 13.3923 15.846C13.3923 15.672 13.3333 15.526 13.2153 15.408C13.0973 15.29 12.9513 15.2307 12.7773 15.23C12.6033 15.2293 12.4573 15.2883 12.3393 15.407C12.2213 15.5257 12.1623 15.6717 12.1623 15.845C12.1623 16.0183 12.2213 16.1647 12.3393 16.284C12.4573 16.4033 12.6033 16.4633 12.7773 16.462ZM12.2773 13.153H13.2773V7.153H12.2773V13.153ZM12.7803 21C11.5363 21 10.3663 20.764 9.27034 20.292C8.17501 19.8193 7.22201 19.178 6.41134 18.368C5.60068 17.558 4.95901 16.606 4.48634 15.512C4.01368 14.418 3.77734 13.2483 3.77734 12.003C3.77734 10.7577 4.01368 9.58767 4.48634 8.493C4.95834 7.39767 5.59868 6.44467 6.40734 5.634C7.21601 4.82333 8.16834 4.18167 9.26434 3.709C10.3603 3.23633 11.5303 3 12.7743 3C14.0183 3 15.1883 3.23633 16.2843 3.709C17.3797 4.181 18.3327 4.82167 19.1433 5.631C19.954 6.44033 20.5957 7.39267 21.0683 8.488C21.541 9.58333 21.7773 10.753 21.7773 11.997C21.7773 13.241 21.5413 14.411 21.0693 15.507C20.5973 16.603 19.956 17.556 19.1453 18.366C18.3347 19.176 17.3827 19.8177 16.2893 20.291C15.196 20.7643 14.0263 21.0007 12.7803 21ZM12.7773 20C15.0107 20 16.9023 19.225 18.4523 17.675C20.0023 16.125 20.7773 14.2333 20.7773 12C20.7773 9.76667 20.0023 7.875 18.4523 6.325C16.9023 4.775 15.0107 4 12.7773 4C10.544 4 8.65234 4.775 7.10234 6.325C5.55234 7.875 4.77734 9.76667 4.77734 12C4.77734 14.2333 5.55234 16.125 7.10234 17.675C8.65234 19.225 10.544 20 12.7773 20Z" fill="#240F6E"/>
</svg>
