<svg width="88" height="88" viewBox="0 0 88 88" fill="none" xmlns="http://www.w3.org/2000/svg">
<rect width="88" height="88" fill="#45DDD1"/>
<g clip-path="url(#clip0_297_9041)">
<rect width="88" height="88" fill="#DE8CEC"/>
<path d="M49.3409 88C32.8386 88 16.4223 88 0 88C0 58.6722 0 29.3445 0 0C29.3202 0 58.6463 0 88 0C88 29.3222 88 58.6611 88 88C75.1543 88 62.2906 88 49.3409 88ZM5.89238 60.5262C5.25342 61.8339 4.61446 63.1416 3.94847 64.5867C3.41022 66.2818 3.29361 68.0164 3.43659 69.9299C3.4921 70.4301 3.51709 70.9359 3.60788 71.4297C4.47821 76.1626 7.15368 79.5617 11.3518 81.8081C13.1156 82.752 15.0451 83.1305 17.1735 83.3548C19.3234 83.3515 21.4386 83.1675 23.5277 82.1563C25.5326 81.4147 27.1781 80.1719 28.6607 78.5086C29.0091 78.1026 29.4074 77.7291 29.6966 77.2846C30.6205 75.865 31.5124 74.4229 31.8351 72.578C32.052 71.5544 32.269 70.5309 32.4989 69.4464C32.5991 69.4589 32.7989 69.4839 33.0025 69.5093C32.8325 70.3901 32.676 71.2014 32.4527 72.1412C32.43 72.6647 32.3022 73.2099 32.405 73.7074C32.6734 75.0073 33.0426 76.2864 33.3684 77.5612C33.2842 77.6144 33.2355 77.6723 33.1899 77.67C32.6344 77.6418 32.2634 77.7368 32.3021 78.4566C32.3426 79.2099 32.8399 79.0559 33.2704 79.0573C35.4406 79.0643 37.611 79.052 39.7812 79.0675C40.2817 79.071 40.5877 78.9962 40.5876 78.3805C40.5874 77.78 40.3132 77.6467 39.7962 77.6801C39.3981 77.7059 38.9962 77.695 38.5982 77.6679C38.5516 77.6648 38.5191 77.4553 38.5065 77.215C38.9726 76.1133 39.4387 75.0117 40.0146 73.8532C40.2746 73.2496 40.5346 72.646 40.7457 72.1559C41.7763 72.1559 42.7217 72.1559 43.802 72.1805C44.277 72.0346 44.8116 71.9813 45.2141 71.7225C45.9417 71.2548 46.4274 71.4874 47.0175 71.9814C47.9141 72.7319 48.872 73.4179 49.8566 74.0489C50.1217 74.2188 50.5777 74.0909 50.9461 74.0997C50.9356 73.7286 50.9367 73.3566 50.9068 72.987C50.8989 72.8902 50.7949 72.8011 50.848 72.6576C51.7379 71.8089 51.4663 70.81 51.1741 69.8377C50.7941 68.5734 49.9885 67.3569 50.8862 65.8642C51.4648 64.2488 52.0434 62.6334 52.7355 60.9541C53.1992 59.5975 53.6628 58.2409 54.1847 56.7647C54.7684 55.4816 55.0414 54.1682 54.5523 52.8142C54.7849 52.6143 54.9894 52.4385 55.3197 52.2433C56.8823 51.3331 58.445 50.4228 60.1319 49.4933C60.9225 49.0405 61.7131 48.5878 62.609 48.0748C62.609 49.4086 62.609 50.5678 62.5831 51.8864C62.5821 52.5087 62.5116 53.1405 62.5947 53.7514C62.7636 54.9934 62.5066 55.9519 61.0738 56.4088C60.8166 56.5703 60.5217 56.693 60.3088 56.9C59.3275 57.8538 58.3692 58.8311 57.294 59.8452C56.1425 61.1988 55.4461 62.7916 54.8459 64.5881C54.2327 66.4512 54.2774 68.3708 54.3304 70.4364C54.3864 70.7367 54.4419 71.0372 54.4984 71.3375C55.3734 75.9819 57.891 79.4602 62.0857 81.6041C63.5171 82.3357 65.1594 82.6548 66.8657 83.1834C67.2355 83.1844 67.6071 83.2094 67.9748 83.1821C69.2745 83.0855 70.5729 82.9709 72.013 82.8448C73.8626 82.5062 75.5558 81.8138 77.1531 80.6117C77.4842 80.3721 77.8663 80.1792 78.1369 79.8842C78.9983 78.9449 79.8181 77.9676 80.7634 76.9576C81.3535 75.7167 81.9436 74.4758 82.6528 73.1702C83.2309 71.3906 83.297 69.5611 83.2095 67.5635C83.142 66.8943 83.1583 66.2036 82.9932 65.5594C82.0451 61.8592 80.0941 58.8202 76.8875 56.6745C74.8525 55.3128 72.6246 54.4482 69.9869 54.3088C69.3915 54.3078 68.792 54.2616 68.2019 54.3165C67.2991 54.4005 66.4028 54.5543 65.3641 54.6528C64.9166 54.7512 64.4692 54.8496 63.964 54.9606C63.964 54.2843 63.964 53.6169 64.1234 52.9324C65.7871 52.9223 67.4508 52.9122 69.2736 52.9273C70.0444 52.9284 70.818 52.9663 71.5844 52.9087C71.8224 52.8908 72.1715 52.6585 72.2437 52.4471C72.4555 51.8268 72.5536 51.1678 72.7562 50.4013C73.0325 49.1715 73.3238 47.9449 73.5773 46.7104C73.6715 46.2515 73.4338 46.0406 72.9488 46.0483C71.3842 46.0732 69.8192 46.0734 68.0951 46.0572C66.9015 46.0572 65.7079 46.0572 64.415 46.0572C64.7368 45.2449 65.0192 44.5319 65.3291 43.6902C65.6503 42.8674 66.0021 42.0548 66.2843 41.2188C66.5776 40.3501 65.7707 39.1237 64.8776 39.208C63.9125 39.2991 63.5038 38.8674 63.2344 38.0631C63.1118 37.6971 62.8828 37.3681 62.7276 37.0112C62.5377 36.5746 62.2507 36.4368 61.7529 36.4065C59.9628 36.2975 58.1778 36.1028 56.2576 35.9126C54.2919 35.3394 52.341 34.7062 50.3547 34.2163C49.2303 33.9389 48.4553 33.4815 47.9444 32.3619C46.7661 29.78 45.4683 27.2511 44.1623 24.7301C43.8727 24.1711 43.4411 23.4982 42.9126 23.2903C41.8953 22.8902 41.8184 22.2485 41.9682 21.5065C42.4696 21.1845 42.9001 20.908 43.4137 20.61C43.4409 20.6008 43.468 20.5916 43.5853 20.598C43.6172 20.5487 43.6492 20.4994 43.7925 20.4014C44.4796 19.6022 44.7465 18.6864 44.7282 17.6261C44.7211 17.2153 44.9936 16.7572 45.2447 16.3938C45.7161 15.7114 46.2647 15.0823 46.8951 14.3725C47.4825 13.2304 47.4827 12.002 47.4549 10.7606C47.4107 8.78759 45.0194 6.24279 43.0432 6.18364C41.4189 6.13502 39.7914 6.19102 38.0315 6.17442C36.118 6.54153 34.8992 7.89059 33.5785 9.29167C32.5254 10.3657 31.4722 11.4397 30.308 12.5617C29.4532 13.4179 29.2499 13.9662 29.8123 14.3754C30.7685 15.0711 30.5677 15.7667 30.0699 16.5688C29.9243 16.8034 29.8053 17.0559 29.6906 17.3077C29.4604 17.8136 29.4786 18.2706 29.9347 18.6686C30.188 18.8897 30.3983 19.1602 30.574 19.5217C30.1776 20.3203 29.7811 21.1188 29.3783 21.9301C29.1455 21.9875 28.8373 22.0633 28.396 22.1568C27.7413 22.4853 26.9377 22.676 26.4715 23.1791C25.9523 23.7394 25.085 24.2325 25.2369 25.3762C24.7988 27.3408 24.3606 29.3054 23.8941 31.4061C23.4936 33.0514 23.0747 34.6926 22.7018 36.3441C22.5603 36.9708 23.1378 37.8307 23.7484 37.9645C25.1356 38.2683 26.5218 38.5874 27.9222 38.8153C28.5374 38.9154 28.5719 39.1609 28.4738 39.6759C28.2446 40.8793 28.0723 42.0936 27.8477 43.4455C27.7928 43.5726 27.703 43.6957 27.6883 43.8273C27.4589 45.8869 27.2392 47.9477 26.9918 50.1627C26.9335 51.8473 26.8901 53.5327 26.8018 55.2157C26.7874 55.4886 26.574 55.7511 26.3427 56.0745C26.0842 56.8689 25.6339 56.4805 25.2324 56.2407C23.3865 55.138 21.4156 54.4353 19.0921 54.3095C18.5525 54.3083 18.0126 54.3195 17.4735 54.3036C16.0112 54.2604 14.5918 54.458 13.1049 54.9998C12.7995 55.1152 12.4684 55.1881 12.1931 55.3536C11.0948 56.0141 10.0138 56.7035 8.81729 57.4295C7.87929 58.4451 6.94129 59.4607 5.89238 60.5262Z" fill="#240F6E"/>
<path d="M32.6853 72.1876C32.8418 71.3765 32.9983 70.5653 33.1682 69.6847C32.9647 69.6593 32.765 69.6344 32.6648 69.6219C32.435 70.7061 32.2181 71.7295 31.9148 72.8029C31.4265 72.5739 31.0246 72.2947 30.6345 71.9479C30.768 71.1423 30.8897 70.4043 31.0177 69.6278C30.4687 69.6278 30.1059 69.6278 29.7152 69.5765C29.181 69.0924 28.6747 68.6597 28.177 68.1532C27.9869 65.3367 26.8065 63.108 24.7522 61.3162C24.2569 61.9595 23.8192 62.5281 23.3712 63.037C23.0152 62.665 22.6695 62.3526 22.334 61.9795C22.6238 61.5379 22.8852 61.1419 23.1884 60.781C23.4489 60.4711 23.4498 60.3185 23.0701 60.0733C21.7955 59.25 20.3777 58.9292 18.8954 58.6959C18.6052 58.1804 18.3263 57.7217 18.126 57.2506C20.105 57.1007 21.8372 57.6678 23.5112 58.493C23.8532 58.6615 24.2172 58.7856 24.5813 58.9901C24.995 59.4165 25.3984 59.783 25.8545 60.1712C28.3078 62.3218 29.5429 65.0231 29.8013 68.1812C30.1916 68.1812 30.5462 68.1812 31.0272 68.1812C30.8847 67.2914 30.7538 66.4738 30.68 65.6676C31.2683 66.0133 31.7995 66.3475 32.3918 66.7209C32.4741 67.2354 32.4954 67.7108 32.5222 68.3111C32.9504 68.2124 33.3148 68.1283 33.7162 68.0894C34.1393 68.4565 34.5256 68.7784 34.9028 69.1692C34.9897 69.8306 34.2435 70.4685 35.0158 71.0317C35.5582 71.4273 36.067 71.8689 36.6194 72.313C36.8504 72.005 36.9778 71.8351 37.1596 71.69C37.5923 71.932 37.9705 72.1492 38.3398 72.4352C38.1792 73.2623 38.0274 74.0205 37.8757 74.7787C37.9321 74.7861 37.9884 74.7935 38.0448 74.8009C38.3045 74.3286 38.5643 73.8563 38.884 73.3943C39.3186 73.6313 39.6933 73.8579 40.068 74.0846C39.602 75.1861 39.1361 76.2875 38.5964 77.4497C38.2661 77.3489 37.9984 77.2023 37.7554 77.0224C37.3743 76.7403 37.0099 76.4356 36.626 76.0614C36.6135 75.2684 36.6135 74.5544 36.6135 74.0044C35.8108 73.5127 35.1176 73.0746 34.4044 72.6717C34.3319 72.6308 34.1396 72.8021 33.9429 72.8725C33.4837 72.6425 33.0845 72.4151 32.6853 72.1876Z" fill="#77C2DA"/>
<path d="M43.4915 20.8154C43.0612 21.0919 42.6309 21.3683 42.1298 21.6903C41.9799 22.4321 42.0569 23.0737 43.0738 23.4737C43.6021 23.6816 44.0335 24.3543 44.3229 24.9132C45.6285 27.4337 46.9258 29.9621 48.1036 32.5436C48.6143 33.663 49.3891 34.1203 50.5131 34.3976C52.4986 34.8875 54.4487 35.5205 56.4915 36.1645C56.9056 36.7513 57.2419 37.2672 57.511 37.7963C57.2708 37.9533 57.0093 38.064 56.9407 38.247C56.6826 38.9353 56.4875 39.6471 56.2956 40.2638C57.7675 40.7916 59.5625 39.9959 60.6215 41.6498C60.8545 41.4758 61.0109 41.3591 61.2184 41.2696C61.588 41.6314 61.9064 41.9661 62.2033 42.3543C62.1408 42.4471 62.0968 42.4838 62.0591 42.5261C60.8892 43.8425 60.4876 43.878 59.3072 42.5611C59.1324 42.366 58.8732 42.1556 58.6317 42.1258C56.9087 41.9134 55.1802 41.7461 53.4422 41.508C53.0965 40.976 52.762 40.5005 52.5047 40.0347C53.2221 40.0445 53.8623 40.0445 54.6735 40.0445C54.8547 39.4925 55.0611 38.7234 55.3626 37.9936C55.5648 37.5042 55.4471 37.3994 54.9643 37.2719C53.1737 36.7988 51.4127 36.2106 49.6158 35.7657C48.3985 35.4643 47.5336 34.9757 46.9812 33.7164C45.8654 31.1725 44.563 28.7086 43.2877 26.2374C42.802 25.2962 42.2575 24.3479 40.9542 24.3454C40.3079 24.3441 39.6618 24.2546 39.0043 24.1482C38.7713 23.6901 38.5497 23.2886 38.4072 22.8746C39.2197 22.862 39.953 22.862 40.7336 22.862C40.7336 22.5398 40.7328 22.316 40.7337 22.0922C40.7406 20.2901 40.7407 20.2901 42.4834 19.7852C42.8536 20.1467 43.1725 20.4811 43.4915 20.8154Z" fill="#CD95E9"/>
<path d="M26.6201 56.1958C26.7415 55.9285 26.9549 55.6661 26.9692 55.3932C27.0575 53.7105 27.1009 52.0255 27.2315 50.2676C27.7034 50.4207 28.1029 50.6474 28.5152 50.9538C28.5279 53.0345 28.5279 55.0355 28.5279 57.1171C29.3358 57.0561 30.1866 57.0371 31.0234 56.9189C32.5415 56.7046 34.0513 56.4312 35.5938 56.2336C35.8942 56.7069 36.1655 57.129 36.3685 57.563C35.7921 57.7045 35.2841 57.8341 34.755 57.969C35.1645 58.8038 35.5073 59.6639 35.9865 60.4398C36.6205 61.4664 36.785 62.4841 36.3576 63.6221C36.2957 63.787 36.4548 64.1716 36.6181 64.2616C37.5359 64.7676 38.4863 65.2145 39.4752 65.7063C39.7343 65.1314 39.9666 64.6159 40.2525 64.125C40.6846 64.4249 41.0631 64.6999 41.4317 65.0406C40.9088 66.3834 40.3958 67.6605 39.8686 68.8808C39.4697 68.5128 39.085 68.2014 38.6895 67.8252C38.9462 67.3143 38.8504 67.0501 38.3406 66.8456C37.7955 66.6271 37.2941 66.2992 36.7666 65.9594C36.0718 65.2436 35.3839 64.5876 34.7061 63.8608C34.7655 63.5758 34.8452 63.3633 34.8583 63.1468C34.8873 62.6687 35.0278 62.1304 34.8634 61.7207C34.4517 60.6945 33.9265 59.7086 33.3754 58.7474C33.2423 58.5153 32.8278 58.3091 32.5505 58.3186C31.381 58.3589 30.2145 58.4853 29.0356 58.5239C28.223 57.7103 27.4216 56.953 26.6201 56.1958Z" fill="#88B9DD"/>
<path d="M28.0444 43.4832C28.2397 42.2735 28.4119 41.0594 28.6411 39.8562C28.7391 39.3413 28.7045 39.0959 28.0896 38.9958C26.6897 38.7679 25.3041 38.4489 23.9175 38.1451C23.307 38.0114 22.7297 37.1517 22.8712 36.5251C23.244 34.8739 23.6627 33.233 24.1337 31.5312C24.6058 31.6961 25.0073 31.9177 25.4217 32.2103C25.2216 33.309 25.0085 34.3368 24.7731 35.4724C25.1579 35.2407 25.4568 35.0608 25.7934 34.8646C25.8798 34.8214 25.9201 34.785 25.9934 34.7285C26.0349 34.7178 26.1182 34.6981 26.1284 34.7572C26.422 35.1895 26.7055 35.5627 26.9619 35.9889C26.5118 36.3193 26.0888 36.5967 25.6195 36.9044C26.6379 37.0999 27.572 37.2792 28.558 37.486C29.2044 38.0139 29.7989 38.5142 30.406 39.0837C30.3012 39.6549 30.1837 40.1569 30.0488 40.7333C30.7755 40.7333 31.4253 40.7296 32.0749 40.7344C32.7273 40.7393 33.3795 40.7527 34.043 40.8191C34.2759 41.2772 34.4976 41.6785 34.6396 42.0928C33.5391 42.1066 32.5183 42.1083 31.4974 42.1085C29.4815 42.1088 29.4815 42.1084 29.3046 44.1603C28.8462 43.9277 28.4453 43.7054 28.0444 43.4832Z" fill="#A0ACE1"/>
<path d="M65.4543 43.9999C65.172 44.7128 64.8896 45.4256 64.568 46.2378C65.8604 46.2378 67.0535 46.2378 68.3287 46.3107C68.6384 46.783 68.866 47.1823 69.0223 47.5945C67.8533 47.4271 68.0845 48.3244 67.8729 48.8855C68.8554 49.0618 68.8554 49.0618 69.3499 47.7929C69.8079 48.0831 70.2098 48.3621 70.6254 48.7055C70.8114 48.8511 70.9837 48.9324 71.1584 49.0743C71.7226 49.6578 72.2844 50.1807 72.8461 50.7037C72.7035 51.3474 72.6054 52.0064 72.3937 52.6265C72.3216 52.8379 71.9725 53.0702 71.7346 53.0881C70.9685 53.1456 70.1952 53.1077 69.3425 53.0334C68.9733 52.4884 68.6863 52.0165 68.4024 51.474C68.4624 51.0813 68.5193 50.7594 68.603 50.2862C68.1317 50.3782 67.7389 50.4548 67.2897 50.5205C66.765 50.0109 66.2965 49.5124 65.8945 49.0003C66.1827 48.5805 66.4046 48.1742 66.7018 47.6298C65.6966 47.6298 64.9064 47.6298 64.0888 47.5785C63.6737 47.0896 63.2861 46.6522 62.9033 46.1498C63.318 45.1037 63.7278 44.1224 64.1938 43.1523C64.6513 43.4423 65.0528 43.7211 65.4543 43.9999ZM70.6814 51.7345C70.94 51.3328 71.1986 50.9311 71.5196 50.4325C70.0128 50.3197 70.2921 50.2175 69.9607 51.6841C70.156 51.7015 70.3455 51.7184 70.6814 51.7345Z" fill="#D093EA"/>
<path d="M26.5653 56.225C27.4216 56.9542 28.2231 57.7115 28.9739 58.5377C28.7581 58.6149 28.5928 58.6231 28.3789 58.6338C28.8023 59.1464 29.2069 59.6086 29.5812 60.0942C31.084 62.0439 32.0501 64.2207 32.3301 66.6823C31.7989 66.3481 31.2677 66.0139 30.6659 65.6027C29.7877 63.0186 28.5046 60.8214 26.3421 58.9881C26.1347 59.4337 25.968 59.7919 25.8013 60.1501C25.3978 59.7836 24.9944 59.4171 24.6038 58.9383C24.9997 58.4635 25.2916 58.0516 24.597 57.7655C23.2293 57.2024 21.8359 56.7017 20.4419 56.1187C20.0944 55.546 19.7581 55.0298 19.4219 54.5137C21.5852 54.6142 23.5553 55.3167 25.4005 56.4192C25.8018 56.659 26.252 57.0473 26.5653 56.225Z" fill="#7EBEDB"/>
<path d="M55.3505 52.4405C55.1461 52.6163 54.9416 52.792 54.7091 52.9918C55.1981 54.3456 54.9251 55.6588 54.2551 56.9911C53.7677 56.8184 53.3668 56.5962 52.9546 56.3067C53.1254 55.4558 53.6818 54.7094 53.217 53.8345C52.3557 54.3006 51.5324 54.7461 50.6992 55.1323C50.404 54.6951 50.1187 54.3173 49.8599 53.8846C50.7779 53.3411 51.6695 52.8527 52.7392 52.2667C51.6919 51.6461 50.7487 51.0871 49.8222 50.5381C49.1643 51.0382 48.5469 51.5076 47.8688 51.9483C47.4522 51.5636 47.0962 51.2075 46.7653 50.7977C47.2372 50.4335 47.684 50.123 48.1472 49.801C47.6307 49.5077 47.1866 49.2554 46.7351 48.9427C46.4992 48.537 46.2833 48.1825 46.0388 47.8489C45.7167 47.4095 45.3722 46.9865 45.1006 46.5664C46.7099 47.3401 48.2801 48.0592 49.7947 48.8807C51.159 49.6207 52.732 50.0238 53.798 51.2772C53.8802 51.3739 54.1515 51.3098 54.3964 51.349C54.7554 51.7319 55.0529 52.0862 55.3505 52.4405Z" fill="#B1A4E4"/>
<path d="M17.1875 83.5033C15.2173 83.3041 13.2885 82.9256 11.5254 81.982C7.32886 79.736 4.65441 76.3375 3.78442 71.6055C3.69366 71.1118 3.66868 70.6061 3.68209 70.041C4.22398 70.3111 4.69696 70.6462 5.22781 71.0175C5.52787 72.7349 6.10642 74.2857 7.0247 75.7198C8.41935 77.8979 10.1698 79.6693 12.6272 80.6082C13.8408 81.0718 15.0932 81.4339 16.3307 81.9027C16.618 82.4767 16.9028 82.99 17.1875 83.5033Z" fill="#45DDD1"/>
<path d="M70.2979 54.5137C72.7753 54.6271 75.0023 55.4916 77.0366 56.853C80.242 58.9983 82.1922 62.0367 83.14 65.7362C83.305 66.3803 83.2887 67.0708 83.2871 67.8043C82.7429 67.5346 82.2677 67.2005 81.733 66.832C81.5575 65.1386 80.8425 63.6756 80.0302 62.2904C78.9107 60.3816 77.4319 58.7435 75.4084 57.7689C73.9807 57.0812 72.4496 56.6081 71.0019 56.0026C70.792 55.4819 70.5449 54.9978 70.2979 54.5137Z" fill="#CF94EA"/>
<path d="M66.8579 83.3355C65.3126 82.828 63.6709 82.5089 62.2401 81.7775C58.0469 79.634 55.5303 76.1564 54.6557 71.5128C54.5991 71.2126 54.5437 70.9122 54.5608 70.543C55.1474 70.8161 55.661 71.1581 56.1885 71.5672C56.2579 71.7607 56.3366 71.882 56.3655 72.0142C56.8602 74.2732 57.9965 76.1862 59.5574 77.8556C61.2365 79.6515 63.3304 80.7742 65.6677 81.554C66.0719 82.1855 66.4649 82.7605 66.8579 83.3355Z" fill="#95B2E0"/>
<path d="M52.7802 61.1954C52.2018 62.8105 51.6235 64.4256 50.9739 66.0946C50.4858 65.925 50.0688 65.7015 49.6611 65.4109C50.0771 64.1701 50.4838 62.9964 50.9045 61.7824C50.005 61.4031 49.1503 61.0189 48.2738 60.6934C48.1016 60.6295 47.8451 60.7927 47.5677 60.8407C47.093 60.6056 46.6782 60.381 46.2524 60.0893C46.3619 59.5289 46.4823 59.0357 46.6026 58.5425C46.5495 58.5347 46.4964 58.527 46.4432 58.5192C46.2658 58.7236 46.0883 58.928 45.8516 59.1223C45.4175 58.8279 45.0426 58.5436 44.692 58.2044C44.9182 57.8687 45.12 57.5877 45.3942 57.206C44.6699 57.206 44.0774 57.206 43.4735 57.1493C43.2405 56.6912 43.0189 56.2898 42.877 55.8759C44.1067 55.8717 45.2567 55.8801 46.4173 55.9464C47.0533 56.7071 47.6786 57.4098 48.301 58.1774C48.2752 58.4705 48.2523 58.6987 48.2288 58.9322C49.3409 59.3981 50.4423 59.8594 51.5952 60.3485C52.0245 60.6493 52.4024 60.9224 52.7802 61.1954Z" fill="#9FADE1"/>
<path d="M65.8287 49.0139C66.2971 49.5125 66.7655 50.011 67.3032 50.591C67.3175 50.9937 67.2626 51.3149 67.1804 51.796C67.6273 51.7039 68.0135 51.6243 68.3998 51.5448C68.6868 52.0167 68.9738 52.4885 69.2636 53.021C67.6032 53.0917 65.9401 53.1018 64.1695 53.0691C63.6291 52.6531 63.1962 52.2799 62.7632 51.9067C62.7632 50.7477 62.7632 49.5888 62.7632 48.2552C61.8676 48.7681 61.0773 49.2207 60.2149 49.6238C59.8583 49.2001 59.5739 48.826 59.3164 48.3973C60.5286 47.6335 61.7138 46.9242 62.899 46.2148C63.2867 46.6523 63.6743 47.0897 64.0863 47.6552C64.1107 48.1706 64.1107 48.558 64.1107 49.0139C64.7506 49.0139 65.2896 49.0139 65.8287 49.0139ZM64.1236 51.6016C65.4514 51.9703 65.7292 51.7667 65.7499 50.4011C65.2224 50.4011 64.6957 50.4011 64.1108 50.4011C64.1108 50.7748 64.1108 51.1085 64.1236 51.6016Z" fill="#C897E8"/>
<path d="M65.4685 43.9353C65.0533 43.7208 64.6518 43.4419 64.1831 43.1091C64.1234 43.0265 64.1309 42.9979 64.168 42.9429C64.2339 42.8765 64.2591 42.8304 64.2784 42.7127C64.3985 42.3429 64.5559 42.0467 64.6165 41.732C64.6728 41.439 64.626 41.1263 64.6246 40.8222C64.2722 40.8883 63.8493 40.8542 63.5827 41.042C63.0825 41.3943 62.6727 41.8749 62.2252 42.3021C61.9069 41.9674 61.5885 41.6327 61.2419 41.2171C61.434 40.9158 61.6702 40.7087 61.8705 40.4713C62.1159 40.1805 62.6643 39.9886 62.2423 39.4447C61.8274 38.91 61.9639 37.9301 60.8489 37.9632C59.7616 37.9956 58.669 37.8512 57.5787 37.7843C57.2424 37.2684 56.9061 36.7525 56.5586 36.1797C58.3337 36.285 60.1179 36.4797 61.9074 36.5886C62.405 36.6189 62.6919 36.7567 62.8817 37.1933C63.0369 37.5501 63.2658 37.879 63.3883 38.2449C63.6576 39.0491 64.0661 39.4807 65.0309 39.3896C65.9237 39.3053 66.7303 40.5315 66.4371 41.4C66.155 42.2358 65.8033 43.0483 65.4685 43.9353Z" fill="#D790EB"/>
<path d="M25.4666 25.4363C25.2536 24.4156 26.1206 23.9226 26.6396 23.3624C27.1057 22.8594 27.9089 22.6687 28.6333 22.3945C28.9326 22.8623 29.1618 23.2758 29.3268 23.7029C28.8478 23.8916 28.4332 24.0668 28.0186 24.242C28.0302 24.3026 28.0417 24.3632 28.0533 24.4238C29.2457 24.6982 30.4381 24.9726 31.6313 25.3103C32.2099 25.9702 32.7878 26.5667 33.3563 27.234C33.0659 28.4034 32.785 29.502 32.4448 30.5902C31.9697 30.2978 31.5539 30.0158 31.1477 29.6678C31.3908 28.7036 31.6244 27.8056 31.8686 26.8669C31.2689 26.7418 30.7937 26.6428 30.2695 26.5334C30.0815 27.3406 29.8937 28.1471 29.6461 28.9222C29.187 28.5989 28.7877 28.3068 28.376 27.9444C28.4774 27.3156 28.5913 26.7572 28.7066 26.1916C28.0468 26.0768 27.4555 25.9738 26.8509 25.8686C26.8267 26.0231 26.8053 26.1594 26.7279 26.2847C26.2701 25.9946 25.8683 25.7155 25.4666 25.4363Z" fill="#B7A0E5"/>
<path d="M36.638 76.1406C37.0094 76.4357 37.3738 76.7403 37.7549 77.0224C37.9979 77.2024 38.2656 77.349 38.5827 77.513C38.6822 77.6293 38.7148 77.8387 38.7613 77.8419C39.1592 77.8689 39.5609 77.8798 39.9588 77.8541C40.4757 77.8206 40.7498 77.9539 40.7499 78.5543C40.7501 79.1699 40.4441 79.2447 39.9438 79.2411C37.7745 79.2257 35.605 79.238 33.4355 79.231C33.0052 79.2296 32.5081 79.3835 32.4676 78.6304C32.429 77.9107 32.7997 77.8158 33.3551 77.8439C33.4007 77.8463 33.4493 77.7884 33.5336 77.7351C33.2079 76.4606 32.8387 75.1818 32.5704 73.8821C32.4677 73.3847 32.5954 72.8396 32.6515 72.252C33.084 72.4151 33.4832 72.6426 33.955 72.9433C34.3755 74.5233 34.7041 76.0352 35.1009 77.529C35.1411 77.6806 35.627 77.8531 35.8455 77.7935C36.6979 77.5609 36.5974 76.8032 36.638 76.1406Z" fill="#70C6D9"/>
<path d="M43.5331 20.8064C43.1725 20.4828 42.8536 20.1484 42.5074 19.732C42.7265 19.3482 43.1484 19.0683 43.1891 18.7411C43.3793 17.2107 43.4644 15.6674 43.5909 14.0808C42.5481 14.5625 41.7304 14.9403 40.9092 15.2548C40.6114 14.8232 40.3171 14.4548 40.0508 14.028C40.339 13.8795 40.626 13.8329 40.8546 13.6917C41.6993 13.1698 42.4989 12.5686 43.3701 12.0986C43.724 11.9076 44.2303 11.9033 44.6406 11.9725C44.7608 11.9928 44.833 12.5554 44.85 12.8736C44.8825 13.4801 44.8595 14.0895 44.8595 14.6976C44.909 14.7088 44.9586 14.72 45.0082 14.7311C45.2545 14.347 45.5008 13.9629 45.8029 13.5905C46.2194 13.9408 46.5801 14.2794 46.9408 14.6179C46.4245 15.269 45.8762 15.898 45.405 16.5802C45.154 16.9436 44.8816 17.4016 44.8887 17.8123C44.907 18.8724 44.6402 19.788 43.8616 20.6254C43.7246 20.6904 43.6867 20.7252 43.6561 20.768C43.629 20.7772 43.6018 20.7864 43.5331 20.8064Z" fill="#DF8BED"/>
<path d="M62.7502 51.9863C63.1961 52.2799 63.6291 52.6531 64.0898 53.0776C64.1176 53.7962 64.1176 54.4635 64.1176 55.1397C64.6226 55.0286 65.0699 54.9302 65.598 54.9012C65.9006 55.3721 66.1223 55.7737 66.2768 56.1893C65.5635 56.4029 64.9176 56.6025 64.3149 56.7888C64.3149 57.2503 64.3149 57.634 64.3149 57.7865C65.7987 57.6117 67.2746 57.4378 68.761 57.3221C68.9918 57.7959 69.2122 58.2116 69.3575 58.6199C67.6739 58.6999 66.1087 58.9797 64.6057 59.6085C64.2456 59.2088 63.9361 58.8338 63.5713 58.5239C63.4023 58.3804 63.1256 58.3636 62.8416 58.263C62.7174 58.0201 62.6493 57.8036 62.5218 57.5765C62.0876 57.2244 61.7127 56.8828 61.3379 56.5413C62.6608 56.1307 62.9176 55.1725 62.7488 53.9307C62.6658 53.3199 62.7362 52.6882 62.7502 51.9863Z" fill="#BF9CE7"/>
<path d="M46.9986 14.5878C46.5809 14.2785 46.2202 13.9399 45.8137 13.5227C46.7484 10.6739 45.4465 8.54998 43.2421 7.99484C41.9486 7.66908 40.5433 7.78725 39.1771 7.64965C38.887 7.19176 38.608 6.78996 38.3291 6.38816C39.9546 6.37853 41.5814 6.32254 43.2051 6.37115C45.1805 6.43029 47.5709 8.97461 47.6151 10.9472C47.6429 12.1884 47.6427 13.4166 46.9986 14.5878Z" fill="#EA85EE"/>
<path d="M33.3651 27.1643C32.7872 26.5678 32.2093 25.9713 31.6888 25.3187C31.7208 25.0786 31.7571 24.8483 31.6597 24.7183C31.0975 23.9679 30.2959 23.7052 29.3905 23.6903C29.1612 23.2768 28.9319 22.8633 28.6992 22.3868C29.0039 22.2479 29.3119 22.1721 29.5447 22.1148C29.9473 21.3036 30.3436 20.5052 30.8252 19.6621C31.2874 19.9454 31.6644 20.2734 32.0106 20.6528C31.9196 20.879 31.8593 21.0537 31.7859 21.2666C32.0494 21.2948 32.2668 21.318 32.4955 21.398C32.7284 21.8562 32.9501 22.2576 33.0993 22.6719C32.6496 22.6847 32.2724 22.6847 31.8174 22.6847C32.381 23.2101 32.858 23.6547 33.3611 24.1237C33.6164 23.9737 33.9857 23.7567 34.4064 23.5672C34.7801 23.9253 35.1025 24.2559 35.4003 24.6423C34.3892 25.2623 33.7234 26.0879 33.3651 27.1643Z" fill="#BF9CE7"/>
<path d="M49.6511 65.4774C50.0681 65.7009 50.4851 65.9243 50.9594 66.159C50.1469 67.5325 50.9523 68.7488 51.3321 70.0127C51.6242 70.9849 51.8956 71.9836 50.8987 72.83C50.473 72.493 50.1546 72.1582 49.8652 71.763C49.6431 70.4803 49.3921 69.2579 49.1411 68.0356C49.0646 68.0575 48.9881 68.0795 48.9116 68.1014C48.5369 68.7254 48.1621 69.3495 47.7604 69.9222C47.3986 69.5522 47.0639 69.2335 46.7393 68.8508C47.4142 67.6549 47.6071 66.4302 47.526 65.1426C48.0426 65.43 48.499 65.7149 48.9789 66.0519C49.1115 66.1219 49.2947 66.1861 49.3173 66.1499C49.4494 65.9388 49.5439 65.7041 49.6511 65.4774Z" fill="#93B3DF"/>
<path d="M38.7001 67.8906C39.0849 68.202 39.4696 68.5133 39.8638 68.9452C39.6715 69.4371 39.5651 69.7803 40.152 69.9743C40.3346 69.6717 40.5031 69.3925 40.6976 69.1773C41.0774 69.5957 41.4311 69.9502 41.7755 70.3684C41.8057 70.5583 41.8296 70.7849 41.8875 70.7939C42.1855 70.8404 42.4922 70.831 42.807 70.8973C43.1548 71.4127 43.4914 71.8717 43.8279 72.3308C42.8829 72.3308 41.938 72.3308 40.9078 72.3308C40.6967 72.8209 40.4368 73.4243 40.1221 74.0562C39.6925 73.8579 39.3179 73.6313 38.8922 73.329C39.0297 72.8014 39.2427 72.3575 39.3921 71.8931C39.44 71.7443 39.3198 71.5414 39.2765 71.3633C39.1144 71.4511 38.91 71.5033 38.7997 71.6346C38.6172 71.8517 38.4953 72.1197 38.3479 72.3663C37.9697 72.1491 37.5916 71.932 37.1689 71.6252C37.6497 70.3206 38.1749 69.1056 38.7001 67.8906Z" fill="#80BEDB"/>
<path d="M43.8961 72.3421C43.492 71.8707 43.1555 71.4117 42.8818 70.884C43.3228 70.7629 43.7022 70.7179 44.0788 70.6565C45.2204 70.4703 45.9329 69.627 46.73 68.9141C47.0647 69.2328 47.3993 69.5515 47.7406 69.9731C47.6563 70.1922 47.5655 70.3084 47.4885 70.4069C48.0076 70.811 48.4483 71.1993 48.936 71.5153C49.1943 71.6827 49.534 71.7243 49.837 71.8227C50.1553 72.1575 50.4737 72.4923 50.843 72.8547C50.9538 72.9749 51.0577 73.064 51.0656 73.1608C51.0955 73.5302 51.0944 73.9022 51.1049 74.2733C50.7366 74.2645 50.2808 74.3923 50.0158 74.2225C49.0315 73.5916 48.0741 72.9057 47.1778 72.1553C46.588 71.6615 46.1024 71.4289 45.375 71.8965C44.9727 72.1552 44.4384 72.2085 43.8961 72.3421Z" fill="#8AB8DD"/>
<path d="M32.042 20.6013C31.6651 20.2733 31.2881 19.9453 30.8529 19.6054C30.565 19.3453 30.3548 19.0749 30.1016 18.8538C29.6456 18.4558 29.6274 17.9989 29.8576 17.4932C29.9722 17.2414 30.0912 16.9889 30.2367 16.7544C30.7344 15.9525 30.9351 15.2569 29.9792 14.5614C29.417 14.1523 29.6203 13.6041 30.5579 12.7754C30.9757 13.121 31.3105 13.4392 31.6372 13.8189C32.8484 14.8699 32.501 15.9418 31.7959 17.0336C31.7352 17.1277 31.6334 17.2321 31.6397 17.3258C31.6608 17.6436 31.6051 18.1007 31.7875 18.2509C32.7088 19.0092 32.6906 19.5492 32.042 20.6013Z" fill="#C897E8"/>
<path d="M69.0944 47.5813C68.8668 47.182 68.6392 46.7827 68.4092 46.3234C69.971 46.2537 71.5353 46.2535 73.0993 46.2287C73.5842 46.221 73.8218 46.4318 73.7276 46.8907C73.4742 48.1249 73.183 49.3513 72.8769 50.6421C72.2852 50.1805 71.7235 49.6575 71.2275 49.0613C72.2145 48.9352 71.6699 48.0802 72.058 47.7344C71.007 47.2357 70.8453 47.9907 70.6125 48.6409C70.2106 48.3619 69.8087 48.0828 69.3321 47.7464C69.203 47.6532 69.1487 47.6172 69.0944 47.5813Z" fill="#D790EB"/>
<path d="M30.6226 72.0156C31.0244 72.2948 31.4263 72.574 31.8842 72.8641C31.6785 74.5974 30.7869 76.0393 29.8634 77.4587C29.5743 77.903 29.1761 78.2765 28.7211 78.6798C28.298 78.3406 27.9817 78.0041 27.6885 77.6138C27.9177 77.297 28.1374 77.0434 28.328 76.7694C29.3451 75.3073 30.2379 73.7836 30.6226 72.0156Z" fill="#6ACAD8"/>
<path d="M17.2664 83.5153C16.903 82.9895 16.6183 82.4761 16.4072 81.8896C17.0549 81.8464 17.6422 81.9687 18.2004 81.8886C19.7006 81.6735 21.1885 81.372 22.6847 81.168C22.9807 81.5995 23.2733 81.9679 23.566 82.3363C21.6086 83.3406 19.4942 83.5245 17.2664 83.5153Z" fill="#4FD8D3"/>
<path d="M23.6316 82.3332C23.2735 81.9682 22.9809 81.5998 22.7129 81.1137C24.5954 80.2053 26.242 79.1017 27.6657 77.668C27.9819 78.0045 28.2982 78.3411 28.6681 78.7027C27.3461 80.3459 25.7012 81.5884 23.6316 82.3332Z" fill="#5BD1D5"/>
<path d="M25.4355 25.498C25.8678 25.7158 26.2696 25.9949 26.7385 26.3534C26.6933 26.8869 26.5796 27.3408 26.4685 27.7953C26.1147 29.2432 25.7617 30.6914 25.4085 32.1396C25.0069 31.9179 24.6054 31.6963 24.1475 31.4634C24.529 29.4879 24.967 27.5237 25.4355 25.498Z" fill="#ADA6E3"/>
<path d="M28.0292 43.5547C28.4447 43.706 28.8456 43.9282 29.2919 44.2299C29.0589 46.4977 28.7806 48.6861 28.5023 50.8745C28.1028 50.6478 27.7033 50.4211 27.2441 50.1907C27.4064 48.127 27.626 46.0666 27.8553 44.0074C27.8699 43.8759 27.9598 43.7527 28.0292 43.5547Z" fill="#93B3DF"/>
<path d="M19.3422 54.5008C19.7581 55.0296 20.0944 55.5458 20.3697 56.1291C18.2679 55.807 16.2542 55.9284 14.2544 56.4624C13.9643 56.0046 13.6853 55.6029 13.4062 55.2011C14.764 54.6367 16.1828 54.4391 17.6446 54.4823C18.1835 54.4982 18.7232 54.487 19.3422 54.5008Z" fill="#75C4D9"/>
<path d="M56.1744 71.5004C55.6608 71.1584 55.1472 70.8164 54.5732 70.4718C54.4345 68.5471 54.3898 66.6278 55.0737 64.707C55.5613 64.8728 55.9781 65.0966 56.3862 65.3923C55.9188 67.4631 55.9246 69.4777 56.1744 71.5004Z" fill="#9CAEE1"/>
<path d="M77.1796 80.8011C75.7051 81.987 74.0126 82.6793 72.0822 82.9654C71.6698 82.5224 71.3389 82.1319 71.0674 81.6976C73.0539 81.4514 74.7026 80.561 76.3158 79.6172C76.6104 80.0513 76.895 80.4262 77.1796 80.8011Z" fill="#A5AAE2"/>
<path d="M59.2893 48.4512C59.5738 48.8253 59.8582 49.1995 60.1527 49.6329C58.6007 50.6021 57.0386 51.5122 55.4137 52.432C55.0533 52.0874 54.7557 51.7331 54.4434 51.305C56.0488 50.3045 57.6691 49.3778 59.2893 48.4512Z" fill="#BD9DE7"/>
<path d="M38.2615 6.375C38.6073 6.78992 38.8863 7.19172 39.115 7.68001C38.209 8.16568 37.3046 8.48814 36.5131 8.98888C35.9051 9.37356 35.4391 9.98283 34.859 10.4632C34.4888 10.1009 34.1697 9.76759 33.8506 9.43426C35.0635 8.07773 36.2818 6.72893 38.2615 6.375Z" fill="#DE8CEC"/>
<path d="M56.3953 65.3205C55.9786 65.0967 55.5619 64.8729 55.0879 64.6377C55.6033 62.969 56.2994 61.3765 57.5666 60.0117C58.0136 60.3319 58.3445 60.6636 58.6455 61.0419C57.8755 62.4992 57.1354 63.9098 56.3953 65.3205Z" fill="#A8A8E3"/>
<path d="M81.792 66.8652C82.2672 67.1994 82.7424 67.5335 83.2741 67.8786C83.4431 69.736 83.3771 71.5652 82.7118 73.3255C82.2487 72.9332 81.8731 72.5598 81.4863 72.1167C81.5808 70.3197 81.6864 68.5925 81.792 66.8652Z" fill="#C698E8"/>
<path d="M5.1701 70.9805C4.69712 70.6455 4.22413 70.3104 3.69473 69.9642C3.47042 68.1922 3.58698 66.4579 4.19476 64.7051C4.66684 64.9261 5.06919 65.2051 5.48391 65.5549C5.00966 67.3876 5.0507 69.1817 5.1701 70.9805Z" fill="#4FD8D3"/>
<path d="M71.0077 81.7414C71.3386 82.1319 71.6695 82.5224 72.0113 82.9745C70.7239 83.1439 69.426 83.2584 68.1268 83.355C67.7592 83.3824 67.3877 83.3573 66.9379 83.3459C66.4648 82.7604 66.0717 82.1853 65.7373 81.543C67.511 81.9993 69.2598 81.8612 71.0077 81.7414Z" fill="#9CAEE1"/>
<path d="M58.6746 60.9954C58.3437 60.6637 58.0128 60.332 57.6201 59.9892C58.5245 59.0094 59.4825 58.0323 60.4633 57.0787C60.6762 56.8718 60.971 56.7491 61.2828 56.5645C61.7123 56.8829 62.0872 57.2244 62.4947 57.6316C61.3274 58.6892 60.1273 59.6811 58.8948 60.7028C58.8324 60.7833 58.8026 60.8339 58.7607 60.9233C58.7486 60.962 58.6746 60.9954 58.6746 60.9954Z" fill="#B5A1E5"/>
<path d="M77.241 80.7931C76.8953 80.4263 76.6107 80.0514 76.3418 79.564C77.429 78.3986 78.5004 77.3456 79.6082 76.3379C80.0302 76.6485 80.416 76.9138 80.8017 77.1791C79.9661 78.1415 79.1466 79.1187 78.2856 80.0578C78.0151 80.3528 77.6331 80.5456 77.241 80.7931Z" fill="#B2A3E4"/>
<path d="M13.3418 55.1895C13.6852 55.6026 13.9642 56.0043 14.1895 56.4756C12.8106 57.2357 11.4854 57.9261 10.109 58.5893C9.73873 58.2281 9.41966 57.894 9.10059 57.56C10.1876 56.8814 11.2682 56.1922 12.3661 55.5318C12.6413 55.3663 12.9722 55.2935 13.3418 55.1895Z" fill="#6ACAD8"/>
<path d="M33.7976 9.45703C34.1704 9.76822 34.4895 10.1015 34.8374 10.5175C33.7924 11.6528 32.7188 12.7054 31.6451 13.758C31.3104 13.4398 30.9757 13.1215 30.6133 12.7519C31.6384 11.6268 32.6912 10.553 33.7976 9.45703Z" fill="#D093EA"/>
<path d="M66.3443 56.1746C66.1225 55.773 65.9008 55.3714 65.668 54.9134C66.5557 54.7328 67.4516 54.579 68.3541 54.495C68.944 54.44 69.5433 54.4863 70.218 54.5002C70.5448 54.9973 70.7918 55.4814 70.9246 55.9991C69.3216 56.0799 67.833 56.1273 66.3443 56.1746Z" fill="#C698E8"/>
<path d="M80.8563 77.1558C80.4159 76.9142 80.0301 76.6489 79.6318 76.2835C80.2455 74.8514 80.8717 73.5195 81.4979 72.1875C81.8736 72.5608 82.2492 72.9342 82.6527 73.3588C82.0907 74.6508 81.5008 75.8915 80.8563 77.1558Z" fill="#BD9DE7"/>
<path d="M52.8365 61.1632C52.402 60.9221 52.0241 60.6491 51.6035 60.2807C52.0292 58.9152 52.4977 57.6451 52.9662 56.375C53.367 56.5972 53.7679 56.8194 54.2263 57.0519C53.8202 58.4186 53.3567 59.7749 52.8365 61.1632Z" fill="#A8A8E3"/>
<path d="M5.47128 65.4834C5.06893 65.2044 4.66658 64.9253 4.20801 64.6357C4.7905 63.3175 5.42922 62.0101 6.15274 60.7285C6.57129 61.0728 6.90504 61.3911 7.21364 61.7655C6.61609 63.0421 6.04368 64.2627 5.47128 65.4834Z" fill="#58D3D4"/>
<path d="M7.23862 61.7106C6.90488 61.3923 6.57113 61.0739 6.20801 60.7047C7.11628 59.6385 8.05392 58.6231 9.04609 57.584C9.41968 57.8944 9.73875 58.2284 10.0827 58.6432C9.15121 59.7195 8.19492 60.7151 7.23862 61.7106Z" fill="#5DD0D5"/>
<path d="M43.7013 20.7745C43.6868 20.7239 43.7247 20.6891 43.8061 20.6484C43.8102 20.6837 43.7783 20.733 43.7013 20.7745Z" fill="#CD95E9"/>
<path d="M18.906 58.7519C20.377 58.9284 21.7948 59.2493 23.0694 60.0725C23.4491 60.3177 23.4481 60.4703 23.1877 60.7803C22.8845 61.1411 22.6231 61.5371 22.2796 62.0014C21.5069 63.0435 20.7983 64.002 20.0333 64.9859C19.7174 65.4797 19.4615 65.65 18.808 65.5381C17.8521 65.3745 16.7696 65.2729 15.9155 66.1609C14.0876 67.2808 14.1767 70.6682 15.9111 71.7216C17.4461 72.6538 18.8171 72.6441 20.5173 71.4964C20.8267 70.9916 21.0448 70.4871 21.3495 70.0418C21.4894 69.8374 21.7908 69.6484 22.0339 69.6277C22.7634 69.5654 23.5002 69.5895 24.3139 69.5924C25.6459 69.6049 26.8983 69.6049 28.3377 69.6049C28.0292 70.8397 27.7545 71.9394 27.4258 73.0662C26.7391 74.6634 25.5263 75.7897 24.3423 77.0051C23.0723 77.6183 21.8798 78.2607 20.634 78.7737C19.9895 79.039 19.2506 79.075 18.4788 79.2229C12.1139 79.0965 7.67606 74.5193 7.81468 68.203C7.92036 67.7759 7.95789 67.3849 8.01284 66.9964C8.23519 65.4242 9.04159 64.0972 9.85767 62.7294C11.0945 61.4312 12.3636 60.2626 14.0065 59.4709C15.6304 58.8618 17.2464 58.6591 18.906 58.7519Z" fill="#240F6E"/>
<path d="M7.21366 61.7657C8.19509 60.7141 9.15139 59.7186 10.134 58.6694C11.4856 57.9255 12.8108 57.2351 14.2008 56.5311C16.2543 55.9275 18.268 55.8062 20.3811 56.1847C21.836 56.7006 23.2294 57.2013 24.5971 57.7644C25.2917 58.0505 24.9998 58.4624 24.5936 58.8773C24.2167 58.7851 23.8528 58.661 23.5108 58.4925C21.8367 57.6673 20.1045 57.1002 18.0469 57.2375C16.1009 57.1455 14.4177 57.4985 12.8093 58.4338C11.1162 59.1561 9.87338 60.3492 8.70255 61.7234C7.48614 63.4611 6.62928 65.2941 6.37546 67.4543C6.41914 68.8051 6.31635 70.1079 6.56254 71.341C7.19458 74.5068 8.90609 76.9831 11.6316 78.7828C14.0777 80.3981 16.7515 80.8157 19.6628 80.5926C21.7543 80.2187 23.6377 79.5099 25.326 78.1985C25.5803 77.9754 25.7707 77.7645 25.9824 77.5777C27.0881 76.6022 28.0272 75.5064 28.5955 74.0669C29.2819 72.6336 29.8051 71.2029 29.7427 69.6273C30.1054 69.6273 30.4682 69.6273 31.0172 69.6273C30.8892 70.4038 30.7675 71.1418 30.6341 71.9474C30.2376 73.7831 29.3448 75.3067 28.3277 76.7689C28.1371 77.0428 27.9174 77.2965 27.6882 77.6132C26.2415 79.1006 24.5949 80.2043 22.709 81.0496C21.1882 81.3713 19.7003 81.6728 18.2001 81.8879C17.6418 81.9679 17.0546 81.8457 16.4043 81.8282C15.0931 81.4326 13.8407 81.0706 12.6271 80.6069C10.1697 79.668 8.41926 77.8967 7.0246 75.7186C6.10633 74.2845 5.52778 72.7336 5.22771 71.0162C5.05045 69.1812 5.00941 67.3871 5.48366 65.5544C6.0437 64.2629 6.6161 63.0423 7.21366 61.7657Z" fill="#240F6E"/>
<path d="M23.3812 63.097C23.819 62.5283 24.2568 61.9597 24.752 61.3164C26.8064 63.1082 27.9867 65.3369 28.0976 68.1566C26.5222 68.2435 25.0347 68.2534 23.4689 68.2508C23.0771 68.2371 22.7466 68.1701 22.4531 68.2461C21.2498 68.5575 21.3301 67.4247 20.9632 66.8704C20.842 66.6874 21.196 66.1899 21.3859 65.8103C22.0865 64.8886 22.7339 63.9928 23.3812 63.097Z" fill="#240F6E"/>
<path d="M32.3912 66.7203C32.0501 64.2196 31.084 62.0428 29.5812 60.093C29.207 59.6074 28.8023 59.1452 28.3789 58.6326C28.5929 58.6219 28.7581 58.6137 28.9851 58.5929C30.2146 58.4854 31.3811 58.359 32.5506 58.3187C32.8279 58.3091 33.2424 58.5153 33.3755 58.7475C33.9266 59.7086 34.4518 60.6945 34.8635 61.7207C35.0279 62.1304 34.8874 62.6687 34.8584 63.1469C34.8453 63.3634 34.7656 63.5758 34.648 63.8946C34.5333 64.2138 34.4881 64.4287 34.4402 64.643C34.1867 65.7767 33.9326 66.9102 33.6787 68.0437C33.3143 68.1278 32.9499 68.2118 32.5217 68.3106C32.4948 67.7102 32.4736 67.2349 32.3912 66.7203Z" fill="#240F6E"/>
<path d="M38.6897 67.8265C38.1752 69.1063 37.65 70.3213 37.1147 71.6011C36.9773 71.8358 36.8499 72.0057 36.6189 72.3137C36.0665 71.8697 35.5577 71.428 35.0153 71.0324C34.2431 70.4692 34.9893 69.8313 34.9606 69.1359C35.2894 67.9142 35.5509 66.7954 35.8177 65.6543C36.1647 65.7872 36.4693 65.9038 36.7739 66.0204C37.2943 66.3005 37.7957 66.6284 38.3408 66.8469C38.8506 67.0514 38.9464 67.3156 38.6897 67.8265Z" fill="#240F6E"/>
<path d="M23.5469 68.2634C25.0344 68.2535 26.5219 68.2436 28.0886 68.2305C28.6742 68.66 29.1804 69.0927 29.7147 69.5767C29.8051 71.2036 29.2819 72.6343 28.5679 74.0167C28.1494 73.6767 27.8147 73.3585 27.48 73.0402C27.7547 71.9405 28.0294 70.8407 28.3379 69.6059C26.8985 69.6059 25.6462 69.6059 24.3028 69.5367C23.9902 69.0662 23.7685 68.6648 23.5469 68.2634Z" fill="#6FC7D8"/>
<path d="M25.8545 60.172C25.9685 59.7921 26.1353 59.4338 26.3426 58.9883C28.5051 60.8216 29.7883 63.0188 30.6094 65.5914C30.7538 66.4745 30.8847 67.2922 31.0272 68.182C30.5462 68.182 30.1915 68.182 29.8013 68.182C29.5428 65.0238 28.3078 62.3226 25.8545 60.172Z" fill="#240F6E"/>
<path d="M36.6251 76.0619C36.597 76.8035 36.6975 77.5613 35.8451 77.7939C35.6266 77.8535 35.1407 77.681 35.1005 77.5294C34.7038 76.0356 34.3752 74.5237 34.0146 72.9461C34.1388 72.8025 34.3311 72.6312 34.4035 72.6722C35.1167 73.075 35.8099 73.5132 36.6127 74.0049C36.6127 74.5549 36.6127 75.2688 36.6251 76.0619Z" fill="#240F6E"/>
<path d="M12.8721 58.4294C14.4181 57.4987 16.1013 57.1456 17.9688 57.2501C18.3263 57.7214 18.6052 58.1801 18.8954 58.6956C17.2471 58.6595 15.6311 58.8623 13.9627 59.4351C13.5247 59.0796 13.1984 58.7545 12.8721 58.4294Z" fill="#6FC7D8"/>
<path d="M36.767 65.9608C36.4694 65.904 36.1648 65.7874 35.8178 65.6545C35.5511 66.7956 35.2895 67.9143 34.9697 69.0671C34.5252 68.7793 34.139 68.4574 33.7158 68.0903C33.9328 66.9116 34.1869 65.7781 34.4404 64.6445C34.4883 64.4302 34.5335 64.2152 34.6382 63.9668C35.3843 64.589 36.0721 65.2451 36.767 65.9608Z" fill="#80BEDB"/>
<path d="M23.3706 63.0365C22.7335 63.9921 22.0861 64.8879 21.3264 65.7992C20.8393 65.5301 20.4646 65.2455 20.0898 64.9608C20.7985 64.0023 21.5071 63.0438 22.2695 62.0625C22.6689 62.3521 23.0147 62.6644 23.3706 63.0365Z" fill="#70C6D9"/>
<path d="M38.3391 72.4351C38.4954 72.1197 38.6173 71.8516 38.7998 71.6345C38.9101 71.5032 39.1145 71.451 39.2766 71.3633C39.3199 71.5414 39.4401 71.7443 39.3922 71.893C39.2428 72.3574 39.0298 72.8014 38.8323 73.3186C38.5636 73.8562 38.3039 74.3285 38.0441 74.8009C37.9878 74.7934 37.9314 74.786 37.875 74.7786C38.0268 74.0204 38.1785 73.2622 38.3391 72.4351Z" fill="#240F6E"/>
<path d="M59.3166 48.3971C57.6694 49.3782 56.0491 50.3049 54.3822 51.2768C54.1522 51.3114 53.8809 51.3755 53.7987 51.2788C52.7327 50.0254 51.1597 49.6222 49.7954 48.8823C48.2807 48.0608 46.7105 47.3417 45.074 46.5133C44.2888 46.1028 43.5782 45.7851 42.905 45.4015C42.4653 45.1509 41.9815 44.8782 41.69 44.4868C40.998 43.5575 40.3955 42.5598 39.7889 41.57C39.6701 41.3761 39.6265 41.0811 39.6672 40.854C39.8281 39.9568 40.0363 39.068 40.2865 38.1427C40.5438 36.7331 40.5438 36.7331 42.1195 36.3457C42.4098 36.8044 42.7011 37.2737 43.0013 37.7373C43.819 39 44.7665 40.1563 46.2468 40.6351C47.1088 40.9139 48.0346 41.0231 48.9409 41.1307C50.4414 41.3088 51.9494 41.4241 53.4543 41.5659C55.181 41.7476 56.9095 41.9149 58.6324 42.1273C58.874 42.1571 59.1332 42.3674 59.308 42.5625C60.4884 43.8795 60.8899 43.8439 62.0599 42.5276C62.0976 42.4852 62.1416 42.4485 62.2041 42.3558C62.6729 41.8751 63.0828 41.3945 63.583 41.0423C63.8496 40.8545 64.2725 40.8885 64.6249 40.8225C64.6263 41.1265 64.6731 41.4393 64.6168 41.7322C64.5562 42.047 64.3988 42.3431 64.2349 42.7282C64.1702 42.8625 64.1544 42.916 64.1386 42.9695C64.1312 42.9981 64.1237 43.0267 64.1273 43.0982C63.7286 44.1223 63.3188 45.1035 62.9041 46.1497C61.7141 46.9239 60.5288 47.6333 59.3166 48.3971Z" fill="#240F6E"/>
<path d="M33.3563 27.2342C33.724 26.087 34.3898 25.2614 35.472 24.6376C36.7172 24.4536 37.8667 24.3293 39.0163 24.2051C39.6625 24.2547 40.3086 24.3442 40.9549 24.3455C42.2582 24.348 42.8027 25.2963 43.2884 26.2376C44.5637 28.7088 45.8661 31.1726 46.9819 33.7165C47.5343 34.9758 48.3992 35.4644 49.6165 35.7658C51.4134 36.2108 53.1744 36.7989 54.965 37.272C55.4478 37.3995 55.5655 37.5043 55.3633 37.9937C55.0618 38.7235 54.8554 39.4926 54.6742 40.0446C53.863 40.0446 53.2228 40.0446 52.4669 39.9725C50.8934 39.7769 49.4276 39.7111 47.9802 39.5117C46.8276 39.3528 45.751 38.8811 45.0658 37.8855C43.7617 35.9911 42.5239 34.0511 41.2515 32.1347C40.6081 31.1656 39.9908 30.1737 39.2698 29.2651C39.0765 29.0214 38.5159 28.9183 38.182 28.997C37.9995 29.0401 37.7448 29.7792 37.8537 29.896C38.6799 30.783 37.8377 31.1578 37.3722 31.6162C37.0423 31.9411 36.6323 32.1847 36.1939 32.4737C34.7893 33.1515 33.3895 33.5548 31.8828 33.5041C32.0994 32.4918 32.3018 31.5463 32.5041 30.6009C32.785 29.5023 33.0659 28.4036 33.3563 27.2342Z" fill="#240F6E"/>
<path d="M36.2578 32.4643C36.6321 32.1844 37.0421 31.9408 37.372 31.6159C37.8375 31.1575 38.6797 30.7827 37.8535 29.8957C37.7446 29.7788 37.9993 29.0397 38.1818 28.9967C38.5157 28.918 39.0763 29.0211 39.2696 29.2648C39.9906 30.1734 40.6079 31.1653 41.2513 32.1344C42.5237 34.0508 43.7615 35.9907 45.0656 37.8852C45.7508 38.8807 46.8274 39.3525 47.98 39.5113C49.4274 39.7108 50.8931 39.7766 52.3895 39.9624C52.7625 40.5003 53.097 40.9758 53.4427 41.5078C51.9491 41.4225 50.4411 41.3072 48.9406 41.129C48.0343 41.0214 47.1085 40.9122 46.2465 40.6334C44.7662 40.1546 43.8187 38.9984 43.001 37.7357C42.7008 37.2721 42.4095 36.8027 42.1192 36.3441C40.5435 36.7314 40.5435 36.7314 40.2497 38.0958C39.7266 37.8215 39.2995 37.5592 38.8818 37.231C39.3819 35.3523 39.3819 35.3523 41.1429 34.9398C40.5266 33.9955 39.9276 33.0779 39.3498 32.1928C38.5911 32.7094 37.8618 33.206 37.1183 33.6458C36.8221 33.2141 36.5399 32.8392 36.2578 32.4643Z" fill="#BD9DE7"/>
<path d="M40.9132 15.3173C41.731 14.9395 42.5488 14.5618 43.5915 14.0801C43.4651 15.6666 43.3799 17.21 43.1897 18.7403C43.149 19.0676 42.7272 19.3475 42.4568 19.7041C40.7413 20.291 40.7412 20.291 40.7343 22.0932C40.7334 22.3169 40.7342 22.5407 40.7342 22.8629C39.9536 22.8629 39.2203 22.8629 38.3391 22.8611C38.1128 22.5728 38.0344 22.2863 37.9685 21.9202C37.9823 20.8747 37.984 19.9089 37.9845 18.9431C37.9854 17.4015 37.9826 17.4371 36.4878 17.3342C36.1172 17.3088 35.5559 17.0468 35.4537 16.7608C35.2473 16.183 35.8502 16.0934 36.3458 15.9684C37.9565 15.9982 39.5016 16.109 40.9132 15.3173Z" fill="#240F6E"/>
<path d="M57.5113 37.7969C58.6687 37.8506 59.7613 37.995 60.8487 37.9627C61.9636 37.9295 61.8272 38.9094 62.2421 39.4441C62.664 39.988 62.1157 40.1799 61.8703 40.4707C61.6699 40.7081 61.4337 40.9152 61.1905 41.1894C61.0111 41.3597 60.8548 41.4764 60.6218 41.6504C59.5628 39.9965 57.7678 40.7922 56.2959 40.2644C56.4877 39.6477 56.6829 38.9359 56.9409 38.2476C57.0095 38.0646 57.2711 37.9539 57.5113 37.7969Z" fill="#240F6E"/>
<path d="M37.9555 21.9988C38.0339 22.2852 38.1123 22.5717 38.2594 22.8726C38.5498 23.2885 38.7714 23.69 39.0044 24.1481C37.8661 24.3291 36.7166 24.4533 35.4959 24.5815C35.1025 24.2548 34.7802 23.9242 34.4355 23.5092C35.1009 23.1791 35.7888 22.9335 36.5602 22.658C35.3879 22.658 34.2799 22.658 33.1718 22.658C32.9501 22.2565 32.7284 21.8551 32.5752 21.3843C33.9589 21.3115 35.2741 21.308 36.6494 21.315C37.1247 21.5499 37.5401 21.7743 37.9555 21.9988Z" fill="#C698E8"/>
<path d="M28.5156 50.9548C28.7812 48.6867 29.0595 46.4982 29.3499 44.2408C29.4815 42.1095 29.4815 42.1099 31.4975 42.1096C32.5183 42.1095 33.5392 42.1078 34.7193 42.1063C35.3061 42.107 35.7427 42.1655 36.1593 42.099C37.6405 41.8625 38.6198 42.3658 39.2705 43.7788C39.6773 44.6621 40.237 45.6703 41.0182 46.1464C42.833 47.2525 44.8236 48.07 46.7429 49.0045C47.187 49.2567 47.6312 49.509 48.1476 49.8023C47.6845 50.1243 47.2377 50.4348 46.711 50.8249C46.1075 51.4518 45.5753 51.6624 44.8243 51.2261C42.1758 49.6877 39.7753 47.8978 38.0762 45.2726C37.8977 44.9967 37.1762 44.837 36.8308 44.9632C36.389 45.1246 36.3943 45.632 36.7014 46.0843C37.9153 47.872 39.3445 49.4522 41.1133 50.7021C42.0545 51.3672 43.0321 51.9808 44.0194 52.635C43.3602 53.0294 42.7256 53.4092 42.0279 53.7935C41.7897 53.8792 41.5983 53.9369 41.4423 54.0454C40.7869 54.5016 40.2646 54.4471 39.7532 53.7779C38.7326 52.4423 37.5815 51.2006 36.6297 49.8198C35.6212 48.3566 34.7517 46.7935 33.8836 45.2394C33.5577 44.656 33.0799 44.7999 32.73 44.9498C32.5452 45.0291 32.3985 45.6572 32.5159 45.9031C33.0423 47.0051 33.589 48.1142 34.2777 49.1183C35.692 51.1803 37.202 53.1768 38.6774 55.2068C37.7067 55.5114 36.6358 55.8474 35.565 56.1834C34.0518 56.4321 32.542 56.7055 31.0239 56.9199C30.1871 57.038 29.3363 57.0571 28.5283 57.1181C28.5283 55.0365 28.5283 53.0355 28.5156 50.9548Z" fill="#240F6E"/>
<path d="M35.594 56.2341C36.6356 55.847 37.7065 55.511 38.6772 55.2064C37.2018 53.1763 35.6918 51.1799 34.2775 49.1179C33.5888 48.1138 33.0421 47.0047 32.5157 45.9027C32.3983 45.6568 32.545 45.0286 32.7298 44.9494C33.0797 44.7995 33.5575 44.6556 33.8834 45.239C34.7515 46.7931 35.621 48.3561 36.6295 49.8194C37.5813 51.2002 38.7324 52.4419 39.753 53.7775C40.2644 54.4467 40.7867 54.5012 41.4421 54.045C41.5981 53.9365 41.7895 53.8788 42.079 53.8212C42.5157 54.175 42.8379 54.5054 43.1339 54.893C42.5703 55.2199 42.0329 55.4894 41.4954 55.759C41.5093 55.802 41.5232 55.845 41.5371 55.888C41.957 55.888 42.377 55.888 42.797 55.888C43.0186 56.2894 43.2402 56.6908 43.3985 57.1616C42.898 57.231 42.4608 57.231 41.9623 57.231C42.2177 57.7824 42.4295 58.2342 42.6365 58.6882C42.8397 59.1337 43.038 59.5813 43.2646 60.0862C43.7971 59.3925 44.2323 58.8257 44.6674 58.2589C45.0423 58.5431 45.4172 58.8274 45.8271 59.1773C45.6432 59.548 45.4244 59.8532 45.1655 60.2143C45.568 60.4038 45.9243 61.1806 46.2631 60.156C46.6779 60.3806 47.0927 60.6052 47.5596 60.9086C47.3439 61.6557 47.6038 62.1782 48.0108 62.7113C48.7465 63.6749 49.0982 64.7724 48.9557 66C48.4994 65.7151 48.0431 65.4303 47.4988 65.0849C46.4748 62.6182 44.9577 61.474 42.794 61.4909C42.3966 61.0636 42.0096 60.6955 41.5939 60.2687C40.9937 58.933 40.4222 57.6561 39.8881 56.4629C38.6814 56.8436 37.5592 57.1976 36.437 57.5516C36.1657 57.1295 35.8945 56.7074 35.594 56.2341Z" fill="#99B0E0"/>
<path d="M42.8048 61.5504C44.9581 61.4742 46.4752 62.6184 47.439 65.0825C47.608 66.4306 47.4151 67.6553 46.7401 68.8511C45.933 69.6281 45.2205 70.4714 44.0789 70.6576C43.7023 70.719 43.323 70.764 42.8707 70.8288C42.4929 70.8311 42.1863 70.8405 41.8883 70.7941C41.8304 70.785 41.8065 70.5584 41.8319 70.3395C42.4268 69.025 42.9467 67.7986 43.4918 66.5835C43.6954 66.1298 43.6496 65.6978 43.204 65.5403C42.7797 65.3903 42.2734 65.3357 42.0227 65.9844C41.6136 67.0433 41.1266 68.072 40.6724 69.1135C40.5039 69.3926 40.3354 69.6718 40.1528 69.9744C39.5659 69.7804 39.6723 69.4372 39.8788 69.002C40.3965 67.6611 40.9095 66.3841 41.4886 65.0109C41.9714 63.7933 42.3881 62.6719 42.8048 61.5504Z" fill="#240F6E"/>
<path d="M36.3683 57.5635C37.5588 57.1976 38.681 56.8436 39.8877 56.4629C40.4218 57.6561 40.9933 58.933 41.5798 60.3338C41.1295 61.6721 40.6641 62.8864 40.1987 64.1008C39.9664 64.6164 39.7341 65.1319 39.4751 65.7068C38.4862 65.2151 37.5358 64.7681 36.6179 64.2621C36.4547 64.1721 36.2956 63.7875 36.3575 63.6226C36.7848 62.4846 36.6204 61.4669 35.9864 60.4403C35.5072 59.6644 35.1644 58.8043 34.7549 57.9695C35.2839 57.8346 35.792 57.705 36.3683 57.5635Z" fill="#240F6E"/>
<path d="M40.2529 64.1256C40.6647 62.8864 41.1301 61.6721 41.6091 60.3926C42.0097 60.6955 42.3968 61.0635 42.7942 61.4909C42.3878 62.6717 41.9711 63.7932 41.4982 64.945C41.0635 64.7004 40.685 64.4254 40.2529 64.1256Z" fill="#93B3DF"/>
<path d="M37.1326 33.7032C37.8619 33.2066 38.5912 32.71 39.35 32.1934C39.9277 33.0785 40.5267 33.9961 41.1431 34.9404C39.382 35.3529 39.382 35.3529 38.8688 37.3007C38.6167 38.3442 38.3322 39.2437 38.1788 40.1649C38.0934 40.678 37.8553 40.7398 37.4405 40.7386C36.3043 40.7351 35.1681 40.7532 34.0319 40.7627C33.3796 40.7531 32.7273 40.7396 32.075 40.7348C31.4253 40.7299 30.7755 40.7337 30.0488 40.7337C30.1837 40.1573 30.3012 39.6553 30.4358 39.023C30.7888 37.6223 31.1247 36.352 31.5388 35.0728C33.5726 35.0847 35.4464 34.7742 37.1326 33.7032Z" fill="#240F6E"/>
<path d="M34.043 40.8201C35.168 40.7538 36.3043 40.7358 37.4405 40.7392C37.8553 40.7405 38.0934 40.6787 38.1788 40.1656C38.3321 39.2443 38.6167 38.3449 38.8594 37.3672C39.2996 37.5604 39.7266 37.8227 40.1902 38.1303C40.0361 39.0676 39.8279 39.9563 39.667 40.8536C39.6263 41.0807 39.6698 41.3757 39.7887 41.5696C40.3953 42.5594 40.9977 43.5571 41.6898 44.4864C41.9812 44.8778 42.4651 45.1505 42.9048 45.4011C43.5779 45.7847 44.2886 46.1024 45.0105 46.5028C45.3726 46.9876 45.7172 47.4107 46.0392 47.8501C46.2837 48.1837 46.4996 48.5382 46.7355 48.9439C44.8236 48.0699 42.833 47.2523 41.0182 46.1463C40.237 45.6702 39.6772 44.662 39.2704 43.7787C38.6197 42.3657 37.6405 41.8624 36.1592 42.0989C35.7426 42.1654 35.306 42.1069 34.7989 42.0933C34.4976 41.6795 34.2759 41.2782 34.043 40.8201Z" fill="#ADA6E3"/>
<path d="M25.4211 32.2107C25.7615 30.6916 26.1144 29.2434 26.4683 27.7954C26.5794 27.3409 26.693 26.887 26.7944 26.3645C26.8046 26.1599 26.8259 26.0237 26.8501 25.8691C27.4547 25.9744 28.0461 26.0773 28.7058 26.1921C28.5905 26.7577 28.4767 27.3162 28.3457 28.0073C28.0493 29.4674 27.7701 30.7948 27.431 32.1556C27.2492 33.1733 27.0831 34.1355 26.1176 34.6984C26.1176 34.6984 26.0342 34.7181 25.9452 34.7216C25.8225 34.7771 25.7888 34.8292 25.7551 34.8812C25.4562 35.0611 25.1573 35.2411 24.7725 35.4727C25.0079 34.3372 25.2209 33.3094 25.4211 32.2107Z" fill="#240F6E"/>
<path d="M26.1279 34.7584C27.0833 34.1363 27.2494 33.1741 27.4684 32.2012C27.9905 32.4751 28.4154 32.7376 28.8291 33.0651C28.5076 34.3852 28.7995 35.2632 29.6377 35.69C29.8381 35.0217 30.0406 34.3459 30.2723 33.7211C30.6876 34.2089 31.0738 34.6457 31.46 35.0825C31.1242 36.3528 30.7883 37.6231 30.4227 38.9545C29.7985 38.5153 29.204 38.015 28.5653 37.4253C28.2615 36.9176 28.043 36.4634 27.7229 36.0984C27.5898 35.9466 27.2399 35.9851 26.9886 35.937C26.7051 35.5639 26.4215 35.1907 26.1279 34.7584Z" fill="#A7A9E3"/>
<path d="M26.9615 35.9904C27.24 35.9854 27.5899 35.9469 27.723 36.0987C28.0431 36.4638 28.2616 36.9179 28.5134 37.3981C27.5716 37.2807 26.6376 37.1014 25.6191 36.9059C26.0884 36.5981 26.5114 36.3208 26.9615 35.9904Z" fill="#240F6E"/>
<path d="M25.7933 34.865C25.7893 34.8292 25.823 34.7772 25.9043 34.7324C25.92 34.7854 25.8797 34.8218 25.7933 34.865Z" fill="#A7A9E3"/>
<path d="M65.8946 48.9994C65.2893 49.0129 64.7502 49.0129 64.1104 49.0129C64.1104 48.557 64.1104 48.1695 64.1134 47.7055C64.9066 47.6289 65.6968 47.6289 66.702 47.6289C66.4047 48.1732 66.1828 48.5796 65.8946 48.9994Z" fill="#240F6E"/>
<path d="M68.4032 51.4729C68.0138 51.6232 67.6276 51.7027 67.1807 51.7948C67.2629 51.3137 67.3178 50.9925 67.3597 50.6009C67.7397 50.4538 68.1325 50.3771 68.6038 50.2852C68.5201 50.7583 68.4632 51.0803 68.4032 51.4729Z" fill="#240F6E"/>
<path d="M69.0225 47.5947C69.1481 47.6177 69.2024 47.6536 69.2753 47.7357C68.8555 49.062 68.8555 49.062 67.873 48.8857C68.0847 48.3246 67.8535 47.4273 69.0225 47.5947Z" fill="#240F6E"/>
<path d="M70.6085 51.7339C70.3458 51.7174 70.1562 51.7005 69.9609 51.6831C70.2923 50.2165 70.013 50.3187 71.5198 50.4315C71.1988 50.9301 70.9402 51.3318 70.6085 51.7339Z" fill="#240F6E"/>
<path d="M70.626 48.704C70.8451 47.9895 71.0068 47.2345 72.0578 47.7332C71.6696 48.079 72.2143 48.934 71.2248 48.9996C70.9842 48.931 70.812 48.8497 70.626 48.704Z" fill="#240F6E"/>
<path d="M43.1603 54.8367C42.8382 54.5063 42.516 54.176 42.1424 53.8176C42.7257 53.4097 43.3603 53.03 44.0195 52.6356C43.0322 51.9814 42.0546 51.3678 41.1134 50.7027C39.3446 49.4528 37.9154 47.8726 36.7015 46.0848C36.3944 45.6326 36.3891 45.1251 36.8309 44.9637C37.1763 44.8375 37.8978 44.9972 38.0763 45.2731C39.7754 47.8983 42.1759 49.6883 44.8244 51.2267C45.5754 51.6629 46.1076 51.4523 46.6859 50.8792C47.0967 51.2093 47.4528 51.5654 47.8245 51.9947C47.31 52.4385 46.7797 52.8091 46.1682 53.2364C46.7615 53.5347 47.2856 53.7343 47.7379 54.0401C48.4852 54.5451 49.1594 54.4848 49.8341 53.9414C50.1193 54.3192 50.4045 54.697 50.6736 55.1882C49.4312 55.841 48.4461 56.5788 48.3745 58.0711C48.3738 58.0862 48.3285 58.0991 48.304 58.113C47.6786 57.4103 47.0532 56.7076 46.4766 55.9338C46.7089 55.7296 46.8925 55.5965 47.1139 55.436C46.821 55.2935 46.6098 55.2171 46.4269 55.0974C45.383 54.4137 44.3254 53.973 43.1603 54.8367Z" fill="#A5AAE2"/>
<path d="M48.3008 58.1775C48.3282 58.0987 48.3735 58.0858 48.3742 58.0707C48.4458 56.5784 49.431 55.8406 50.6833 55.2472C51.5327 54.7476 52.356 54.3021 53.2173 53.8359C53.6821 54.7109 53.1257 55.4573 52.9549 56.3082C52.4978 57.6455 52.0293 58.9156 51.5521 60.2533C50.442 59.8596 49.3406 59.3982 48.2285 58.9324C48.252 58.6988 48.2749 58.4706 48.3008 58.1775Z" fill="#240F6E"/>
<path d="M49.8603 53.8856C49.1592 54.484 48.485 54.5443 47.7377 54.0392C47.2854 53.7335 46.7613 53.5339 46.168 53.2356C46.7794 52.8083 47.3098 52.4377 47.8849 52.0225C48.5472 51.5086 49.1647 51.0392 49.8225 50.5391C50.7491 51.0881 51.6923 51.6471 52.7396 52.2677C51.6699 52.8537 50.7783 53.3421 49.8603 53.8856Z" fill="#240F6E"/>
<path d="M81.4867 72.1168C80.8717 73.5186 80.2455 74.8506 79.5955 76.2373C78.5003 77.3451 77.4288 78.3981 76.3316 79.5043C74.7028 80.5606 73.0541 81.451 71.0675 81.6972C69.2602 81.8608 67.5114 81.9989 65.7266 81.4861C63.3307 80.7737 61.2367 79.6509 59.5576 77.8551C57.9967 76.1857 56.8604 74.2726 56.3658 72.0136C56.3369 71.8814 56.2582 71.7601 56.1888 71.5666C55.9251 69.4767 55.9193 67.4622 56.3867 65.3913C57.1354 63.9088 57.8754 62.4981 58.6454 61.0408C58.6753 60.9942 58.7494 60.9608 58.8081 60.9022C58.8872 60.7863 58.9076 60.7291 58.928 60.6718C60.1281 59.6799 61.3281 58.688 62.5548 57.6411C62.6496 57.8025 62.7177 58.0189 62.8455 58.3251C62.7654 58.641 62.6663 58.9102 62.4794 59.0861C61.5415 59.9692 60.5806 60.8279 59.5741 61.7222C59.4522 61.8705 59.3939 61.9985 59.3147 62.1119C58.2429 63.6445 57.5829 65.332 57.3305 67.2385C57.1241 69.3478 57.2776 71.3667 58.087 73.3152C59.0506 75.6351 60.5806 77.4734 62.711 78.768C64.9807 80.1472 67.4472 80.7978 70.1983 80.4209C72.2489 80.2394 74.0343 79.5412 75.6975 78.3596C76.7605 77.2553 77.7696 76.173 78.8282 75.0477C79.891 73.2849 80.5209 71.4479 80.5935 69.3584C80.6677 66.9053 80.1766 64.6456 78.8556 62.6692C76.4656 59.0937 73.1885 57.0653 68.7508 57.2628C67.2749 57.4367 65.799 57.6105 64.3152 57.7854C64.3152 57.6329 64.3152 57.2492 64.3152 56.7876C64.9179 56.6013 65.5638 56.4017 66.2771 56.1881C67.833 56.1268 69.3217 56.0794 70.8875 56.0352C72.4495 56.6071 73.9806 57.0803 75.4083 57.7679C77.4318 58.7426 78.9106 60.3806 80.0301 62.2895C80.8424 63.6747 81.5575 65.1377 81.7329 66.8311C81.6868 68.5926 81.5812 70.3198 81.4867 72.1168Z" fill="#240F6E"/>
<path d="M48.9789 66.0531C49.0978 64.7734 48.7461 63.6759 48.0104 62.7123C47.6033 62.1791 47.3434 61.6567 47.619 60.9201C47.8444 60.7933 48.1009 60.6301 48.2731 60.694C49.1496 61.0195 50.0042 61.4037 50.9037 61.783C50.4831 62.9969 50.0763 64.1707 49.6603 65.4115C49.5439 65.7053 49.4494 65.94 49.3173 66.1511C49.2947 66.1873 49.1115 66.1231 48.9789 66.0531Z" fill="#240F6E"/>
<path d="M43.1336 54.8924C44.3248 53.9714 45.3824 54.4121 46.4263 55.0958C46.6092 55.2156 46.8204 55.2919 47.1133 55.4344C46.8919 55.5949 46.7083 55.7281 46.4654 55.8743C45.2561 55.8791 44.106 55.8707 42.8763 55.8749C42.3767 55.8874 41.9567 55.8874 41.5367 55.8874C41.5229 55.8444 41.509 55.8014 41.4951 55.7584C42.0326 55.4888 42.57 55.2193 43.1336 54.8924Z" fill="#240F6E"/>
<path d="M44.6913 58.2035C44.2319 58.8251 43.7967 59.3919 43.2642 60.0856C43.0377 59.5808 42.8393 59.1331 42.6361 58.6877C42.4291 58.2337 42.2173 57.7819 41.9619 57.2304C42.4604 57.2304 42.8976 57.2304 43.4095 57.2178C44.0767 57.2051 44.6692 57.2051 45.3935 57.2051C45.1193 57.5868 44.9175 57.8677 44.6913 58.2035Z" fill="#240F6E"/>
<path d="M46.2517 60.0896C45.9238 61.1814 45.5676 60.4046 45.165 60.2151C45.424 59.854 45.6428 59.5488 45.8858 59.1882C46.0875 58.9284 46.265 58.724 46.4425 58.5195C46.4956 58.5273 46.5488 58.5351 46.6019 58.5429C46.4815 59.0361 46.3611 59.5293 46.2517 60.0896Z" fill="#240F6E"/>
<path d="M64.1167 51.5212C64.1104 51.1078 64.1104 50.7741 64.1104 50.4004C64.6953 50.4004 65.2219 50.4004 65.7494 50.4004C65.7287 51.7659 65.451 51.9695 64.1167 51.5212Z" fill="#240F6E"/>
<path d="M64.1678 42.9423C64.1539 42.9152 64.1697 42.8617 64.2293 42.793C64.2589 42.8298 64.2336 42.8759 64.1678 42.9423Z" fill="#D093EA"/>
<path d="M31.5383 35.0728C31.0738 34.6448 30.6876 34.208 30.2754 33.6497C30.5455 32.2636 30.8415 30.999 31.1376 29.7344C31.5534 30.0163 31.9692 30.2983 32.4442 30.5907C32.3012 31.5466 32.0989 32.492 31.8822 33.5043C33.3889 33.555 34.7887 33.1517 36.1934 32.4739C36.5396 32.8398 36.8217 33.2147 37.118 33.6464C35.446 34.7742 33.5721 35.0847 31.5383 35.0728Z" fill="#B2A3E4"/>
<path d="M31.1478 29.6695C30.8422 31.0003 30.5461 32.2649 30.2469 33.6001C30.0413 34.3464 29.8387 35.0221 29.6384 35.6905C28.8001 35.2636 28.5082 34.3856 28.8449 32.995C29.1495 31.5581 29.4278 30.2567 29.7061 28.9553C29.8939 28.1488 30.0816 27.3423 30.2696 26.5352C30.7939 26.6445 31.269 26.7436 31.8687 26.8687C31.6245 27.8073 31.3909 28.7053 31.1478 29.6695Z" fill="#240F6E"/>
<path d="M29.6456 28.9233C29.4271 30.256 29.1488 31.5574 28.8554 32.9294C28.4154 32.7374 27.9905 32.4748 27.5283 32.1675C27.7703 30.7953 28.0495 29.4679 28.3583 28.0781C28.7871 28.3079 29.1865 28.5999 29.6456 28.9233Z" fill="#ADA5E3"/>
<path d="M29.3267 23.7031C30.2964 23.7044 31.098 23.9671 31.6603 24.7175C31.7577 24.8475 31.7213 25.0777 31.6886 25.2544C30.4381 24.9728 29.2456 24.6985 28.0532 24.4241C28.0417 24.3635 28.0301 24.3029 28.0186 24.2423C28.4332 24.0671 28.8477 23.8919 29.3267 23.7031Z" fill="#240F6E"/>
<path d="M36.5896 21.3056C35.2744 21.3092 33.9591 21.3127 32.5642 21.3288C32.2671 21.3181 32.0497 21.2949 31.7862 21.2667C31.8596 21.0538 31.9198 20.8791 32.0108 20.6529C32.6902 19.5494 32.7083 19.0093 31.7871 18.251C31.6046 18.1008 31.6604 17.6437 31.6392 17.326C31.633 17.2323 31.7347 17.1278 31.7954 17.0338C32.5006 15.9419 32.848 14.87 31.6367 13.819C32.7184 12.705 33.7921 11.6524 34.888 10.5461C35.4394 9.98306 35.9054 9.37379 36.5134 8.98911C37.3049 8.48837 38.2092 8.16591 39.1264 7.73633C40.5428 7.78744 41.9482 7.66927 43.2417 7.99503C45.4461 8.55017 46.7479 10.6741 45.7574 13.5111C45.5011 13.9622 45.2548 14.3463 45.0085 14.7304C44.9589 14.7193 44.9094 14.7081 44.8598 14.697C44.8598 14.0888 44.8828 13.4794 44.8504 12.873C44.8333 12.5548 44.7611 11.9921 44.6409 11.9718C44.2307 11.9027 43.7243 11.907 43.3705 12.0979C42.4992 12.5679 41.6997 13.1691 40.8549 13.691C40.6263 13.8322 40.3393 13.8789 39.9814 14.0309C38.3638 14.2748 36.844 14.4565 35.2597 14.629C34.0017 15.2851 33.5954 15.9525 33.8817 17.2425C34.1923 18.6416 35.3333 18.8656 36.5896 18.7314C36.5896 19.6581 36.5896 20.4819 36.5896 21.3056Z" fill="#240F6E"/>
<path d="M35.3242 14.6388C36.844 14.457 38.3638 14.2752 39.9534 14.0898C40.3174 14.4546 40.6118 14.823 40.9095 15.2546C39.5013 16.1095 37.9563 15.9987 36.3339 15.9114C35.9366 15.4404 35.6304 15.0396 35.3242 14.6388Z" fill="#D790EB"/>
<path d="M64.6332 59.6587C66.1082 58.9787 67.6734 58.6989 69.3949 58.6797C74.9623 59.0655 78.8901 63.2412 79.2497 68.8256C79.2247 70.7469 78.7381 72.4636 77.7832 74.094C77.5585 74.4047 77.4322 74.7303 77.211 74.9675C76.4102 75.8267 75.5775 76.6561 74.694 77.5056C74.0715 77.8017 73.536 78.1606 72.9466 78.3605C71.9088 78.7125 70.838 78.9674 69.7028 79.2501C68.9515 79.1793 68.2746 79.149 67.6058 79.0587C64.011 78.5735 61.4427 76.6499 59.7745 73.4578C58.886 71.7578 58.6896 69.9369 58.7646 67.9893C58.8796 67.3712 58.8902 66.7865 59.103 66.288C59.6408 65.0283 60.2695 63.8073 60.9146 62.5489C61.6812 61.846 62.395 61.1649 62.9569 60.6287C64.0508 62.7604 65.1009 64.8066 66.0939 66.8785C65.444 67.6069 65.4636 68.45 65.4831 69.2957C65.5169 70.762 66.3174 71.7529 67.6223 72.1719C68.7496 72.5338 69.9907 72.6939 71.0528 71.6836C72.2416 70.8599 72.6996 69.3057 72.2386 67.8531C71.5251 65.6047 69.882 65.2445 67.8326 65.5481C67.3151 65.6248 67.1814 65.5349 66.9395 65.1523C65.8614 63.447 65.1913 61.5781 64.6332 59.6587Z" fill="#240F6E"/>
<path d="M66.1519 66.8527C65.1018 64.8065 64.0517 62.7602 62.9578 60.6285C62.3959 61.1647 61.6821 61.8458 60.8643 62.521C60.3829 62.2417 60.0054 61.9685 59.6279 61.6952C60.5807 60.8279 61.5416 59.9692 62.4795 59.0861C62.6664 58.9102 62.7656 58.6411 62.9017 58.3516C63.126 58.3625 63.4027 58.3792 63.5717 58.5228C63.9365 58.8327 64.246 59.2077 64.6061 59.6073C65.1922 61.578 65.8623 63.4469 66.9404 65.1522C67.1823 65.5347 67.316 65.6247 67.8335 65.548C69.8829 65.2444 71.526 65.6046 72.2395 67.8529C72.7005 69.3056 72.2425 70.8597 71.0436 71.6243C70.6872 71.1985 70.4031 70.8237 70.1429 70.3935C71.1206 69.3479 71.0718 68.2297 70.0377 67.3782C69.2233 66.7074 67.8975 66.9568 67.2005 67.8501C66.844 67.4778 66.498 67.1653 66.1519 66.8527Z" fill="#B5A1E5"/>
<path d="M79.263 68.7487C78.8904 63.2406 74.9626 59.0649 69.4703 58.6864C69.212 58.2099 68.9916 57.7942 68.7607 57.3204C73.188 57.0648 76.4651 59.0932 78.855 62.6687C80.1761 64.6451 80.6672 66.9049 80.5355 69.3476C80.0647 69.1933 79.6638 68.971 79.263 68.7487Z" fill="#C897E8"/>
<path d="M33.0993 22.671C34.2798 22.6582 35.3879 22.6582 36.5602 22.6582C35.7888 22.9337 35.1009 23.1794 34.384 23.4819C33.9857 23.7558 33.6164 23.9728 33.3611 24.1229C32.858 23.6539 32.381 23.2093 31.8174 22.6839C32.2724 22.6839 32.6496 22.6839 33.0993 22.671Z" fill="#240F6E"/>
<path d="M49.8657 71.7626C49.5338 71.7246 49.1941 71.683 48.9358 71.5156C48.4482 71.1996 48.0074 70.8113 47.4883 70.4072C47.5653 70.3087 47.6561 70.1925 47.7674 70.0247C48.1627 69.3491 48.5374 68.725 48.9121 68.101C48.9886 68.079 49.0651 68.0571 49.1417 68.0352C49.3927 69.2575 49.6437 70.4799 49.8657 71.7626Z" fill="#240F6E"/>
<path d="M40.6982 69.177C41.1264 68.0717 41.6134 67.0429 42.0225 65.9841C42.2732 65.3353 42.7796 65.3899 43.2039 65.5399C43.6494 65.6975 43.6952 66.1295 43.4917 66.5831C42.9466 67.7983 42.4266 69.0247 41.8411 70.2755C41.4318 69.95 41.078 69.5955 40.6982 69.177Z" fill="#88B9DD"/>
<path d="M58.8954 60.7012C58.9076 60.7286 58.8871 60.7859 58.8201 60.863C58.8032 60.8323 58.8331 60.7816 58.8954 60.7012Z" fill="#A8A8E3"/>
<path d="M19.5941 80.5816C16.752 80.8171 14.0783 80.3995 11.6321 78.7842C8.90664 76.9845 7.19513 74.5082 6.56309 71.3424C6.3169 70.1092 6.41969 68.8064 6.43257 67.4668C6.91953 67.6795 7.33743 67.9607 7.75534 68.242C7.67687 74.521 12.1147 79.0982 18.5072 79.2758C18.9383 79.7396 19.2662 80.1606 19.5941 80.5816Z" fill="#4CDAD2"/>
<path d="M20.0332 64.9863C20.4642 65.2456 20.8389 65.5303 21.2728 65.8253C21.1953 66.1894 20.8413 66.6868 20.9625 66.8698C21.3294 67.4242 21.2491 68.557 22.4524 68.2456C22.7459 68.1696 23.0764 68.2365 23.4682 68.2503C23.7682 68.6642 23.9898 69.0656 24.2228 69.5236C23.5001 69.5899 22.7632 69.5659 22.0338 69.6281C21.7906 69.6489 21.4892 69.8379 21.3493 70.0423C21.0446 70.4875 20.8265 70.9921 20.5147 71.4306C20.162 70.9652 19.8676 70.5415 19.6022 70.0578C20.1743 68.9776 20.066 68.3007 19.2969 67.5208C18.4504 66.6623 17.5694 67.0525 16.6683 67.3344C16.4307 66.9004 16.2037 66.5262 15.9766 66.1521C16.7694 65.2734 17.8519 65.375 18.8079 65.5386C19.4614 65.6504 19.7172 65.4801 20.0332 64.9863Z" fill="#66CBD7"/>
<path d="M15.9154 66.1621C16.2037 66.527 16.4308 66.9011 16.6637 67.3993C15.7717 68.8573 16.0312 70.157 17.3119 70.6815C18.1954 71.0434 18.9357 70.7736 19.5733 70.1187C19.8677 70.5423 20.1621 70.9659 20.4589 71.4559C18.817 72.6453 17.446 72.655 15.911 71.7228C14.1766 70.6694 14.0875 67.282 15.9154 66.1621Z" fill="#5DD0D5"/>
<path d="M19.6626 80.5924C19.2655 80.159 18.9376 79.7381 18.582 79.2659C19.2507 79.0751 19.9896 79.0391 20.6341 78.7737C21.8798 78.2608 23.0723 77.6184 24.3703 77.0566C24.7264 77.4629 24.999 77.8423 25.2717 78.2216C23.6375 79.5097 21.754 80.2185 19.6626 80.5924Z" fill="#58D3D4"/>
<path d="M7.81477 68.2034C7.33671 67.9595 6.91881 67.6782 6.44434 67.3859C6.6291 65.2942 7.48596 63.4613 8.7523 61.752C9.17149 62.0857 9.48801 62.4193 9.80453 62.7528C9.04168 64.0976 8.23528 65.4246 8.01292 66.9968C7.95798 67.3853 7.92045 67.7763 7.81477 68.2034Z" fill="#58D3D4"/>
<path d="M9.85836 62.7295C9.48862 62.419 9.1721 62.0854 8.80566 61.7234C9.87382 60.349 11.1166 59.1559 12.8097 58.4336C13.1984 58.7541 13.5248 59.0792 13.8956 59.4405C12.3643 60.2627 11.0952 61.4313 9.85836 62.7295Z" fill="#64CCD7"/>
<path d="M25.3257 78.1984C24.999 77.8423 24.7264 77.463 24.4258 77.0322C25.5263 75.7899 26.7391 74.6636 27.4258 73.0664C27.8145 73.3576 28.1492 73.6758 28.5116 74.0449C28.0269 75.5062 27.0879 76.6021 25.9822 77.5776C25.7704 77.7643 25.58 77.9753 25.3257 78.1984Z" fill="#64CCD7"/>
<path d="M35.2593 14.6289C35.63 15.039 35.9362 15.4398 36.254 15.8982C35.8496 16.0934 35.2467 16.183 35.4531 16.7608C35.5552 17.0468 36.1166 17.3087 36.4872 17.3342C37.982 17.4371 37.9847 17.4015 37.9839 18.9431C37.9833 19.9089 37.9816 20.8747 37.9679 21.9202C37.54 21.7754 37.1246 21.551 36.6492 21.316C36.5892 20.4818 36.5892 19.658 36.5892 18.7313C35.3329 18.8655 34.192 18.6415 33.8814 17.2424C33.595 15.9524 34.0014 15.285 35.2593 14.6289Z" fill="#CF94EA"/>
<path d="M58.7524 68.0623C58.6899 69.9372 58.8863 71.7581 59.7747 73.4581C61.443 76.6502 64.0113 78.5738 67.606 79.059C68.2748 79.1493 68.9517 79.1796 69.7057 79.3115C69.8994 79.7266 70.0123 80.0678 70.1252 80.4089C67.4467 80.7982 64.9802 80.1477 62.7105 78.7685C60.5801 77.4739 59.0501 75.6356 58.0865 73.3156C57.2771 71.3671 57.1236 69.3483 57.3834 67.2637C57.9168 67.519 58.3346 67.7906 58.7524 68.0623Z" fill="#9CAEE1"/>
<path d="M58.7646 67.9896C58.3344 67.7906 57.9166 67.5189 57.4453 67.2225C57.5821 65.3324 58.2422 63.645 59.3139 62.1123C59.3932 61.9989 59.4515 61.8709 59.5733 61.7227C60.0045 61.9689 60.382 62.2421 60.8106 62.5432C60.2695 63.8076 59.6408 65.0285 59.103 66.2883C58.8902 66.7867 58.8796 67.3715 58.7646 67.9896Z" fill="#A8A8E3"/>
<path d="M79.2506 68.8262C79.6644 68.9723 80.0653 69.1946 80.5236 69.4271C80.521 71.4487 79.8911 73.2857 78.8023 74.9867C78.4309 74.6683 78.1349 74.3686 77.8389 74.0689C78.739 72.4642 79.2256 70.7475 79.2506 68.8262Z" fill="#BD9DE7"/>
<path d="M70.1981 80.4214C70.0126 80.0679 69.8997 79.7267 69.7842 79.3244C70.8385 78.9678 71.9093 78.7129 72.9471 78.3609C73.5365 78.161 74.072 77.8021 74.7219 77.5566C75.0891 77.8597 75.3662 78.121 75.6433 78.3823C74.0341 79.5418 72.2487 80.24 70.1981 80.4214Z" fill="#A7A9E3"/>
<path d="M75.6967 78.3596C75.3657 78.1204 75.0886 77.8591 74.7842 77.5472C75.5775 76.6559 76.4102 75.8265 77.211 74.9673C77.4322 74.7301 77.5585 74.4045 77.7832 74.0938C78.134 74.3678 78.43 74.6675 78.752 75.029C77.7689 76.173 76.7598 77.2552 75.6967 78.3596Z" fill="#B2A3E4"/>
<path d="M70.1181 70.4495C70.4023 70.8243 70.6865 71.199 70.9807 71.633C69.9908 72.6943 68.7498 72.5343 67.6224 72.1723C66.3176 71.7534 65.517 70.7625 65.4832 69.2962C65.4637 68.4505 65.4441 67.6073 66.094 66.8789C66.4972 67.1658 66.8432 67.4784 67.1954 67.9212C66.8766 68.9192 66.9999 69.9681 67.5582 70.374C68.1587 70.8105 69.1893 71.1431 70.1181 70.4495Z" fill="#ADA5E3"/>
<path d="M70.1421 70.3933C69.1894 71.1424 68.1587 70.8097 67.5583 70.3733C66.9999 69.9674 66.8766 68.9185 67.2059 67.9802C67.8968 66.9566 69.2225 66.7073 70.037 67.378C71.0711 68.2296 71.1198 69.3478 70.1421 70.3933Z" fill="#240F6E"/>
<path d="M19.6029 70.0578C18.9364 70.7729 18.1961 71.0426 17.3125 70.6808C16.0319 70.1563 15.7724 68.8566 16.6749 67.4585C17.5702 67.0526 18.4511 66.6623 19.2976 67.5208C20.0667 68.3008 20.175 68.9776 19.6029 70.0578Z" fill="#240F6E"/>
</g>
<defs>
<clipPath id="clip0_297_9041">
<rect width="88" height="88" fill="white"/>
</clipPath>
</defs>
</svg>
