<svg width="201" height="104" viewBox="0 0 201 104" fill="none" xmlns="http://www.w3.org/2000/svg">
<g clip-path="url(#clip0_418_1767)">
<mask id="mask0_418_1767" style="mask-type:luminance" maskUnits="userSpaceOnUse" x="5" y="9" width="60" height="55">
<path d="M5.58984 9.24023H64.9685V63.8206H5.58984V9.24023Z" fill="white"/>
</mask>
<g mask="url(#mask0_418_1767)">
<path d="M33.3824 37.1871C33.3824 37.1871 23.5494 27.4907 5.58984 23.1874C5.58984 23.1874 28.126 37.9406 33.8626 62.9332C33.8626 62.9332 45.199 22.7774 64.0488 9.39453C64.0488 9.39453 42.0556 20.5943 33.3824 37.1871Z" fill="#411ACB"/>
</g>
<path d="M21.7684 28.0115L22.3816 26.7113C22.3816 26.7113 22.3816 26.7113 23.9552 27.5313C22.6586 25.906 21.8423 22.7736 21.4655 21.0449H25.1557C24.8676 21.8132 24.7087 22.6406 24.7087 23.5013C24.7087 27.3872 27.8559 30.5381 31.7418 30.5381C35.6278 30.5381 38.7749 27.3872 38.7749 23.5013C38.7749 21.5842 38.0103 19.8518 36.7618 18.5811L43.0044 13.9453H27.7081L18.1484 21.0449H20.9188C20.4534 24.1219 21.7684 28.0115 21.7684 28.0115Z" fill="#411ACB"/>
<mask id="mask1_418_1767" style="mask-type:luminance" maskUnits="userSpaceOnUse" x="34" y="17" width="32" height="79">
<path d="M34.709 17.4844H65.874V95.0257H34.709V17.4844Z" fill="white"/>
</mask>
<g mask="url(#mask1_418_1767)">
<path d="M65.7629 40.7878C65.7629 40.7878 62.0801 28.731 60.7835 18.041C45.3174 33.8101 35.9571 66.4822 35.8537 66.8442L35.5176 68.0299C37.9001 74.9153 39.9834 83.3927 41.3058 93.7687C41.3058 93.7761 41.3058 93.7798 41.3058 93.7798C41.3058 94.2304 41.6789 94.6035 42.1296 94.6035C42.5839 94.6035 42.9533 94.2304 42.9533 93.7798C43.1749 92.1877 48.6418 53.7015 65.7629 40.7878Z" fill="#240F6E"/>
</g>
<path d="M63.6075 65.1521C63.5558 65.1521 63.5262 65.1151 63.5188 65.0339C63.4782 64.7199 63.4487 64.4724 63.4302 64.2951C63.408 64.1178 63.3933 63.9922 63.3859 63.9109C63.3859 63.8223 63.3785 63.7632 63.3711 63.7336C63.3711 63.7041 63.3711 63.6856 63.3711 63.6745C63.3711 63.645 63.3859 63.6117 63.4154 63.5711C63.4524 63.5231 63.4967 63.4972 63.5484 63.4972C63.5779 63.4972 63.6112 63.5194 63.6518 63.5563C63.6888 63.597 63.7294 63.645 63.77 63.7041C63.807 63.7558 63.8365 63.8075 63.8587 63.8666C63.8882 63.9183 63.903 63.9516 63.903 63.97C63.9917 64.1584 64.084 64.3173 64.1837 64.4428C64.2909 64.5721 64.4091 64.6756 64.5384 64.7531C64.675 64.8233 64.8265 64.8787 64.9964 64.9157C65.1626 64.9452 65.351 64.96 65.5579 64.96C65.9199 64.96 66.2006 64.8787 66.4001 64.7088C66.6069 64.5315 66.7103 64.2508 66.7103 63.8666C66.7103 63.6524 66.6586 63.4529 66.5626 63.2756C66.4739 63.0983 66.3483 62.9321 66.1932 62.7732C66.0344 62.6181 65.8534 62.4703 65.6465 62.33C65.447 62.1933 65.2476 62.0566 65.0407 61.9162C64.8339 61.7685 64.627 61.6207 64.4201 61.473C64.2207 61.3178 64.0434 61.1442 63.8882 60.9558C63.7405 60.7712 63.6149 60.5643 63.5188 60.3353C63.4191 60.11 63.3711 59.8551 63.3711 59.567C63.3711 59.4007 63.4006 59.2419 63.4597 59.0941C63.5262 58.939 63.6112 58.7986 63.7109 58.6804C63.818 58.5622 63.9399 58.4551 64.0803 58.3554C64.2281 58.2593 64.3795 58.1781 64.5384 58.119C64.6935 58.0525 64.8523 58.0008 65.0112 57.9712C65.1774 57.9343 65.3399 57.9121 65.4988 57.9121C65.6243 57.9121 65.7499 57.9232 65.8681 57.9417C65.9937 57.9638 66.123 57.9934 66.2523 58.0303C66.3779 58.0599 66.5035 58.0968 66.6217 58.1337C66.7473 58.1633 66.8729 58.1928 66.9911 58.2224L67.3309 58.1928C67.3605 58.1928 67.3789 58.2076 67.39 58.2372C67.3974 58.2593 67.4048 58.2778 67.4048 58.2963L67.5525 59.4931C67.5525 59.5042 67.5267 59.5152 67.4787 59.5226C67.438 59.5337 67.4085 59.5374 67.39 59.5374C67.3678 59.5374 67.3383 59.5374 67.3014 59.5374C67.2607 59.53 67.2349 59.5189 67.2275 59.5079C67.2164 59.5005 67.2016 59.4783 67.1832 59.4488C67.1721 59.4192 67.1573 59.386 67.1388 59.3453C67.1167 59.3084 67.0982 59.2678 67.0797 59.2271C67.0686 59.1791 67.0502 59.1385 67.0206 59.1089C66.8618 58.8651 66.6549 58.6804 66.4001 58.5622C66.1415 58.4366 65.8608 58.3701 65.5579 58.3701C65.4286 58.3701 65.3067 58.3849 65.1885 58.4145C65.0777 58.444 64.9816 58.4957 64.893 58.5622C64.8043 58.6213 64.7341 58.7063 64.6861 58.8134C64.6455 58.9131 64.627 59.0313 64.627 59.168C64.627 59.3749 64.6713 59.5633 64.76 59.7295C64.856 59.8994 64.9853 60.0545 65.1441 60.2023C65.2993 60.3501 65.4766 60.4978 65.6761 60.6456C65.8829 60.7859 66.0898 60.9263 66.2966 61.074C66.5035 61.2144 66.7029 61.3659 66.9024 61.5321C67.1093 61.6909 67.2903 61.8682 67.4491 62.064C67.6043 62.2635 67.7335 62.4777 67.8333 62.7141C67.9293 62.9505 67.981 63.2239 67.981 63.5268C67.981 63.7262 67.9441 63.9109 67.8776 64.0882C67.8074 64.2581 67.7151 64.4133 67.5969 64.561C67.4787 64.7014 67.3346 64.8233 67.1684 64.9304C67.0095 65.0412 66.8359 65.1336 66.6512 65.2112C66.4739 65.2813 66.2892 65.3294 66.1045 65.3589C65.9162 65.3959 65.7278 65.418 65.5431 65.418C65.3141 65.418 65.1146 65.3959 64.9373 65.3589C64.7674 65.3294 64.6196 65.2924 64.494 65.2555C64.3758 65.2186 64.2724 65.1816 64.1837 65.1521C64.1025 65.1151 64.036 65.093 63.9769 65.093C63.9547 65.093 63.9399 65.093 63.9326 65.093L63.6075 65.1521Z" fill="#212121"/>
<path d="M75.1585 58.9029C75.1585 58.8364 75.1437 58.7958 75.1142 58.7847C75.0846 58.7773 75.0477 58.7662 75.0108 58.7552H73.2968C73.1675 58.7847 73.0641 58.8401 72.9865 58.9177C72.9163 58.9879 72.8609 59.0728 72.824 59.1689C72.7834 59.2686 72.7538 59.3757 72.7353 59.4939C72.7132 59.6047 72.6947 59.7082 72.6762 59.8042C72.6652 59.8448 72.6541 59.8855 72.6467 59.9224C72.6467 59.963 72.6393 59.9889 72.6319 59.9963C72.6208 60.0074 72.6061 60.0111 72.5876 60.0111H72.4251C72.4029 60.0111 72.3955 60.0037 72.3955 59.9815V59.819L72.5876 58.0903C72.5876 58.0533 72.595 58.0164 72.6171 57.9868C72.6467 57.9499 72.6836 57.9277 72.7353 57.9277C72.7649 57.9277 72.7871 57.9388 72.8092 57.9573C72.8277 57.9684 72.8462 57.9831 72.8683 58.0016C72.8868 58.0127 72.9053 58.0275 72.9274 58.0459C72.9459 58.0681 72.9644 58.0829 72.9865 58.0903C73.0235 58.1013 73.0641 58.1124 73.1047 58.1198C73.1417 58.1198 73.1823 58.1198 73.2229 58.1198H78.5421C78.5901 58.1198 78.6307 58.1198 78.6603 58.1198C78.6972 58.1124 78.7379 58.1013 78.7785 58.0903C78.797 58.0829 78.8154 58.0681 78.8376 58.0459C78.8561 58.0275 78.8745 58.0127 78.8967 58.0016C78.9152 57.9831 78.9336 57.9684 78.9558 57.9573C78.9853 57.9388 79.0075 57.9277 79.0297 57.9277C79.0777 57.9277 79.1109 57.9499 79.1331 57.9868C79.1626 58.0164 79.1811 58.0533 79.1922 58.0903L79.3695 59.819V59.9815C79.3695 60.0037 79.3584 60.0111 79.34 60.0111H79.1774C79.1553 60.0111 79.1479 60.0074 79.1479 59.9963C79.1368 59.9889 79.1257 59.963 79.1183 59.9224C79.1072 59.8855 79.1035 59.8448 79.1035 59.8042C79.074 59.7082 79.0481 59.6047 79.0297 59.4939C79.0075 59.3757 78.978 59.2686 78.941 59.1689C78.9004 59.0728 78.845 58.9879 78.7785 58.9177C78.7083 58.8401 78.6086 58.7847 78.483 58.7552H76.7543C76.7136 58.7662 76.6804 58.7773 76.6508 58.7847C76.6213 58.7958 76.6065 58.8364 76.6065 58.9029V64.2959C76.6065 64.3957 76.6287 64.4843 76.6804 64.5619C76.7284 64.6432 76.7986 64.717 76.8872 64.7835C76.9759 64.8426 77.0793 64.8943 77.1975 64.9313C77.3157 64.9608 77.4376 64.9867 77.5669 65.0052C77.6038 65.0052 77.6482 65.0052 77.6999 65.0052C77.759 65.0052 77.8107 65.0052 77.8624 65.0052C77.8698 65.0052 77.8772 65.0125 77.8772 65.0199C77.8846 65.031 77.892 65.0421 77.892 65.0495V65.2416C77.892 65.2526 77.8846 65.2637 77.8772 65.2711C77.8772 65.2822 77.8698 65.2859 77.8624 65.2859H73.9026C73.8915 65.2859 73.8804 65.2822 73.873 65.2711C73.873 65.2637 73.873 65.2526 73.873 65.2416V65.0495C73.873 65.0421 73.873 65.031 73.873 65.0199C73.8804 65.0125 73.8915 65.0052 73.9026 65.0052C73.9395 65.0052 73.9913 65.0052 74.0504 65.0052C74.1095 65.0052 74.1575 65.0052 74.1981 65.0052C74.3237 64.9867 74.4493 64.9608 74.5675 64.9313C74.6857 64.8943 74.7891 64.8426 74.8778 64.7835C74.9664 64.717 75.0329 64.6432 75.0846 64.5619C75.1327 64.4843 75.1585 64.3957 75.1585 64.2959V58.9029Z" fill="#212121"/>
<path d="M84.413 59.0057C84.413 58.9096 84.3872 58.8247 84.3391 58.7545C84.2874 58.6769 84.2246 58.6141 84.1471 58.5624C84.0658 58.5144 83.9771 58.4738 83.8811 58.4442C83.7814 58.4146 83.6742 58.3999 83.556 58.3999C83.5265 58.3999 83.5117 58.3851 83.5117 58.3555V58.1635C83.5117 58.1339 83.5265 58.1191 83.556 58.1191H86.7623C86.7808 58.1191 86.7919 58.1265 86.7919 58.1339C86.7992 58.145 86.8066 58.1561 86.8066 58.1635V58.3555C86.8066 58.3666 86.7992 58.3777 86.7919 58.3851C86.7919 58.3962 86.7808 58.3999 86.7623 58.3999C86.6626 58.3999 86.5591 58.411 86.452 58.4294C86.3412 58.4405 86.2452 58.4701 86.1565 58.5181C86.0679 58.5698 85.994 58.6363 85.9349 58.7249C85.8832 58.8136 85.861 58.9318 85.861 59.0795V62.6404C85.861 63.3201 86.0309 63.8483 86.3781 64.2214C86.7217 64.5871 87.2351 64.7681 87.9148 64.7681C88.1992 64.7681 88.4689 64.7311 88.7274 64.6499C88.9934 64.5723 89.2224 64.4504 89.4219 64.2805C89.6287 64.1143 89.7913 63.9037 89.9095 63.6451C90.0277 63.3903 90.0868 63.0837 90.0868 62.7291V59.5819C90.0868 59.4637 90.0794 59.3455 90.072 59.2273C90.0609 59.1017 90.0314 58.9835 89.9834 58.8727C89.9427 58.7656 89.8688 58.6732 89.7617 58.592C89.662 58.5144 89.5179 58.459 89.3332 58.4294C89.2446 58.422 89.1707 58.4146 89.1116 58.4146C89.0599 58.4073 89.0266 58.3999 89.0082 58.3999C88.986 58.3999 88.9786 58.3851 88.9786 58.3555V58.1635C88.9786 58.1339 88.986 58.1191 89.0082 58.1191H91.6677C91.6751 58.1191 91.6862 58.1265 91.6973 58.1339C91.7047 58.145 91.7121 58.1561 91.7121 58.1635V58.3555C91.7121 58.3666 91.7047 58.3777 91.6973 58.3851C91.6862 58.3962 91.6751 58.3999 91.6677 58.3999C91.5385 58.3999 91.424 58.411 91.3279 58.4294C91.2393 58.4516 91.1728 58.4701 91.1358 58.4885C91.0767 58.5107 91.0213 58.5439 90.9733 58.592C90.9216 58.6437 90.8847 58.6954 90.8551 58.7545C90.8255 58.8136 90.7997 58.8727 90.7812 58.9318C90.7591 58.9909 90.7517 59.0426 90.7517 59.0795V62.3301C90.7517 62.814 90.6852 63.2462 90.5596 63.6304C90.4414 64.0071 90.253 64.3248 89.9981 64.5908C89.7506 64.8567 89.4367 65.0636 89.0525 65.2113C88.6683 65.348 88.2177 65.4182 87.7079 65.4182C87.4604 65.4182 87.2093 65.396 86.9544 65.3591C86.6958 65.3295 86.4446 65.2778 86.2008 65.1966C85.9534 65.1079 85.7206 65.0008 85.5064 64.8715C85.2885 64.7459 85.0964 64.5908 84.9302 64.4135C84.7713 64.2362 84.642 64.0293 84.546 63.7929C84.4573 63.5565 84.413 63.2905 84.413 62.995V59.0057Z" fill="#212121"/>
<path d="M95.7269 65.2857C95.7048 65.2857 95.69 65.282 95.6826 65.2709C95.6826 65.2636 95.6826 65.2525 95.6826 65.2414V65.0198C95.6826 65.0198 95.6826 65.0161 95.6826 65.005C95.69 64.9976 95.7048 64.9902 95.7269 64.9902H95.8451C95.9116 64.9902 95.9966 64.9865 96.0963 64.9754C96.2035 64.9681 96.3069 64.9422 96.4066 64.9016C96.5027 64.8646 96.5876 64.8055 96.6578 64.7243C96.7243 64.6467 96.7612 64.5396 96.7612 64.3992V58.9766C96.7612 58.8806 96.7354 58.7956 96.6873 58.7254C96.6467 58.6479 96.5913 58.5888 96.5248 58.5481C96.4546 58.5001 96.3771 58.4669 96.2884 58.4447C96.2071 58.4262 96.1296 58.4152 96.052 58.4152H95.7269C95.7048 58.4152 95.69 58.4115 95.6826 58.4004C95.6826 58.3819 95.6826 58.3708 95.6826 58.3708V58.1492C95.6826 58.1492 95.6826 58.1455 95.6826 58.1344C95.69 58.116 95.7048 58.1049 95.7269 58.1049H95.8451L97.9285 58.0753C98.1243 58.0753 98.3348 58.0753 98.5638 58.0753C98.7891 58.0679 98.9997 58.0605 99.1992 58.0605C99.4134 58.0605 99.6055 58.0679 99.7754 58.0753C99.9416 58.0753 100.104 58.0864 100.263 58.1049C100.418 58.116 100.577 58.1344 100.736 58.164C100.891 58.1861 101.068 58.2157 101.268 58.2526C101.641 58.3339 101.992 58.4816 102.317 58.6959C102.642 58.9027 102.923 59.1539 103.159 59.4494C103.395 59.7449 103.576 60.0774 103.706 60.4394C103.842 60.8051 103.913 61.1745 103.913 61.5475C103.913 61.9132 103.857 62.2642 103.75 62.5966C103.65 62.9217 103.514 63.2246 103.336 63.4979C103.159 63.7749 102.941 64.0261 102.686 64.2514C102.439 64.4694 102.169 64.6578 101.874 64.8129C101.578 64.9607 101.26 65.0789 100.928 65.1675C100.592 65.2488 100.248 65.2857 99.8936 65.2857H95.7269ZM98.2092 64.5026C98.2092 64.6024 98.2388 64.6799 98.2979 64.739C98.3644 64.7907 98.4493 64.8277 98.549 64.8572C98.6562 64.8794 98.7781 64.8942 98.9184 64.9016C99.0551 64.9016 99.2029 64.9016 99.3617 64.9016C100.366 64.9016 101.12 64.6282 101.622 64.0741C102.125 63.5127 102.376 62.7 102.376 61.6362C102.376 61.1634 102.317 60.7349 102.199 60.3507C102.088 59.9592 101.918 59.623 101.681 59.346C101.452 59.0616 101.164 58.8436 100.81 58.6959C100.462 58.5407 100.049 58.4595 99.5686 58.4595H98.3422C98.2905 58.4595 98.2572 58.4706 98.2388 58.489C98.2166 58.5112 98.2092 58.5444 98.2092 58.5925V64.5026Z" fill="#212121"/>
<path d="M111.624 62.7734C111.624 62.7549 111.616 62.7402 111.609 62.7291L109.526 59.4046C109.467 59.3159 109.4 59.2273 109.334 59.1386C109.274 59.0426 109.204 58.954 109.127 58.8727C109.045 58.784 108.957 58.7102 108.861 58.6511C108.772 58.5846 108.672 58.5329 108.565 58.5033C108.543 58.5033 108.514 58.4996 108.477 58.4885C108.447 58.4811 108.406 58.4738 108.358 58.4738C108.318 58.4664 108.277 58.459 108.24 58.459C108.211 58.4516 108.185 58.4405 108.166 58.4294C108.137 58.4294 108.1 58.411 108.063 58.3703C108.033 58.3334 108.019 58.2964 108.019 58.2669C108.019 58.2595 108.019 58.2484 108.019 58.2373C108.026 58.2189 108.033 58.2041 108.033 58.193C108.041 58.1745 108.052 58.1598 108.063 58.1487C108.07 58.1302 108.085 58.1191 108.107 58.1191H111.55C111.587 58.1191 111.613 58.1413 111.624 58.1782C111.631 58.2078 111.639 58.2373 111.639 58.2669C111.639 58.2964 111.631 58.3334 111.624 58.3703C111.624 58.411 111.602 58.4294 111.565 58.4294C111.476 58.4405 111.391 58.4516 111.313 58.459C111.232 58.459 111.166 58.4738 111.107 58.5033C111.048 58.5255 110.996 58.5587 110.959 58.6067C110.929 58.6584 110.915 58.7323 110.915 58.8284C110.915 58.9096 110.933 58.9835 110.974 59.05L112.525 61.5323C112.562 61.5914 112.588 61.632 112.599 61.6505C112.606 61.6615 112.628 61.6652 112.658 61.6652C112.677 61.6652 112.695 61.6505 112.717 61.6209C112.736 61.5914 112.761 61.5581 112.791 61.5175L114.017 59.4342C114.054 59.3566 114.099 59.2716 114.15 59.183C114.198 59.0869 114.224 58.9872 114.224 58.8875C114.224 58.7914 114.209 58.7175 114.18 58.6658C114.158 58.6067 114.124 58.5624 114.076 58.5329C114.025 58.5033 113.962 58.4848 113.884 58.4738C113.814 58.4553 113.737 58.4405 113.648 58.4294C113.607 58.4294 113.581 58.411 113.574 58.3703C113.563 58.3334 113.559 58.2964 113.559 58.2669C113.559 58.2484 113.563 58.2189 113.574 58.1782C113.581 58.1413 113.607 58.1191 113.648 58.1191H116.204C116.234 58.1191 116.252 58.1413 116.263 58.1782C116.271 58.2189 116.278 58.2484 116.278 58.2669C116.278 58.2964 116.267 58.326 116.248 58.3555C116.226 58.3777 116.197 58.3962 116.16 58.4146C116.13 58.4257 116.093 58.4368 116.056 58.4442C116.027 58.4553 115.997 58.4664 115.968 58.4738C115.79 58.5033 115.635 58.5624 115.51 58.6511C115.391 58.7397 115.273 58.8505 115.155 58.9761C115.144 58.9983 115.118 59.0278 115.081 59.0648C115.052 59.0943 115.037 59.1165 115.037 59.1239L113.072 62.5074V64.2953C113.072 64.5021 113.12 64.661 113.22 64.7681C113.327 64.8789 113.515 64.9454 113.781 64.9749C113.818 64.9749 113.87 64.9749 113.929 64.9749C113.988 64.9749 114.036 64.9749 114.076 64.9749C114.095 64.9749 114.106 64.9823 114.106 64.9897C114.113 65.0008 114.121 65.0119 114.121 65.0193V65.2409C114.121 65.252 114.113 65.2631 114.106 65.2704C114.106 65.2815 114.095 65.2852 114.076 65.2852H110.619C110.597 65.2852 110.582 65.2815 110.575 65.2704C110.575 65.2631 110.575 65.252 110.575 65.2409V65.0193C110.575 65.0119 110.575 65.0008 110.575 64.9897C110.582 64.9823 110.597 64.9749 110.619 64.9749C110.649 64.9749 110.693 64.9749 110.752 64.9749C110.818 64.9749 110.87 64.9749 110.9 64.9749C111.166 64.9454 111.35 64.8789 111.461 64.7681C111.568 64.661 111.624 64.5021 111.624 64.2953V62.7734Z" fill="#212121"/>
<path d="M126.399 65.0488C126.399 65.0193 126.407 65.0045 126.429 65.0045C126.495 65.0045 126.577 65.0008 126.665 64.9897C126.754 64.9712 126.843 64.938 126.931 64.8863C127.02 64.8383 127.101 64.7644 127.183 64.6646C127.271 64.5686 127.345 64.4356 127.404 64.2657L129.443 58.3408C129.443 58.3334 129.443 58.3223 129.443 58.3112C129.443 58.2928 129.432 58.2669 129.414 58.2373C129.403 58.2004 129.399 58.1709 129.399 58.1487C129.399 58.1302 129.403 58.1191 129.414 58.1191H130.891C130.891 58.1302 130.895 58.1339 130.906 58.1339C130.924 58.1339 130.935 58.145 130.935 58.1635L133.093 64.1918C133.122 64.2916 133.152 64.3765 133.181 64.443C133.211 64.5021 133.244 64.5612 133.285 64.6203C133.333 64.672 133.388 64.7201 133.447 64.7681C133.514 64.8087 133.599 64.8493 133.698 64.8863C133.746 64.9158 133.809 64.9454 133.891 64.9749C133.979 64.9971 134.057 65.0045 134.127 65.0045C134.145 65.0045 134.157 65.0119 134.157 65.0193C134.164 65.0303 134.171 65.0414 134.171 65.0488V65.2409C134.171 65.252 134.164 65.2631 134.157 65.2704C134.157 65.2815 134.145 65.2852 134.127 65.2852H130.566C130.544 65.2852 130.529 65.2815 130.522 65.2704C130.522 65.2631 130.522 65.252 130.522 65.2409V65.0488C130.522 65.0414 130.522 65.0303 130.522 65.0193C130.529 65.0119 130.544 65.0045 130.566 65.0045C130.573 65.0045 130.585 65.0045 130.596 65.0045C130.614 65.0045 130.629 65.0045 130.64 65.0045C130.677 64.9971 130.732 64.9897 130.802 64.9897C130.869 64.9897 130.943 64.986 131.024 64.9749C131.102 64.9675 131.179 64.9528 131.261 64.9306C131.349 64.9121 131.427 64.8863 131.497 64.8567C131.563 64.8198 131.619 64.7681 131.659 64.709C131.707 64.6499 131.733 64.5834 131.733 64.5021C131.733 64.4837 131.726 64.4578 131.719 64.4282L131.054 62.5961C131.054 62.5887 131.046 62.5739 131.039 62.5518C131.028 62.5222 131.013 62.5001 130.995 62.4779C130.972 62.4483 130.95 62.4262 130.921 62.404C130.891 62.3855 130.854 62.3745 130.817 62.3745H128.985C128.944 62.3745 128.904 62.3855 128.867 62.404C128.837 62.4262 128.812 62.4483 128.793 62.4779C128.771 62.5001 128.756 62.5222 128.749 62.5518C128.738 62.5739 128.734 62.5813 128.734 62.5813C128.623 62.899 128.531 63.1686 128.453 63.394C128.383 63.6119 128.324 63.7929 128.276 63.9407C128.224 64.081 128.187 64.1881 128.158 64.2657C128.128 64.3359 128.106 64.3913 128.099 64.4282C128.088 64.4689 128.084 64.4947 128.084 64.5021C128.084 64.5132 128.084 64.528 128.084 64.5464C128.084 64.5575 128.088 64.5686 128.099 64.576C128.117 64.6573 128.161 64.7238 128.232 64.7829C128.309 64.842 128.394 64.8863 128.483 64.9158C128.579 64.9454 128.679 64.9712 128.778 64.9897C128.885 65.0008 128.978 65.0045 129.059 65.0045H129.177C129.196 65.0045 129.207 65.0119 129.207 65.0193C129.214 65.0303 129.222 65.0414 129.222 65.0488V65.2409C129.222 65.252 129.214 65.2631 129.207 65.2704C129.207 65.2815 129.196 65.2852 129.177 65.2852H126.429C126.407 65.2852 126.399 65.2704 126.399 65.2409V65.0488ZM129.059 61.6505C129.048 61.6615 129.037 61.6763 129.029 61.6948C129.029 61.717 129.029 61.7317 129.029 61.7391C129.029 61.7613 129.033 61.7797 129.044 61.7982C129.063 61.8093 129.089 61.813 129.118 61.813H130.64C130.677 61.813 130.703 61.8093 130.714 61.7982C130.721 61.7797 130.729 61.7613 130.729 61.7391C130.729 61.7206 130.721 61.7059 130.714 61.6948C130.714 61.6763 130.714 61.6615 130.714 61.6505L130.034 59.7888C130.012 59.7407 129.982 59.7075 129.946 59.6853C129.916 59.6669 129.89 59.6558 129.872 59.6558C129.842 59.6558 129.805 59.6706 129.768 59.7001C129.739 59.7223 129.713 59.7518 129.694 59.7888L129.059 61.6505Z" fill="#212121"/>
<path d="M137.876 65.0496C137.876 65.0422 137.876 65.0311 137.876 65.02C137.883 65.0126 137.898 65.0052 137.92 65.0052C137.987 65.0052 138.072 65.0052 138.171 65.0052C138.268 64.9979 138.371 64.9831 138.482 64.9609C138.589 64.9425 138.696 64.9166 138.807 64.887C138.925 64.8501 139.028 64.8058 139.117 64.7541C139.206 64.706 139.272 64.6469 139.324 64.5768C139.383 64.4992 139.413 64.4105 139.413 64.3108V59.1099C139.413 58.9326 139.387 58.7996 139.339 58.7109C139.287 58.6149 139.221 58.541 139.132 58.4893C139.043 58.4413 138.94 58.4117 138.822 58.4006C138.711 58.3932 138.589 58.3859 138.452 58.3859H138.171C138.149 58.3859 138.135 58.3822 138.127 58.3711C138.127 58.3637 138.127 58.3526 138.127 58.3415V58.1347C138.127 58.1347 138.127 58.131 138.127 58.1199C138.135 58.1125 138.149 58.1051 138.171 58.1051C138.171 58.1051 138.186 58.1051 138.216 58.1051C138.253 58.0977 138.312 58.0904 138.393 58.0904C138.471 58.0904 138.578 58.0904 138.718 58.0904C138.855 58.0904 139.036 58.0904 139.265 58.0904C139.313 58.0904 139.39 58.0904 139.501 58.0904C139.619 58.083 139.752 58.0756 139.9 58.0756C140.055 58.0756 140.218 58.0719 140.388 58.0608C140.554 58.0534 140.713 58.046 140.861 58.046C141.016 58.046 141.156 58.046 141.274 58.046C141.393 58.0386 141.474 58.0312 141.526 58.0312C141.703 58.0312 141.895 58.0423 142.102 58.0608C142.316 58.0719 142.53 58.0977 142.737 58.1347C142.951 58.1753 143.166 58.2344 143.372 58.312C143.579 58.3822 143.76 58.4819 143.919 58.6075C144.074 58.7368 144.2 58.8956 144.289 59.0803C144.385 59.2687 144.436 59.4903 144.436 59.7452C144.436 59.904 144.41 60.0481 144.362 60.1737C144.311 60.303 144.248 60.4212 144.17 60.5283C144.089 60.628 144.008 60.713 143.919 60.7795C143.838 60.8497 143.76 60.9088 143.683 60.9568C143.601 61.0085 143.535 61.0454 143.476 61.075C143.424 61.0971 143.395 61.1045 143.387 61.1045C143.583 61.2154 143.764 61.3372 143.934 61.4739C144.111 61.6032 144.263 61.7473 144.392 61.9024C144.529 62.0612 144.632 62.2385 144.702 62.4343C144.78 62.6227 144.82 62.8333 144.82 63.0697C144.82 63.3467 144.78 63.5942 144.702 63.8084C144.632 64.0153 144.532 64.2 144.407 64.3551C144.289 64.5029 144.148 64.6322 143.993 64.7393C143.845 64.8501 143.686 64.9388 143.52 65.0052C143.35 65.0754 143.184 65.1308 143.018 65.1678C142.848 65.2084 142.696 65.238 142.56 65.2564C142.43 65.2675 142.316 65.2786 142.22 65.286C142.131 65.286 142.072 65.286 142.043 65.286H137.92C137.898 65.286 137.883 65.2823 137.876 65.2712C137.876 65.2638 137.876 65.2527 137.876 65.2417V65.0496ZM140.89 63.9414C140.89 64.0707 140.92 64.1889 140.979 64.296C141.045 64.4068 141.134 64.4992 141.245 64.5768C141.352 64.6469 141.47 64.706 141.599 64.7541C141.725 64.7947 141.854 64.8132 141.984 64.8132C142.198 64.8132 142.39 64.7762 142.56 64.695C142.726 64.6063 142.863 64.4955 142.973 64.3551C143.081 64.2074 143.158 64.0375 143.21 63.838C143.269 63.6311 143.299 63.4058 143.299 63.1583C143.299 62.8739 143.254 62.6227 143.166 62.4048C143.077 62.1905 142.951 62.0132 142.796 61.8729C142.637 61.7251 142.445 61.618 142.22 61.5478C142.002 61.4702 141.766 61.4296 141.511 61.4296H140.949C140.92 61.4296 140.898 61.437 140.89 61.4444C140.89 61.4555 140.89 61.4702 140.89 61.4887V63.9414ZM141.777 60.9568C141.943 60.9568 142.094 60.9272 142.235 60.8681C142.371 60.809 142.49 60.7315 142.589 60.6317C142.696 60.5246 142.781 60.4027 142.841 60.2623C142.9 60.1146 142.929 59.9521 142.929 59.7747C142.929 59.5199 142.9 59.3093 142.841 59.1394C142.781 58.9732 142.685 58.8402 142.56 58.7405C142.442 58.6444 142.286 58.5742 142.102 58.5336C141.924 58.4967 141.718 58.4745 141.481 58.4745C141.429 58.4745 141.37 58.4819 141.304 58.4893C141.234 58.5004 141.164 58.5151 141.097 58.5336C141.038 58.5558 140.983 58.5779 140.934 58.6075C140.894 58.637 140.875 58.6814 140.875 58.7405V60.8681C140.875 60.8792 140.879 60.8977 140.89 60.9272C140.898 60.9494 140.934 60.9568 140.994 60.9568H141.777Z" fill="#212121"/>
<path d="M149.216 65.0209C149.216 65.0209 149.216 65.0172 149.216 65.0061C149.223 64.9876 149.238 64.9765 149.26 64.9765C149.279 64.9765 149.308 64.9765 149.349 64.9765C149.397 64.9692 149.445 64.9618 149.497 64.9618C149.545 64.9544 149.589 64.9433 149.63 64.9322C149.667 64.9248 149.692 64.9174 149.704 64.9174C149.899 64.8694 150.036 64.7955 150.117 64.6958C150.195 64.5998 150.235 64.4742 150.235 64.3264V59.155C150.235 58.9888 150.195 58.8558 150.117 58.7561C150.047 58.6601 149.962 58.5862 149.866 58.5345C149.777 58.4864 149.689 58.4569 149.6 58.4458C149.519 58.4384 149.467 58.431 149.438 58.431H149.245C149.223 58.431 149.209 58.4273 149.201 58.4163C149.201 58.4089 149.201 58.3978 149.201 58.3867V58.1651C149.201 58.1577 149.201 58.1503 149.201 58.1503C149.201 58.1429 149.216 58.1318 149.245 58.1208C149.245 58.1208 149.249 58.1208 149.26 58.1208C149.268 58.1208 149.294 58.1208 149.334 58.1208C149.371 58.1208 149.426 58.1208 149.497 58.1208C149.563 58.1208 149.663 58.1171 149.792 58.106C149.977 58.106 150.176 58.106 150.383 58.106C150.597 58.0986 150.815 58.0875 151.033 58.0764C151.248 58.069 151.462 58.0617 151.669 58.0617C151.883 58.0543 152.086 58.0469 152.274 58.0469H152.792C153.058 58.0469 153.327 58.0986 153.604 58.1946C153.878 58.2833 154.129 58.4163 154.358 58.5936C154.583 58.7709 154.764 58.9925 154.904 59.2585C155.052 59.517 155.126 59.8162 155.126 60.1598C155.126 60.3888 155.097 60.5882 155.037 60.7656C154.978 60.9429 154.893 61.1017 154.786 61.2384C154.675 61.3676 154.55 61.4822 154.402 61.5782C154.254 61.6779 154.096 61.7666 153.929 61.8442L155.466 64.2821C155.592 64.5 155.747 64.6921 155.924 64.8583C156.101 65.0283 156.308 65.1465 156.545 65.213C156.574 65.224 156.589 65.2351 156.589 65.2425C156.596 65.2536 156.604 65.2684 156.604 65.2868C156.604 65.3348 156.589 65.3681 156.559 65.3903C156.53 65.4087 156.485 65.4198 156.426 65.4198C156.286 65.4198 156.123 65.4087 155.939 65.3903C155.761 65.3681 155.577 65.3348 155.392 65.2868C155.215 65.2499 155.041 65.1945 154.875 65.1243C154.716 65.0578 154.579 64.9729 154.461 64.8731C154.35 64.7845 154.243 64.6663 154.136 64.5185C154.025 64.3708 153.915 64.2156 153.796 64.0457C153.686 63.8795 153.575 63.7059 153.456 63.5286C153.346 63.3439 153.239 63.1666 153.131 62.9966C153.032 62.8193 152.932 62.6568 152.836 62.509C152.747 62.3613 152.662 62.2357 152.585 62.1249L151.787 62.0658C151.787 62.0658 151.772 62.0658 151.743 62.0658C151.72 62.0658 151.706 62.0732 151.698 62.0806C151.687 62.0916 151.683 62.1027 151.683 62.1101C151.683 62.1101 151.683 62.1212 151.683 62.1397V64.3117C151.683 64.4003 151.691 64.4816 151.713 64.5481C151.731 64.6182 151.772 64.6773 151.831 64.7254C151.89 64.7771 151.964 64.814 152.053 64.8436C152.141 64.8731 152.249 64.899 152.378 64.9174C152.396 64.9174 152.426 64.9248 152.467 64.9322C152.503 64.9322 152.544 64.9396 152.585 64.947C152.633 64.9581 152.677 64.9692 152.718 64.9765C152.766 64.9765 152.806 64.9765 152.836 64.9765C152.854 64.9765 152.865 64.9839 152.865 64.9913C152.873 65.0024 152.88 65.0135 152.88 65.0209V65.2425C152.88 65.2536 152.873 65.2647 152.865 65.2721C152.865 65.2831 152.854 65.2868 152.836 65.2868H149.26C149.238 65.2868 149.223 65.2647 149.216 65.213C149.216 65.1649 149.216 65.1206 149.216 65.08V65.0209ZM151.683 61.5634C151.691 61.593 151.702 61.6188 151.713 61.6373C151.72 61.6595 151.746 61.6742 151.787 61.6816C151.816 61.6816 151.861 61.689 151.92 61.6964C151.979 61.7075 152.06 61.7112 152.171 61.7112C152.467 61.7112 152.71 61.6669 152.91 61.5782C153.106 61.4822 153.257 61.3566 153.368 61.2088C153.475 61.0537 153.549 60.8764 153.589 60.6769C153.637 60.47 153.663 60.2595 153.663 60.0416C153.663 59.8162 153.623 59.6057 153.545 59.4062C153.475 59.1994 153.375 59.0221 153.25 58.8743C153.131 58.7265 152.984 58.6083 152.806 58.5197C152.629 58.431 152.43 58.3867 152.215 58.3867C152.164 58.3867 152.127 58.3867 152.097 58.3867C152.075 58.3867 152.053 58.3941 152.023 58.4015C151.994 58.4015 151.964 58.4015 151.935 58.4015C151.905 58.4015 151.861 58.4015 151.802 58.4015C151.779 58.4015 151.757 58.4089 151.728 58.4163C151.698 58.4273 151.683 58.4532 151.683 58.4901V61.5634Z" fill="#212121"/>
<path d="M164.874 65.418C164.756 65.418 164.608 65.4069 164.431 65.3885C164.254 65.3663 164.054 65.3331 163.84 65.285C163.633 65.2259 163.412 65.1521 163.175 65.0634C162.946 64.9748 162.721 64.8639 162.496 64.7236C162.278 64.5869 162.071 64.4244 161.875 64.236C161.676 64.0513 161.498 63.8334 161.343 63.5859C161.195 63.331 161.077 63.0466 160.988 62.7289C160.9 62.4149 160.855 62.0603 160.855 61.6651C160.855 61.3105 160.9 60.9706 160.988 60.6456C161.084 60.3205 161.225 60.0213 161.402 59.7443C161.587 59.4709 161.808 59.2197 162.067 58.9907C162.322 58.7654 162.606 58.5733 162.924 58.4145C163.238 58.2593 163.578 58.1337 163.944 58.0451C164.317 57.9564 164.704 57.9121 165.111 57.9121C165.465 57.9121 165.805 57.9564 166.13 58.0451C166.463 58.1264 166.773 58.2446 167.061 58.3997C167.346 58.5585 167.608 58.7506 167.844 58.9759C168.088 59.1939 168.295 59.4414 168.465 59.7147C168.642 59.9807 168.775 60.2725 168.864 60.5865C168.96 60.9041 169.011 61.2292 169.011 61.5616C169.011 61.8793 168.96 62.1933 168.864 62.5073C168.775 62.8249 168.642 63.1241 168.465 63.4086C168.295 63.6967 168.088 63.9626 167.844 64.2064C167.597 64.4539 167.32 64.6645 167.017 64.8418C166.721 65.0191 166.389 65.1631 166.027 65.2703C165.661 65.3663 165.277 65.418 164.874 65.418ZM162.348 61.473C162.348 61.75 162.37 62.0271 162.422 62.3004C162.481 62.5664 162.562 62.8286 162.673 63.0835C162.78 63.3421 162.913 63.5822 163.072 63.8075C163.238 64.0254 163.419 64.2175 163.618 64.3837C163.825 64.5426 164.051 64.6719 164.298 64.7679C164.542 64.8566 164.815 64.9009 165.111 64.9009C165.513 64.9009 165.868 64.8196 166.175 64.6497C166.478 64.4724 166.729 64.2434 166.928 63.9553C167.124 63.6597 167.268 63.3273 167.357 62.9505C167.453 62.5774 167.504 62.1933 167.504 61.798C167.504 61.5025 167.475 61.2181 167.416 60.9411C167.364 60.6677 167.286 60.4018 167.179 60.1432C167.069 59.8883 166.936 59.6556 166.78 59.4488C166.633 59.2345 166.455 59.0498 166.248 58.9021C166.042 58.7469 165.809 58.6213 165.554 58.5327C165.307 58.444 165.041 58.3997 164.756 58.3997C164.49 58.3997 164.246 58.444 164.032 58.5327C163.814 58.6139 163.618 58.7211 163.441 58.8577C163.264 58.9981 163.105 59.1643 162.968 59.3601C162.828 59.5596 162.717 59.7701 162.629 59.9954C162.54 60.2245 162.47 60.4646 162.422 60.7194C162.37 60.9669 162.348 61.2181 162.348 61.473Z" fill="#212121"/>
<path d="M173.231 65.0488C173.231 65.0193 173.239 65.0045 173.261 65.0045C173.327 65.0045 173.409 65.0008 173.497 64.9897C173.586 64.9712 173.675 64.938 173.763 64.8863C173.852 64.8383 173.933 64.7644 174.015 64.6646C174.103 64.5686 174.177 64.4356 174.236 64.2657L176.275 58.3408C176.275 58.3334 176.275 58.3223 176.275 58.3112C176.275 58.2928 176.264 58.2669 176.246 58.2373C176.235 58.2004 176.231 58.1709 176.231 58.1487C176.231 58.1302 176.235 58.1191 176.246 58.1191H177.723C177.723 58.1302 177.727 58.1339 177.738 58.1339C177.756 58.1339 177.767 58.145 177.767 58.1635L179.925 64.1918C179.954 64.2916 179.984 64.3765 180.013 64.443C180.043 64.5021 180.076 64.5612 180.117 64.6203C180.165 64.672 180.22 64.7201 180.279 64.7681C180.346 64.8087 180.431 64.8493 180.531 64.8863C180.579 64.9158 180.641 64.9454 180.723 64.9749C180.811 64.9971 180.889 65.0045 180.959 65.0045C180.977 65.0045 180.989 65.0119 180.989 65.0193C180.996 65.0303 181.003 65.0414 181.003 65.0488V65.2409C181.003 65.252 180.996 65.2631 180.989 65.2704C180.989 65.2815 180.977 65.2852 180.959 65.2852H177.398C177.376 65.2852 177.361 65.2815 177.354 65.2704C177.354 65.2631 177.354 65.252 177.354 65.2409V65.0488C177.354 65.0414 177.354 65.0303 177.354 65.0193C177.361 65.0119 177.376 65.0045 177.398 65.0045C177.405 65.0045 177.417 65.0045 177.428 65.0045C177.446 65.0045 177.461 65.0045 177.472 65.0045C177.509 64.9971 177.564 64.9897 177.635 64.9897C177.701 64.9897 177.775 64.986 177.856 64.9749C177.934 64.9675 178.011 64.9528 178.093 64.9306C178.181 64.9121 178.259 64.8863 178.329 64.8567C178.395 64.8198 178.451 64.7681 178.491 64.709C178.54 64.6499 178.565 64.5834 178.565 64.5021C178.565 64.4837 178.558 64.4578 178.551 64.4282L177.886 62.5961C177.886 62.5887 177.878 62.5739 177.871 62.5518C177.86 62.5222 177.845 62.5001 177.827 62.4779C177.804 62.4483 177.782 62.4262 177.753 62.404C177.723 62.3855 177.686 62.3745 177.649 62.3745H175.817C175.777 62.3745 175.736 62.3855 175.699 62.404C175.669 62.4262 175.644 62.4483 175.625 62.4779C175.603 62.5001 175.588 62.5222 175.581 62.5518C175.57 62.5739 175.566 62.5813 175.566 62.5813C175.455 62.899 175.363 63.1686 175.285 63.394C175.215 63.6119 175.156 63.7929 175.108 63.9407C175.056 64.081 175.019 64.1881 174.99 64.2657C174.96 64.3359 174.938 64.3913 174.931 64.4282C174.92 64.4689 174.916 64.4947 174.916 64.5021C174.916 64.5132 174.916 64.528 174.916 64.5464C174.916 64.5575 174.92 64.5686 174.931 64.576C174.949 64.6573 174.993 64.7238 175.064 64.7829C175.141 64.842 175.226 64.8863 175.315 64.9158C175.411 64.9454 175.511 64.9712 175.61 64.9897C175.717 65.0008 175.81 65.0045 175.891 65.0045H176.009C176.028 65.0045 176.039 65.0119 176.039 65.0193C176.046 65.0303 176.054 65.0414 176.054 65.0488V65.2409C176.054 65.252 176.046 65.2631 176.039 65.2704C176.039 65.2815 176.028 65.2852 176.009 65.2852H173.261C173.239 65.2852 173.231 65.2704 173.231 65.2409V65.0488ZM175.891 61.6505C175.88 61.6615 175.869 61.6763 175.861 61.6948C175.861 61.717 175.861 61.7317 175.861 61.7391C175.861 61.7613 175.865 61.7797 175.876 61.7982C175.895 61.8093 175.921 61.813 175.95 61.813H177.472C177.509 61.813 177.535 61.8093 177.546 61.7982C177.553 61.7797 177.561 61.7613 177.561 61.7391C177.561 61.7206 177.553 61.7059 177.546 61.6948C177.546 61.6763 177.546 61.6615 177.546 61.6505L176.866 59.7888C176.844 59.7407 176.814 59.7075 176.778 59.6853C176.748 59.6669 176.722 59.6558 176.704 59.6558C176.674 59.6558 176.637 59.6706 176.6 59.7001C176.571 59.7223 176.545 59.7518 176.526 59.7888L175.891 61.6505Z" fill="#212121"/>
<path d="M184.93 65.2857C184.908 65.2857 184.893 65.282 184.886 65.2709C184.886 65.2636 184.886 65.2525 184.886 65.2414V65.0198C184.886 65.0198 184.886 65.0161 184.886 65.005C184.893 64.9976 184.908 64.9902 184.93 64.9902H185.048C185.115 64.9902 185.2 64.9865 185.299 64.9754C185.407 64.9681 185.51 64.9422 185.61 64.9016C185.706 64.8646 185.791 64.8055 185.861 64.7243C185.927 64.6467 185.964 64.5396 185.964 64.3992V58.9766C185.964 58.8806 185.938 58.7956 185.89 58.7254C185.85 58.6479 185.794 58.5888 185.728 58.5481C185.658 58.5001 185.58 58.4669 185.492 58.4447C185.41 58.4262 185.333 58.4152 185.255 58.4152H184.93C184.908 58.4152 184.893 58.4115 184.886 58.4004C184.886 58.3819 184.886 58.3708 184.886 58.3708V58.1492C184.886 58.1492 184.886 58.1455 184.886 58.1344C184.893 58.116 184.908 58.1049 184.93 58.1049H185.048L187.132 58.0753C187.327 58.0753 187.538 58.0753 187.767 58.0753C187.992 58.0679 188.203 58.0605 188.402 58.0605C188.617 58.0605 188.809 58.0679 188.979 58.0753C189.145 58.0753 189.307 58.0864 189.466 58.1049C189.621 58.116 189.78 58.1344 189.939 58.164C190.094 58.1861 190.271 58.2157 190.471 58.2526C190.844 58.3339 191.195 58.4816 191.52 58.6959C191.845 58.9027 192.126 59.1539 192.362 59.4494C192.599 59.7449 192.78 60.0774 192.909 60.4394C193.045 60.8051 193.116 61.1745 193.116 61.5475C193.116 61.9132 193.06 62.2642 192.953 62.5966C192.853 62.9217 192.717 63.2246 192.539 63.4979C192.362 63.7749 192.144 64.0261 191.889 64.2514C191.642 64.4694 191.372 64.6578 191.077 64.8129C190.781 64.9607 190.463 65.0789 190.131 65.1675C189.795 65.2488 189.451 65.2857 189.097 65.2857H184.93ZM187.412 64.5026C187.412 64.6024 187.442 64.6799 187.501 64.739C187.567 64.7907 187.652 64.8277 187.752 64.8572C187.859 64.8794 187.981 64.8942 188.122 64.9016C188.258 64.9016 188.406 64.9016 188.565 64.9016C189.57 64.9016 190.323 64.6282 190.825 64.0741C191.328 63.5127 191.579 62.7 191.579 61.6362C191.579 61.1634 191.52 60.7349 191.402 60.3507C191.291 59.9592 191.121 59.623 190.885 59.346C190.656 59.0616 190.367 58.8436 190.013 58.6959C189.666 58.5407 189.252 58.4595 188.772 58.4595H187.545C187.494 58.4595 187.46 58.4706 187.442 58.489C187.42 58.5112 187.412 58.5444 187.412 58.5925V64.5026Z" fill="#212121"/>
<path d="M68.341 74.3867C68.9394 74.3867 69.4824 74.5456 69.9663 74.8595L69.6412 75.554C69.1684 75.2695 68.7141 75.1255 68.2819 75.1255C68.0455 75.1255 67.8571 75.1698 67.7204 75.2585C67.5911 75.3397 67.5283 75.4579 67.5283 75.6131C67.5283 75.7608 67.5874 75.8901 67.7056 75.9972C67.8312 76.1081 67.9901 76.1893 68.1785 76.2484C68.3631 76.3001 68.5663 76.3629 68.7842 76.4405C68.9985 76.5107 69.198 76.5883 69.3753 76.6769C69.56 76.7656 69.7151 76.9059 69.8333 77.0906C69.9589 77.2679 70.0254 77.4859 70.0254 77.7407C70.0254 78.1544 69.8628 78.4869 69.5378 78.7307C69.2127 78.9671 68.7916 79.0853 68.2819 79.0853C67.9273 79.0853 67.58 79.0225 67.2476 78.8932C66.9225 78.7565 66.6344 78.5755 66.3906 78.3465L66.7157 77.6669C66.9521 77.8848 67.207 78.051 67.484 78.1692C67.7684 78.2874 68.0381 78.3465 68.2967 78.3465C68.5626 78.3465 68.7695 78.2985 68.9172 78.1988C69.0724 78.1027 69.1536 77.9624 69.1536 77.7851C69.1536 77.6299 69.0871 77.4969 68.9615 77.3861C68.8433 77.279 68.6882 77.2014 68.5035 77.1497C68.3262 77.1017 68.1267 77.0426 67.9125 76.9724C67.6946 76.8948 67.4914 76.8173 67.3067 76.736C67.1183 76.6474 66.9595 76.5144 66.8339 76.3371C66.7157 76.1598 66.6566 75.9455 66.6566 75.687C66.6566 75.2954 66.808 74.9777 67.1146 74.7413C67.4286 74.5049 67.8386 74.3867 68.341 74.3867Z" fill="#212121"/>
<path d="M76.4157 75.1252H74.9529V79.0555H74.1698V75.1252H72.707V74.416H76.4157V75.1252Z" fill="#212121"/>
<path d="M83.3472 74.416V77.1347C83.3472 77.7368 83.1625 78.2133 82.8005 78.5679C82.4459 78.9151 81.9509 79.085 81.3229 79.085C80.7024 79.085 80.2074 78.9151 79.8454 78.5679C79.4908 78.2133 79.3135 77.7368 79.3135 77.1347V74.416H80.0966V77.1347C80.0966 77.5299 80.2037 77.8402 80.4216 78.0655C80.647 78.2835 80.9535 78.3906 81.3377 78.3906C81.7219 78.3906 82.0211 78.2835 82.239 78.0655C82.4533 77.8402 82.5641 77.5299 82.5641 77.1347V74.416H83.3472Z" fill="#212121"/>
<path d="M86.7764 74.416H88.6824C89.3695 74.416 89.942 74.6376 90.3963 75.0809C90.847 75.5168 91.076 76.0672 91.076 76.7358C91.076 77.408 90.847 77.9621 90.3963 78.4054C89.942 78.8413 89.3621 79.0555 88.6528 79.0555H86.7764V74.416ZM87.5595 75.1252V78.3611H88.6972C89.1478 78.3611 89.5283 78.2096 89.8349 77.903C90.1378 77.6001 90.2929 77.216 90.2929 76.7505C90.2929 76.2777 90.1341 75.8899 89.8201 75.5833C89.5024 75.2804 89.1183 75.1252 88.6676 75.1252H87.5595Z" fill="#212121"/>
<path d="M97.5333 75.1252H95.0067V76.3811H97.2674V77.0756H95.0067V78.3611H97.622V79.0555H94.2236V74.416H97.5333V75.1252Z" fill="#212121"/>
<path d="M104.902 79.0555H104.133L101.666 75.731V79.0555H100.883V74.416H101.651L104.133 77.7553V74.416H104.902V79.0555Z" fill="#212121"/>
<path d="M111.604 75.1252H110.141V79.0555H109.358V75.1252H107.896V74.416H111.604V75.1252Z" fill="#212121"/>
<path d="M120.138 74.3867C120.736 74.3867 121.279 74.5456 121.763 74.8595L121.438 75.554C120.965 75.2695 120.511 75.1255 120.079 75.1255C119.842 75.1255 119.654 75.1698 119.517 75.2585C119.388 75.3397 119.325 75.4579 119.325 75.6131C119.325 75.7608 119.384 75.8901 119.503 75.9972C119.628 76.1081 119.787 76.1893 119.975 76.2484C120.16 76.3001 120.363 76.3629 120.581 76.4405C120.795 76.5107 120.995 76.5883 121.172 76.6769C121.357 76.7656 121.512 76.9059 121.63 77.0906C121.756 77.2679 121.822 77.4859 121.822 77.7407C121.822 78.1544 121.66 78.4869 121.335 78.7307C121.01 78.9671 120.589 79.0853 120.079 79.0853C119.724 79.0853 119.377 79.0225 119.044 78.8932C118.719 78.7565 118.431 78.5755 118.188 78.3465L118.513 77.6669C118.749 77.8848 119.004 78.051 119.281 78.1692C119.565 78.2874 119.835 78.3465 120.094 78.3465C120.359 78.3465 120.566 78.2985 120.714 78.1988C120.869 78.1027 120.951 77.9624 120.951 77.7851C120.951 77.6299 120.884 77.4969 120.758 77.3861C120.64 77.279 120.485 77.2014 120.3 77.1497C120.123 77.1017 119.924 77.0426 119.709 76.9724C119.491 76.8948 119.288 76.8173 119.104 76.736C118.915 76.6474 118.756 76.5144 118.631 76.3371C118.513 76.1598 118.453 75.9455 118.453 75.687C118.453 75.2954 118.605 74.9777 118.911 74.7413C119.225 74.5049 119.635 74.3867 120.138 74.3867Z" fill="#212121"/>
<path d="M128.359 75.1252H125.833V76.3811H128.094V77.0756H125.833V78.3611H128.448V79.0555H125.05V74.416H128.359V75.1252Z" fill="#212121"/>
<path d="M134.649 79.0555L133.807 77.6518C133.755 77.6518 133.682 77.6518 133.585 77.6518H132.492V79.0555H131.709V74.416H133.585C134.176 74.416 134.635 74.5564 134.96 74.8297C135.292 75.1068 135.462 75.4946 135.462 75.997C135.462 76.3738 135.377 76.6877 135.211 76.9426C135.041 77.2012 134.804 77.3859 134.502 77.5041L135.536 79.0555H134.649ZM132.492 76.9574H133.585C134.343 76.9574 134.723 76.6471 134.723 76.0265C134.723 75.4281 134.343 75.1252 133.585 75.1252H132.492V76.9574Z" fill="#212121"/>
<path d="M140.88 79.0555H140.068L138.221 74.416H139.063L140.496 78.1837L141.944 74.416H142.757L140.88 79.0555Z" fill="#212121"/>
<path d="M146.479 79.0555H145.696V74.416H146.479V79.0555Z" fill="#212121"/>
<path d="M152.066 74.4023C152.391 74.4023 152.705 74.4688 153.011 74.5944C153.325 74.7237 153.595 74.8973 153.824 75.1116L153.366 75.6878C153.196 75.5105 153 75.3701 152.775 75.2593C152.546 75.1522 152.317 75.0968 152.081 75.0968C151.615 75.0968 151.224 75.2556 150.899 75.5696C150.581 75.8873 150.426 76.2714 150.426 76.7221C150.426 77.1875 150.581 77.5754 150.899 77.8893C151.224 78.207 151.615 78.3622 152.081 78.3622C152.561 78.3622 152.989 78.1812 153.366 77.8155L153.839 78.3326C153.603 78.5616 153.322 78.7426 152.997 78.8793C152.679 79.0197 152.361 79.0862 152.036 79.0862C151.357 79.0862 150.784 78.8608 150.322 78.4065C149.857 77.9558 149.628 77.3981 149.628 76.7369C149.628 76.0794 149.864 75.5253 150.337 75.082C150.81 74.6314 151.386 74.4023 152.066 74.4023Z" fill="#212121"/>
<path d="M160.252 75.1252H157.725V76.3811H159.986V77.0756H157.725V78.3611H160.341V79.0555H156.942V74.416H160.252V75.1252Z" fill="#212121"/>
<path d="M165.123 74.3867C165.722 74.3867 166.265 74.5456 166.749 74.8595L166.423 75.554C165.951 75.2695 165.496 75.1255 165.064 75.1255C164.828 75.1255 164.639 75.1698 164.503 75.2585C164.373 75.3397 164.311 75.4579 164.311 75.6131C164.311 75.7608 164.37 75.8901 164.488 75.9972C164.613 76.1081 164.772 76.1893 164.961 76.2484C165.145 76.3001 165.349 76.3629 165.566 76.4405C165.781 76.5107 165.98 76.5883 166.157 76.6769C166.342 76.7656 166.497 76.9059 166.616 77.0906C166.741 77.2679 166.808 77.4859 166.808 77.7407C166.808 78.1544 166.645 78.4869 166.32 78.7307C165.995 78.9671 165.574 79.0853 165.064 79.0853C164.709 79.0853 164.362 79.0225 164.03 78.8932C163.705 78.7565 163.417 78.5755 163.173 78.3465L163.498 77.6669C163.734 77.8848 163.989 78.051 164.266 78.1692C164.551 78.2874 164.82 78.3465 165.079 78.3465C165.345 78.3465 165.552 78.2985 165.699 78.1988C165.855 78.1027 165.936 77.9624 165.936 77.7851C165.936 77.6299 165.869 77.4969 165.744 77.3861C165.626 77.279 165.47 77.2014 165.286 77.1497C165.108 77.1017 164.909 77.0426 164.695 76.9724C164.477 76.8948 164.274 76.8173 164.089 76.736C163.901 76.6474 163.742 76.5144 163.616 76.3371C163.498 76.1598 163.439 75.9455 163.439 75.687C163.439 75.2954 163.59 74.9777 163.897 74.7413C164.211 74.5049 164.621 74.3867 165.123 74.3867Z" fill="#212121"/>
</g>
<defs>
<clipPath id="clip0_418_1767">
<rect width="200" height="103.546" fill="white" transform="translate(0.666016 0.226562)"/>
</clipPath>
</defs>
</svg>
