<svg width="371" height="192" viewBox="0 0 371 192" fill="none" xmlns="http://www.w3.org/2000/svg">
<g clip-path="url(#clip0_297_7499)">
<mask id="mask0_297_7499" style="mask-type:luminance" maskUnits="userSpaceOnUse" x="9" y="16" width="111" height="102">
<path d="M9.88672 16.7109H119.737V117.916H9.88672V16.7109Z" fill="white"/>
</mask>
<g mask="url(#mask0_297_7499)">
<path d="M61.3029 68.5323C61.3029 68.5323 43.1118 50.5528 9.88672 42.5734C9.88672 42.5734 51.5787 69.9296 62.1913 116.272C62.1913 116.272 83.1637 41.8131 118.036 16.998C118.036 16.998 77.3483 37.7652 61.3029 68.5323Z" fill="#411ACB"/>
</g>
<path d="M39.8181 51.5197L40.9524 49.1087C40.9524 49.1087 40.9524 49.1087 43.8636 50.6293C41.465 47.6156 39.9547 41.8074 39.2577 38.6019H46.0845C45.5515 40.0265 45.2576 41.5608 45.2576 43.1567C45.2576 50.3622 51.0799 56.2046 58.2688 56.2046C65.4578 56.2046 71.2801 50.3622 71.2801 43.1567C71.2801 39.6019 69.8655 36.3896 67.5558 34.0334L79.1046 25.4375H50.8065L33.1211 38.6019H38.2463C37.3853 44.3074 39.8181 51.5197 39.8181 51.5197Z" fill="#411ACB"/>
<mask id="mask1_297_7499" style="mask-type:luminance" maskUnits="userSpaceOnUse" x="63" y="32" width="59" height="144">
<path d="M63.7559 32H121.411V175.781H63.7559V32Z" fill="white"/>
</mask>
<g mask="url(#mask1_297_7499)">
<path d="M121.206 75.2113C121.206 75.2113 114.393 52.8551 111.994 33.0332C83.3816 62.2729 66.0652 122.855 65.8738 123.526L65.252 125.725C69.6596 138.492 73.5138 154.211 75.9603 173.451C75.9603 173.465 75.9603 173.472 75.9603 173.472C75.9603 174.307 76.6504 174.999 77.4841 174.999C78.3247 174.999 79.008 174.307 79.008 173.472C79.4181 170.52 89.5318 99.1565 121.206 75.2113Z" fill="#240F6E"/>
</g>
<path d="M117.219 120.39C117.123 120.39 117.068 120.321 117.055 120.17C116.979 119.588 116.925 119.129 116.891 118.8C116.85 118.472 116.822 118.239 116.809 118.088C116.809 117.924 116.795 117.814 116.781 117.759C116.781 117.705 116.781 117.67 116.781 117.65C116.781 117.595 116.809 117.533 116.863 117.458C116.932 117.369 117.014 117.321 117.109 117.321C117.164 117.321 117.225 117.362 117.301 117.431C117.369 117.506 117.444 117.595 117.519 117.705C117.588 117.8 117.642 117.896 117.683 118.006C117.738 118.102 117.765 118.163 117.765 118.198C117.929 118.547 118.1 118.842 118.285 119.074C118.483 119.314 118.701 119.506 118.941 119.65C119.194 119.78 119.474 119.883 119.788 119.951C120.096 120.006 120.444 120.033 120.827 120.033C121.496 120.033 122.016 119.883 122.385 119.568C122.768 119.239 122.959 118.718 122.959 118.006C122.959 117.609 122.863 117.239 122.686 116.91C122.521 116.581 122.289 116.273 122.002 115.979C121.708 115.691 121.373 115.417 120.991 115.157C120.622 114.903 120.253 114.65 119.87 114.39C119.487 114.116 119.105 113.842 118.722 113.568C118.353 113.28 118.025 112.958 117.738 112.609C117.465 112.266 117.232 111.883 117.055 111.458C116.87 111.04 116.781 110.568 116.781 110.033C116.781 109.725 116.836 109.431 116.945 109.157C117.068 108.869 117.225 108.609 117.41 108.39C117.608 108.17 117.834 107.972 118.093 107.787C118.367 107.609 118.647 107.458 118.941 107.348C119.228 107.225 119.522 107.129 119.815 107.074C120.123 107.006 120.424 106.965 120.717 106.965C120.95 106.965 121.182 106.985 121.401 107.02C121.633 107.061 121.872 107.116 122.111 107.184C122.344 107.239 122.576 107.307 122.795 107.376C123.027 107.431 123.26 107.485 123.478 107.54L124.107 107.485C124.162 107.485 124.196 107.513 124.216 107.568C124.23 107.609 124.244 107.643 124.244 107.677L124.517 109.896C124.517 109.917 124.469 109.937 124.38 109.951C124.305 109.972 124.25 109.979 124.216 109.979C124.175 109.979 124.121 109.979 124.052 109.979C123.977 109.965 123.929 109.944 123.916 109.924C123.895 109.91 123.868 109.869 123.834 109.814C123.813 109.759 123.786 109.698 123.752 109.622C123.711 109.554 123.676 109.479 123.642 109.403C123.622 109.314 123.588 109.239 123.533 109.184C123.239 108.732 122.856 108.39 122.385 108.17C121.906 107.937 121.387 107.814 120.827 107.814C120.588 107.814 120.362 107.842 120.143 107.896C119.938 107.951 119.761 108.047 119.597 108.17C119.433 108.28 119.303 108.437 119.214 108.636C119.139 108.821 119.105 109.04 119.105 109.294C119.105 109.677 119.187 110.026 119.351 110.335C119.528 110.65 119.768 110.937 120.061 111.211C120.348 111.485 120.676 111.759 121.045 112.033C121.428 112.294 121.811 112.554 122.193 112.828C122.576 113.088 122.945 113.369 123.314 113.677C123.697 113.972 124.032 114.3 124.326 114.663C124.613 115.033 124.852 115.431 125.036 115.869C125.214 116.307 125.31 116.814 125.31 117.376C125.31 117.746 125.241 118.088 125.118 118.417C124.988 118.732 124.818 119.02 124.599 119.294C124.38 119.554 124.114 119.78 123.806 119.979C123.512 120.184 123.191 120.355 122.85 120.499C122.521 120.629 122.18 120.718 121.838 120.773C121.49 120.842 121.141 120.883 120.799 120.883C120.376 120.883 120.007 120.842 119.679 120.773C119.364 120.718 119.091 120.65 118.859 120.581C118.64 120.513 118.449 120.444 118.285 120.39C118.134 120.321 118.011 120.28 117.902 120.28C117.861 120.28 117.834 120.28 117.82 120.28L117.219 120.39Z" fill="#212121"/>
<path d="M138.588 108.8C138.588 108.677 138.561 108.602 138.506 108.581C138.451 108.568 138.383 108.547 138.315 108.526H135.144C134.905 108.581 134.713 108.684 134.57 108.828C134.44 108.958 134.338 109.115 134.269 109.294C134.194 109.478 134.139 109.677 134.105 109.896C134.064 110.102 134.03 110.294 133.996 110.472C133.975 110.547 133.955 110.622 133.941 110.691C133.941 110.766 133.928 110.814 133.914 110.828C133.893 110.848 133.866 110.855 133.832 110.855H133.531C133.49 110.855 133.477 110.842 133.477 110.8V110.499L133.832 107.294C133.832 107.225 133.846 107.157 133.887 107.102C133.941 107.033 134.01 106.992 134.105 106.992C134.16 106.992 134.201 107.013 134.242 107.047C134.276 107.068 134.31 107.095 134.351 107.129C134.385 107.15 134.42 107.177 134.461 107.211C134.495 107.252 134.529 107.28 134.57 107.294C134.638 107.314 134.713 107.335 134.789 107.348C134.857 107.348 134.932 107.348 135.007 107.348H144.848C144.937 107.348 145.012 107.348 145.066 107.348C145.135 107.335 145.21 107.314 145.285 107.294C145.319 107.28 145.353 107.252 145.394 107.211C145.429 107.177 145.463 107.15 145.504 107.129C145.538 107.095 145.572 107.068 145.613 107.047C145.668 107.013 145.709 106.992 145.75 106.992C145.839 106.992 145.9 107.033 145.941 107.102C145.996 107.157 146.03 107.225 146.05 107.294L146.378 110.499V110.8C146.378 110.842 146.358 110.855 146.324 110.855H146.023C145.982 110.855 145.968 110.848 145.968 110.828C145.948 110.814 145.927 110.766 145.914 110.691C145.893 110.622 145.886 110.547 145.886 110.472C145.832 110.294 145.784 110.102 145.75 109.896C145.709 109.677 145.654 109.478 145.586 109.294C145.511 109.115 145.408 108.958 145.285 108.828C145.155 108.684 144.971 108.581 144.738 108.526H141.54C141.465 108.547 141.404 108.568 141.349 108.581C141.294 108.602 141.267 108.677 141.267 108.8V118.8C141.267 118.985 141.308 119.15 141.404 119.294C141.492 119.444 141.622 119.581 141.786 119.705C141.95 119.814 142.142 119.91 142.36 119.978C142.579 120.033 142.804 120.081 143.044 120.115C143.112 120.115 143.194 120.115 143.29 120.115C143.399 120.115 143.495 120.115 143.59 120.115C143.604 120.115 143.618 120.129 143.618 120.143C143.631 120.163 143.645 120.184 143.645 120.198V120.554C143.645 120.574 143.631 120.595 143.618 120.609C143.618 120.629 143.604 120.636 143.59 120.636H136.265C136.244 120.636 136.224 120.629 136.21 120.609C136.21 120.595 136.21 120.574 136.21 120.554V120.198C136.21 120.184 136.21 120.163 136.21 120.143C136.224 120.129 136.244 120.115 136.265 120.115C136.333 120.115 136.429 120.115 136.538 120.115C136.647 120.115 136.736 120.115 136.811 120.115C137.044 120.081 137.276 120.033 137.495 119.978C137.713 119.91 137.905 119.814 138.069 119.705C138.233 119.581 138.356 119.444 138.451 119.294C138.54 119.15 138.588 118.985 138.588 118.8V108.8Z" fill="#212121"/>
<path d="M155.708 108.991C155.708 108.813 155.661 108.656 155.572 108.526C155.476 108.382 155.36 108.265 155.216 108.17C155.066 108.081 154.902 108.005 154.724 107.95C154.54 107.896 154.342 107.868 154.123 107.868C154.068 107.868 154.041 107.841 154.041 107.786V107.43C154.041 107.375 154.068 107.348 154.123 107.348H160.055C160.089 107.348 160.109 107.361 160.109 107.375C160.123 107.396 160.137 107.416 160.137 107.43V107.786C160.137 107.807 160.123 107.827 160.109 107.841C160.109 107.861 160.089 107.868 160.055 107.868C159.87 107.868 159.679 107.889 159.481 107.923C159.276 107.944 159.098 107.998 158.934 108.087C158.77 108.183 158.633 108.307 158.524 108.471C158.428 108.635 158.387 108.855 158.387 109.128V115.731C158.387 116.991 158.702 117.971 159.344 118.663C159.979 119.341 160.929 119.676 162.187 119.676C162.713 119.676 163.212 119.608 163.69 119.457C164.182 119.313 164.606 119.087 164.975 118.772C165.358 118.464 165.658 118.074 165.877 117.594C166.096 117.122 166.205 116.553 166.205 115.896V110.06C166.205 109.841 166.191 109.622 166.178 109.402C166.157 109.17 166.102 108.95 166.014 108.745C165.938 108.546 165.802 108.375 165.604 108.224C165.419 108.081 165.152 107.978 164.811 107.923C164.647 107.909 164.51 107.896 164.401 107.896C164.305 107.882 164.244 107.868 164.209 107.868C164.168 107.868 164.155 107.841 164.155 107.786V107.43C164.155 107.375 164.168 107.348 164.209 107.348H169.13C169.143 107.348 169.164 107.361 169.184 107.375C169.198 107.396 169.212 107.416 169.212 107.43V107.786C169.212 107.807 169.198 107.827 169.184 107.841C169.164 107.861 169.143 107.868 169.13 107.868C168.89 107.868 168.679 107.889 168.501 107.923C168.337 107.964 168.214 107.998 168.146 108.033C168.036 108.074 167.934 108.135 167.845 108.224C167.749 108.32 167.681 108.416 167.626 108.526C167.572 108.635 167.524 108.745 167.49 108.855C167.449 108.964 167.435 109.06 167.435 109.128V115.156C167.435 116.053 167.312 116.855 167.08 117.567C166.861 118.265 166.512 118.855 166.041 119.348C165.583 119.841 165.002 120.224 164.291 120.498C163.581 120.752 162.747 120.882 161.804 120.882C161.346 120.882 160.881 120.841 160.41 120.772C159.932 120.718 159.467 120.622 159.016 120.471C158.558 120.307 158.128 120.108 157.731 119.868C157.328 119.635 156.973 119.348 156.665 119.019C156.371 118.69 156.132 118.307 155.954 117.868C155.79 117.43 155.708 116.937 155.708 116.389V108.991Z" fill="#212121"/>
<path d="M176.641 120.636C176.6 120.636 176.572 120.629 176.559 120.608C176.559 120.594 176.559 120.574 176.559 120.553V120.142C176.559 120.142 176.559 120.136 176.559 120.115C176.572 120.101 176.6 120.088 176.641 120.088H176.859C176.982 120.088 177.139 120.081 177.324 120.06C177.522 120.047 177.713 119.999 177.898 119.923C178.076 119.855 178.233 119.745 178.363 119.594C178.486 119.451 178.554 119.252 178.554 118.992V108.937C178.554 108.759 178.506 108.601 178.417 108.471C178.342 108.327 178.24 108.218 178.117 108.142C177.987 108.053 177.843 107.992 177.679 107.951C177.529 107.916 177.385 107.896 177.242 107.896H176.641C176.6 107.896 176.572 107.889 176.559 107.868C176.559 107.834 176.559 107.814 176.559 107.814V107.403C176.559 107.403 176.559 107.396 176.559 107.375C176.572 107.341 176.6 107.32 176.641 107.32H176.859L180.713 107.266C181.076 107.266 181.465 107.266 181.889 107.266C182.306 107.252 182.695 107.238 183.064 107.238C183.461 107.238 183.816 107.252 184.13 107.266C184.438 107.266 184.738 107.286 185.032 107.32C185.319 107.341 185.613 107.375 185.907 107.43C186.194 107.471 186.522 107.526 186.891 107.594C187.581 107.745 188.23 108.019 188.832 108.416C189.433 108.8 189.953 109.266 190.39 109.814C190.827 110.362 191.162 110.978 191.401 111.649C191.654 112.327 191.784 113.012 191.784 113.704C191.784 114.382 191.681 115.033 191.483 115.649C191.299 116.252 191.046 116.814 190.718 117.32C190.39 117.834 189.987 118.3 189.515 118.718C189.057 119.122 188.558 119.471 188.012 119.759C187.465 120.033 186.877 120.252 186.262 120.416C185.64 120.567 185.005 120.636 184.349 120.636H176.641ZM181.233 119.183C181.233 119.368 181.287 119.512 181.397 119.622C181.52 119.718 181.677 119.786 181.861 119.841C182.06 119.882 182.285 119.91 182.545 119.923C182.798 119.923 183.071 119.923 183.365 119.923C185.224 119.923 186.618 119.416 187.547 118.389C188.476 117.348 188.941 115.841 188.941 113.868C188.941 112.992 188.832 112.197 188.613 111.485C188.408 110.759 188.094 110.136 187.656 109.622C187.233 109.094 186.7 108.69 186.044 108.416C185.401 108.129 184.636 107.978 183.748 107.978H181.479C181.383 107.978 181.322 107.999 181.287 108.033C181.246 108.074 181.233 108.136 181.233 108.225V119.183Z" fill="#212121"/>
<path d="M206.049 115.978C206.049 115.944 206.035 115.916 206.021 115.896L202.167 109.731C202.058 109.567 201.935 109.402 201.812 109.238C201.702 109.06 201.573 108.896 201.429 108.745C201.279 108.581 201.115 108.444 200.937 108.334C200.773 108.211 200.588 108.115 200.39 108.06C200.349 108.06 200.295 108.053 200.226 108.033C200.172 108.019 200.096 108.005 200.008 108.005C199.932 107.991 199.857 107.978 199.789 107.978C199.734 107.964 199.686 107.944 199.652 107.923C199.598 107.923 199.529 107.889 199.461 107.813C199.406 107.745 199.379 107.676 199.379 107.622C199.379 107.608 199.379 107.587 199.379 107.567C199.393 107.533 199.406 107.505 199.406 107.485C199.42 107.45 199.44 107.423 199.461 107.402C199.475 107.368 199.502 107.348 199.543 107.348H205.912C205.98 107.348 206.028 107.389 206.049 107.457C206.062 107.512 206.076 107.567 206.076 107.622C206.076 107.676 206.062 107.745 206.049 107.813C206.049 107.889 206.008 107.923 205.939 107.923C205.775 107.944 205.618 107.964 205.475 107.978C205.324 107.978 205.201 108.005 205.092 108.06C204.982 108.101 204.887 108.163 204.818 108.252C204.764 108.348 204.736 108.485 204.736 108.663C204.736 108.813 204.771 108.95 204.846 109.074L207.716 113.676C207.784 113.786 207.832 113.861 207.853 113.896C207.866 113.916 207.907 113.923 207.962 113.923C207.996 113.923 208.03 113.896 208.071 113.841C208.105 113.786 208.153 113.724 208.208 113.649L210.477 109.786C210.545 109.642 210.627 109.485 210.723 109.32C210.812 109.142 210.859 108.957 210.859 108.772C210.859 108.594 210.832 108.457 210.777 108.361C210.736 108.252 210.675 108.17 210.586 108.115C210.49 108.06 210.374 108.026 210.231 108.005C210.101 107.971 209.957 107.944 209.793 107.923C209.718 107.923 209.67 107.889 209.657 107.813C209.636 107.745 209.629 107.676 209.629 107.622C209.629 107.587 209.636 107.533 209.657 107.457C209.67 107.389 209.718 107.348 209.793 107.348H214.522C214.577 107.348 214.611 107.389 214.632 107.457C214.645 107.533 214.659 107.587 214.659 107.622C214.659 107.676 214.638 107.731 214.604 107.786C214.563 107.827 214.509 107.861 214.44 107.896C214.386 107.916 214.317 107.937 214.249 107.95C214.194 107.971 214.14 107.991 214.085 108.005C213.757 108.06 213.47 108.17 213.238 108.334C213.019 108.498 212.8 108.704 212.581 108.937C212.561 108.978 212.513 109.033 212.445 109.101C212.39 109.156 212.363 109.197 212.363 109.211L208.727 115.485V118.8C208.727 119.183 208.816 119.478 209.001 119.676C209.199 119.882 209.547 120.005 210.039 120.06C210.108 120.06 210.203 120.06 210.313 120.06C210.422 120.06 210.511 120.06 210.586 120.06C210.62 120.06 210.641 120.074 210.641 120.087C210.654 120.108 210.668 120.128 210.668 120.142V120.553C210.668 120.574 210.654 120.594 210.641 120.608C210.641 120.628 210.62 120.635 210.586 120.635H204.19C204.149 120.635 204.121 120.628 204.108 120.608C204.108 120.594 204.108 120.574 204.108 120.553V120.142C204.108 120.128 204.108 120.108 204.108 120.087C204.121 120.074 204.149 120.06 204.19 120.06C204.244 120.06 204.326 120.06 204.436 120.06C204.559 120.06 204.654 120.06 204.709 120.06C205.201 120.005 205.543 119.882 205.748 119.676C205.946 119.478 206.049 119.183 206.049 118.8V115.978Z" fill="#212121"/>
<path d="M233.385 120.197C233.385 120.142 233.398 120.115 233.439 120.115C233.562 120.115 233.713 120.108 233.877 120.087C234.041 120.053 234.205 119.991 234.369 119.896C234.533 119.807 234.683 119.67 234.833 119.485C234.998 119.307 235.134 119.06 235.244 118.745L239.016 107.759C239.016 107.745 239.016 107.724 239.016 107.704C239.016 107.67 238.995 107.622 238.961 107.567C238.941 107.498 238.934 107.444 238.934 107.402C238.934 107.368 238.941 107.348 238.961 107.348H241.694C241.694 107.368 241.701 107.375 241.722 107.375C241.756 107.375 241.776 107.396 241.776 107.43L245.767 118.608C245.822 118.793 245.877 118.95 245.931 119.074C245.986 119.183 246.047 119.293 246.123 119.402C246.211 119.498 246.314 119.587 246.423 119.676C246.546 119.752 246.704 119.827 246.888 119.896C246.977 119.95 247.093 120.005 247.243 120.06C247.407 120.101 247.551 120.115 247.681 120.115C247.715 120.115 247.735 120.128 247.735 120.142C247.749 120.163 247.763 120.183 247.763 120.197V120.553C247.763 120.574 247.749 120.594 247.735 120.608C247.735 120.628 247.715 120.635 247.681 120.635H241.093C241.052 120.635 241.025 120.628 241.011 120.608C241.011 120.594 241.011 120.574 241.011 120.553V120.197C241.011 120.183 241.011 120.163 241.011 120.142C241.025 120.128 241.052 120.115 241.093 120.115C241.107 120.115 241.127 120.115 241.148 120.115C241.182 120.115 241.209 120.115 241.23 120.115C241.298 120.101 241.401 120.087 241.53 120.087C241.653 120.087 241.79 120.081 241.94 120.06C242.084 120.046 242.227 120.019 242.378 119.978C242.542 119.944 242.685 119.896 242.815 119.841C242.938 119.772 243.041 119.676 243.116 119.567C243.205 119.457 243.253 119.334 243.253 119.183C243.253 119.149 243.239 119.101 243.225 119.046L241.995 115.649C241.995 115.635 241.981 115.608 241.968 115.567C241.947 115.512 241.92 115.471 241.886 115.43C241.845 115.375 241.804 115.334 241.749 115.293C241.694 115.259 241.626 115.238 241.558 115.238H238.168C238.093 115.238 238.018 115.259 237.95 115.293C237.895 115.334 237.847 115.375 237.813 115.43C237.772 115.471 237.745 115.512 237.731 115.567C237.71 115.608 237.704 115.622 237.704 115.622C237.499 116.211 237.328 116.711 237.184 117.128C237.054 117.533 236.945 117.868 236.856 118.142C236.761 118.402 236.692 118.601 236.638 118.745C236.583 118.875 236.542 118.978 236.528 119.046C236.508 119.122 236.501 119.17 236.501 119.183C236.501 119.204 236.501 119.231 236.501 119.265C236.501 119.286 236.508 119.307 236.528 119.32C236.562 119.471 236.644 119.594 236.774 119.704C236.918 119.813 237.075 119.896 237.239 119.95C237.417 120.005 237.601 120.053 237.786 120.087C237.984 120.108 238.155 120.115 238.305 120.115H238.524C238.558 120.115 238.578 120.128 238.578 120.142C238.592 120.163 238.606 120.183 238.606 120.197V120.553C238.606 120.574 238.592 120.594 238.578 120.608C238.578 120.628 238.558 120.635 238.524 120.635H233.439C233.398 120.635 233.385 120.608 233.385 120.553V120.197ZM238.305 113.896C238.284 113.916 238.264 113.944 238.25 113.978C238.25 114.019 238.25 114.046 238.25 114.06C238.25 114.101 238.257 114.135 238.278 114.17C238.312 114.19 238.36 114.197 238.414 114.197H241.23C241.298 114.197 241.346 114.19 241.366 114.17C241.38 114.135 241.394 114.101 241.394 114.06C241.394 114.026 241.38 113.998 241.366 113.978C241.366 113.944 241.366 113.916 241.366 113.896L240.109 110.444C240.068 110.355 240.013 110.293 239.945 110.252C239.89 110.218 239.843 110.197 239.808 110.197C239.754 110.197 239.685 110.224 239.617 110.279C239.562 110.32 239.515 110.375 239.48 110.444L238.305 113.896Z" fill="#212121"/>
<path d="M254.615 120.197C254.615 120.184 254.615 120.163 254.615 120.142C254.629 120.129 254.656 120.115 254.697 120.115C254.82 120.115 254.977 120.115 255.162 120.115C255.34 120.101 255.531 120.074 255.736 120.033C255.934 119.999 256.132 119.951 256.337 119.896C256.556 119.827 256.747 119.745 256.911 119.649C257.075 119.56 257.198 119.451 257.294 119.321C257.403 119.177 257.458 119.012 257.458 118.827V109.184C257.458 108.855 257.41 108.608 257.321 108.444C257.226 108.266 257.103 108.129 256.939 108.033C256.775 107.944 256.583 107.889 256.365 107.869C256.16 107.855 255.934 107.841 255.681 107.841H255.162C255.121 107.841 255.094 107.834 255.08 107.814C255.08 107.8 255.08 107.779 255.08 107.759V107.375C255.08 107.375 255.08 107.369 255.08 107.348C255.094 107.334 255.121 107.321 255.162 107.321C255.162 107.321 255.189 107.321 255.244 107.321C255.312 107.307 255.422 107.293 255.572 107.293C255.715 107.293 255.914 107.293 256.173 107.293C256.426 107.293 256.761 107.293 257.185 107.293C257.274 107.293 257.417 107.293 257.622 107.293C257.841 107.279 258.087 107.266 258.36 107.266C258.647 107.266 258.948 107.259 259.262 107.238C259.57 107.225 259.863 107.211 260.137 107.211C260.424 107.211 260.683 107.211 260.902 107.211C261.121 107.197 261.271 107.184 261.367 107.184C261.695 107.184 262.05 107.204 262.433 107.238C262.829 107.259 263.226 107.307 263.608 107.375C264.005 107.451 264.401 107.56 264.784 107.704C265.166 107.834 265.501 108.019 265.795 108.252C266.082 108.492 266.314 108.786 266.478 109.129C266.656 109.478 266.752 109.889 266.752 110.362C266.752 110.656 266.704 110.923 266.615 111.156C266.519 111.396 266.403 111.615 266.26 111.814C266.109 111.999 265.959 112.156 265.795 112.279C265.645 112.41 265.501 112.519 265.358 112.608C265.207 112.704 265.084 112.773 264.975 112.827C264.879 112.869 264.825 112.882 264.811 112.882C265.173 113.088 265.508 113.314 265.822 113.567C266.15 113.807 266.431 114.074 266.67 114.362C266.923 114.656 267.114 114.985 267.244 115.348C267.387 115.697 267.462 116.088 267.462 116.526C267.462 117.04 267.387 117.499 267.244 117.896C267.114 118.279 266.929 118.622 266.697 118.91C266.478 119.184 266.219 119.423 265.932 119.622C265.658 119.827 265.365 119.992 265.057 120.115C264.743 120.245 264.435 120.348 264.128 120.416C263.813 120.492 263.533 120.547 263.28 120.581C263.041 120.601 262.829 120.622 262.652 120.636C262.488 120.636 262.378 120.636 262.324 120.636H254.697C254.656 120.636 254.629 120.629 254.615 120.608C254.615 120.595 254.615 120.574 254.615 120.553V120.197ZM260.191 118.142C260.191 118.382 260.246 118.601 260.355 118.8C260.478 119.006 260.642 119.177 260.848 119.321C261.046 119.451 261.264 119.56 261.504 119.649C261.736 119.725 261.975 119.759 262.214 119.759C262.611 119.759 262.966 119.69 263.28 119.54C263.588 119.375 263.841 119.17 264.046 118.91C264.244 118.636 264.387 118.321 264.483 117.951C264.592 117.567 264.647 117.149 264.647 116.69C264.647 116.163 264.565 115.697 264.401 115.293C264.237 114.896 264.005 114.567 263.718 114.307C263.424 114.033 263.068 113.834 262.652 113.704C262.248 113.56 261.811 113.485 261.34 113.485H260.301C260.246 113.485 260.205 113.499 260.191 113.512C260.191 113.533 260.191 113.56 260.191 113.595V118.142ZM261.832 112.608C262.139 112.608 262.419 112.553 262.679 112.444C262.932 112.334 263.15 112.19 263.335 112.006C263.533 111.807 263.69 111.581 263.8 111.321C263.909 111.047 263.964 110.745 263.964 110.416C263.964 109.944 263.909 109.553 263.8 109.238C263.69 108.93 263.513 108.684 263.28 108.499C263.062 108.321 262.775 108.19 262.433 108.115C262.105 108.047 261.722 108.006 261.285 108.006C261.189 108.006 261.08 108.019 260.957 108.033C260.827 108.053 260.697 108.081 260.574 108.115C260.465 108.156 260.362 108.197 260.273 108.252C260.198 108.307 260.164 108.389 260.164 108.499V112.444C260.164 112.464 260.171 112.499 260.191 112.553C260.205 112.595 260.273 112.608 260.383 112.608H261.832Z" fill="#212121"/>
<path d="M275.594 120.142C275.594 120.142 275.594 120.136 275.594 120.115C275.607 120.081 275.635 120.06 275.676 120.06C275.71 120.06 275.765 120.06 275.84 120.06C275.929 120.047 276.017 120.033 276.113 120.033C276.202 120.019 276.284 119.999 276.359 119.978C276.427 119.964 276.475 119.951 276.496 119.951C276.858 119.862 277.111 119.725 277.261 119.54C277.405 119.362 277.48 119.129 277.48 118.855V109.266C277.48 108.958 277.405 108.711 277.261 108.526C277.131 108.348 276.974 108.211 276.796 108.115C276.632 108.026 276.468 107.971 276.304 107.951C276.154 107.937 276.058 107.923 276.004 107.923H275.648C275.607 107.923 275.58 107.916 275.566 107.896C275.566 107.882 275.566 107.862 275.566 107.841V107.43C275.566 107.416 275.566 107.403 275.566 107.403C275.566 107.389 275.594 107.368 275.648 107.348C275.648 107.348 275.655 107.348 275.676 107.348C275.689 107.348 275.737 107.348 275.812 107.348C275.881 107.348 275.983 107.348 276.113 107.348C276.236 107.348 276.421 107.341 276.66 107.321C277.001 107.321 277.37 107.321 277.753 107.321C278.15 107.307 278.553 107.286 278.956 107.266C279.352 107.252 279.749 107.238 280.131 107.238C280.528 107.225 280.903 107.211 281.252 107.211H282.209C282.701 107.211 283.2 107.307 283.712 107.485C284.218 107.649 284.682 107.896 285.106 108.225C285.523 108.553 285.858 108.964 286.118 109.458C286.391 109.937 286.528 110.492 286.528 111.129C286.528 111.553 286.473 111.923 286.364 112.252C286.254 112.581 286.097 112.875 285.899 113.129C285.694 113.368 285.462 113.581 285.188 113.759C284.915 113.944 284.621 114.108 284.313 114.252L287.156 118.773C287.389 119.177 287.676 119.533 288.004 119.841C288.332 120.156 288.714 120.375 289.152 120.499C289.206 120.519 289.234 120.54 289.234 120.553C289.247 120.574 289.261 120.601 289.261 120.636C289.261 120.725 289.234 120.786 289.179 120.827C289.124 120.862 289.042 120.882 288.933 120.882C288.673 120.882 288.373 120.862 288.031 120.827C287.703 120.786 287.361 120.725 287.02 120.636C286.692 120.567 286.37 120.464 286.063 120.334C285.769 120.211 285.516 120.053 285.297 119.868C285.092 119.704 284.894 119.485 284.696 119.211C284.491 118.937 284.286 118.649 284.067 118.334C283.862 118.026 283.657 117.704 283.439 117.375C283.234 117.033 283.036 116.704 282.837 116.389C282.653 116.06 282.468 115.759 282.291 115.485C282.127 115.211 281.97 114.978 281.826 114.773L280.35 114.663C280.35 114.663 280.323 114.663 280.268 114.663C280.227 114.663 280.2 114.677 280.186 114.69C280.165 114.711 280.159 114.731 280.159 114.745C280.159 114.745 280.159 114.766 280.159 114.8V118.827C280.159 118.992 280.172 119.142 280.213 119.266C280.247 119.396 280.323 119.505 280.432 119.594C280.541 119.69 280.678 119.759 280.842 119.814C281.006 119.868 281.204 119.916 281.443 119.951C281.477 119.951 281.532 119.964 281.607 119.978C281.676 119.978 281.751 119.992 281.826 120.005C281.915 120.026 281.997 120.047 282.072 120.06C282.161 120.06 282.236 120.06 282.291 120.06C282.325 120.06 282.345 120.074 282.345 120.088C282.359 120.108 282.373 120.129 282.373 120.142V120.553C282.373 120.574 282.359 120.594 282.345 120.608C282.345 120.629 282.325 120.636 282.291 120.636H275.676C275.635 120.636 275.607 120.594 275.594 120.499C275.594 120.41 275.594 120.327 275.594 120.252V120.142ZM280.159 113.731C280.172 113.786 280.193 113.834 280.213 113.868C280.227 113.91 280.275 113.937 280.35 113.951C280.405 113.951 280.487 113.964 280.596 113.978C280.705 113.999 280.856 114.005 281.061 114.005C281.607 114.005 282.058 113.923 282.427 113.759C282.79 113.581 283.07 113.348 283.275 113.074C283.473 112.786 283.61 112.458 283.685 112.088C283.774 111.704 283.821 111.314 283.821 110.91C283.821 110.492 283.746 110.101 283.603 109.731C283.473 109.348 283.288 109.019 283.056 108.745C282.837 108.471 282.564 108.252 282.236 108.088C281.908 107.923 281.539 107.841 281.143 107.841C281.047 107.841 280.979 107.841 280.924 107.841C280.883 107.841 280.842 107.855 280.787 107.868C280.733 107.868 280.678 107.868 280.623 107.868C280.569 107.868 280.487 107.868 280.377 107.868C280.336 107.868 280.295 107.882 280.241 107.896C280.186 107.916 280.159 107.964 280.159 108.033V113.731Z" fill="#212121"/>
<path d="M304.562 120.883C304.343 120.883 304.07 120.862 303.742 120.828C303.414 120.787 303.045 120.725 302.649 120.636C302.266 120.526 301.856 120.39 301.418 120.225C300.995 120.061 300.578 119.855 300.161 119.595C299.758 119.342 299.375 119.04 299.013 118.691C298.644 118.348 298.316 117.944 298.029 117.485C297.756 117.013 297.537 116.485 297.373 115.896C297.209 115.314 297.127 114.657 297.127 113.924C297.127 113.266 297.209 112.636 297.373 112.033C297.551 111.431 297.81 110.876 298.138 110.362C298.48 109.855 298.89 109.39 299.368 108.965C299.84 108.547 300.366 108.191 300.954 107.896C301.535 107.609 302.163 107.376 302.84 107.211C303.53 107.047 304.248 106.965 304.999 106.965C305.655 106.965 306.284 107.047 306.885 107.211C307.5 107.362 308.074 107.581 308.607 107.869C309.134 108.163 309.619 108.52 310.056 108.937C310.507 109.342 310.89 109.8 311.204 110.307C311.532 110.8 311.778 111.342 311.942 111.924C312.12 112.513 312.216 113.116 312.216 113.732C312.216 114.321 312.12 114.903 311.942 115.485C311.778 116.074 311.532 116.629 311.204 117.157C310.89 117.691 310.507 118.184 310.056 118.636C309.598 119.095 309.086 119.485 308.525 119.814C307.979 120.143 307.364 120.41 306.694 120.609C306.018 120.787 305.307 120.883 304.562 120.883ZM299.888 113.568C299.888 114.081 299.929 114.595 300.024 115.102C300.134 115.595 300.284 116.081 300.489 116.554C300.687 117.033 300.933 117.479 301.227 117.896C301.535 118.3 301.869 118.657 302.239 118.965C302.621 119.259 303.038 119.499 303.496 119.677C303.947 119.842 304.453 119.924 304.999 119.924C305.744 119.924 306.4 119.773 306.967 119.458C307.528 119.129 307.992 118.705 308.361 118.17C308.724 117.622 308.99 117.006 309.154 116.307C309.332 115.616 309.427 114.903 309.427 114.17C309.427 113.622 309.373 113.095 309.263 112.581C309.168 112.074 309.024 111.581 308.826 111.102C308.621 110.629 308.375 110.198 308.088 109.814C307.815 109.417 307.487 109.074 307.104 108.8C306.721 108.513 306.291 108.28 305.819 108.116C305.361 107.951 304.869 107.869 304.343 107.869C303.851 107.869 303.4 107.951 303.004 108.116C302.601 108.266 302.239 108.465 301.91 108.718C301.582 108.979 301.289 109.287 301.036 109.65C300.776 110.02 300.571 110.41 300.407 110.828C300.243 111.253 300.113 111.698 300.024 112.17C299.929 112.629 299.888 113.095 299.888 113.568Z" fill="#212121"/>
<path d="M320.023 120.197C320.023 120.142 320.037 120.115 320.078 120.115C320.201 120.115 320.351 120.108 320.515 120.087C320.679 120.053 320.843 119.991 321.007 119.896C321.171 119.807 321.322 119.67 321.472 119.485C321.636 119.307 321.773 119.06 321.882 118.745L325.654 107.759C325.654 107.745 325.654 107.724 325.654 107.704C325.654 107.67 325.634 107.622 325.6 107.567C325.579 107.498 325.572 107.444 325.572 107.402C325.572 107.368 325.579 107.348 325.6 107.348H328.333C328.333 107.368 328.34 107.375 328.36 107.375C328.395 107.375 328.415 107.396 328.415 107.43L332.406 118.608C332.461 118.793 332.515 118.95 332.57 119.074C332.625 119.183 332.686 119.293 332.761 119.402C332.85 119.498 332.953 119.587 333.062 119.676C333.185 119.752 333.342 119.827 333.527 119.896C333.616 119.95 333.732 120.005 333.882 120.06C334.046 120.101 334.19 120.115 334.319 120.115C334.354 120.115 334.374 120.128 334.374 120.142C334.388 120.163 334.401 120.183 334.401 120.197V120.553C334.401 120.574 334.388 120.594 334.374 120.608C334.374 120.628 334.354 120.635 334.319 120.635H327.732C327.691 120.635 327.663 120.628 327.65 120.608C327.65 120.594 327.65 120.574 327.65 120.553V120.197C327.65 120.183 327.65 120.163 327.65 120.142C327.663 120.128 327.691 120.115 327.732 120.115C327.745 120.115 327.766 120.115 327.786 120.115C327.821 120.115 327.848 120.115 327.868 120.115C327.937 120.101 328.039 120.087 328.169 120.087C328.292 120.087 328.429 120.081 328.579 120.06C328.723 120.046 328.866 120.019 329.016 119.978C329.181 119.944 329.324 119.896 329.454 119.841C329.577 119.772 329.679 119.676 329.755 119.567C329.843 119.457 329.891 119.334 329.891 119.183C329.891 119.149 329.878 119.101 329.864 119.046L328.634 115.649C328.634 115.635 328.62 115.608 328.606 115.567C328.586 115.512 328.559 115.471 328.524 115.43C328.483 115.375 328.442 115.334 328.388 115.293C328.333 115.259 328.265 115.238 328.196 115.238H324.807C324.732 115.238 324.657 115.259 324.588 115.293C324.534 115.334 324.486 115.375 324.452 115.43C324.411 115.471 324.383 115.512 324.37 115.567C324.349 115.608 324.342 115.622 324.342 115.622C324.137 116.211 323.966 116.711 323.823 117.128C323.693 117.533 323.584 117.868 323.495 118.142C323.399 118.402 323.331 118.601 323.276 118.745C323.222 118.875 323.181 118.978 323.167 119.046C323.146 119.122 323.14 119.17 323.14 119.183C323.14 119.204 323.14 119.231 323.14 119.265C323.14 119.286 323.146 119.307 323.167 119.32C323.201 119.471 323.283 119.594 323.413 119.704C323.556 119.813 323.714 119.896 323.878 119.95C324.055 120.005 324.24 120.053 324.424 120.087C324.622 120.108 324.793 120.115 324.944 120.115H325.162C325.196 120.115 325.217 120.128 325.217 120.142C325.231 120.163 325.244 120.183 325.244 120.197V120.553C325.244 120.574 325.231 120.594 325.217 120.608C325.217 120.628 325.196 120.635 325.162 120.635H320.078C320.037 120.635 320.023 120.608 320.023 120.553V120.197ZM324.944 113.896C324.923 113.916 324.903 113.944 324.889 113.978C324.889 114.019 324.889 114.046 324.889 114.06C324.889 114.101 324.896 114.135 324.916 114.17C324.95 114.19 324.998 114.197 325.053 114.197H327.868C327.937 114.197 327.985 114.19 328.005 114.17C328.019 114.135 328.032 114.101 328.032 114.06C328.032 114.026 328.019 113.998 328.005 113.978C328.005 113.944 328.005 113.916 328.005 113.896L326.748 110.444C326.707 110.355 326.652 110.293 326.584 110.252C326.529 110.218 326.481 110.197 326.447 110.197C326.392 110.197 326.324 110.224 326.256 110.279C326.201 110.32 326.153 110.375 326.119 110.444L324.944 113.896Z" fill="#212121"/>
<path d="M341.666 120.636C341.625 120.636 341.598 120.629 341.584 120.608C341.584 120.594 341.584 120.574 341.584 120.553V120.142C341.584 120.142 341.584 120.136 341.584 120.115C341.598 120.101 341.625 120.088 341.666 120.088H341.885C342.008 120.088 342.165 120.081 342.349 120.06C342.548 120.047 342.739 119.999 342.923 119.923C343.101 119.855 343.258 119.745 343.388 119.594C343.511 119.451 343.579 119.252 343.579 118.992V108.937C343.579 108.759 343.532 108.601 343.443 108.471C343.368 108.327 343.265 108.218 343.142 108.142C343.012 108.053 342.869 107.992 342.705 107.951C342.554 107.916 342.411 107.896 342.267 107.896H341.666C341.625 107.896 341.598 107.889 341.584 107.868C341.584 107.834 341.584 107.814 341.584 107.814V107.403C341.584 107.403 341.584 107.396 341.584 107.375C341.598 107.341 341.625 107.32 341.666 107.32H341.885L345.739 107.266C346.101 107.266 346.491 107.266 346.914 107.266C347.331 107.252 347.721 107.238 348.09 107.238C348.486 107.238 348.841 107.252 349.156 107.266C349.463 107.266 349.764 107.286 350.058 107.32C350.345 107.341 350.639 107.375 350.932 107.43C351.219 107.471 351.547 107.526 351.916 107.594C352.607 107.745 353.256 108.019 353.857 108.416C354.459 108.8 354.978 109.266 355.415 109.814C355.853 110.362 356.187 110.978 356.427 111.649C356.679 112.327 356.809 113.012 356.809 113.704C356.809 114.382 356.707 115.033 356.509 115.649C356.324 116.252 356.071 116.814 355.743 117.32C355.415 117.834 355.012 118.3 354.541 118.718C354.083 119.122 353.584 119.471 353.037 119.759C352.49 120.033 351.903 120.252 351.288 120.416C350.666 120.567 350.03 120.636 349.374 120.636H341.666ZM346.258 119.183C346.258 119.368 346.313 119.512 346.422 119.622C346.545 119.718 346.702 119.786 346.887 119.841C347.085 119.882 347.311 119.91 347.57 119.923C347.823 119.923 348.096 119.923 348.39 119.923C350.249 119.923 351.643 119.416 352.572 118.389C353.502 117.348 353.967 115.841 353.967 113.868C353.967 112.992 353.857 112.197 353.639 111.485C353.433 110.759 353.119 110.136 352.682 109.622C352.258 109.094 351.725 108.69 351.069 108.416C350.427 108.129 349.661 107.978 348.773 107.978H346.504C346.409 107.978 346.347 107.999 346.313 108.033C346.272 108.074 346.258 108.136 346.258 108.225V119.183Z" fill="#212121"/>
<path d="M125.975 137.51C127.082 137.51 128.087 137.804 128.982 138.386L128.381 139.674C127.506 139.147 126.666 138.88 125.866 138.88C125.429 138.88 125.08 138.962 124.827 139.126C124.588 139.277 124.472 139.496 124.472 139.784C124.472 140.058 124.581 140.297 124.8 140.496C125.032 140.702 125.326 140.852 125.675 140.962C126.016 141.058 126.392 141.174 126.795 141.318C127.192 141.448 127.561 141.592 127.889 141.756C128.23 141.921 128.517 142.181 128.736 142.523C128.968 142.852 129.091 143.256 129.091 143.729C129.091 144.496 128.791 145.113 128.189 145.565C127.588 146.003 126.809 146.222 125.866 146.222C125.21 146.222 124.568 146.106 123.953 145.866C123.351 145.613 122.818 145.277 122.367 144.852L122.969 143.592C123.406 143.996 123.877 144.304 124.39 144.523C124.916 144.743 125.415 144.852 125.893 144.852C126.385 144.852 126.768 144.763 127.041 144.578C127.328 144.4 127.479 144.14 127.479 143.811C127.479 143.523 127.356 143.277 127.123 143.071C126.905 142.873 126.618 142.729 126.276 142.633C125.948 142.544 125.579 142.434 125.183 142.304C124.779 142.16 124.404 142.017 124.062 141.866C123.713 141.702 123.42 141.455 123.187 141.126C122.969 140.797 122.859 140.4 122.859 139.921C122.859 139.195 123.139 138.606 123.707 138.167C124.287 137.729 125.046 137.51 125.975 137.51Z" fill="#212121"/>
<path d="M140.914 138.881H138.208V146.169H136.759V138.881H134.053V137.566H140.914V138.881Z" fill="#212121"/>
<path d="M153.738 137.566V142.608C153.738 143.724 153.396 144.608 152.726 145.265C152.07 145.909 151.155 146.224 149.993 146.224C148.845 146.224 147.929 145.909 147.259 145.265C146.603 144.608 146.275 143.724 146.275 142.608V137.566H147.724V142.608C147.724 143.34 147.922 143.916 148.325 144.334C148.742 144.738 149.31 144.936 150.02 144.936C150.731 144.936 151.284 144.738 151.688 144.334C152.084 143.916 152.289 143.34 152.289 142.608V137.566H153.738Z" fill="#212121"/>
<path d="M160.082 137.566H163.608C164.879 137.566 165.938 137.977 166.779 138.799C167.613 139.608 168.036 140.628 168.036 141.868C168.036 143.114 167.613 144.142 166.779 144.964C165.938 145.772 164.866 146.169 163.554 146.169H160.082V137.566ZM161.531 138.881V144.881H163.636C164.469 144.881 165.173 144.601 165.74 144.032C166.301 143.471 166.588 142.758 166.588 141.895C166.588 141.018 166.294 140.299 165.713 139.731C165.125 139.169 164.415 138.881 163.581 138.881H161.531Z" fill="#212121"/>
<path d="M179.982 138.881H175.308V141.21H179.49V142.498H175.308V144.881H180.146V146.169H173.859V137.566H179.982V138.881Z" fill="#212121"/>
<path d="M193.613 146.169H192.191L187.626 140.005V146.169H186.178V137.566H187.599L192.191 143.758V137.566H193.613V146.169Z" fill="#212121"/>
<path d="M206.013 138.881H203.307V146.169H201.858V138.881H199.152V137.566H206.013V138.881Z" fill="#212121"/>
<path d="M221.8 137.51C222.907 137.51 223.911 137.804 224.806 138.386L224.205 139.674C223.33 139.147 222.49 138.88 221.69 138.88C221.253 138.88 220.904 138.962 220.652 139.126C220.412 139.277 220.296 139.496 220.296 139.784C220.296 140.058 220.406 140.297 220.624 140.496C220.857 140.702 221.15 140.852 221.499 140.962C221.841 141.058 222.216 141.174 222.62 141.318C223.016 141.448 223.385 141.592 223.713 141.756C224.055 141.921 224.342 142.181 224.56 142.523C224.793 142.852 224.916 143.256 224.916 143.729C224.916 144.496 224.615 145.113 224.014 145.565C223.412 146.003 222.633 146.222 221.69 146.222C221.034 146.222 220.392 146.106 219.777 145.866C219.175 145.613 218.642 145.277 218.191 144.852L218.793 143.592C219.23 143.996 219.702 144.304 220.214 144.523C220.74 144.743 221.239 144.852 221.718 144.852C222.21 144.852 222.592 144.763 222.866 144.578C223.153 144.4 223.303 144.14 223.303 143.811C223.303 143.523 223.18 143.277 222.948 143.071C222.729 142.873 222.442 142.729 222.1 142.633C221.772 142.544 221.403 142.434 221.007 142.304C220.604 142.16 220.228 142.017 219.886 141.866C219.538 141.702 219.244 141.455 219.011 141.126C218.793 140.797 218.683 140.4 218.683 139.921C218.683 139.195 218.964 138.606 219.531 138.167C220.112 137.729 220.87 137.51 221.8 137.51Z" fill="#212121"/>
<path d="M237.01 138.881H232.335V141.21H236.518V142.498H232.335V144.881H237.174V146.169H230.887V137.566H237.01V138.881Z" fill="#212121"/>
<path d="M248.647 146.169L247.089 143.566C246.993 143.566 246.856 143.566 246.679 143.566H244.656V146.169H243.207V137.566H246.679C247.772 137.566 248.619 137.827 249.221 138.334C249.836 138.847 250.15 139.566 250.15 140.498C250.15 141.197 249.993 141.779 249.685 142.251C249.371 142.731 248.934 143.073 248.373 143.292L250.287 146.169H248.647ZM244.656 142.279H246.679C248.079 142.279 248.783 141.703 248.783 140.553C248.783 139.443 248.079 138.881 246.679 138.881H244.656V142.279Z" fill="#212121"/>
<path d="M260.174 146.169H258.671L255.254 137.566H256.812L259.463 144.553L262.142 137.566H263.646L260.174 146.169Z" fill="#212121"/>
<path d="M270.531 146.169H269.082V137.566H270.531V146.169Z" fill="#212121"/>
<path d="M280.868 137.539C281.469 137.539 282.05 137.662 282.617 137.895C283.198 138.135 283.697 138.457 284.12 138.854L283.273 139.923C282.959 139.594 282.597 139.334 282.18 139.128C281.756 138.929 281.332 138.827 280.895 138.827C280.034 138.827 279.31 139.121 278.708 139.703C278.12 140.292 277.833 141.005 277.833 141.84C277.833 142.703 278.12 143.423 278.708 144.005C279.31 144.594 280.034 144.882 280.895 144.882C281.783 144.882 282.576 144.546 283.273 143.868L284.148 144.827C283.71 145.251 283.191 145.587 282.59 145.84C282.002 146.101 281.414 146.224 280.813 146.224C279.556 146.224 278.496 145.806 277.642 144.964C276.781 144.128 276.357 143.094 276.357 141.868C276.357 140.649 276.795 139.621 277.669 138.799C278.544 137.964 279.61 137.539 280.868 137.539Z" fill="#212121"/>
<path d="M296.012 138.881H291.337V141.21H295.52V142.498H291.337V144.881H296.176V146.169H289.889V137.566H296.012V138.881Z" fill="#212121"/>
<path d="M305.024 137.51C306.131 137.51 307.136 137.804 308.031 138.386L307.43 139.674C306.555 139.147 305.714 138.88 304.915 138.88C304.477 138.88 304.129 138.962 303.876 139.126C303.637 139.277 303.521 139.496 303.521 139.784C303.521 140.058 303.63 140.297 303.849 140.496C304.081 140.702 304.375 140.852 304.723 140.962C305.065 141.058 305.441 141.174 305.844 141.318C306.241 141.448 306.61 141.592 306.938 141.756C307.279 141.921 307.566 142.181 307.785 142.523C308.017 142.852 308.14 143.256 308.14 143.729C308.14 144.496 307.84 145.113 307.238 145.565C306.637 146.003 305.858 146.222 304.915 146.222C304.259 146.222 303.616 146.106 303.001 145.866C302.4 145.613 301.867 145.277 301.416 144.852L302.017 143.592C302.455 143.996 302.926 144.304 303.439 144.523C303.965 144.743 304.464 144.852 304.942 144.852C305.434 144.852 305.817 144.763 306.09 144.578C306.377 144.4 306.528 144.14 306.528 143.811C306.528 143.523 306.405 143.277 306.172 143.071C305.954 142.873 305.667 142.729 305.325 142.633C304.997 142.544 304.628 142.434 304.231 142.304C303.828 142.16 303.452 142.017 303.111 141.866C302.762 141.702 302.468 141.455 302.236 141.126C302.017 140.797 301.908 140.4 301.908 139.921C301.908 139.195 302.188 138.606 302.755 138.167C303.336 137.729 304.095 137.51 305.024 137.51Z" fill="#212121"/>
</g>
<defs>
<clipPath id="clip0_297_7499">
<rect width="370" height="192" fill="white" transform="translate(0.777344)"/>
</clipPath>
</defs>
</svg>
