<svg width="883" height="66" viewBox="0 0 883 66" fill="none" xmlns="http://www.w3.org/2000/svg">
<circle cx="60" cy="16.5" r="13" fill="#240F6E"/>
<path fill-rule="evenodd" clip-rule="evenodd" d="M60 28.5C66.6273 28.5 72 23.1273 72 16.5C72 9.87266 66.6273 4.5 60 4.5C53.3727 4.5 48 9.87266 48 16.5C48 23.1273 53.3727 28.5 60 28.5ZM60 29.8333C67.364 29.8333 73.3333 23.864 73.3333 16.5C73.3333 9.136 67.364 3.16666 60 3.16666C52.636 3.16666 46.6667 9.136 46.6667 16.5C46.6667 23.864 52.636 29.8333 60 29.8333Z" fill="#240F6E"/>
<path fill-rule="evenodd" clip-rule="evenodd" d="M67.1133 11.3393C67.2445 11.4578 67.3232 11.6235 67.3322 11.8001C67.3412 11.9766 67.2797 12.1495 67.1613 12.2807L58.2573 22.1213L52.8733 16.982C52.7524 16.8584 52.6843 16.6928 52.6832 16.5199C52.6821 16.347 52.7482 16.1805 52.8676 16.0555C52.9869 15.9304 53.1501 15.8566 53.3229 15.8496C53.4956 15.8426 53.6643 15.903 53.7933 16.018L58.1867 20.2113L66.1727 11.3867C66.2314 11.3217 66.3024 11.269 66.3816 11.2315C66.4607 11.194 66.5465 11.1725 66.634 11.1681C66.7215 11.1638 66.809 11.1768 66.8914 11.2062C66.9739 11.2357 67.0498 11.2812 67.1147 11.34" fill="white"/>
<rect x="67" y="8.5" width="371" height="16" fill="#240F6E"/>
<rect x="446" y="8.5" width="371" height="16" fill="#240F6E"/>
<circle cx="445" cy="16.5" r="13" fill="#240F6E"/>
<path fill-rule="evenodd" clip-rule="evenodd" d="M445 28.5C451.627 28.5 457 23.1273 457 16.5C457 9.87266 451.627 4.5 445 4.5C438.373 4.5 433 9.87266 433 16.5C433 23.1273 438.373 28.5 445 28.5ZM445 29.8333C452.364 29.8333 458.333 23.864 458.333 16.5C458.333 9.136 452.364 3.16666 445 3.16666C437.636 3.16666 431.667 9.136 431.667 16.5C431.667 23.864 437.636 29.8333 445 29.8333Z" fill="#240F6E"/>
<path fill-rule="evenodd" clip-rule="evenodd" d="M452.113 11.3393C452.244 11.4578 452.323 11.6235 452.332 11.8001C452.341 11.9766 452.28 12.1495 452.161 12.2807L443.257 22.1213L437.873 16.982C437.752 16.8584 437.684 16.6928 437.683 16.5199C437.682 16.347 437.748 16.1805 437.868 16.0555C437.987 15.9304 438.15 15.8566 438.323 15.8496C438.496 15.8426 438.664 15.903 438.793 16.018L443.187 20.2113L451.173 11.3867C451.231 11.3217 451.302 11.269 451.382 11.2315C451.461 11.194 451.547 11.1725 451.634 11.1681C451.721 11.1638 451.809 11.1768 451.891 11.2062C451.974 11.2357 452.05 11.2812 452.115 11.34" fill="white"/>
<circle cx="824" cy="16.5" r="13" fill="#240F6E"/>
<path fill-rule="evenodd" clip-rule="evenodd" d="M824 28.5C830.627 28.5 836 23.1273 836 16.5C836 9.87266 830.627 4.5 824 4.5C817.373 4.5 812 9.87266 812 16.5C812 23.1273 817.373 28.5 824 28.5ZM824 29.8333C831.364 29.8333 837.333 23.864 837.333 16.5C837.333 9.136 831.364 3.16666 824 3.16666C816.636 3.16666 810.667 9.136 810.667 16.5C810.667 23.864 816.636 29.8333 824 29.8333Z" fill="#240F6E"/>
<path fill-rule="evenodd" clip-rule="evenodd" d="M831.113 11.3393C831.244 11.4578 831.323 11.6235 831.332 11.8001C831.341 11.9766 831.28 12.1495 831.161 12.2807L822.257 22.1213L816.873 16.982C816.752 16.8584 816.684 16.6928 816.683 16.5199C816.682 16.347 816.748 16.1805 816.867 16.0555C816.987 15.9304 817.15 15.8566 817.323 15.8496C817.496 15.8426 817.664 15.903 817.793 16.018L822.187 20.2113L830.173 11.3867C830.231 11.3217 830.302 11.269 830.382 11.2315C830.461 11.194 830.546 11.1725 830.634 11.1681C830.721 11.1638 830.809 11.1768 830.891 11.2062C830.974 11.2357 831.05 11.2812 831.115 11.34" fill="white"/>
<path d="M7.05711 45.5H8.69711L13.7171 59.46L15.0171 59.64V60.5H10.1371V59.64L11.8971 59.46L10.8371 56.28H4.59711L3.53711 59.44L5.31711 59.64V60.5H0.817109V59.64L2.09711 59.46L7.05711 45.5ZM8.21711 48.58L7.65711 46.68L7.11711 48.64L4.93711 55.24H10.4771L8.21711 48.58ZM14.688 44.46L17.608 44.12H17.648L18.028 44.4V50.48C18.4414 50.0933 18.9347 49.7667 19.508 49.5C20.0947 49.2333 20.7414 49.1 21.448 49.1C22.2347 49.1 22.9547 49.2933 23.608 49.68C24.2747 50.0667 24.808 50.6667 25.208 51.48C25.6214 52.2933 25.828 53.3133 25.828 54.54C25.828 55.6867 25.5947 56.7333 25.128 57.68C24.6614 58.6133 23.9947 59.3533 23.128 59.9C22.2614 60.4467 21.2614 60.72 20.128 60.72C19.3014 60.72 18.5147 60.6333 17.768 60.46C17.0214 60.2867 16.568 60.12 16.408 59.96V45.38L14.688 45.2V44.46ZM20.788 50.32C20.228 50.32 19.7014 50.4533 19.208 50.72C18.7147 50.9867 18.3214 51.28 18.028 51.6V59C18.1214 59.2133 18.3814 59.3867 18.808 59.52C19.248 59.64 19.7347 59.7 20.268 59.7C21.4147 59.7 22.3347 59.28 23.028 58.44C23.7214 57.5867 24.068 56.34 24.068 54.7C24.068 53.2333 23.7547 52.14 23.128 51.42C22.5147 50.6867 21.7347 50.32 20.788 50.32ZM27.6402 54.88C27.6402 53.72 27.8802 52.7 28.3602 51.82C28.8536 50.94 29.4936 50.2667 30.2802 49.8C31.0802 49.3333 31.9136 49.1 32.7802 49.1C34.4602 49.1 35.7002 49.6467 36.5002 50.74C37.3136 51.8333 37.7202 53.2333 37.7202 54.94C37.7202 56.1 37.4736 57.12 36.9802 58C36.5002 58.88 35.8602 59.5533 35.0602 60.02C34.2736 60.4867 33.4469 60.72 32.5802 60.72C30.9002 60.72 29.6536 60.1733 28.8402 59.08C28.0402 57.9867 27.6402 56.5867 27.6402 54.88ZM32.6802 59.68C33.7069 59.68 34.5002 59.2867 35.0602 58.5C35.6202 57.7133 35.9002 56.5667 35.9002 55.06C35.9002 53.62 35.6402 52.44 35.1202 51.52C34.6002 50.6 33.7936 50.14 32.7002 50.14C31.6736 50.14 30.8736 50.5333 30.3002 51.32C29.7402 52.1067 29.4602 53.2533 29.4602 54.76C29.4602 56.2133 29.7202 57.4 30.2402 58.32C30.7736 59.2267 31.5869 59.68 32.6802 59.68ZM48.6948 60.68C48.3481 60.68 48.0948 60.62 47.9348 60.5C47.7748 60.38 47.6948 60.16 47.6948 59.84V59.06C47.2014 59.5 46.6214 59.8867 45.9548 60.22C45.2881 60.5533 44.6214 60.72 43.9548 60.72C42.7414 60.72 41.8748 60.38 41.3548 59.7C40.8481 59.02 40.5948 57.9133 40.5948 56.38V50.5L39.4148 50.16V49.42L41.8348 49.16H41.8548L42.2148 49.4V56.14C42.2148 56.98 42.2748 57.64 42.3948 58.12C42.5148 58.5867 42.7348 58.9333 43.0548 59.16C43.3748 59.3867 43.8414 59.5 44.4548 59.5C45.0414 59.5 45.6014 59.3733 46.1348 59.12C46.6681 58.8667 47.1281 58.5667 47.5148 58.22V50.5L45.9948 50.16V49.42L48.6548 49.16H48.6748L49.1348 49.4V59.62H50.3748L50.3548 60.38C50.2881 60.3933 50.0948 60.4467 49.7748 60.54C49.4548 60.6333 49.0948 60.68 48.6948 60.68ZM55.5534 60.72C54.8467 60.72 54.3134 60.56 53.9534 60.24C53.5934 59.9067 53.4134 59.32 53.4134 58.48V50.58H51.8934V49.8C52.56 49.6533 52.9467 49.5467 53.0534 49.48C53.2534 49.3733 53.4 49.1667 53.4934 48.86C53.5734 48.66 53.68 48.3 53.8134 47.78C53.9467 47.26 54.0467 46.8533 54.1134 46.56H55.0334V49.4H58.5734V50.58H55.0334V57.06C55.0334 57.8333 55.06 58.38 55.1134 58.7C55.1667 59.0067 55.2734 59.2067 55.4334 59.3C55.5934 59.3933 55.8734 59.44 56.2734 59.44C56.66 59.44 57.0934 59.3867 57.5734 59.28C58.0534 59.1733 58.4134 59.06 58.6534 58.94L58.9134 59.7C58.6067 59.94 58.1 60.1733 57.3934 60.4C56.6867 60.6133 56.0734 60.72 55.5534 60.72ZM66.4645 65.48C66.2778 65.48 66.0845 65.4667 65.8845 65.44C65.6978 65.4133 65.5645 65.38 65.4845 65.34V63.86C65.6445 63.94 65.9845 63.98 66.5045 63.98C66.9178 63.98 67.2911 63.8933 67.6245 63.72C67.9711 63.56 68.3245 63.2267 68.6845 62.72C69.0445 62.2133 69.3978 61.4733 69.7445 60.5H68.8645L65.0445 50.48L64.1045 50.22V49.4H68.5245V50.22L66.9045 50.46L69.0045 56.58L70.0445 59.84L71.0445 56.56L72.9245 50.46L71.5245 50.22V49.4H75.3645V50.22L74.3245 50.46C73.3245 53.5267 72.5311 55.9267 71.9445 57.66C71.3711 59.38 71.0045 60.4333 70.8445 60.82C70.3778 61.9933 69.9645 62.8933 69.6045 63.52C69.2445 64.16 68.8178 64.6467 68.3245 64.98C67.8311 65.3133 67.2111 65.48 66.4645 65.48ZM76.4098 54.88C76.4098 53.72 76.6498 52.7 77.1298 51.82C77.6231 50.94 78.2631 50.2667 79.0498 49.8C79.8498 49.3333 80.6831 49.1 81.5498 49.1C83.2298 49.1 84.4698 49.6467 85.2698 50.74C86.0831 51.8333 86.4898 53.2333 86.4898 54.94C86.4898 56.1 86.2431 57.12 85.7498 58C85.2698 58.88 84.6298 59.5533 83.8298 60.02C83.0431 60.4867 82.2164 60.72 81.3498 60.72C79.6698 60.72 78.4231 60.1733 77.6098 59.08C76.8098 57.9867 76.4098 56.5867 76.4098 54.88ZM81.4498 59.68C82.4764 59.68 83.2698 59.2867 83.8298 58.5C84.3898 57.7133 84.6698 56.5667 84.6698 55.06C84.6698 53.62 84.4098 52.44 83.8898 51.52C83.3698 50.6 82.5631 50.14 81.4698 50.14C80.4431 50.14 79.6431 50.5333 79.0698 51.32C78.5098 52.1067 78.2298 53.2533 78.2298 54.76C78.2298 56.2133 78.4898 57.4 79.0098 58.32C79.5431 59.2267 80.3564 59.68 81.4498 59.68ZM97.4643 60.68C97.1176 60.68 96.8643 60.62 96.7043 60.5C96.5443 60.38 96.4643 60.16 96.4643 59.84V59.06C95.971 59.5 95.391 59.8867 94.7243 60.22C94.0576 60.5533 93.391 60.72 92.7243 60.72C91.511 60.72 90.6443 60.38 90.1243 59.7C89.6176 59.02 89.3643 57.9133 89.3643 56.38V50.5L88.1843 50.16V49.42L90.6043 49.16H90.6243L90.9843 49.4V56.14C90.9843 56.98 91.0443 57.64 91.1643 58.12C91.2843 58.5867 91.5043 58.9333 91.8243 59.16C92.1443 59.3867 92.611 59.5 93.2243 59.5C93.811 59.5 94.371 59.3733 94.9043 59.12C95.4376 58.8667 95.8976 58.5667 96.2843 58.22V50.5L94.7643 50.16V49.42L97.4243 49.16H97.4443L97.9043 49.4V59.62H99.1443L99.1243 60.38C99.0576 60.3933 98.8643 60.4467 98.5443 60.54C98.2243 60.6333 97.8643 60.68 97.4643 60.68Z" fill="#240F6E"/>
<path d="M382.723 46.72L380.503 46.5V45.64H385.223L388.323 54.88L389.063 57.56L389.723 54.88L392.803 45.64H397.483V46.5L395.283 46.72L396.863 59.44L398.683 59.64V60.5H393.303V59.64L395.163 59.46L394.243 50.34L393.803 46.34L392.923 49.1L389.303 59.78H388.503L385.103 50.22L383.803 46.34L383.403 50.34L382.583 59.46L384.543 59.64V60.5H379.543V59.64L381.243 59.46L382.723 46.72ZM399.736 54.88C399.736 53.72 399.976 52.7 400.456 51.82C400.949 50.94 401.589 50.2667 402.376 49.8C403.176 49.3333 404.009 49.1 404.876 49.1C406.556 49.1 407.796 49.6467 408.596 50.74C409.409 51.8333 409.816 53.2333 409.816 54.94C409.816 56.1 409.569 57.12 409.076 58C408.596 58.88 407.956 59.5533 407.156 60.02C406.369 60.4867 405.543 60.72 404.676 60.72C402.996 60.72 401.749 60.1733 400.936 59.08C400.136 57.9867 399.736 56.5867 399.736 54.88ZM404.776 59.68C405.803 59.68 406.596 59.2867 407.156 58.5C407.716 57.7133 407.996 56.5667 407.996 55.06C407.996 53.62 407.736 52.44 407.216 51.52C406.696 50.6 405.889 50.14 404.796 50.14C403.769 50.14 402.969 50.5333 402.396 51.32C401.836 52.1067 401.556 53.2533 401.556 54.76C401.556 56.2133 401.816 57.4 402.336 58.32C402.869 59.2267 403.683 59.68 404.776 59.68ZM411.71 59.66L413.31 59.54V50.72L411.77 50.38V49.48L414.31 49.16H414.35L414.73 49.48V49.8L414.69 51.32H414.73C414.757 51.2933 414.93 51.0933 415.25 50.72C415.584 50.3333 416.07 49.9667 416.71 49.62C417.364 49.2733 418.017 49.1 418.67 49.1C418.884 49.1 419.084 49.1267 419.27 49.18V50.94C419.217 50.9 419.097 50.86 418.91 50.82C418.737 50.78 418.55 50.76 418.35 50.76C417.59 50.76 416.944 50.8733 416.41 51.1C415.877 51.3267 415.384 51.6067 414.93 51.94V59.52L417.59 59.68V60.5H411.71V59.66ZM425.494 60.72C423.948 60.72 422.754 60.1933 421.914 59.14C421.088 58.0733 420.674 56.66 420.674 54.9C420.674 53.7667 420.894 52.76 421.334 51.88C421.774 51 422.381 50.32 423.154 49.84C423.941 49.3467 424.821 49.1 425.794 49.1C426.981 49.1 427.901 49.44 428.554 50.12C429.221 50.8 429.581 51.78 429.634 53.06C429.634 53.8867 429.594 54.4733 429.514 54.82H422.394C422.394 56.22 422.708 57.3667 423.334 58.26C423.974 59.14 424.868 59.58 426.014 59.58C426.574 59.58 427.148 59.48 427.734 59.28C428.321 59.08 428.774 58.84 429.094 58.56L429.414 59.3C429.028 59.7 428.461 60.04 427.714 60.32C426.981 60.5867 426.241 60.72 425.494 60.72ZM427.834 53.88C427.874 53.6 427.894 53.3067 427.894 53C427.881 52.12 427.668 51.42 427.254 50.9C426.854 50.38 426.234 50.12 425.394 50.12C423.568 50.12 422.574 51.3733 422.414 53.88H427.834ZM438.521 47.3C437.801 47.3 437.441 46.92 437.441 46.16C437.441 45.7733 437.555 45.46 437.781 45.22C438.008 44.9667 438.315 44.84 438.701 44.84C439.101 44.84 439.388 44.9533 439.561 45.18C439.735 45.3933 439.821 45.66 439.821 45.98C439.821 46.3933 439.708 46.72 439.481 46.96C439.268 47.1867 438.955 47.3 438.541 47.3H438.521ZM437.881 50.72L436.321 50.38V49.48L439.061 49.16H439.101L439.501 49.48V59.5L441.241 59.64V60.5H436.121V59.64L437.881 59.48V50.72ZM443.926 50.72L442.386 50.38V49.48L444.926 49.16H444.986L445.366 49.48V50.36L445.346 50.86C445.839 50.4333 446.492 50.04 447.306 49.68C448.119 49.32 448.872 49.14 449.566 49.14C450.419 49.14 451.072 49.3067 451.526 49.64C451.992 49.96 452.312 50.46 452.486 51.14C452.672 51.8067 452.766 52.7067 452.766 53.84V59.5L454.266 59.64V60.5H449.806V59.64L451.146 59.5V53.82C451.146 52.98 451.086 52.32 450.966 51.84C450.859 51.36 450.639 51 450.306 50.76C449.986 50.5067 449.512 50.38 448.886 50.38C448.352 50.38 447.772 50.5133 447.146 50.78C446.532 51.0467 445.999 51.36 445.546 51.72V59.48L447.006 59.64V60.5H442.586V59.64L443.926 59.48V50.72ZM457.472 50.6H455.452V49.8L457.472 49.42V48.44C457.472 47.64 457.679 46.9067 458.092 46.24C458.505 45.56 459.039 45.02 459.692 44.62C460.359 44.22 461.052 44.02 461.772 44.02C462.199 44.02 462.572 44.0733 462.892 44.18V45.82C462.785 45.74 462.565 45.66 462.232 45.58C461.912 45.5 461.539 45.46 461.112 45.46C460.405 45.46 459.892 45.6467 459.572 46.02C459.252 46.3933 459.092 47.0267 459.092 47.92V49.42H461.992V50.6H459.092V59.5L461.372 59.64V60.5H455.712V59.64L457.472 59.48V50.6ZM463.623 54.88C463.623 53.72 463.863 52.7 464.343 51.82C464.836 50.94 465.476 50.2667 466.263 49.8C467.063 49.3333 467.896 49.1 468.763 49.1C470.443 49.1 471.683 49.6467 472.483 50.74C473.296 51.8333 473.703 53.2333 473.703 54.94C473.703 56.1 473.456 57.12 472.963 58C472.483 58.88 471.843 59.5533 471.043 60.02C470.256 60.4867 469.429 60.72 468.563 60.72C466.883 60.72 465.636 60.1733 464.823 59.08C464.023 57.9867 463.623 56.5867 463.623 54.88ZM468.663 59.68C469.689 59.68 470.483 59.2867 471.043 58.5C471.603 57.7133 471.883 56.5667 471.883 55.06C471.883 53.62 471.623 52.44 471.103 51.52C470.583 50.6 469.776 50.14 468.683 50.14C467.656 50.14 466.856 50.5333 466.283 51.32C465.723 52.1067 465.443 53.2533 465.443 54.76C465.443 56.2133 465.703 57.4 466.223 58.32C466.756 59.2267 467.569 59.68 468.663 59.68Z" fill="#240F6E"/>
<path d="M754.727 55.02C754.727 53.94 754.934 52.9533 755.347 52.06C755.774 51.1533 756.4 50.4333 757.227 49.9C758.067 49.3667 759.087 49.1 760.287 49.1C760.807 49.1 761.314 49.1667 761.807 49.3C762.3 49.42 762.727 49.5533 763.087 49.7L763.007 52.56H762.007L761.587 50.64C761.507 50.24 760.934 50.04 759.867 50.04C758.827 50.04 757.994 50.44 757.367 51.24C756.754 52.04 756.447 53.1333 756.447 54.52C756.447 56.1733 756.78 57.4267 757.447 58.28C758.114 59.1333 758.98 59.56 760.047 59.56C760.607 59.56 761.147 59.4667 761.667 59.28C762.2 59.0933 762.64 58.88 762.987 58.64L763.307 59.3C762.92 59.6867 762.387 60.02 761.707 60.3C761.027 60.58 760.354 60.72 759.687 60.72C758.634 60.72 757.734 60.4733 756.987 59.98C756.24 59.4733 755.674 58.7933 755.287 57.94C754.914 57.0733 754.727 56.1 754.727 55.02ZM765.123 54.88C765.123 53.72 765.363 52.7 765.843 51.82C766.336 50.94 766.976 50.2667 767.763 49.8C768.563 49.3333 769.396 49.1 770.263 49.1C771.943 49.1 773.183 49.6467 773.983 50.74C774.796 51.8333 775.203 53.2333 775.203 54.94C775.203 56.1 774.956 57.12 774.463 58C773.983 58.88 773.343 59.5533 772.543 60.02C771.756 60.4867 770.929 60.72 770.063 60.72C768.383 60.72 767.136 60.1733 766.323 59.08C765.523 57.9867 765.123 56.5867 765.123 54.88ZM770.163 59.68C771.189 59.68 771.983 59.2867 772.543 58.5C773.103 57.7133 773.383 56.5667 773.383 55.06C773.383 53.62 773.123 52.44 772.603 51.52C772.083 50.6 771.276 50.14 770.183 50.14C769.156 50.14 768.356 50.5333 767.783 51.32C767.223 52.1067 766.943 53.2533 766.943 54.76C766.943 56.2133 767.203 57.4 767.723 58.32C768.256 59.2267 769.069 59.68 770.163 59.68ZM778.277 50.72L776.737 50.38V49.48L779.277 49.16H779.337L779.717 49.48V50.36L779.697 50.86C780.191 50.4333 780.844 50.04 781.657 49.68C782.471 49.32 783.224 49.14 783.917 49.14C784.771 49.14 785.424 49.3067 785.877 49.64C786.344 49.96 786.664 50.46 786.837 51.14C787.024 51.8067 787.117 52.7067 787.117 53.84V59.5L788.617 59.64V60.5H784.157V59.64L785.497 59.5V53.82C785.497 52.98 785.437 52.32 785.317 51.84C785.211 51.36 784.991 51 784.657 50.76C784.337 50.5067 783.864 50.38 783.237 50.38C782.704 50.38 782.124 50.5133 781.497 50.78C780.884 51.0467 780.351 51.36 779.897 51.72V59.48L781.357 59.64V60.5H776.937V59.64L778.277 59.48V50.72ZM791.824 50.6H789.804V49.8L791.824 49.42V48.44C791.824 47.64 792.03 46.9067 792.444 46.24C792.857 45.56 793.39 45.02 794.044 44.62C794.71 44.22 795.404 44.02 796.124 44.02C796.55 44.02 796.924 44.0733 797.244 44.18V45.82C797.137 45.74 796.917 45.66 796.584 45.58C796.264 45.5 795.89 45.46 795.464 45.46C794.757 45.46 794.244 45.6467 793.924 46.02C793.604 46.3933 793.444 47.0267 793.444 47.92V49.42H796.344V50.6H793.444V59.5L795.724 59.64V60.5H790.064V59.64L791.824 59.48V50.6ZM800.324 47.3C799.604 47.3 799.244 46.92 799.244 46.16C799.244 45.7733 799.357 45.46 799.584 45.22C799.81 44.9667 800.117 44.84 800.504 44.84C800.904 44.84 801.19 44.9533 801.364 45.18C801.537 45.3933 801.624 45.66 801.624 45.98C801.624 46.3933 801.51 46.72 801.284 46.96C801.07 47.1867 800.757 47.3 800.344 47.3H800.324ZM799.684 50.72L798.124 50.38V49.48L800.864 49.16H800.904L801.304 49.48V59.5L803.044 59.64V60.5H797.924V59.64L799.684 59.48V50.72ZM804.539 59.66L806.139 59.54V50.72L804.599 50.38V49.48L807.139 49.16H807.179L807.559 49.48V49.8L807.519 51.32H807.559C807.585 51.2933 807.759 51.0933 808.079 50.72C808.412 50.3333 808.899 49.9667 809.539 49.62C810.192 49.2733 810.845 49.1 811.499 49.1C811.712 49.1 811.912 49.1267 812.099 49.18V50.94C812.045 50.9 811.925 50.86 811.739 50.82C811.565 50.78 811.379 50.76 811.179 50.76C810.419 50.76 809.772 50.8733 809.239 51.1C808.705 51.3267 808.212 51.6067 807.759 51.94V59.52L810.419 59.68V60.5H804.539V59.66ZM813.443 59.64L814.723 59.48V50.72L813.183 50.38V49.48L815.723 49.16L816.163 49.48V50.36L816.143 50.86C816.636 50.4333 817.283 50.04 818.083 49.68C818.883 49.32 819.609 49.14 820.263 49.14C820.983 49.14 821.556 49.26 821.983 49.5C822.423 49.74 822.756 50.1133 822.983 50.62C823.396 50.2733 823.996 49.94 824.783 49.62C825.583 49.3 826.316 49.14 826.983 49.14C827.823 49.14 828.469 49.3 828.923 49.62C829.389 49.94 829.716 50.4333 829.903 51.1C830.089 51.7667 830.183 52.6667 830.183 53.8V59.48L831.703 59.64V60.5H827.223V59.64L828.583 59.48V53.86C828.583 53.02 828.523 52.3533 828.403 51.86C828.283 51.3667 828.049 50.9933 827.703 50.74C827.356 50.4867 826.849 50.36 826.183 50.36C825.689 50.36 825.169 50.4733 824.623 50.7C824.089 50.9133 823.629 51.16 823.243 51.44C823.376 52.0533 823.443 52.8533 823.443 53.84V59.48L824.963 59.64V60.5H820.383V59.64L821.823 59.48V53.82C821.823 52.9667 821.769 52.3 821.663 51.82C821.569 51.34 821.363 50.98 821.043 50.74C820.723 50.5 820.249 50.38 819.623 50.38C819.103 50.38 818.536 50.5133 817.923 50.78C817.323 51.0333 816.796 51.34 816.343 51.7V59.48L817.763 59.64V60.5H813.443V59.64ZM833.27 57.58C833.27 56.2867 833.91 55.3533 835.19 54.78C836.47 54.1933 838.063 53.88 839.97 53.84V53.22C839.97 52.54 839.897 52.0067 839.75 51.62C839.617 51.22 839.377 50.9333 839.03 50.76C838.683 50.5733 838.197 50.48 837.57 50.48C836.89 50.48 836.27 50.5867 835.71 50.8C835.163 51 834.63 51.2467 834.11 51.54L833.67 50.66C833.817 50.5267 834.123 50.34 834.59 50.1C835.057 49.86 835.59 49.6467 836.19 49.46C836.79 49.2733 837.37 49.18 837.93 49.18C838.837 49.18 839.55 49.3067 840.07 49.56C840.603 49.8133 840.983 50.22 841.21 50.78C841.45 51.34 841.57 52.0933 841.57 53.04V59.64H842.81V60.38C842.077 60.58 841.457 60.68 840.95 60.68C840.63 60.68 840.41 60.6267 840.29 60.52C840.17 60.4267 840.11 60.2 840.11 59.84V59.1C839.63 59.5267 839.103 59.9067 838.53 60.24C837.97 60.56 837.33 60.72 836.61 60.72C835.65 60.72 834.85 60.4533 834.21 59.92C833.583 59.3867 833.27 58.6067 833.27 57.58ZM837.21 59.54C837.583 59.54 838.03 59.42 838.55 59.18C839.07 58.94 839.543 58.6533 839.97 58.32V54.78C838.357 54.7933 837.13 55.0333 836.29 55.5C835.463 55.9667 835.05 56.5933 835.05 57.38C835.05 58.14 835.243 58.6933 835.63 59.04C836.017 59.3733 836.543 59.54 837.21 59.54ZM847.743 60.72C847.036 60.72 846.503 60.56 846.143 60.24C845.783 59.9067 845.603 59.32 845.603 58.48V50.58H844.083V49.8C844.749 49.6533 845.136 49.5467 845.243 49.48C845.443 49.3733 845.589 49.1667 845.683 48.86C845.763 48.66 845.869 48.3 846.003 47.78C846.136 47.26 846.236 46.8533 846.303 46.56H847.223V49.4H850.763V50.58H847.223V57.06C847.223 57.8333 847.249 58.38 847.303 58.7C847.356 59.0067 847.463 59.2067 847.623 59.3C847.783 59.3933 848.063 59.44 848.463 59.44C848.849 59.44 849.283 59.3867 849.763 59.28C850.243 59.1733 850.603 59.06 850.843 58.94L851.103 59.7C850.796 59.94 850.289 60.1733 849.583 60.4C848.876 60.6133 848.263 60.72 847.743 60.72ZM854.748 47.3C854.028 47.3 853.668 46.92 853.668 46.16C853.668 45.7733 853.781 45.46 854.008 45.22C854.234 44.9667 854.541 44.84 854.928 44.84C855.328 44.84 855.614 44.9533 855.788 45.18C855.961 45.3933 856.048 45.66 856.048 45.98C856.048 46.3933 855.934 46.72 855.708 46.96C855.494 47.1867 855.181 47.3 854.768 47.3H854.748ZM854.108 50.72L852.548 50.38V49.48L855.288 49.16H855.328L855.728 49.48V59.5L857.468 59.64V60.5H852.348V59.64L854.108 59.48V50.72ZM858.892 54.88C858.892 53.72 859.132 52.7 859.612 51.82C860.106 50.94 860.746 50.2667 861.532 49.8C862.332 49.3333 863.166 49.1 864.032 49.1C865.712 49.1 866.952 49.6467 867.752 50.74C868.566 51.8333 868.972 53.2333 868.972 54.94C868.972 56.1 868.726 57.12 868.232 58C867.752 58.88 867.112 59.5533 866.312 60.02C865.526 60.4867 864.699 60.72 863.832 60.72C862.152 60.72 860.906 60.1733 860.092 59.08C859.292 57.9867 858.892 56.5867 858.892 54.88ZM863.932 59.68C864.959 59.68 865.752 59.2867 866.312 58.5C866.872 57.7133 867.152 56.5667 867.152 55.06C867.152 53.62 866.892 52.44 866.372 51.52C865.852 50.6 865.046 50.14 863.952 50.14C862.926 50.14 862.126 50.5333 861.552 51.32C860.992 52.1067 860.712 53.2533 860.712 54.76C860.712 56.2133 860.972 57.4 861.492 58.32C862.026 59.2267 862.839 59.68 863.932 59.68ZM872.047 50.72L870.507 50.38V49.48L873.047 49.16H873.107L873.487 49.48V50.36L873.467 50.86C873.96 50.4333 874.613 50.04 875.427 49.68C876.24 49.32 876.993 49.14 877.687 49.14C878.54 49.14 879.193 49.3067 879.647 49.64C880.113 49.96 880.433 50.46 880.607 51.14C880.793 51.8067 880.887 52.7067 880.887 53.84V59.5L882.387 59.64V60.5H877.927V59.64L879.267 59.5V53.82C879.267 52.98 879.207 52.32 879.087 51.84C878.98 51.36 878.76 51 878.427 50.76C878.107 50.5067 877.633 50.38 877.007 50.38C876.473 50.38 875.893 50.5133 875.267 50.78C874.653 51.0467 874.12 51.36 873.667 51.72V59.48L875.127 59.64V60.5H870.707V59.64L872.047 59.48V50.72Z" fill="#240F6E"/>
</svg>
