<svg width="14" height="8" viewBox="0 0 14 8" fill="none" xmlns="http://www.w3.org/2000/svg">
<path d="M13.1408 0.292464C12.9533 0.104993 12.699 -0.000322819 12.4338 -0.000322819C12.1686 -0.000322819 11.9143 0.104993 11.7268 0.292464L6.77681 5.24246L1.82681 0.292464C1.6382 0.110306 1.3856 0.00951147 1.12341 0.0117898C0.861209 0.0140681 0.610395 0.119237 0.424988 0.304645C0.23958 0.490053 0.134412 0.740866 0.132133 1.00306C0.129855 1.26526 0.230649 1.51786 0.412807 1.70646L6.06981 7.36346C6.25734 7.55093 6.51164 7.65625 6.77681 7.65625C7.04197 7.65625 7.29628 7.55093 7.48381 7.36346L13.1408 1.70646C13.3283 1.51894 13.4336 1.26463 13.4336 0.999464C13.4336 0.734299 13.3283 0.479991 13.1408 0.292464Z" fill="#212121"/>
</svg>
