<svg width="32" height="33" viewBox="0 0 32 33" fill="none" xmlns="http://www.w3.org/2000/svg">
<path d="M27.9009 8.98126C23.7209 2.50126 15.1609 0.581256 8.54088 4.60126C2.08088 8.62126 0.000881195 17.3813 4.18088 23.8413L4.52088 24.3613L3.12088 29.6013L8.36088 28.2013L8.88088 28.5413C11.1409 29.7613 13.6009 30.4613 16.0409 30.4613C18.6609 30.4613 21.2809 29.7613 23.5409 28.3613C30.0009 24.1613 31.9209 15.5813 27.9009 8.94126V8.98126ZM24.2409 22.4613C23.5409 23.5013 22.6609 24.2013 21.4409 24.3813C20.7409 24.3813 19.8609 24.7213 16.3809 23.3413C13.4209 21.9413 10.9609 19.6613 9.22088 17.0413C8.18088 15.8213 7.64088 14.2413 7.48088 12.6613C7.48088 11.2613 8.00088 10.0413 8.88088 9.16126C9.22088 8.82126 9.58088 8.64126 9.92088 8.64126H10.8009C11.1409 8.64126 11.5009 8.64126 11.6809 9.34126C12.0209 10.2213 12.9009 12.3213 12.9009 12.5013C13.0809 12.6813 13.0009 14.0213 12.2009 14.7813C11.7609 15.2813 11.6809 15.3013 11.8609 15.6613C12.5609 16.7013 13.4409 17.7613 14.3009 18.6413C15.3409 19.5213 16.4009 20.2213 17.6209 20.7413C17.9609 20.9213 18.3209 20.9213 18.5009 20.5613C18.6809 20.2213 19.5409 19.3413 19.9009 18.9813C20.2409 18.6413 20.4209 18.6413 20.7809 18.8013L23.5809 20.2013C23.9209 20.3813 24.2809 20.5413 24.4609 20.7213C24.6409 21.2413 24.6409 21.9413 24.2809 22.4613H24.2409Z" fill="#240F6E"/>
</svg>
