<svg width="272" height="124" viewBox="0 0 272 124" fill="none" xmlns="http://www.w3.org/2000/svg">
<mask id="mask0_297_8904" style="mask-type:luminance" maskUnits="userSpaceOnUse" x="0" y="0" width="87" height="79">
<path d="M0 0H86.1268V78.8936H0V0Z" fill="white"/>
</mask>
<g mask="url(#mask0_297_8904)">
<path d="M40.3122 40.3975C40.3122 40.3975 26.0497 26.3819 0 20.1616C0 20.1616 32.688 41.4868 41.0087 77.6125C41.0087 77.6125 57.4518 19.5689 84.7927 0.224609C84.7927 0.224609 52.8923 16.4134 40.3122 40.3975Z" fill="white"/>
</g>
<path d="M23.4674 27.1348L24.3568 25.2554C24.3568 25.2554 24.3568 25.2554 26.6393 26.4407C24.7587 24.0914 23.5746 19.5637 23.0281 17.0649H28.3806C27.9627 18.1755 27.7323 19.3715 27.7323 20.6155C27.7323 26.2325 32.2971 30.7869 37.9335 30.7869C43.5699 30.7869 48.1348 26.2325 48.1348 20.6155C48.1348 17.8444 47.0257 15.3403 45.2148 13.5036L54.2695 6.80273H32.0828L18.2168 17.0649H22.2352C21.5601 21.5125 23.4674 27.1348 23.4674 27.1348Z" fill="white"/>
<mask id="mask1_297_8904" style="mask-type:luminance" maskUnits="userSpaceOnUse" x="42" y="11" width="46" height="113">
<path d="M42.2354 11.918H87.4392V124.001H42.2354V11.918Z" fill="white"/>
</mask>
<g mask="url(#mask1_297_8904)">
<path d="M87.2789 45.604C87.2789 45.604 81.9372 28.1766 80.0566 12.7246C57.6234 35.5181 44.0468 82.7442 43.8967 83.2675L43.4092 84.9814C46.865 94.9339 49.8868 107.188 51.8049 122.186C51.8049 122.196 51.8049 122.202 51.8049 122.202C51.8049 122.853 52.346 123.392 52.9997 123.392C53.6587 123.392 54.1945 122.853 54.1945 122.202C54.5159 119.9 62.4455 64.2702 87.2789 45.604Z" fill="white"/>
</g>
<path d="M84.1515 80.8205C84.0765 80.8205 84.0336 80.7671 84.0229 80.6496C83.964 80.1958 83.9211 79.8381 83.8943 79.5818C83.8622 79.3255 83.8407 79.144 83.83 79.0265C83.83 78.8984 83.8193 78.8129 83.8086 78.7702C83.8086 78.7275 83.8086 78.7008 83.8086 78.6848C83.8086 78.6421 83.83 78.594 83.8729 78.5353C83.9265 78.4659 83.9908 78.4285 84.0658 78.4285C84.1086 78.4285 84.1569 78.4605 84.2158 78.5139C84.2694 78.5727 84.3283 78.6421 84.3872 78.7275C84.4408 78.8022 84.4837 78.877 84.5158 78.9624C84.5587 79.0372 84.5801 79.0852 84.5801 79.1119C84.7087 79.3842 84.8427 79.6138 84.9873 79.7954C85.1427 79.9822 85.3141 80.1317 85.5017 80.2439C85.6999 80.3453 85.9196 80.4254 86.166 80.4788C86.4071 80.5215 86.6804 80.5429 86.9804 80.5429C87.5055 80.5429 87.9127 80.4254 88.202 80.1798C88.502 79.9235 88.6521 79.5177 88.6521 78.9624C88.6521 78.6527 88.577 78.3644 88.4377 78.1081C88.3092 77.8519 88.127 77.6116 87.902 77.382C87.6716 77.1577 87.409 76.9442 87.109 76.7413C86.8197 76.5437 86.5304 76.3462 86.2303 76.1433C85.9303 75.9297 85.6302 75.7161 85.3302 75.5026C85.0409 75.2783 84.7837 75.0274 84.5587 74.7551C84.3444 74.4881 84.1622 74.1891 84.0229 73.8581C83.8782 73.5324 83.8086 73.1639 83.8086 72.7475C83.8086 72.5072 83.8515 72.2776 83.9372 72.064C84.0336 71.8398 84.1569 71.6369 84.3015 71.466C84.4569 71.2952 84.6337 71.1403 84.8373 70.9962C85.0516 70.8574 85.2713 70.7399 85.5017 70.6545C85.7267 70.5584 85.9571 70.4836 86.1875 70.4409C86.4286 70.3875 86.6643 70.3555 86.8947 70.3555C87.0769 70.3555 87.259 70.3715 87.4305 70.3982C87.6126 70.4302 87.8002 70.4729 87.9877 70.5263C88.1698 70.569 88.352 70.6224 88.5235 70.6758C88.7056 70.7185 88.8878 70.7613 89.0592 70.804L89.5522 70.7613C89.595 70.7613 89.6218 70.7826 89.6379 70.8253C89.6486 70.8574 89.6593 70.8841 89.6593 70.9108L89.8736 72.6407C89.8736 72.6567 89.8361 72.6727 89.7665 72.6834C89.7075 72.6994 89.6647 72.7048 89.6379 72.7048C89.6057 72.7048 89.5629 72.7048 89.5093 72.7048C89.4504 72.6941 89.4129 72.6781 89.4021 72.662C89.3861 72.6514 89.3646 72.6193 89.3379 72.5766C89.3218 72.5339 89.3003 72.4859 89.2736 72.4271C89.2414 72.3737 89.2146 72.315 89.1878 72.2563C89.1718 72.1869 89.145 72.1281 89.1021 72.0854C88.8717 71.733 88.5717 71.466 88.202 71.2952C87.827 71.1136 87.4198 71.0175 86.9804 71.0175C86.7929 71.0175 86.6161 71.0389 86.4446 71.0816C86.2839 71.1243 86.1446 71.1991 86.016 71.2952C85.8874 71.3806 85.7856 71.5034 85.716 71.6583C85.657 71.8024 85.6302 71.9733 85.6302 72.1708C85.6302 72.4698 85.6945 72.7421 85.8231 72.9824C85.9624 73.228 86.15 73.4523 86.3803 73.6658C86.6054 73.8794 86.8625 74.093 87.1519 74.3066C87.4519 74.5094 87.7519 74.7123 88.052 74.9259C88.352 75.1288 88.6413 75.3477 88.9307 75.588C89.2307 75.8176 89.4932 76.0739 89.7236 76.3568C89.9486 76.6452 90.1362 76.9548 90.2808 77.2966C90.4201 77.6383 90.4951 78.0334 90.4951 78.4712C90.4951 78.7595 90.4416 79.0265 90.3451 79.2828C90.2433 79.5284 90.1094 79.7526 89.9379 79.9662C89.7665 80.1691 89.5575 80.3453 89.3164 80.5001C89.086 80.6603 88.8342 80.7938 88.5663 80.9059C88.3092 81.0074 88.0413 81.0768 87.7734 81.1195C87.5001 81.1729 87.2269 81.2049 86.959 81.2049C86.6268 81.2049 86.3375 81.1729 86.0803 81.1195C85.8338 81.0768 85.6195 81.0234 85.4374 80.97C85.2659 80.9166 85.1159 80.8632 84.9873 80.8205C84.8694 80.7671 84.773 80.7351 84.6873 80.7351C84.6551 80.7351 84.6337 80.7351 84.623 80.7351L84.1515 80.8205Z" fill="white"/>
<path d="M100.906 71.7865C100.906 71.6904 100.885 71.6317 100.842 71.6157C100.799 71.605 100.745 71.589 100.692 71.573H98.2057C98.0182 71.6157 97.8682 71.6958 97.7557 71.8079C97.6539 71.9093 97.5735 72.0321 97.5199 72.171C97.461 72.3151 97.4181 72.47 97.3914 72.6408C97.3592 72.801 97.3324 72.9505 97.3056 73.0893C97.2896 73.1481 97.2735 73.2068 97.2628 73.2602C97.2628 73.3189 97.2521 73.3563 97.2413 73.367C97.2253 73.383 97.2038 73.3883 97.177 73.3883H96.9413C96.9092 73.3883 96.8984 73.3776 96.8984 73.3456V73.1107L97.177 70.6119C97.177 70.5585 97.1878 70.5051 97.2199 70.4624C97.2628 70.409 97.3163 70.377 97.3914 70.377C97.4342 70.377 97.4664 70.393 97.4985 70.4197C97.5253 70.4357 97.5521 70.457 97.5842 70.4837C97.611 70.4998 97.6378 70.5211 97.67 70.5478C97.6968 70.5798 97.7235 70.6012 97.7557 70.6119C97.8093 70.6279 97.8682 70.6439 97.9271 70.6546C97.9807 70.6546 98.0397 70.6546 98.0986 70.6546H105.814C105.883 70.6546 105.942 70.6546 105.985 70.6546C106.039 70.6439 106.098 70.6279 106.157 70.6119C106.184 70.6012 106.21 70.5798 106.242 70.5478C106.269 70.5211 106.296 70.4998 106.328 70.4837C106.355 70.457 106.382 70.4357 106.414 70.4197C106.457 70.393 106.489 70.377 106.521 70.377C106.591 70.377 106.639 70.409 106.671 70.4624C106.714 70.5051 106.741 70.5585 106.757 70.6119L107.014 73.1107V73.3456C107.014 73.3776 106.998 73.3883 106.971 73.3883H106.735C106.703 73.3883 106.693 73.383 106.693 73.367C106.676 73.3563 106.66 73.3189 106.65 73.2602C106.634 73.2068 106.628 73.1481 106.628 73.0893C106.585 72.9505 106.548 72.801 106.521 72.6408C106.489 72.47 106.446 72.3151 106.392 72.171C106.334 72.0321 106.253 71.9093 106.157 71.8079C106.055 71.6958 105.91 71.6157 105.728 71.573H103.221C103.162 71.589 103.113 71.605 103.071 71.6157C103.028 71.6317 103.006 71.6904 103.006 71.7865V79.5819C103.006 79.7261 103.038 79.8542 103.113 79.9663C103.183 80.0838 103.285 80.1906 103.414 80.2867C103.542 80.3721 103.692 80.4469 103.864 80.5003C104.035 80.543 104.212 80.5804 104.399 80.6071C104.453 80.6071 104.517 80.6071 104.592 80.6071C104.678 80.6071 104.753 80.6071 104.828 80.6071C104.839 80.6071 104.849 80.6177 104.849 80.6284C104.86 80.6444 104.871 80.6605 104.871 80.6711V80.9488C104.871 80.9648 104.86 80.9808 104.849 80.9915C104.849 81.0075 104.839 81.0128 104.828 81.0128H99.0844C99.0683 81.0128 99.0523 81.0075 99.0416 80.9915C99.0416 80.9808 99.0416 80.9648 99.0416 80.9488V80.6711C99.0416 80.6605 99.0416 80.6444 99.0416 80.6284C99.0523 80.6177 99.0683 80.6071 99.0844 80.6071C99.138 80.6071 99.213 80.6071 99.2987 80.6071C99.3845 80.6071 99.4541 80.6071 99.513 80.6071C99.6952 80.5804 99.8774 80.543 100.049 80.5003C100.22 80.4469 100.37 80.3721 100.499 80.2867C100.627 80.1906 100.724 80.0838 100.799 79.9663C100.869 79.8542 100.906 79.7261 100.906 79.5819V71.7865Z" fill="white"/>
<path d="M114.33 71.9357C114.33 71.7969 114.292 71.6741 114.223 71.5727C114.148 71.4605 114.057 71.3698 113.944 71.295C113.826 71.2256 113.698 71.1669 113.558 71.1242C113.414 71.0814 113.258 71.0601 113.087 71.0601C113.044 71.0601 113.022 71.0387 113.022 70.996V70.7184C113.022 70.6757 113.044 70.6543 113.087 70.6543H117.737C117.764 70.6543 117.78 70.665 117.78 70.6757C117.791 70.6917 117.802 70.7077 117.802 70.7184V70.996C117.802 71.012 117.791 71.028 117.78 71.0387C117.78 71.0547 117.764 71.0601 117.737 71.0601C117.593 71.0601 117.443 71.0761 117.287 71.1028C117.127 71.1188 116.987 71.1615 116.859 71.2309C116.73 71.3057 116.623 71.4018 116.537 71.5299C116.462 71.6581 116.43 71.8289 116.43 72.0425V77.1896C116.43 78.172 116.676 78.9356 117.18 79.4748C117.678 80.0034 118.423 80.265 119.409 80.265C119.822 80.265 120.213 80.2117 120.588 80.0942C120.973 79.9821 121.306 79.8059 121.595 79.5603C121.895 79.32 122.131 79.0156 122.302 78.6419C122.474 78.2735 122.559 77.8303 122.559 77.3177V72.7687C122.559 72.5978 122.549 72.4269 122.538 72.2561C122.522 72.0746 122.479 71.9037 122.409 71.7435C122.35 71.5887 122.243 71.4552 122.088 71.3377C121.943 71.2256 121.734 71.1455 121.466 71.1028C121.338 71.0921 121.231 71.0814 121.145 71.0814C121.07 71.0708 121.022 71.0601 120.995 71.0601C120.963 71.0601 120.952 71.0387 120.952 70.996V70.7184C120.952 70.6757 120.963 70.6543 120.995 70.6543H124.853C124.863 70.6543 124.879 70.665 124.895 70.6757C124.906 70.6917 124.917 70.7077 124.917 70.7184V70.996C124.917 71.012 124.906 71.028 124.895 71.0387C124.879 71.0547 124.863 71.0601 124.853 71.0601C124.665 71.0601 124.499 71.0761 124.36 71.1028C124.231 71.1348 124.135 71.1615 124.081 71.1882C123.995 71.2203 123.915 71.2683 123.845 71.3377C123.77 71.4125 123.717 71.4872 123.674 71.5727C123.631 71.6581 123.593 71.7435 123.567 71.8289C123.534 71.9144 123.524 71.9891 123.524 72.0425V76.7411C123.524 77.4406 123.427 78.0653 123.245 78.6205C123.074 79.1651 122.8 79.6243 122.431 80.0088C122.072 80.3932 121.616 80.6922 121.059 80.9058C120.502 81.1033 119.848 81.2048 119.109 81.2048C118.75 81.2048 118.386 81.1727 118.016 81.1193C117.641 81.0766 117.277 81.0019 116.923 80.8844C116.564 80.7563 116.226 80.6014 115.916 80.4145C115.6 80.233 115.321 80.0088 115.08 79.7525C114.849 79.4962 114.662 79.1972 114.523 78.8555C114.394 78.5138 114.33 78.1293 114.33 77.7022V71.9357Z" fill="white"/>
<path d="M130.741 81.012C130.709 81.012 130.687 81.0067 130.677 80.9907C130.677 80.98 130.677 80.964 130.677 80.948V80.6276C130.677 80.6276 130.677 80.6223 130.677 80.6063C130.687 80.5956 130.709 80.5849 130.741 80.5849H130.913C131.009 80.5849 131.132 80.5796 131.277 80.5635C131.432 80.5529 131.582 80.5155 131.727 80.4567C131.866 80.4034 131.989 80.3179 132.091 80.2005C132.188 80.0883 132.241 79.9335 132.241 79.7306V71.8925C132.241 71.7537 132.204 71.6309 132.134 71.5294C132.075 71.4173 131.995 71.3319 131.898 71.2731C131.797 71.2037 131.684 71.1557 131.555 71.1236C131.438 71.097 131.325 71.0809 131.213 71.0809H130.741C130.709 71.0809 130.687 71.0756 130.677 71.0596C130.677 71.0329 130.677 71.0169 130.677 71.0169V70.6965C130.677 70.6965 130.677 70.6912 130.677 70.6751C130.687 70.6484 130.709 70.6324 130.741 70.6324H130.913L133.934 70.5897C134.218 70.5897 134.524 70.5897 134.856 70.5897C135.183 70.579 135.488 70.5684 135.777 70.5684C136.088 70.5684 136.367 70.579 136.613 70.5897C136.854 70.5897 137.09 70.6057 137.32 70.6324C137.545 70.6484 137.776 70.6751 138.006 70.7179C138.231 70.7499 138.488 70.7926 138.778 70.846C139.319 70.9635 139.828 71.177 140.299 71.4867C140.771 71.7857 141.178 72.1488 141.521 72.5759C141.864 73.0031 142.126 73.4836 142.314 74.0069C142.512 74.5355 142.614 75.0694 142.614 75.6087C142.614 76.1373 142.534 76.6445 142.378 77.125C142.234 77.5949 142.035 78.0327 141.778 78.4278C141.521 78.8283 141.205 79.1913 140.835 79.517C140.476 79.8321 140.085 80.1044 139.656 80.3286C139.228 80.5422 138.767 80.713 138.285 80.8412C137.797 80.9586 137.299 81.012 136.785 81.012H130.741ZM134.341 79.8801C134.341 80.0243 134.384 80.1364 134.47 80.2218C134.567 80.2966 134.69 80.35 134.834 80.3927C134.99 80.4247 135.167 80.4461 135.37 80.4567C135.568 80.4567 135.783 80.4567 136.013 80.4567C137.47 80.4567 138.563 80.0616 139.292 79.2607C140.021 78.4492 140.385 77.2745 140.385 75.7368C140.385 75.0534 140.299 74.434 140.128 73.8787C139.967 73.3128 139.721 72.8269 139.378 72.4264C139.046 72.0153 138.628 71.7003 138.113 71.4867C137.61 71.2625 137.01 71.145 136.313 71.145H134.534C134.459 71.145 134.411 71.161 134.384 71.1877C134.352 71.2198 134.341 71.2678 134.341 71.3372V79.8801Z" fill="white"/>
<path d="M153.799 77.3818C153.799 77.3551 153.788 77.3338 153.777 77.3177L150.755 72.5124C150.67 72.3842 150.573 72.2561 150.477 72.1279C150.391 71.9891 150.289 71.861 150.177 71.7435C150.059 71.6154 149.93 71.5086 149.791 71.4232C149.662 71.327 149.518 71.2523 149.362 71.2096C149.33 71.2096 149.287 71.2042 149.234 71.1882C149.191 71.1775 149.132 71.1669 149.062 71.1669C149.003 71.1562 148.944 71.1455 148.891 71.1455C148.848 71.1348 148.81 71.1188 148.784 71.1028C148.741 71.1028 148.687 71.0761 148.634 71.0174C148.591 70.964 148.569 70.9106 148.569 70.8679C148.569 70.8572 148.569 70.8412 148.569 70.8252C148.58 70.7985 148.591 70.7771 148.591 70.7611C148.601 70.7344 148.618 70.713 148.634 70.697C148.644 70.6703 148.666 70.6543 148.698 70.6543H153.691C153.745 70.6543 153.782 70.6863 153.799 70.7397C153.809 70.7824 153.82 70.8252 153.82 70.8679C153.82 70.9106 153.809 70.964 153.799 71.0174C153.799 71.0761 153.766 71.1028 153.713 71.1028C153.584 71.1188 153.461 71.1348 153.349 71.1455C153.231 71.1455 153.134 71.1669 153.048 71.2096C152.963 71.2416 152.888 71.2897 152.834 71.3591C152.791 71.4338 152.77 71.5406 152.77 71.6794C152.77 71.7969 152.797 71.9037 152.856 71.9998L155.106 75.5878C155.159 75.6732 155.197 75.732 155.213 75.7587C155.224 75.7747 155.256 75.78 155.299 75.78C155.326 75.78 155.352 75.7587 155.384 75.716C155.411 75.6732 155.449 75.6252 155.492 75.5665L157.27 72.5551C157.324 72.443 157.388 72.3202 157.463 72.192C157.533 72.0532 157.57 71.909 157.57 71.7649C157.57 71.626 157.549 71.5193 157.506 71.4445C157.474 71.3591 157.426 71.295 157.356 71.2523C157.281 71.2096 157.19 71.1829 157.078 71.1669C156.976 71.1402 156.863 71.1188 156.735 71.1028C156.676 71.1028 156.638 71.0761 156.627 71.0174C156.611 70.964 156.606 70.9106 156.606 70.8679C156.606 70.8412 156.611 70.7985 156.627 70.7397C156.638 70.6863 156.676 70.6543 156.735 70.6543H160.442C160.485 70.6543 160.512 70.6863 160.528 70.7397C160.539 70.7985 160.549 70.8412 160.549 70.8679C160.549 70.9106 160.533 70.9533 160.507 70.996C160.474 71.028 160.432 71.0547 160.378 71.0814C160.335 71.0975 160.282 71.1135 160.228 71.1242C160.185 71.1402 160.142 71.1562 160.099 71.1669C159.842 71.2096 159.617 71.295 159.435 71.4232C159.264 71.5513 159.092 71.7115 158.921 71.893C158.905 71.9251 158.867 71.9678 158.813 72.0212C158.771 72.0639 158.749 72.0959 158.749 72.1066L155.899 76.9974V79.5816C155.899 79.8806 155.968 80.1102 156.113 80.265C156.269 80.4252 156.542 80.5213 156.928 80.564C156.981 80.564 157.056 80.564 157.142 80.564C157.228 80.564 157.297 80.564 157.356 80.564C157.383 80.564 157.399 80.5747 157.399 80.5854C157.41 80.6014 157.42 80.6174 157.42 80.6281V80.9485C157.42 80.9645 157.41 80.9805 157.399 80.9912C157.399 81.0072 157.383 81.0125 157.356 81.0125H152.341C152.309 81.0125 152.288 81.0072 152.277 80.9912C152.277 80.9805 152.277 80.9645 152.277 80.9485V80.6281C152.277 80.6174 152.277 80.6014 152.277 80.5854C152.288 80.5747 152.309 80.564 152.341 80.564C152.384 80.564 152.448 80.564 152.534 80.564C152.631 80.564 152.706 80.564 152.748 80.564C153.134 80.5213 153.402 80.4252 153.563 80.265C153.718 80.1102 153.799 79.8806 153.799 79.5816V77.3818Z" fill="white"/>
<path d="M175.23 80.6708C175.23 80.6281 175.241 80.6068 175.273 80.6068C175.37 80.6068 175.488 80.6014 175.616 80.5854C175.745 80.5587 175.873 80.5107 176.002 80.4359C176.131 80.3665 176.248 80.2597 176.366 80.1155C176.495 79.9767 176.602 79.7845 176.688 79.5389L179.645 70.9747C179.645 70.964 179.645 70.948 179.645 70.9319C179.645 70.9052 179.629 70.8679 179.602 70.8252C179.586 70.7718 179.581 70.729 179.581 70.697C179.581 70.6703 179.586 70.6543 179.602 70.6543H181.746C181.746 70.6703 181.751 70.6757 181.767 70.6757C181.794 70.6757 181.81 70.6917 181.81 70.7184L184.939 79.4321C184.982 79.5763 185.025 79.6991 185.067 79.7952C185.11 79.8806 185.158 79.966 185.217 80.0515C185.287 80.1262 185.367 80.1956 185.453 80.265C185.55 80.3238 185.673 80.3825 185.818 80.4359C185.887 80.4786 185.978 80.5213 186.096 80.564C186.225 80.5961 186.337 80.6068 186.439 80.6068C186.466 80.6068 186.482 80.6174 186.482 80.6281C186.493 80.6441 186.503 80.6602 186.503 80.6708V80.9485C186.503 80.9645 186.493 80.9805 186.482 80.9912C186.482 81.0072 186.466 81.0125 186.439 81.0125H181.274C181.242 81.0125 181.221 81.0072 181.21 80.9912C181.21 80.9805 181.21 80.9645 181.21 80.9485V80.6708C181.21 80.6602 181.21 80.6441 181.21 80.6281C181.221 80.6174 181.242 80.6068 181.274 80.6068C181.285 80.6068 181.301 80.6068 181.317 80.6068C181.344 80.6068 181.365 80.6068 181.381 80.6068C181.435 80.5961 181.515 80.5854 181.617 80.5854C181.713 80.5854 181.821 80.5801 181.938 80.564C182.051 80.5534 182.163 80.532 182.281 80.5C182.41 80.4733 182.522 80.4359 182.624 80.3932C182.721 80.3398 182.801 80.265 182.86 80.1796C182.93 80.0942 182.967 79.9981 182.967 79.8806C182.967 79.8539 182.956 79.8165 182.946 79.7738L181.981 77.1255C181.981 77.1149 181.971 77.0935 181.96 77.0615C181.944 77.0187 181.922 76.9867 181.896 76.9547C181.863 76.912 181.831 76.8799 181.788 76.8479C181.746 76.8212 181.692 76.8052 181.638 76.8052H178.981C178.922 76.8052 178.863 76.8212 178.809 76.8479C178.767 76.8799 178.729 76.912 178.702 76.9547C178.67 76.9867 178.649 77.0187 178.638 77.0615C178.622 77.0935 178.617 77.1042 178.617 77.1042C178.456 77.5634 178.322 77.9531 178.209 78.2788C178.108 78.5938 178.022 78.8555 177.952 79.069C177.877 79.2719 177.824 79.4268 177.781 79.5389C177.738 79.6403 177.706 79.7204 177.695 79.7738C177.679 79.8326 177.674 79.8699 177.674 79.8806C177.674 79.8966 177.674 79.918 177.674 79.9447C177.674 79.9607 177.679 79.9767 177.695 79.9874C177.722 80.1049 177.786 80.201 177.888 80.2864C178 80.3718 178.124 80.4359 178.252 80.4786C178.392 80.5213 178.536 80.5587 178.681 80.5854C178.836 80.6014 178.97 80.6068 179.088 80.6068H179.26C179.286 80.6068 179.302 80.6174 179.302 80.6281C179.313 80.6441 179.324 80.6602 179.324 80.6708V80.9485C179.324 80.9645 179.313 80.9805 179.302 80.9912C179.302 81.0072 179.286 81.0125 179.26 81.0125H175.273C175.241 81.0125 175.23 80.9912 175.23 80.9485V80.6708ZM179.088 75.7587C179.072 75.7747 179.056 75.796 179.045 75.8227C179.045 75.8548 179.045 75.8761 179.045 75.8868C179.045 75.9189 179.051 75.9455 179.067 75.9722C179.093 75.9883 179.131 75.9936 179.174 75.9936H181.381C181.435 75.9936 181.472 75.9883 181.488 75.9722C181.499 75.9455 181.51 75.9189 181.51 75.8868C181.51 75.8601 181.499 75.8388 181.488 75.8227C181.488 75.796 181.488 75.7747 181.488 75.7587L180.503 73.0677C180.47 72.9983 180.428 72.9502 180.374 72.9182C180.331 72.8915 180.294 72.8754 180.267 72.8754C180.224 72.8754 180.17 72.8968 180.117 72.9395C180.074 72.9716 180.036 73.0143 180.01 73.0677L179.088 75.7587Z" fill="white"/>
<path d="M191.877 80.6701C191.877 80.6594 191.877 80.6434 191.877 80.6274C191.888 80.6167 191.909 80.606 191.941 80.606C192.038 80.606 192.161 80.606 192.306 80.606C192.445 80.5953 192.595 80.574 192.756 80.5419C192.911 80.5152 193.066 80.4779 193.227 80.4351C193.399 80.3817 193.549 80.3177 193.677 80.2429C193.806 80.1735 193.902 80.0881 193.977 79.9866C194.063 79.8745 194.106 79.7464 194.106 79.6022V72.0845C194.106 71.8282 194.068 71.636 193.999 71.5078C193.924 71.369 193.827 71.2622 193.699 71.1875C193.57 71.1181 193.42 71.0753 193.249 71.0593C193.088 71.0486 192.911 71.038 192.713 71.038H192.306C192.273 71.038 192.252 71.0326 192.241 71.0166C192.241 71.0059 192.241 70.9899 192.241 70.9739V70.6749C192.241 70.6749 192.241 70.6696 192.241 70.6535C192.252 70.6429 192.273 70.6322 192.306 70.6322C192.306 70.6322 192.327 70.6322 192.37 70.6322C192.423 70.6215 192.509 70.6108 192.627 70.6108C192.74 70.6108 192.895 70.6108 193.099 70.6108C193.297 70.6108 193.559 70.6108 193.891 70.6108C193.961 70.6108 194.074 70.6108 194.234 70.6108C194.406 70.6001 194.599 70.5895 194.813 70.5895C195.038 70.5895 195.274 70.5841 195.52 70.5681C195.761 70.5574 195.992 70.5467 196.206 70.5467C196.431 70.5467 196.635 70.5467 196.806 70.5467C196.978 70.5361 197.095 70.5254 197.17 70.5254C197.428 70.5254 197.706 70.5414 198.006 70.5681C198.317 70.5841 198.628 70.6215 198.928 70.6749C199.239 70.7336 199.549 70.8191 199.849 70.9312C200.149 71.0326 200.412 71.1768 200.642 71.3583C200.867 71.5452 201.05 71.7748 201.178 72.0418C201.317 72.3141 201.392 72.6344 201.392 73.0028C201.392 73.2324 201.355 73.4407 201.285 73.6222C201.21 73.8091 201.119 73.9799 201.007 74.1348C200.889 74.2789 200.771 74.4017 200.642 74.4978C200.524 74.5993 200.412 74.6847 200.299 74.7541C200.182 74.8289 200.085 74.8823 199.999 74.925C199.924 74.957 199.882 74.9677 199.871 74.9677C200.155 75.1279 200.417 75.3041 200.664 75.5016C200.921 75.6885 201.141 75.8967 201.328 76.121C201.526 76.3506 201.676 76.6069 201.778 76.8898C201.891 77.1621 201.95 77.4665 201.95 77.8082C201.95 78.2087 201.891 78.5664 201.778 78.8761C201.676 79.1751 201.532 79.442 201.35 79.6663C201.178 79.8799 200.975 80.0667 200.749 80.2216C200.535 80.3817 200.305 80.5099 200.064 80.606C199.817 80.7074 199.576 80.7875 199.335 80.8409C199.089 80.8997 198.869 80.9424 198.671 80.9691C198.483 80.9851 198.317 81.0011 198.178 81.0118C198.049 81.0118 197.963 81.0118 197.921 81.0118H191.941C191.909 81.0118 191.888 81.0064 191.877 80.9904C191.877 80.9797 191.877 80.9637 191.877 80.9477V80.6701ZM196.249 79.0683C196.249 79.2552 196.292 79.426 196.378 79.5809C196.474 79.741 196.603 79.8745 196.763 79.9866C196.919 80.0881 197.09 80.1735 197.278 80.2429C197.46 80.3017 197.647 80.3284 197.835 80.3284C198.146 80.3284 198.424 80.275 198.671 80.1575C198.912 80.0294 199.11 79.8692 199.271 79.6663C199.426 79.4527 199.539 79.2071 199.614 78.9188C199.699 78.6198 199.742 78.2941 199.742 77.9363C199.742 77.5252 199.678 77.1621 199.549 76.8471C199.421 76.5374 199.239 76.2812 199.014 76.0783C198.783 75.8647 198.505 75.7099 198.178 75.6084C197.862 75.4963 197.519 75.4376 197.149 75.4376H196.335C196.292 75.4376 196.26 75.4482 196.249 75.4589C196.249 75.4749 196.249 75.4963 196.249 75.523V79.0683ZM197.535 74.7541C197.776 74.7541 197.996 74.7114 198.199 74.626C198.397 74.5405 198.569 74.4284 198.714 74.2843C198.869 74.1294 198.992 73.9532 199.078 73.7503C199.164 73.5368 199.206 73.3018 199.206 73.0455C199.206 72.6771 199.164 72.3728 199.078 72.1272C198.992 71.8869 198.853 71.6947 198.671 71.5505C198.499 71.4117 198.274 71.3103 198.006 71.2515C197.749 71.1981 197.449 71.1661 197.106 71.1661C197.031 71.1661 196.945 71.1768 196.849 71.1875C196.747 71.2035 196.645 71.2248 196.549 71.2515C196.463 71.2836 196.383 71.3156 196.313 71.3583C196.254 71.401 196.227 71.4651 196.227 71.5505V74.626C196.227 74.642 196.233 74.6687 196.249 74.7114C196.26 74.7434 196.313 74.7541 196.399 74.7541H197.535Z" fill="white"/>
<path d="M208.325 80.6275C208.325 80.6275 208.325 80.6221 208.325 80.6061C208.336 80.5794 208.357 80.5634 208.389 80.5634C208.416 80.5634 208.459 80.5634 208.518 80.5634C208.588 80.5527 208.657 80.5421 208.732 80.5421C208.802 80.5314 208.866 80.5154 208.925 80.4993C208.979 80.4887 209.016 80.478 209.032 80.478C209.316 80.4086 209.515 80.3018 209.632 80.1576C209.745 80.0188 209.804 79.8373 209.804 79.6237V72.1487C209.804 71.9084 209.745 71.7162 209.632 71.572C209.531 71.4332 209.407 71.3264 209.268 71.2517C209.14 71.1823 209.011 71.1395 208.882 71.1235C208.764 71.1128 208.689 71.1022 208.647 71.1022H208.368C208.336 71.1022 208.314 71.0968 208.304 71.0808C208.304 71.0701 208.304 71.0541 208.304 71.0381V70.7177C208.304 70.7071 208.304 70.6964 208.304 70.6964C208.304 70.6857 208.325 70.6697 208.368 70.6537C208.368 70.6537 208.373 70.6537 208.389 70.6537C208.4 70.6537 208.438 70.6537 208.497 70.6537C208.55 70.6537 208.631 70.6537 208.732 70.6537C208.829 70.6537 208.973 70.6483 209.161 70.6323C209.429 70.6323 209.718 70.6323 210.018 70.6323C210.329 70.6216 210.645 70.6056 210.961 70.5896C211.272 70.5789 211.583 70.5682 211.883 70.5682C212.193 70.5576 212.488 70.5469 212.761 70.5469H213.512C213.897 70.5469 214.288 70.6216 214.69 70.7604C215.087 70.8886 215.451 71.0808 215.783 71.3371C216.11 71.5934 216.373 71.9137 216.576 72.2982C216.79 72.6719 216.898 73.1044 216.898 73.601C216.898 73.932 216.855 74.2203 216.769 74.4766C216.683 74.7329 216.56 74.9625 216.405 75.16C216.244 75.3469 216.062 75.5124 215.848 75.6512C215.633 75.7954 215.403 75.9236 215.162 76.0357L217.391 79.5596C217.573 79.8746 217.798 80.1523 218.055 80.3926C218.312 80.6382 218.612 80.809 218.955 80.9051C218.998 80.9211 219.019 80.9372 219.019 80.9478C219.03 80.9639 219.041 80.9852 219.041 81.0119C219.041 81.0813 219.019 81.1294 218.976 81.1614C218.934 81.1881 218.869 81.2041 218.784 81.2041C218.58 81.2041 218.344 81.1881 218.076 81.1614C217.819 81.1294 217.551 81.0813 217.283 81.0119C217.026 80.9585 216.774 80.8784 216.533 80.777C216.303 80.6809 216.105 80.5581 215.933 80.4139C215.772 80.2858 215.617 80.1149 215.462 79.9013C215.301 79.6878 215.14 79.4635 214.969 79.2179C214.808 78.9776 214.647 78.7267 214.476 78.4704C214.315 78.2034 214.16 77.9472 214.004 77.7015C213.86 77.4453 213.715 77.2103 213.576 76.9968C213.447 76.7832 213.324 76.6016 213.211 76.4415L212.054 76.356C212.054 76.356 212.033 76.356 211.99 76.356C211.958 76.356 211.936 76.3667 211.926 76.3774C211.91 76.3934 211.904 76.4094 211.904 76.4201C211.904 76.4201 211.904 76.4361 211.904 76.4628V79.6023C211.904 79.7305 211.915 79.8479 211.947 79.9441C211.974 80.0455 212.033 80.1309 212.118 80.2003C212.204 80.2751 212.311 80.3285 212.44 80.3712C212.569 80.4139 212.724 80.4513 212.911 80.478C212.938 80.478 212.981 80.4887 213.04 80.4993C213.094 80.4993 213.153 80.51 213.211 80.5207C213.281 80.5367 213.345 80.5527 213.404 80.5634C213.474 80.5634 213.533 80.5634 213.576 80.5634C213.603 80.5634 213.619 80.5741 213.619 80.5848C213.629 80.6008 213.64 80.6168 213.64 80.6275V80.9478C213.64 80.9639 213.629 80.9799 213.619 80.9906C213.619 81.0066 213.603 81.0119 213.576 81.0119H208.389C208.357 81.0119 208.336 80.9799 208.325 80.9051C208.325 80.8357 208.325 80.7716 208.325 80.7129V80.6275ZM211.904 75.6299C211.915 75.6726 211.931 75.71 211.947 75.7367C211.958 75.7687 211.995 75.7901 212.054 75.8008C212.097 75.8008 212.161 75.8114 212.247 75.8221C212.333 75.8381 212.451 75.8435 212.611 75.8435C213.04 75.8435 213.394 75.7794 213.683 75.6512C213.967 75.5124 214.187 75.3309 214.347 75.1173C214.503 74.8931 214.61 74.6368 214.669 74.3485C214.738 74.0495 214.776 73.7451 214.776 73.4301C214.776 73.1044 214.717 72.8001 214.604 72.5117C214.503 72.2127 214.358 71.9565 214.176 71.7429C214.004 71.5293 213.79 71.3584 213.533 71.2303C213.276 71.1022 212.986 71.0381 212.676 71.0381C212.601 71.0381 212.547 71.0381 212.504 71.0381C212.472 71.0381 212.44 71.0488 212.397 71.0594C212.354 71.0594 212.311 71.0594 212.268 71.0594C212.226 71.0594 212.161 71.0594 212.076 71.0594C212.043 71.0594 212.011 71.0701 211.968 71.0808C211.926 71.0968 211.904 71.1342 211.904 71.1876V75.6299Z" fill="white"/>
<path d="M231.036 81.2049C230.865 81.2049 230.651 81.1889 230.393 81.1622C230.136 81.1302 229.847 81.0821 229.536 81.0127C229.236 80.9273 228.915 80.8205 228.572 80.6924C228.24 80.5642 227.913 80.404 227.586 80.2011C227.27 80.0036 226.97 79.7687 226.686 79.4964C226.396 79.2294 226.139 78.9144 225.914 78.5566C225.7 78.1882 225.528 77.7771 225.4 77.3179C225.271 76.8641 225.207 76.3515 225.207 75.7802C225.207 75.2676 225.271 74.7764 225.4 74.3066C225.539 73.8367 225.743 73.4042 226 73.0038C226.268 72.6087 226.589 72.2456 226.964 71.9145C227.334 71.5888 227.747 71.3112 228.207 71.0816C228.663 70.8574 229.156 70.6758 229.686 70.5477C230.227 70.4195 230.79 70.3555 231.379 70.3555C231.894 70.3555 232.386 70.4195 232.858 70.5477C233.34 70.6651 233.79 70.836 234.208 71.0603C234.621 71.2898 235.001 71.5675 235.344 71.8932C235.698 72.2082 235.998 72.5659 236.244 72.961C236.501 73.3455 236.694 73.7673 236.823 74.2211C236.962 74.6803 237.037 75.1502 237.037 75.6307C237.037 76.0899 236.962 76.5437 236.823 76.9976C236.694 77.4567 236.501 77.8892 236.244 78.3004C235.998 78.7168 235.698 79.1012 235.344 79.4536C234.985 79.8114 234.583 80.1157 234.144 80.372C233.715 80.6283 233.233 80.8365 232.708 80.9914C232.178 81.1302 231.62 81.2049 231.036 81.2049ZM227.372 75.5026C227.372 75.903 227.404 76.3035 227.479 76.6986C227.564 77.083 227.682 77.4621 227.843 77.8305C227.998 78.2042 228.191 78.5513 228.422 78.877C228.663 79.192 228.925 79.4697 229.215 79.7099C229.515 79.9395 229.842 80.1264 230.201 80.2652C230.554 80.3934 230.951 80.4574 231.379 80.4574C231.963 80.4574 232.478 80.34 232.922 80.0944C233.362 79.8381 233.726 79.507 234.015 79.0906C234.299 78.6634 234.508 78.1829 234.637 77.6383C234.776 77.099 234.851 76.5437 234.851 75.9724C234.851 75.5453 234.808 75.1341 234.723 74.7337C234.647 74.3386 234.535 73.9542 234.38 73.5804C234.219 73.212 234.026 72.8756 233.801 72.5766C233.587 72.2669 233.329 72 233.029 71.7864C232.729 71.5622 232.392 71.3806 232.022 71.2525C231.663 71.1243 231.277 71.0603 230.865 71.0603C230.479 71.0603 230.126 71.1243 229.815 71.2525C229.499 71.3699 229.215 71.5248 228.957 71.7223C228.7 71.9252 228.47 72.1655 228.272 72.4485C228.068 72.7368 227.907 73.0411 227.779 73.3668C227.65 73.6979 227.548 74.0449 227.479 74.4133C227.404 74.7711 227.372 75.1341 227.372 75.5026Z" fill="white"/>
<path d="M243.159 80.6708C243.159 80.6281 243.17 80.6068 243.202 80.6068C243.298 80.6068 243.416 80.6014 243.545 80.5854C243.674 80.5587 243.802 80.5107 243.931 80.4359C244.059 80.3665 244.177 80.2597 244.295 80.1155C244.424 79.9767 244.531 79.7845 244.617 79.5389L247.574 70.9747C247.574 70.964 247.574 70.948 247.574 70.9319C247.574 70.9052 247.558 70.8679 247.531 70.8252C247.515 70.7718 247.51 70.729 247.51 70.697C247.51 70.6703 247.515 70.6543 247.531 70.6543H249.674C249.674 70.6703 249.68 70.6757 249.696 70.6757C249.722 70.6757 249.739 70.6917 249.739 70.7184L252.868 79.4321C252.91 79.5763 252.953 79.6991 252.996 79.7952C253.039 79.8806 253.087 79.966 253.146 80.0515C253.216 80.1262 253.296 80.1956 253.382 80.265C253.478 80.3238 253.602 80.3825 253.746 80.4359C253.816 80.4786 253.907 80.5213 254.025 80.564C254.153 80.5961 254.266 80.6068 254.368 80.6068C254.395 80.6068 254.411 80.6174 254.411 80.6281C254.421 80.6441 254.432 80.6602 254.432 80.6708V80.9485C254.432 80.9645 254.421 80.9805 254.411 80.9912C254.411 81.0072 254.395 81.0125 254.368 81.0125H249.203C249.171 81.0125 249.149 81.0072 249.138 80.9912C249.138 80.9805 249.138 80.9645 249.138 80.9485V80.6708C249.138 80.6602 249.138 80.6441 249.138 80.6281C249.149 80.6174 249.171 80.6068 249.203 80.6068C249.214 80.6068 249.23 80.6068 249.246 80.6068C249.272 80.6068 249.294 80.6068 249.31 80.6068C249.364 80.5961 249.444 80.5854 249.546 80.5854C249.642 80.5854 249.749 80.5801 249.867 80.564C249.98 80.5534 250.092 80.532 250.21 80.5C250.339 80.4733 250.451 80.4359 250.553 80.3932C250.649 80.3398 250.73 80.265 250.789 80.1796C250.858 80.0942 250.896 79.9981 250.896 79.8806C250.896 79.8539 250.885 79.8165 250.874 79.7738L249.91 77.1255C249.91 77.1149 249.899 77.0935 249.889 77.0615C249.873 77.0187 249.851 76.9867 249.824 76.9547C249.792 76.912 249.76 76.8799 249.717 76.8479C249.674 76.8212 249.621 76.8052 249.567 76.8052H246.91C246.851 76.8052 246.792 76.8212 246.738 76.8479C246.695 76.8799 246.658 76.912 246.631 76.9547C246.599 76.9867 246.577 77.0187 246.567 77.0615C246.551 77.0935 246.545 77.1042 246.545 77.1042C246.385 77.5634 246.251 77.9531 246.138 78.2788C246.036 78.5938 245.951 78.8555 245.881 79.069C245.806 79.2719 245.752 79.4268 245.709 79.5389C245.667 79.6403 245.634 79.7204 245.624 79.7738C245.608 79.8326 245.602 79.8699 245.602 79.8806C245.602 79.8966 245.602 79.918 245.602 79.9447C245.602 79.9607 245.608 79.9767 245.624 79.9874C245.651 80.1049 245.715 80.201 245.817 80.2864C245.929 80.3718 246.052 80.4359 246.181 80.4786C246.32 80.5213 246.465 80.5587 246.61 80.5854C246.765 80.6014 246.899 80.6068 247.017 80.6068H247.188C247.215 80.6068 247.231 80.6174 247.231 80.6281C247.242 80.6441 247.253 80.6602 247.253 80.6708V80.9485C247.253 80.9645 247.242 80.9805 247.231 80.9912C247.231 81.0072 247.215 81.0125 247.188 81.0125H243.202C243.17 81.0125 243.159 80.9912 243.159 80.9485V80.6708ZM247.017 75.7587C247.001 75.7747 246.985 75.796 246.974 75.8227C246.974 75.8548 246.974 75.8761 246.974 75.8868C246.974 75.9189 246.979 75.9455 246.995 75.9722C247.022 75.9883 247.06 75.9936 247.103 75.9936H249.31C249.364 75.9936 249.401 75.9883 249.417 75.9722C249.428 75.9455 249.439 75.9189 249.439 75.8868C249.439 75.8601 249.428 75.8388 249.417 75.8227C249.417 75.796 249.417 75.7747 249.417 75.7587L248.431 73.0677C248.399 72.9983 248.356 72.9502 248.303 72.9182C248.26 72.8915 248.222 72.8754 248.196 72.8754C248.153 72.8754 248.099 72.8968 248.046 72.9395C248.003 72.9716 247.965 73.0143 247.938 73.0677L247.017 75.7587Z" fill="white"/>
<path d="M260.127 81.012C260.095 81.012 260.073 81.0067 260.062 80.9907C260.062 80.98 260.062 80.964 260.062 80.948V80.6276C260.062 80.6276 260.062 80.6223 260.062 80.6063C260.073 80.5956 260.095 80.5849 260.127 80.5849H260.298C260.395 80.5849 260.518 80.5796 260.663 80.5635C260.818 80.5529 260.968 80.5155 261.113 80.4567C261.252 80.4034 261.375 80.3179 261.477 80.2005C261.573 80.0883 261.627 79.9335 261.627 79.7306V71.8925C261.627 71.7537 261.589 71.6309 261.52 71.5294C261.461 71.4173 261.381 71.3319 261.284 71.2731C261.182 71.2037 261.07 71.1557 260.941 71.1236C260.823 71.097 260.711 71.0809 260.598 71.0809H260.127C260.095 71.0809 260.073 71.0756 260.062 71.0596C260.062 71.0329 260.062 71.0169 260.062 71.0169V70.6965C260.062 70.6965 260.062 70.6912 260.062 70.6751C260.073 70.6484 260.095 70.6324 260.127 70.6324H260.298L263.32 70.5897C263.604 70.5897 263.909 70.5897 264.242 70.5897C264.568 70.579 264.874 70.5684 265.163 70.5684C265.474 70.5684 265.752 70.579 265.999 70.5897C266.24 70.5897 266.476 70.6057 266.706 70.6324C266.931 70.6484 267.162 70.6751 267.392 70.7179C267.617 70.7499 267.874 70.7926 268.164 70.846C268.705 70.9635 269.214 71.177 269.685 71.4867C270.157 71.7857 270.564 72.1488 270.907 72.5759C271.25 73.0031 271.512 73.4836 271.7 74.0069C271.898 74.5355 272 75.0694 272 75.6087C272 76.1373 271.919 76.6445 271.764 77.125C271.619 77.5949 271.421 78.0327 271.164 78.4278C270.907 78.8283 270.591 79.1913 270.221 79.517C269.862 79.8321 269.471 80.1044 269.042 80.3286C268.614 80.5422 268.153 80.713 267.671 80.8412C267.183 80.9586 266.685 81.012 266.17 81.012H260.127ZM263.727 79.8801C263.727 80.0243 263.77 80.1364 263.856 80.2218C263.952 80.2966 264.075 80.35 264.22 80.3927C264.376 80.4247 264.552 80.4461 264.756 80.4567C264.954 80.4567 265.168 80.4567 265.399 80.4567C266.856 80.4567 267.949 80.0616 268.678 79.2607C269.407 78.4492 269.771 77.2745 269.771 75.7368C269.771 75.0534 269.685 74.434 269.514 73.8787C269.353 73.3128 269.106 72.8269 268.764 72.4264C268.431 72.0153 268.013 71.7003 267.499 71.4867C266.996 71.2625 266.395 71.145 265.699 71.145H263.92C263.845 71.145 263.797 71.161 263.77 71.1877C263.738 71.2198 263.727 71.2678 263.727 71.3372V79.8801Z" fill="white"/>
<path d="M91.0184 94.168C91.8863 94.168 92.6739 94.3976 93.3758 94.8514L92.9043 95.8552C92.2185 95.4441 91.5595 95.2358 90.9327 95.2358C90.5898 95.2358 90.3165 95.2999 90.1183 95.428C89.9307 95.5455 89.8397 95.7164 89.8397 95.9406C89.8397 96.1542 89.9254 96.3411 90.0968 96.4959C90.279 96.6561 90.5094 96.7735 90.7826 96.859C91.0505 96.9337 91.3452 97.0245 91.6613 97.1366C91.9721 97.2381 92.2614 97.3502 92.5186 97.4783C92.7865 97.6065 93.0115 97.8094 93.1829 98.0763C93.3651 98.3326 93.4615 98.6476 93.4615 99.0161C93.4615 99.6141 93.2258 100.095 92.7543 100.447C92.2828 100.789 91.672 100.96 90.9327 100.96C90.4183 100.96 89.9147 100.869 89.4325 100.682C88.961 100.484 88.5431 100.223 88.1895 99.8917L88.6609 98.9093C89.0038 99.2243 89.3735 99.4646 89.7754 99.6354C90.1879 99.8063 90.579 99.8917 90.9541 99.8917C91.3398 99.8917 91.6399 99.8223 91.8542 99.6781C92.0792 99.5393 92.1971 99.3364 92.1971 99.0801C92.1971 98.8559 92.1007 98.6637 91.9185 98.5035C91.747 98.3486 91.522 98.2365 91.2541 98.1618C90.9969 98.0924 90.7076 98.0069 90.3969 97.9055C90.0808 97.7934 89.7861 97.6812 89.5182 97.5638C89.2449 97.4356 89.0146 97.2434 88.8324 96.9871C88.6609 96.7308 88.5752 96.4212 88.5752 96.0474C88.5752 95.4814 88.7949 95.0223 89.2396 94.6805C89.695 94.3388 90.2897 94.168 91.0184 94.168Z" fill="white"/>
<path d="M102.73 95.2361H100.608V100.917H99.4723V95.2361H97.3506V94.2109H102.73V95.2361Z" fill="white"/>
<path d="M112.785 94.2109V98.1407C112.785 99.011 112.517 99.6997 111.992 100.212C111.478 100.714 110.76 100.96 109.849 100.96C108.949 100.96 108.231 100.714 107.706 100.212C107.192 99.6997 106.935 99.011 106.935 98.1407V94.2109H108.07V98.1407C108.07 98.712 108.226 99.1605 108.542 99.4862C108.869 99.8012 109.313 99.956 109.871 99.956C110.428 99.956 110.862 99.8012 111.178 99.4862C111.489 99.1605 111.649 98.712 111.649 98.1407V94.2109H112.785Z" fill="white"/>
<path d="M117.759 94.2109H120.523C121.52 94.2109 122.35 94.5313 123.009 95.172C123.663 95.802 123.995 96.5976 123.995 97.564C123.995 98.5358 123.663 99.3367 123.009 99.9774C122.35 100.607 121.509 100.917 120.481 100.917H117.759V94.2109ZM118.895 95.2361V99.9133H120.545C121.199 99.9133 121.75 99.6944 122.195 99.2512C122.634 98.8134 122.859 98.2581 122.859 97.5854C122.859 96.9019 122.629 96.3413 122.174 95.8982C121.713 95.4603 121.156 95.2361 120.502 95.2361H118.895Z" fill="white"/>
<path d="M133.36 95.2361H129.695V97.0514H132.974V98.0552H129.695V99.9133H133.489V100.917H128.56V94.2109H133.36V95.2361Z" fill="white"/>
<path d="M144.048 100.917H142.934L139.355 96.1117V100.917H138.219V94.2109H139.333L142.934 99.0377V94.2109H144.048V100.917Z" fill="white"/>
<path d="M153.77 95.2361H151.648V100.917H150.512V95.2361H148.391V94.2109H153.77V95.2361Z" fill="white"/>
<path d="M166.148 94.168C167.016 94.168 167.804 94.3976 168.506 94.8514L168.034 95.8552C167.348 95.4441 166.689 95.2358 166.063 95.2358C165.72 95.2358 165.446 95.2999 165.248 95.428C165.061 95.5455 164.97 95.7164 164.97 95.9406C164.97 96.1542 165.055 96.3411 165.227 96.4959C165.409 96.6561 165.639 96.7735 165.913 96.859C166.18 96.9337 166.475 97.0245 166.791 97.1366C167.102 97.2381 167.391 97.3502 167.648 97.4783C167.916 97.6065 168.141 97.8094 168.313 98.0763C168.495 98.3326 168.591 98.6476 168.591 99.0161C168.591 99.6141 168.356 100.095 167.884 100.447C167.413 100.789 166.802 100.96 166.063 100.96C165.548 100.96 165.045 100.869 164.562 100.682C164.091 100.484 163.673 100.223 163.319 99.8917L163.791 98.9093C164.134 99.2243 164.503 99.4646 164.905 99.6354C165.318 99.8063 165.709 99.8917 166.084 99.8917C166.47 99.8917 166.77 99.8223 166.984 99.6781C167.209 99.5393 167.327 99.3364 167.327 99.0801C167.327 98.8559 167.231 98.6637 167.048 98.5035C166.877 98.3486 166.652 98.2365 166.384 98.1618C166.127 98.0924 165.838 98.0069 165.527 97.9055C165.211 97.7934 164.916 97.6812 164.648 97.5638C164.375 97.4356 164.144 97.2434 163.962 96.9871C163.791 96.7308 163.705 96.4212 163.705 96.0474C163.705 95.4814 163.925 95.0223 164.369 94.6805C164.825 94.3388 165.42 94.168 166.148 94.168Z" fill="white"/>
<path d="M178.073 95.2361H174.408V97.0514H177.687V98.0552H174.408V99.9133H178.202V100.917H173.272V94.2109H178.073V95.2361Z" fill="white"/>
<path d="M187.196 100.917L185.975 98.8882C185.9 98.8882 185.793 98.8882 185.653 98.8882H184.067V100.917H182.932V94.2109H185.653C186.511 94.2109 187.175 94.4138 187.647 94.8089C188.129 95.2094 188.375 95.77 188.375 96.4962C188.375 97.0408 188.252 97.4946 188.011 97.863C187.764 98.2368 187.421 98.5037 186.982 98.6746L188.482 100.917H187.196ZM184.067 97.8844H185.653C186.752 97.8844 187.304 97.4359 187.304 96.5389C187.304 95.6739 186.752 95.2361 185.653 95.2361H184.067V97.8844Z" fill="white"/>
<path d="M196.235 100.917H195.056L192.377 94.2109H193.599L195.677 99.657L197.778 94.2109H198.956L196.235 100.917Z" fill="white"/>
<path d="M204.355 100.917H203.219V94.2109H204.355V100.917Z" fill="white"/>
<path d="M212.458 94.1895C212.93 94.1895 213.385 94.2856 213.83 94.4671C214.285 94.654 214.676 94.9049 215.008 95.2146L214.344 96.0475C214.098 95.7912 213.814 95.5884 213.487 95.4282C213.155 95.2733 212.822 95.1932 212.479 95.1932C211.804 95.1932 211.236 95.4228 210.765 95.8767C210.304 96.3359 210.079 96.8911 210.079 97.5425C210.079 98.2153 210.304 98.7759 210.765 99.2298C211.236 99.6889 211.804 99.9132 212.479 99.9132C213.176 99.9132 213.797 99.6516 214.344 99.123L215.03 99.8705C214.687 100.202 214.28 100.463 213.808 100.661C213.347 100.864 212.887 100.96 212.415 100.96C211.429 100.96 210.599 100.634 209.929 99.9773C209.254 99.3259 208.922 98.5196 208.922 97.5639C208.922 96.6135 209.265 95.8126 209.951 95.1719C210.636 94.5205 211.472 94.1895 212.458 94.1895Z" fill="white"/>
<path d="M224.332 95.2361H220.667V97.0514H223.946V98.0552H220.667V99.9133H224.46V100.917H219.531V94.2109H224.332V95.2361Z" fill="white"/>
<path d="M231.398 94.168C232.266 94.168 233.054 94.3976 233.756 94.8514L233.284 95.8552C232.598 95.4441 231.939 95.2358 231.313 95.2358C230.97 95.2358 230.696 95.2999 230.498 95.428C230.311 95.5455 230.22 95.7164 230.22 95.9406C230.22 96.1542 230.305 96.3411 230.477 96.4959C230.659 96.6561 230.889 96.7735 231.163 96.859C231.43 96.9337 231.725 97.0245 232.041 97.1366C232.352 97.2381 232.641 97.3502 232.898 97.4783C233.166 97.6065 233.391 97.8094 233.563 98.0763C233.745 98.3326 233.841 98.6476 233.841 99.0161C233.841 99.6141 233.606 100.095 233.134 100.447C232.663 100.789 232.052 100.96 231.313 100.96C230.798 100.96 230.295 100.869 229.812 100.682C229.341 100.484 228.923 100.223 228.569 99.8917L229.041 98.9093C229.384 99.2243 229.753 99.4646 230.155 99.6354C230.568 99.8063 230.959 99.8917 231.334 99.8917C231.72 99.8917 232.02 99.8223 232.234 99.6781C232.459 99.5393 232.577 99.3364 232.577 99.0801C232.577 98.8559 232.481 98.6637 232.298 98.5035C232.127 98.3486 231.902 98.2365 231.634 98.1618C231.377 98.0924 231.088 98.0069 230.777 97.9055C230.461 97.7934 230.166 97.6812 229.898 97.5638C229.625 97.4356 229.394 97.2434 229.212 96.9871C229.041 96.7308 228.955 96.4212 228.955 96.0474C228.955 95.4814 229.175 95.0223 229.619 94.6805C230.075 94.3388 230.67 94.168 231.398 94.168Z" fill="white"/>
</svg>
